<?xml version="1.0" encoding="utf-8"?>
<!-- Generator: Adobe Illustrator 23.0.3, SVG Export Plug-In . SVG Version: 6.00 Build 0)  -->
<svg version="1.1" id="Capa_1" xmlns="http://www.w3.org/2000/svg" xmlns:xlink="http://www.w3.org/1999/xlink" x="0px" y="0px"
	 viewBox="0 0 263.16 292.69" style="enable-background:new 0 0 263.16 292.69;" xml:space="preserve">
<style type="text/css">
	.st0{fill:#36A9E1;}
	.st1{fill:#1D71B8;}
	.st2{fill:#009FE3;}
	.st3{fill:#2D2E83;}
</style>
<g id="Grupo_14870" transform="translate(-41.985 -1268.73)">
	
		<ellipse id="Elipse_56" transform="matrix(0.7071 -0.7071 0.7071 0.7071 -1056.2574 540.827)" class="st0" cx="124.71" cy="1545.43" rx="4.84" ry="5.4"/>
	<path id="Trazado_6884" class="st1" d="M65.89,1273.24h-1.36v-1.36c0-0.75-0.6-1.35-1.35-1.35c0,0,0,0,0,0l0,0
		c-0.75,0-1.35,0.6-1.35,1.35c0,0,0,0,0,0v1.36h-1.36c-0.75,0-1.35,0.6-1.36,1.35c0,0.75,0.6,1.35,1.35,1.36c0,0,0,0,0.01,0h1.36
		v1.36c0,0.75,0.61,1.35,1.35,1.35l0,0l0,0c0.75,0,1.35-0.6,1.35-1.35c0,0,0,0,0,0v-1.36h1.36c0.75,0,1.35-0.61,1.35-1.36
		C67.24,1273.85,66.63,1273.24,65.89,1273.24L65.89,1273.24z"/>
	<circle id="Elipse_55" class="st2" cx="44.61" cy="1558.8" r="2.62"/>
</g>
<g id="Grupo_14871" transform="translate(304 1539.722) rotate(180)">
	
		<ellipse id="Elipse_56-2" transform="matrix(0.7071 -0.7071 0.7071 0.7071 -1036.5676 526.7253)" class="st1" cx="117.53" cy="1514.61" rx="4.36" ry="4.86"/>
	<path id="Trazado_6884-2" class="st1" d="M64.53,1269.37h-1.23v-1.22c0-0.67-0.55-1.22-1.22-1.22l0,0c-0.67,0-1.22,0.55-1.22,1.22
		v1.22h-1.22c-0.67,0-1.22,0.54-1.22,1.22s0.54,1.22,1.22,1.22c0,0,0.01,0,0.01,0h1.22v1.22c0,0.67,0.55,1.22,1.22,1.22l0,0
		c0.67,0,1.22-0.55,1.22-1.22v-1.22h1.22c0.67,0,1.22-0.54,1.22-1.22S65.21,1269.37,64.53,1269.37
		C64.54,1269.37,64.54,1269.37,64.53,1269.37L64.53,1269.37z"/>
	<circle id="Elipse_55-2" class="st3" cx="45.36" cy="1526.65" r="2.36"/>
</g>
</svg>
