<?xml version="1.0" encoding="utf-8"?>
<!-- Generator: Adobe Illustrator 23.0.3, SVG Export Plug-In . SVG Version: 6.00 Build 0)  -->
<svg version="1.1" id="Capa_1" xmlns="http://www.w3.org/2000/svg" xmlns:xlink="http://www.w3.org/1999/xlink" x="0px" y="0px"
	 viewBox="0 0 306 141" style="enable-background:new 0 0 306 141;" xml:space="preserve">
<style type="text/css">
	.st0{fill:#E5E9FF;}
	.st1{fill:#F5C5B3;}
	.st2{fill:#42B2FC;}
	.st3{fill:#FEC4AD;}
	.st4{fill:#E8D4E5;}
	.st5{fill:#7B2B1A;}
	.st6{fill:#133A50;}
	.st7{fill:#FFFFFF;}
	.st8{fill:none;stroke:#FFFFFF;stroke-width:2;stroke-miterlimit:10;}
	.st9{fill:#4FAE86;}
	.st10{fill:#319188;}
	.st11{fill:none;stroke:#194459;stroke-miterlimit:10;}
	.st12{fill:none;stroke:#FFFFFF;stroke-miterlimit:10;}
	.st13{fill:#21295B;}
	.st14{fill:#FF3A46;}
	.st15{fill:#CFCFCF;}
	.st16{fill:#B3B3B3;}
	.st17{fill:#D6313B;}
	.st18{clip-path:url(#SVGID_2_);}
	.st19{fill:#FFD71D;}
	.st20{opacity:0.7;fill:url(#Trazado_10092_1_);enable-background:new    ;}
	.st21{fill:url(#Trazado_10093_1_);}
	.st22{opacity:0.7;fill:#FFDD00;enable-background:new    ;}
	.st23{fill:url(#Trazado_10108_1_);}
	.st24{fill:url(#Trazado_10109_1_);}
	.st25{fill:#471A16;}
</style>
<g>
	<g id="Grupo_10476" transform="translate(193.648 126.472)">
		<path id="Trazado_5960" class="st0" d="M15.17-63.53h44.07c-3.13-0.02-6.14,1.23-8.35,3.45c-2.21,2.08-3.47,4.99-3.47,8.02
			c0,6.36,5.15,11.51,11.51,11.52c0.1,0,0.2,0,0.3,0H15.17c6.17,0.34,11.44-4.38,11.79-10.54c0.01-0.25,0.02-0.5,0.02-0.75
			c0.02-6.44-5.18-11.68-11.62-11.7C15.3-63.53,15.23-63.53,15.17-63.53z"/>
	</g>
	<g>
		<g id="Grupo_10478" transform="translate(34.214 171.577)">
			<path id="Trazado_5962" class="st0" d="M45.66-70.3h44.52c3.63,0,6.57,2.94,6.57,6.57l0,0l0,0c0,3.63-2.94,6.57-6.57,6.57H45.66
				c-3.63,0-6.57-2.94-6.57-6.57l0,0C39.09-67.36,42.03-70.3,45.66-70.3L45.66-70.3z"/>
		</g>
		<g id="Grupo_10479" transform="translate(47.639 201.946)">
			<path id="Trazado_5963" class="st0" d="M41.33-74.85H93.5c2.35,0,4.26,1.91,4.26,4.26l0,0l0,0c0,2.35-1.91,4.26-4.26,4.26l0,0
				H41.33c-2.35,0-4.26-1.91-4.26-4.26l0,0l0,0C37.07-72.95,38.98-74.85,41.33-74.85L41.33-74.85z"/>
		</g>
		<g id="Grupo_10481" transform="translate(164.117 182.323)">
			<path id="Trazado_5964" class="st0" d="M26.59-71.92h38.77c3.86,0,6.99,3.13,6.99,6.99l0,0l0,0c0,3.86-3.13,6.99-6.99,6.99H26.59
				c-3.86,0-6.99-3.13-6.99-6.99l0,0C19.6-68.79,22.73-71.92,26.59-71.92L26.59-71.92z"/>
		</g>
		<g id="Grupo_10482" transform="translate(60.037 186.811)">
			<path id="Trazado_5965" class="st0" d="M35.21-72.59h24.53c-1.75,0.02-3.43,0.73-4.65,1.99c-1.23,1.16-1.93,2.77-1.93,4.47
				c0,3.54,2.88,6.41,6.42,6.41c0.05,0,0.11,0,0.16,0H35.21c1.71,0.09,3.39-0.52,4.65-1.68c2.56-2.55,2.57-6.69,0.02-9.26
				C38.65-71.9,36.97-72.59,35.21-72.59z"/>
		</g>
		<g id="Grupo_10484" transform="translate(137.691 153.446)">
			<path id="Trazado_5967" class="st0" d="M31.22-67.58h93.71c4.22,0,7.65,3.43,7.65,7.65l0,0c0,4.22-3.43,7.65-7.65,7.65H31.22
				c-4.22,0-7.65-3.43-7.65-7.65l0,0l0,0C23.57-64.16,27-67.58,31.22-67.58z"/>
		</g>
		<g id="Grupo_10486" transform="translate(0 129.384)">
			<path id="Trazado_5969" class="st0" d="M169.43-27.74H62.33c-10,0-18.11-8.11-18.11-18.11l0,0c0-10,8.11-18.11,18.11-18.11h107.1
				c10,0,18.11,8.11,18.11,18.11l0,0C187.55-35.85,179.44-27.74,169.43-27.74z"/>
		</g>
	</g>
	<g>
		<path class="st0" d="M0,0.01v58.81c34.73-30.46,73.28-27.73,73.28-27.73c30.96,0,67.16,14.6,91.78,30.18
			c24.63,15.58,56.62,30.32,90.09,30.32c33.46,0,50.85-9.1,50.85-9.1V0.01H0z"/>
	</g>
	<g>
		<path class="st0" d="M88.41,0.01C77.4,14.38,70.86,32.34,70.86,51.82c0,47.22,38.42,85.5,85.8,85.5s85.8-38.28,85.8-85.5
			c0-19.48-6.54-37.44-17.55-51.82H88.41V0.01z"/>
	</g>
</g>
<g id="Grupo_15612" transform="translate(-0.822 -5.186)">
	<g id="Grupo_15584" transform="translate(109.003 90.395)">
		<g id="Grupo_15578">
			<path id="Trazado_10044" class="st1" d="M-13.37-46c0.5-0.24,0.98-0.52,1.45-0.82l0.62-0.96c0,0,0.61-0.39,1.04-0.6
				c0.49-0.43,0.91-0.94,1.23-1.51l-0.32-0.4c-0.18,0.23-0.39,0.45-0.61,0.65c-0.15,0.05-0.31,0.06-0.46,0.02
				c0.1-0.33,0.21-0.66,0.35-0.98c0.28-0.53,0.61-1.04,0.98-1.51l-0.28-0.29c-0.21,0.2-0.42,0.41-0.61,0.63
				c-0.16,0.21-0.47,0.66-0.47,0.66c0.15-0.37,0.32-0.73,0.52-1.08c0.2-0.29,0.41-0.69,0.41-0.69l-0.32-0.22
				c-0.21,0.26-0.4,0.53-0.57,0.81c-0.19,0.35-0.55,0.93-0.55,0.93c0.12-0.39,0.25-0.77,0.41-1.14c0.07-0.13,0.13-0.25,0.19-0.39
				l-0.38-0.13c-0.19,0.24-0.34,0.52-0.45,0.81c-0.08,0.23-0.18,0.45-0.29,0.67c0.04-0.33,0.12-0.65,0.24-0.97
				c0.06-0.09,0.11-0.2,0.13-0.31l-0.31-0.06c0,0-0.59,1.1-0.91,1.78c-0.31,0.68-0.56,1.6-0.73,2.09c-0.18,0.72-0.31,1.45-0.41,2.19
				L-13.37-46z"/>
			<path id="Trazado_10045" class="st2" d="M-4.2-39.49l-7.53-1.3c-0.13-1.28-0.15-2.57-0.08-3.86c0-0.98,0.14-1.95,0.41-2.88
				l-2.02-0.28c0,0-0.4,1.78-0.69,3.05c-0.63,2.83-1.21,5.48-0.73,6.07c0.7,0.86,6.97,2.6,9.11,4.21
				C-4.44-33.52-4.51-36.62-4.2-39.49z"/>
		</g>
		<path id="Trazado_10046" class="st3" d="M6.47-18.08l-0.38,2.6l0.79,1.78l0.58-0.78l0.13-1.46l0.85,0.13l0.42-0.52l-0.04-1.09
			l-0.14-2.97L6.47-18.08z"/>
		<path id="Trazado_10047" class="st2" d="M5.95-37.94c-0.82-0.13-1.65-0.15-2.48-0.07c-0.09,1.22,0.11,2.45,0.59,3.58
			c0.77,1.56,2.68,7.25,2.92,7.78c0.24,0.53-0.51,8.56-0.51,8.56l2.77-0.57c0.58-2.56,1.02-5.15,1.32-7.76
			c-0.39-3.22-1.24-6.36-2.53-9.34C6.99-37.63,7.35-37.42,5.95-37.94z"/>
		<path id="Trazado_10048" class="st3" d="M1.39-43.72c0,0-0.61,2.67-0.13,3.29c0.28,0.36,1.46,1.66,1.46,1.66S-1.2-36.7-2.35-36.7
			s-0.75-2.31-0.75-2.31S-1.84-40-1.66-40.5c0.15-0.64,0.25-1.3,0.29-1.96L1.39-43.72z"/>
		<g id="Grupo_15582" transform="translate(12.693 4.346)">
			<g id="Grupo_15579" transform="translate(6.196 5.266)">
				<path id="Trazado_10049" class="st1" d="M-17.04-53.24c0,0-0.04-0.97,0.77-0.95c0.52,0.02,0.56,0.49,0.16,1.11
					c-0.17,0.26-0.19,0.84-0.4,1.03c-0.26,0.23-0.47-0.12-0.55-0.29C-17.13-52.63-17.12-52.94-17.04-53.24z"/>
			</g>
			<g id="Grupo_15580" transform="translate(0 5.266)">
				<path id="Trazado_10050" class="st1" d="M-15.23-53.24c0,0,0.05-0.97-0.77-0.95c-0.52,0.02-0.56,0.49-0.16,1.11
					c0.17,0.26,0.19,0.84,0.4,1.03c0.26,0.23,0.47-0.12,0.55-0.29C-15.14-52.63-15.15-52.94-15.23-53.24z"/>
			</g>
			<path id="Trazado_10051" class="st1" d="M-10.02-50.35c-0.04,0.33-0.09,0.66-0.16,0.99c-0.02,0.11-0.04,0.24-0.06,0.39
				c-0.17,1.17-0.38,2.76-0.47,2.99c-0.36,0.52-0.83,0.95-1.38,1.26c-0.58,0.22-1.22,0.2-1.79-0.05c-0.4-0.23-1.29-0.82-1.44-1.21
				c-0.09-0.24-0.31-1.87-0.48-3.06c-0.02-0.14-0.04-0.25-0.06-0.36c-0.07-0.32-0.12-0.63-0.16-0.96c-0.06-0.99,1.05-2.42,3.01-2.42
				C-10.71-52.77-9.96-51.34-10.02-50.35z"/>
			<path id="Trazado_10052" class="st4" d="M-15.05-51.59c1.17-0.43,2.46-0.39,3.59,0.13l0.69-0.44c-0.77-0.35-1.61-0.53-2.45-0.52
				C-14.68-52.41-15.05-51.59-15.05-51.59z"/>
			<g id="Grupo_15581" transform="translate(0.629 4.463)">
				<path id="Trazado_10053" class="st5" d="M-10.81-53.82c-0.02,0.11-0.04,0.24-0.06,0.39c-0.17,1.17-0.38,2.76-0.47,2.99
					c-0.36,0.52-0.83,0.95-1.38,1.26c-0.58,0.22-1.22,0.2-1.79-0.05c-0.4-0.23-1.29-0.82-1.44-1.21c-0.09-0.24-0.31-1.87-0.48-3.06
					c-0.02-0.14-0.04-0.25-0.06-0.36l0.16-0.24c0.12,0.78,0.36,1.52,0.73,2.22c0.44,0.52,0.53,0.55,0.53,0.55l0.9-0.22l0.07-0.02
					c0.35-0.09,0.71-0.08,1.05,0.01l0.06,0.02l0.07,0.02l0.68,0.2c0,0,0.16-0.02,0.6-0.55c0.35-0.69,0.58-1.44,0.65-2.22
					L-10.81-53.82z"/>
			</g>
			<path id="Trazado_10054" class="st5" d="M-9.88-50.98c-0.01,0.03-0.17,1.18-0.23,1.37c-0.1,0.28-0.18,0.48-0.18,0.48l-0.12-0.26
				c-0.22-0.48-0.34-1-0.35-1.52l-0.02-0.99l0.33-0.29C-9.8-52.1-9.73-51.72-9.88-50.98z"/>
			<path id="Trazado_10055" class="st5" d="M-15.01-51.85L-15.01-51.85l-0.16,1.02c-0.07,0.47-0.23,0.93-0.47,1.34l-0.01,0.02
				l-0.18,0.31c0,0-0.05-0.18-0.13-0.43c-0.05-0.19-0.19-1.16-0.22-1.29c-0.01-0.04-0.02-0.08-0.03-0.12
				c-0.14-0.72,0-1.03,0.64-1.12L-15.01-51.85z"/>
			<path id="Trazado_10056" class="st5" d="M-10.45-52.19l-0.33,0.29l-0.62,0.22c-0.7-0.3-1.45-0.43-2.21-0.4
				c-1.26,0.1-1.42,0.46-1.44,0.48l0,0l-0.13-0.03l-0.62-0.14l-0.13-0.03c0.06-0.24,0.14-0.47,0.25-0.7
				c0.78-0.85,1.92-1.26,3.06-1.1c0.04,0,0.08,0.01,0.12,0.01c0.61,0.05,1.19,0.29,1.66,0.69L-10.45-52.19z"/>
		</g>
		<path id="Trazado_10057" class="st6" d="M5.3,15.47v2.44H0.6c0,0,0.18-0.89,2.4-1.29l0.33-1.15C3.33,15.47,5.3,15.47,5.3,15.47z"
			/>
		<path id="Trazado_10058" class="st6" d="M-1.84,15.47v2.44h-4.7c0,0,0.18-0.89,2.4-1.29l0.33-1.15
			C-3.81,15.47-1.84,15.47-1.84,15.47z"/>
		<path id="Trazado_10059" class="st6" d="M4.51-20.91c0,0,0.66,7.87,0.68,14.29S5.6,16.03,5.6,16.03H3.01
			c0,0-2.67-15.59-3.64-19.71s-3.5-17.15-3.5-17.15L4.51-20.91z"/>
		<path id="Trazado_10060" class="st6" d="M-1.12-12.45c0,0-0.49,9.78-0.58,11.71c-0.1,1.93,0,16.77,0,16.77s-2.43,0.06-2.43,0
			c0-0.06-2.29-15.81-2.59-20.55c-0.3-4.75-0.12-10.37-0.52-11.03c-0.39-0.66,1.07-5.32,1.07-5.32l3.44,0.92L-1.12-12.45z"/>
		<path id="Trazado_10061" class="st7" d="M-2.18-39.9c0,0-1.08,2.44,0.54,2.71c2.58,0.43,3.36-2.87,3.36-2.87l2.84,1.46
			c0,0-0.05,17.69,1.07,23.09c0.65,3.14-10.14,1.64-11.72-1.14C-7.46-19.06-3.5-39.07-3.5-39.07L-2.18-39.9z"/>
		<path id="Trazado_10062" class="st2" d="M2.39-39.75C2.31-39.64-1.5-28.49-0.2-17.99c0.3,2.45,4.77,0.42,5.83,0.42
			c0,0,0.51-7.83,0.63-10.75S5-32.19,5.12-33.62c0.12-1.43,1.67-3.97,1.67-3.97L2.39-39.75z"/>
		<g id="Grupo_15583" transform="translate(8.499 15.155)">
			<path id="Trazado_10063" class="st2" d="M-12.48-32.04c0.44-7.3,0.61-22.58,0.61-22.58l-2.58-0.19c0,0-1.29,12.81-1.31,14.27
				c-0.01,0.58,0.17,7.62-0.22,8.93C-15.1-31.47-12.53-31.16-12.48-32.04z"/>
		</g>
	</g>
	<path id="Trazado_10064" class="st8" d="M133.07,46.67c-2.07,0.56-4.01,1.52-5.7,2.83c-1.61,1.41-2.64,3.69-1.96,5.72
		c0.68,2.03,3.49,3.21,5.12,1.82c0.63-0.48,0.88-1.3,0.63-2.05c-0.62-1.38-2.79-0.74-3.8,0.39c-1.27,1.32-1.88,3.13-1.67,4.95
		c0.28,1.84,1.79,3.24,3.65,3.37c1.8,0,4.37-2.72,2.82-3.65c-1.96-1.18-4.47,1.63-5.44,3.71c-1.02,2.14-0.34,4.69,1.61,6.04
		c1.97,1.17,6.58-0.31,5.37-2.25c-1.28-2.05-5.05,0.91-5.56,3.27c-0.41,2.48,1.26,4.83,3.74,5.24c0,0,0,0,0.01,0
		c2.4,0.29,6.56-2.44,4.9-4.2c-2.4-2.54-6.4,3.92-5.24,7.22c1.16,3.3,5.93,4.61,8.6,2.37c0.55-0.38,0.87-1,0.86-1.67
		c-0.15-1.08-1.63-1.38-2.67-1.04c-2.39,0.8-3.68,3.38-2.88,5.76c0.8,2.39,3.38,3.68,5.76,2.88c0.88-0.29,1.64-0.84,2.2-1.58
		c0.37-0.42,0.54-0.98,0.47-1.54c-0.25-0.76-1.04-1.21-1.82-1.04c-0.76,0.2-1.41,0.68-1.81,1.36c-1.71,2.53-1.05,5.98,1.49,7.69
		c2.25,1.52,5.27,1.19,7.13-0.78c0.54-0.48,0.83-1.2,0.77-1.92c-0.22-0.83-0.99-1.38-1.85-1.34c-0.84,0.07-1.61,0.46-2.16,1.09
		c-2.41,2.51-1.38,7.36,1.84,8.67c3.23,1.31,9.62-2.29,7.36-4.94c-1.51-1.77-4.5,2.05-4.11,4.35c0.55,2.35,2.89,3.82,5.25,3.27
		c0.01,0,0.01,0,0.02-0.01c2.25-0.59,5.21-3.82,3.47-5.36c-1.23-1.09-3.22,1.22-3.6,2.82c-0.35,1.66,0.44,3.35,1.95,4.13
		c1.59,0.78,3.53,0.31,5.07-0.58c1.53-0.89,2.8-2.17,4.27-3.16c3-1.99,6.68-2.68,10.2-1.91"/>
	<g id="Grupo_15589" transform="translate(212.331 112.669)">
		<path id="Trazado_10065" class="st9" d="M22.74-55.47C19.46-57.56-9.72-32.95-8.65-13.51c0,0,5.68-7.67,10.63-11.41
			s5.44-7.65,5.42-11.53c-0.01-3.88,7.4-2.28,8.23-6.58C17.12-50.64,25.68-53.58,22.74-55.47z"/>
		<g id="Grupo_15586" transform="translate(19.118 5.468)">
			<g id="Grupo_15585" transform="translate(0.644)">
				<path id="Trazado_10066" class="st10" d="M4.89-42.83c-4.71,2.86-3.33,6.67-6.11,8.89c-2.02,1.62-5.4,0.77-7.08,2.97
					c-1.9,2.48,0.26,5.9,0.42,8.89c0.22,4.13-3.47,7.23-7.21,8.48c-4.35,1.46-9.98,1-12.36-3.32c-2.81-5.1-0.71-12.8,4.22-15.19
					c1.2-0.58,2.72-0.74,3.7-1.92c1.65-1.99,0.59-4.85,1.36-7.38c0.74-2.47,3.18-4.2,5.43-4.97S-8.2-47.3-6-48.19
					c2.99-1.21,5.61-3.88,8.1-5.68c2.22-1.61,10.02-4.62,11.28,0.65C14.53-48.43,8.85-45.23,4.89-42.83z"/>
			</g>
			<path id="Trazado_10067" class="st11" d="M6.02-50.5c0,0-19.27,9.69-34.65,40.94"/>
		</g>
		<path id="Trazado_10068" class="st12" d="M36.78-30.43c0,0-24.78-0.28-45.37,23.34"/>
		<g id="Grupo_15588" transform="translate(21.217 33.647)">
			<g id="Grupo_15587" transform="translate(4.301)">
				<path id="Trazado_10069" class="st9" d="M-1.02-53.03c-2.36,0.94-3,4.93-5.55,5.43c-1.85,0.37-3.82-1.27-5.63-0.42
					c-2.04,0.96-1.68,3.83-2.51,5.78c-1.15,2.7-4.57,3.46-7.45,3.04c-3.34-0.49-6.93-2.62-7.16-6.14c-0.27-4.16,3.55-8.36,7.57-8.27
					c0.98,0.02,2.04,0.42,3.06-0.01c1.72-0.72,1.91-2.89,3.22-4.25c1.27-1.32,3.43-1.63,5.16-1.38s3.3,0.89,5.04,1.04
					c2.37,0.2,4.94-0.64,7.16-0.97c1.98-0.3,10.06-0.14,7.29,4.09C7.25-52.16,2.12-54.29-1.02-53.03z"/>
			</g>
			<path id="Trazado_10070" class="st11" d="M8.37-56.93c0,0-17.21,1.46-37.23,16.29"/>
		</g>
		<path id="Trazado_10071" class="st10" d="M-26.5-4.78c0,0,3.92-6.86,4.56-7.56c4.03-4.46,9.37-4.51,14.82-3.38
			c1.57,0.33,5.74,2.52,7.26,2.21c1.18-0.24,2.59-4.71,6.36-4.48s4,4.71,4,4.71s2.36-5.2,6.13-4.72s3.77,3.99,0.94,6.6
			c3.95-1.01,8.12-0.67,11.84,0.99c5.83,2.79,3.05,6.46,3.05,6.46L-26.5-4.78z"/>
	</g>
	<g id="Grupo_15594" transform="translate(78.612 112.669)">
		<path id="Trazado_10072" class="st9" d="M2.4-55.47c3.27-2.09,32.46,22.51,31.39,41.96c0,0-5.68-7.67-10.63-11.41
			s-5.44-7.65-5.42-11.53s-7.4-2.28-8.23-6.58C8.02-50.64-0.55-53.58,2.4-55.47z"/>
		<g id="Grupo_15591" transform="translate(3.927 5.468)">
			<g id="Grupo_15590">
				<path id="Trazado_10073" class="st10" d="M-3.45-42.83c4.71,2.86,3.33,6.67,6.11,8.89c2.02,1.62,5.4,0.77,7.08,2.97
					c1.9,2.48-0.26,5.9-0.42,8.89c-0.22,4.13,3.47,7.23,7.21,8.48c4.35,1.46,9.98,1,12.36-3.32c2.81-5.1,0.71-12.8-4.22-15.19
					c-1.2-0.58-2.72-0.74-3.7-1.92c-1.65-1.99-0.59-4.85-1.36-7.38c-0.74-2.47-3.18-4.2-5.43-4.97S9.65-47.3,7.45-48.2
					c-2.99-1.21-5.61-3.88-8.1-5.68c-2.22-1.61-10.02-4.62-11.28,0.65C-13.08-48.43-7.41-45.23-3.45-42.83z"/>
			</g>
			<path id="Trazado_10074" class="st11" d="M-3.93-50.5c0,0,19.27,9.69,34.65,40.94"/>
		</g>
		<path id="Trazado_10075" class="st12" d="M-11.64-30.43c0,0,24.78-0.28,45.37,23.34"/>
		<g id="Grupo_15593" transform="translate(1.714 33.647)">
			<g id="Grupo_15592">
				<path id="Trazado_10076" class="st9" d="M-1.07-53.03c2.36,0.94,3,4.93,5.55,5.43c1.85,0.37,3.82-1.27,5.63-0.42
					c2.04,0.96,1.68,3.83,2.51,5.78c1.15,2.7,4.57,3.46,7.45,3.04c3.34-0.49,6.93-2.62,7.16-6.14c0.27-4.16-3.55-8.36-7.57-8.27
					c-0.98,0.02-2.04,0.42-3.06-0.01c-1.72-0.72-1.92-2.89-3.22-4.25c-1.27-1.32-3.43-1.63-5.16-1.38s-3.3,0.89-5.04,1.04
					c-2.37,0.2-4.94-0.64-7.16-0.97c-1.98-0.3-10.06-0.14-7.29,4.09C-9.34-52.16-4.22-54.29-1.07-53.03z"/>
			</g>
			<path id="Trazado_10077" class="st11" d="M-6.17-56.93c0,0,17.21,1.46,37.23,16.29"/>
		</g>
		<path id="Trazado_10078" class="st10" d="M51.64-4.78c0,0-3.92-6.86-4.56-7.56c-4.03-4.46-9.37-4.51-14.82-3.38
			c-1.57,0.33-5.74,2.52-7.26,2.21c-1.18-0.24-2.59-4.71-6.36-4.48s-4,4.71-4,4.71s-2.37-5.2-6.13-4.72
			c-3.77,0.48-3.77,3.99-0.94,6.6c-3.95-1.01-8.12-0.67-11.84,0.99c-5.83,2.79-3.05,6.46-3.05,6.46L51.64-4.78z"/>
	</g>
	<g id="Grupo_15601" transform="translate(183.866 122.557)">
		<g id="Grupo_15595" transform="translate(4.672 41.203)">
			<path id="Trazado_10079" class="st13" d="M-16.07-55.27h-6.1c-0.67,0-1.23-0.52-1.29-1.19l-0.4-4.81h9.47l-0.4,4.81
				C-14.84-55.79-15.4-55.27-16.07-55.27z"/>
			<path id="Trazado_10080" class="st13" d="M19.92-55.27h-6.1c-0.67,0-1.23-0.52-1.29-1.19l-0.4-4.81h9.47l-0.4,4.81
				C21.15-55.79,20.59-55.27,19.92-55.27z"/>
		</g>
		<path id="Trazado_10081" class="st14" d="M25.65-26.38h-44.2l3.13-22.79c0.24-1.78,1.76-3.1,3.56-3.1h30.84
			c1.79,0,3.31,1.33,3.56,3.1L25.65-26.38z"/>
		<path id="Trazado_10082" class="st14" d="M19.68-30.8h-32.27l2.29-22.9c0.17-1.7,1.6-3,3.31-3h21.06c1.71,0,3.14,1.3,3.31,3
			L19.68-30.8z"/>
		<path id="Trazado_10083" class="st15" d="M-17.84-31.55l-0.71,5.17h44.2l-0.71-5.17H-17.84z"/>
		<path id="Trazado_10084" class="st14" d="M30.43-17.54h-53.77l1-11.68h51.78L30.43-17.54z"/>
		<g id="Grupo_15600" transform="translate(14.933 0.713)">
			<circle id="Elipse_319" class="st15" cx="-11.39" cy="-43.16" r="9.84"/>
			<circle id="Elipse_320" class="st7" cx="-11.39" cy="-43.16" r="8.51"/>
			<g id="Grupo_15599" transform="translate(6.99 6.992)">
				<g id="Grupo_15596" transform="translate(9.752 13.708)">
					<path id="Trazado_10085" class="st16" d="M-25.75-56.86c-0.29,0-0.57-0.12-0.78-0.32c-0.05-0.05-0.1-0.11-0.14-0.17
						c-0.04-0.06-0.08-0.12-0.1-0.19c-0.03-0.07-0.05-0.14-0.06-0.21s-0.02-0.14-0.02-0.22c0-0.61,0.5-1.11,1.11-1.1
						c0.07,0,0.14,0.01,0.21,0.02c0.07,0.01,0.14,0.04,0.21,0.06c0.07,0.03,0.13,0.06,0.19,0.1c0.06,0.04,0.12,0.09,0.17,0.14
						c0.21,0.21,0.32,0.49,0.33,0.78c0,0.07-0.01,0.15-0.02,0.22c-0.02,0.07-0.04,0.14-0.06,0.21c-0.03,0.07-0.06,0.13-0.1,0.19
						c-0.04,0.06-0.09,0.12-0.14,0.17s-0.11,0.1-0.17,0.14s-0.12,0.08-0.19,0.1c-0.07,0.03-0.13,0.05-0.21,0.06
						C-25.61-56.87-25.68-56.86-25.75-56.86z"/>
				</g>
				<g id="Grupo_15597">
					<path id="Trazado_10086" class="st16" d="M-19.42-42.77L-19.42-42.77c-0.6-0.09-1.02-0.65-0.94-1.25l0,0
						c0.09-0.6,0.65-1.02,1.25-0.94l0,0c0.6,0.09,1.02,0.65,0.94,1.25l0,0c-0.08,0.54-0.54,0.95-1.1,0.95l0,0
						C-19.32-42.75-19.37-42.76-19.42-42.77z M-22.97-44.28L-22.97-44.28c-0.48-0.38-0.57-1.07-0.19-1.55l0,0
						c0.38-0.48,1.07-0.56,1.55-0.19l0,0c0.48,0.38,0.56,1.07,0.19,1.55l0,0c-0.21,0.27-0.53,0.43-0.87,0.43l0,0
						C-22.54-44.04-22.78-44.12-22.97-44.28L-22.97-44.28z M-25.29-47.36c-0.23-0.56,0.04-1.2,0.6-1.43l0,0l0,0
						c0.57-0.23,1.21,0.04,1.44,0.61l0,0l0,0c0.23,0.57-0.05,1.21-0.61,1.44l0,0c-0.13,0.05-0.27,0.08-0.41,0.08l0,0
						C-24.72-46.67-25.12-46.94-25.29-47.36L-25.29-47.36z M-24.82-49.94c-0.6-0.09-1.03-0.64-0.94-1.25l0,0
						c0.09-0.6,0.65-1.02,1.25-0.94l0,0c0.6,0.08,1.02,0.64,0.94,1.24l0,0c-0.08,0.54-0.54,0.95-1.1,0.95l0,0
						C-24.72-49.93-24.77-49.94-24.82-49.94L-24.82-49.94z M-24.06-53.19c-0.48-0.37-0.57-1.07-0.19-1.55l0,0l0,0
						c0.37-0.48,1.07-0.57,1.55-0.2l0,0l0,0c0.48,0.37,0.57,1.06,0.2,1.55l0,0l0,0c-0.21,0.27-0.53,0.43-0.87,0.43l0,0
						C-23.63-52.96-23.87-53.04-24.06-53.19L-24.06-53.19z M-15.15-54.29c-0.48-0.37-0.57-1.06-0.2-1.55l0,0l0,0
						c0.37-0.48,1.07-0.57,1.55-0.2l0,0c0.48,0.38,0.57,1.07,0.19,1.55l0,0c-0.21,0.27-0.53,0.43-0.87,0.43l0,0
						C-14.71-54.06-14.95-54.14-15.15-54.29L-15.15-54.29z M-21.78-55.62c-0.23-0.56,0.04-1.2,0.6-1.43l0,0l0,0
						c0.57-0.23,1.21,0.04,1.44,0.61l0,0l0,0c0.23,0.57-0.05,1.21-0.61,1.44l0,0c-0.13,0.05-0.27,0.08-0.41,0.08l0,0
						C-21.21-54.93-21.62-55.21-21.78-55.62L-21.78-55.62z M-17.65-55.35c-0.6-0.09-1.02-0.65-0.94-1.25l0,0
						c0.08-0.6,0.64-1.02,1.24-0.94l0,0l0,0c0.6,0.08,1.02,0.64,0.94,1.24l0,0l0,0c-0.08,0.54-0.54,0.94-1.09,0.95l0,0
						C-17.54-55.34-17.6-55.34-17.65-55.35L-17.65-55.35z"/>
				</g>
				<g id="Grupo_15598" transform="translate(13.71 4.408)">
					<path id="Trazado_10087" class="st16" d="M-26.19-55.83c-0.07,0-0.14-0.01-0.21-0.02c-0.07-0.01-0.14-0.04-0.21-0.06
						c-0.07-0.03-0.13-0.06-0.19-0.1c-0.06-0.04-0.12-0.09-0.17-0.14c-0.21-0.21-0.32-0.49-0.32-0.78c0-0.07,0.01-0.15,0.02-0.22
						s0.03-0.14,0.06-0.21c0.03-0.07,0.06-0.13,0.1-0.19c0.04-0.06,0.09-0.12,0.14-0.17c0.1-0.1,0.22-0.18,0.36-0.24
						c0.07-0.03,0.14-0.05,0.21-0.06c0.36-0.07,0.73,0.04,0.99,0.3c0.05,0.05,0.1,0.11,0.14,0.17c0.04,0.06,0.07,0.12,0.1,0.19
						s0.05,0.13,0.06,0.21c0.01,0.07,0.02,0.14,0.02,0.22C-25.1-56.33-25.59-55.83-26.19-55.83L-26.19-55.83z"/>
				</g>
			</g>
		</g>
	</g>
	<g id="Grupo_15602" transform="translate(148.357 80.272)">
		<path id="Trazado_10088" class="st17" d="M26.37-35.99c-0.66-1.69-0.29-3.61,0.95-4.93c0,0,8,5.18,16.94,3.72
			c0,0,0.98,2.7-1.77,5.19C42.49-32.01,32.92-30.2,26.37-35.99z"/>
		<path id="Trazado_10089" class="st14" d="M40.06-47.47C34.31-52.32,23.4-53,9.6-50.78c-11.87,1.91-23.96,6.39-27.99,12.73
			c-1.84,2.88-0.59,10.89-0.59,10.89c6.3,0.45,12.23-3.01,14.93-8.72c-0.41-1.53,0.3-3.13,1.72-3.85c8.57-4.12,21.86-5.53,26.8-4.32
			c1.51,0.33,2.64,1.58,2.84,3.11c4.36,4.57,11.08,5.99,16.92,3.59C44.23-37.34,42.68-45.26,40.06-47.47z"/>
		<path id="Trazado_10090" class="st17" d="M-1.81-31.58c0.1-1.81-0.86-3.52-2.45-4.39c0,0-5.97,7.43-14.92,8.85
			c0,0-0.09,2.87,3.31,4.38C-15.86-22.74-6.21-24.02-1.81-31.58z"/>
	</g>
	<g id="Grupo_15604" transform="translate(111.831 131.48)">
		<g>
			<g>
				<defs>
					<path id="SVGID_1_" d="M-2.69-57.68h27.18c6.98,0,12.64,5.66,12.64,12.64v9.36c0,6.98-5.66,12.64-12.64,12.64H-2.69
						c-6.98,0-12.64-5.66-12.64-12.64v-9.36C-15.33-52.02-9.67-57.68-2.69-57.68z"/>
				</defs>
				<clipPath id="SVGID_2_">
					<use xlink:href="#SVGID_1_"  style="overflow:visible;"/>
				</clipPath>
				<g id="Grupo_15603" transform="translate(0 0)" class="st18">
					<path id="Rectángulo_2439" class="st19" d="M-2.69-57.68h27.18c6.98,0,12.64,5.66,12.64,12.64v9.36
						c0,6.98-5.66,12.64-12.64,12.64H-2.69c-6.98,0-12.64-5.66-12.64-12.64v-9.36C-15.33-52.02-9.67-57.68-2.69-57.68z"/>
					<path id="Trazado_10091" class="st19" d="M37.13-53.09c0-2.54-2.06-4.6-4.6-4.6h-43.27c-2.54,0-4.6,2.06-4.6,4.6L8.45-33.8
						c1.41,1.14,3.42,1.14,4.82,0L37.13-53.09z"/>
					
						<radialGradient id="Trazado_10092_1_" cx="-122.4886" cy="951.9455" r="31.7982" gradientTransform="matrix(0.683 0 0 0.683 -122.6786 -986.557)" gradientUnits="userSpaceOnUse">
						<stop  offset="0" style="stop-color:#FFFFFF"/>
						<stop  offset="1" style="stop-color:#FFFFFF;stop-opacity:0"/>
					</radialGradient>
					<path id="Trazado_10092" class="st20" d="M-12.27-26.62v-25.44c0-2.54,2.06-4.6,4.6-4.6h43.06c-0.81-0.66-1.82-1.02-2.86-1.02
						h-43.27c-2.54,0-4.6,2.06-4.6,4.6v25.44c0,2.54,2.06,4.6,4.6,4.6h0.2C-11.63-23.91-12.27-25.22-12.27-26.62z"/>
					
						<linearGradient id="Trazado_10093_1_" gradientUnits="userSpaceOnUse" x1="-1242.1932" y1="78.4546" x2="-1242.1932" y2="79.3434" gradientTransform="matrix(59.019 0 0 24.3304 73323.9063 -1966.5111)">
						<stop  offset="0" style="stop-color:#FFD71D"/>
						<stop  offset="1" style="stop-color:#FEB200"/>
					</linearGradient>
					<path id="Trazado_10093" class="st21" d="M8-37.15l-23.33-20.53h52.46L13.8-37.15C12.14-35.69,9.65-35.69,8-37.15z"/>
					<path id="Trazado_10094" class="st22" d="M8-37.15l-23.33-20.53h52.46L13.8-37.15C12.14-35.69,9.65-35.69,8-37.15z"/>
				</g>
			</g>
		</g>
	</g>
	<g id="Grupo_15607" transform="translate(171.019 86.8)">
		<g id="Grupo_15605" transform="translate(12.416)">
			<path id="Trazado_10095" class="st3" d="M-18.78-33.96c0,0,1.49-4.31,1.6-4.78c0.52-3.36,0.77-6.76,0.75-10.16
				c-0.04-1.29-0.16-2.42-0.18-2.6c-0.24-0.37-0.51-0.72-0.83-1.02c-0.08,0.01-0.17,0.02-0.25,0.03l-0.01,0.16l-0.35-0.3l-0.29-0.02
				l-0.03,0.14l-0.41-0.2l-0.4-0.01c0,0,0.26,0.82,0.4,1.32s-0.01,0.54-0.01,0.54c-0.14,0.06-0.29,0.09-0.44,0.08
				c-0.19-0.03-0.38-0.03-0.56-0.02c0,0,1.21,1.57,1.26,1.71c0.48,0.65,0.65,1.48,0.49,2.27c-0.45,2.12-1.03,4.22-1.72,6.27
				c0.04-0.09-1.62,4.65-1.62,4.65L-18.78-33.96z"/>
			<path id="Trazado_10096" class="st2" d="M-19.58-28.25c0.46-2.7,1.23-5.34,2.32-7.86c0,0-2.84-0.56-3.57-1.57
				c0,0-0.98,2.39-1.54,3.57c-0.62,1.31-1.49,2.74-0.4,3.52C-21.71-29.83-19.74-26.99-19.58-28.25z"/>
		</g>
		<path id="Trazado_10097" class="st6" d="M-18.03,19.34v2.33h4.48c0,0-0.17-0.84-2.29-1.23l-0.31-1.1H-18.03z"/>
		<path id="Trazado_10098" class="st6" d="M-11.22,19.34v2.33h4.48c0,0-0.17-0.84-2.29-1.23l-0.31-1.1H-11.22z"/>
		<path id="Trazado_10099" class="st6" d="M-17.28-15.36c0,0-0.63,6.51-0.65,12.64c-0.02,6.12-0.39,22.6-0.39,22.6h2.47
			c0,0,2.55-15.86,3.48-19.8s3.34-15.36,3.34-15.36L-17.28-15.36z"/>
		<path id="Trazado_10100" class="st3" d="M-13.48-36.97c0,0-0.16,1.24-0.29,1.88c-0.07,0.4-0.18,0.79-0.34,1.16
			c-0.46,0.62-0.97,1.2-1.53,1.74c0,0,4.1,2.16,5.31,2.16s0.78-2.42,0.78-2.42s-1.31-1.04-1.51-1.56c-0.16-0.67-0.26-1.36-0.3-2.04
			L-13.48-36.97z"/>
		<path id="Trazado_10101" class="st6" d="M-11.9-8.29c0,0,0.46,10.33,0.56,12.16c0.09,1.84,0,16,0,16s2.32,0.06,2.32,0
			S-6.85,3.8-6.56-0.73c0.28-4.53,0.12-9.89,0.49-10.52s-1.01-4.08-1.01-4.08l-3.28-0.12L-11.9-8.29z"/>
		<path id="Trazado_10102" class="st2" d="M-14.8-33.41c0,0-3.46-1.39-4.03-0.25c-0.43,0.86-0.06,6.4,0.13,7.95
			c0.17,1.35,1.1,12.67,1.1,12.67s1.29,2,7.52,1.21c1.32-0.12,2.57-0.63,3.58-1.48c0,0-0.67-13.51-0.86-14.87
			c-0.2-1.17-0.48-2.33-0.83-3.47l-1.85-1.22c0,0,0.59,1.3-1.08,1.68C-14.49-30.44-14.8-33.41-14.8-33.41z"/>
		<path id="Trazado_10103" class="st3" d="M-10.2-41.68c0.39,0.16,1.08,0.51,1.16,0.84c0.18,0.61,0.31,1.23,0.39,1.85
			c0.04,0.58,0.12,1.66,0.12,2.34c-0.05,0.76-0.24,1.51-0.57,2.19c-0.53,0.23-1.11,0.32-1.68,0.27c-0.38-0.11-2.64-1.28-2.79-2.71
			c0,0-0.4,0.21-1.14-0.98c-0.19-0.31,0.47-2.62,0.56-3.04c0.22-1,2.69-0.21,3.24-0.37C-10.63-41.33-10.38-41.47-10.2-41.68z"/>
		<path id="Trazado_10104" class="st6" d="M-9.05-40.84c-0.75,0.49-1.56,0.87-2.41,1.14c-0.68,0.06-1.67,0.98-1.65,1.27
			c-0.01,0.2-0.12,0.38-0.28,0.49c0,0-0.42-0.67-0.76-0.6c-0.68,0.14-0.28,0.98,0.09,1.16c0.24,0.12,0.48,0.22,0.73,0.3
			c0.04,0.24,0.05,0.48,0.03,0.72c-0.06,0.29-0.15,0.58-0.29,0.85c-0.39-0.84-0.9-1.62-1.52-2.31c-1.7-1.49-0.47-4.27,1.21-4.79
			c1.13-0.29,2.32-0.27,3.44,0.06C-9.74-42.24-9.22-41.6-9.05-40.84z"/>
		<path id="Trazado_10105" class="st13" d="M-12.67-38.47c0.02,0.07,0.2,0.08,0.24,0.1c0.07,0.03,0.04,0.04,0.36,0.52
			c0.23,0.36,0.62,0.47,1.33,0.22c0.55-0.18,0.47-0.66,0.51-0.88s0.09-0.27,0.18-0.28s0.14,0.01,0.25,0.2
			c0.11,0.2,0.17,0.71,0.74,0.62c0.4-0.06,0.5-0.17,0.55-0.48c0.04-0.25,0.06-0.5,0.05-0.76c-0.02-0.21-0.02-0.33-0.13-0.34
			c-0.16,0-0.32,0.01-0.47,0.05c-0.27,0.01-0.53,0.08-0.78,0.2c-0.19,0.13-0.17,0.22-0.27,0.24s-0.12-0.07-0.34-0.13
			c-0.5,0-0.99,0.05-1.48,0.16c-0.34,0.06-0.81,0.19-0.8,0.32C-12.72-38.63-12.7-38.55-12.67-38.47z M-9.71-38.98
			c0.02-0.17,0.03-0.15,0.45-0.25s0.47-0.08,0.55-0.01c0.12,0.2,0.16,0.45,0.1,0.68c0.01,0.25-0.16,0.46-0.41,0.49
			c-0.37,0.07-0.46-0.12-0.57-0.38C-9.65-38.61-9.7-38.79-9.71-38.98L-9.71-38.98z M-12.18-38.71c0.34-0.13,0.7-0.21,1.06-0.22
			c0.43-0.05,0.58-0.07,0.65,0.08c0.05,0.18,0.07,0.37,0.05,0.55c-0.01,0.28-0.07,0.52-0.74,0.64c-0.36,0.12-0.75-0.05-0.9-0.4
			C-12.19-38.24-12.24-38.48-12.18-38.71z M-13.62-38.28l0.95-0.19l0.32-0.47c0,0-0.36,0.05-0.96,0.18c-0.2,0.06-0.4,0.15-0.57,0.27
			C-13.79-38.43-13.7-38.36-13.62-38.28z"/>
		<g id="Grupo_15606" transform="translate(0 3.798)">
			<path id="Trazado_10106" class="st3" d="M-21.08-37.36c0,0-0.82-5.19-0.83-5.67c-0.05-2.87,1.41-6.72,1.7-7.98
				c0.3-1.26,0.49-1.06,0.55-1.22c0.7-0.23,1.41-0.4,2.14-0.48c0.22-0.1,0.46-0.18,0.69-0.25c0.13-0.01,0.68-0.18,0.68-0.18
				l-0.32,0.57c0,0-1.3,0.99-1.38,1.12c-0.6,0.54-0.94,1.32-0.93,2.13c-0.05,2.57-0.05,5.34-0.05,5.34
				c-0.02-0.09,1.23,5.31,1.23,5.31L-21.08-37.36z"/>
			<path id="Trazado_10107" class="st2" d="M-18.7-29.5c-0.88-2.5-2.9-9.22-2.9-9.22s3-0.75,3.84-1.67c0,0,1.01,3,1.43,4.25
				c0.46,1.38,1.16,2.9-0.02,3.55C-17.48-31.97-18.28-28.3-18.7-29.5z"/>
		</g>
	</g>
	<g id="Grupo_15611" transform="translate(216.241 89.407)">
		<g id="Grupo_15608" transform="translate(2.238 25.098)">
			
				<linearGradient id="Trazado_10108_1_" gradientUnits="userSpaceOnUse" x1="-1426.4938" y1="78.7637" x2="-1425.6049" y2="78.7637" gradientTransform="matrix(16.9099 0 0 24.532 24094.2188 -1971.7213)">
				<stop  offset="0" style="stop-color:#343A44"/>
				<stop  offset="0.301" style="stop-color:#232C3D"/>
				<stop  offset="0.639" style="stop-color:#172339"/>
				<stop  offset="1" style="stop-color:#142138"/>
			</linearGradient>
			<path id="Trazado_10108" class="st23" d="M-8.21-49.22c0.78,0.72,1.33,0.48,2.5,4.48c0.75,2.56,3.47,15.44,3.47,15.44l-1.63,0.71
				c-1.22-3.87-2.81-7.6-4.77-11.15c-0.77-1.53-1.37-3.15-1.77-4.81l-4.75-0.29c-2.97-1.22-1.96-5.55-1.96-5.55
				S-8.99-49.94-8.21-49.22z"/>
			
				<linearGradient id="Trazado_10109_1_" gradientUnits="userSpaceOnUse" x1="-1438.1334" y1="73.5411" x2="-1437.2444" y2="73.5411" gradientTransform="matrix(23.9229 0 0 32.065 34380.293 -2399.6299)">
				<stop  offset="0" style="stop-color:#343A44"/>
				<stop  offset="0.301" style="stop-color:#232C3D"/>
				<stop  offset="0.639" style="stop-color:#172339"/>
				<stop  offset="1" style="stop-color:#142138"/>
			</linearGradient>
			<path id="Trazado_10109" class="st24" d="M-26.2-53.05l4.29-2.74l4.15,3.22l5.16,1.67l-0.03,0.02c1.83,0.56,3.58,1.39,5.18,2.45
				c0.78,0.72,2.31,1.75,1.07,5.73c-0.79,2.54-4.23,15.42-4.23,15.42l-1.75-0.31c0,0,0.62-7.46,1.24-13.04
				c0.3-2.71,0.4-3.46,0.4-3.46s-11.53,1.26-15.24-0.7C-28.56-46.19-26.2-50.97-26.2-53.05z"/>
			<path id="Trazado_10110" class="st6" d="M-10.5-28.23c0,0-0.05,0.47-0.8,0.68c-0.46,0.11-0.95-0.05-1.26-0.41l-0.17,1.53
				l2.4,1.69h1.99l-1.08-1.2L-10.5-28.23z"/>
			<path id="Trazado_10111" class="st6" d="M-2.5-30.35c0.2,0.38,0.07,0.86-0.3,1.09c-0.41,0.25-0.92,0.24-1.33-0.01l0.31,1.51
				l5.66-1.77L-2.5-30.35z"/>
		</g>
		<g id="Grupo_15610" transform="translate(0)">
			<path id="Trazado_10112" class="st3" d="M-6.78-43.4c-0.34-0.35-0.65-0.73-0.94-1.12l-0.22-0.99c0,0-0.38-0.51-0.68-0.82
				c-0.27-0.51-0.46-1.06-0.56-1.63l0.38-0.23c0.08,0.25,0.18,0.49,0.3,0.72c0.11,0.09,0.24,0.14,0.37,0.15
				c0.02-0.31,0.03-0.61,0.01-0.92c-0.07-0.53-0.18-1.05-0.35-1.55l0.32-0.16c0.12,0.23,0.22,0.47,0.31,0.71
				c0.07,0.22,0.19,0.69,0.19,0.69c-0.01-0.35-0.04-0.7-0.1-1.05c-0.07-0.3-0.13-0.7-0.13-0.7l0.34-0.09
				c0.09,0.28,0.17,0.56,0.22,0.85c0.05,0.35,0.17,0.93,0.17,0.93c0.02-0.36,0.03-0.71,0.01-1.07c-0.02-0.12-0.03-0.25-0.03-0.38
				l0.36,0.01c0.08,0.26,0.13,0.53,0.13,0.81c-0.01,0.21,0.01,0.43,0.04,0.64c0.06-0.29,0.1-0.58,0.1-0.87
				c-0.02-0.1-0.03-0.2-0.01-0.3l0.27,0.05c0,0,0.16,1.09,0.21,1.74S-6.11-46.47-6.12-46c-0.01,0.47-0.02,0.83-0.02,0.83L-6.78-43.4
				z"/>
			<path id="Trazado_10113" class="st3" d="M-14.05-42.13c1.41,1.14,2.88,2.2,4.42,3.16c0,0,0.82-2.06,1.21-3.52
				c0.47-1.74,0.61-2.55,0.61-2.55l1.67-0.14c0,0-0.53,4.46-1.18,7.49c-0.64,2.94-1.44,2.42-2.14,2.27
				c-0.7-0.14-7.34-3.71-7.34-3.71l0.71-3.79C-16.1-42.92-15.63-43.42-14.05-42.13z"/>
			<path id="Trazado_10114" class="st25" d="M-21.06-52.84c1.05-0.3,2.17-0.19,3.14,0.32c2.05,1.26,1.07,4.73,0.94,5.52
				c-0.13,0.8,0.61,2.23,0.6,3.19c0,0.84-0.34,1.64-0.95,2.22c-0.14,0.22-0.23,0.47-0.27,0.74c-0.52-0.86-0.85-1.82-0.96-2.81
				c-0.17-1.64-0.52-1.26-1.33-3.06c-0.54-1.44-0.83-2.97-0.86-4.51L-21.06-52.84z"/>
			<path id="Trazado_10115" class="st25" d="M-19.35-51.67l-1.71-1.17c-0.91-0.08-1.8,0.34-2.3,1.1c-0.76,1.42-1.21,2.98-1.33,4.59
				c-0.31,1.69-0.52,3.4-0.65,5.12c0.03,1.05,1.31,1.2,1.31,1.2l4.29-1.86c-0.3-1.54-0.31-3.12-0.04-4.66
				C-19.51-48.77-19.36-50.22-19.35-51.67z"/>
			<path id="Trazado_10116" class="st3" d="M-17.92-51.31c0.25,1.02,0.43,2.06,0.54,3.11c0.04,1.01-0.08,2.66-0.74,3.12
				c-0.67,0.46-1.92,0.09-2.83-0.29c-0.69-0.28-1.18-0.88-1.32-1.61c-0.16-1.09-0.13-2.2,0.09-3.28c0.12-0.91,0.84-1.62,1.75-1.73
				C-19.55-51.95-18.7-51.72-17.92-51.31z"/>
			<path id="Trazado_10117" class="st3" d="M-21.66-47.57c0.13,1.23,0.03,2.48-0.29,3.68c-0.36,0.81-1.83,1.16-1.83,1.16
				c0.04,1.58,0.54,3.11,1.42,4.42c1.47,2.17,6.09,2.97,6.09,2.97c0.59-1.23,1.05-2.52,1.38-3.84c0.26-1.26-0.04-2.57-0.81-3.6
				c0,0-1.24-0.41-1.85-0.63c-1.45-0.55-1.28-2.86-1.28-2.86L-21.66-47.57z"/>
			<path id="Trazado_10118" class="st2" d="M-18.86-41.77c-1.33-0.32-2.63-0.77-3.88-1.34l-2.96,1.76c0,0-1.74,1.66,1.23,6.01
				c0,0,1.13,3.97-0.7,10.96c0,0,0.49,1.8,3.26,0.84c2.38-0.82,2.44-1.47,4.53-2c1.34-0.27,2.65-0.69,3.89-1.26
				c-1.62-2.43-1.33-6.23-1.33-6.23s1.84-1.76,1.05-3.56c-0.77-2.01-1.28-4.12-1.52-6.26l-1.58-0.4c-0.39,0.48-0.81,0.93-1.26,1.35
				C-18.33-41.72-18.61-41.67-18.86-41.77z"/>
			<path id="Trazado_10119" class="st7" d="M-17.56-43.42c0,0-0.36,1.35-1.3,1.64c0,0,0.37,1.85,1.24,1.53
				c1.23-0.45,0.75-3.01,0.75-3.01L-17.56-43.42z"/>
			<path id="Trazado_10120" class="st7" d="M-23.09-43.34c0,0,0.58,2.83,2.15,3.06c1.56,0.23,2.09-1.49,2.09-1.49
				s-3.31-0.97-3.63-1.98L-23.09-43.34z"/>
			<path id="Trazado_10121" class="st25" d="M-20.34-52.02c-0.29,0.02-0.5,1.38-0.53,2.14s-1.17,1.36-0.66,3.03
				c0.5,1.67,0.43,3.29,1.11,5.12c0.48,1.06,0.27,2.29-0.53,3.13c-0.69-0.75-1.34-1.54-1.93-2.37c-0.41-0.73-1.25-1.1-2.06-0.92
				c0,0,2.2-4.27,2.13-5.42c-0.07-1.15-0.28-2.91,0.64-3.96C-21.78-51.86-21.05-52.16-20.34-52.02z"/>
			<path id="Trazado_10122" class="st3" d="M-21.5-48.6c0,0-0.61-0.67-1.02-0.57c-0.4,0.1-0.43,0.71-0.12,1.2s1.45,0.78,1.45,0.78
				L-21.5-48.6z"/>
			<path id="Trazado_10123" class="st25" d="M-20.11-49.91c0.58,0.02,1.16-0.02,1.74-0.13c0.53-0.11,1.08-0.05,1.58,0.16l-0.42-1.84
				c-0.68-0.38-1.43-0.62-2.21-0.71c-1.17,0.01-2.19,0.45-1.61,0.83C-20.57-51.13-20.25-50.54-20.11-49.91z"/>
			<g id="Grupo_15609" transform="translate(0 12.951)">
				<path id="Trazado_10124" class="st3" d="M-23.18-52.24c-0.2,2.31-0.88,8.91-0.88,8.91c2.1,1.84,5.08,4.9,5.08,4.9
					s-0.85,1.67-1.21,1.39c-2.9-2.27-6.22-3.61-6.45-5.19c-0.39-2.59-0.52-9.12,0.43-11.24C-25.47-55.1-22.97-54.69-23.18-52.24z"/>
				<path id="Trazado_10125" class="st3" d="M-17.7-38.22c0.88,0.33,1.44,0.66,1.38,0.98c-0.04,0.23-0.79-0.19-1.24-0.17
					c0.24,0.45,0.61,0.82,1.07,1.05c0.58,0.29,0.91,0.68,0.6,1.02s-0.89,0.81-1.26,0.64c-0.37-0.17-1.71-1.1-2.21-1.36
					s-0.7-0.89-0.96-1.06c-0.26-0.17,0.47-1.5,0.47-1.5c0.14,0.04,0.86,0.19,0.86,0.19c0.24,0.04,0.48,0.06,0.72,0.06
					C-18.07-38.35-17.88-38.3-17.7-38.22z"/>
			</g>
		</g>
	</g>
	<line id="Línea_318" class="st11" x1="59.53" y1="108.32" x2="256.55" y2="108.32"/>
</g>
</svg>
