<?xml version="1.0" encoding="utf-8"?>
<!-- Generator: Adobe Illustrator 23.0.3, SVG Export Plug-In . SVG Version: 6.00 Build 0)  -->
<svg version="1.1" id="Capa_1" xmlns="http://www.w3.org/2000/svg" xmlns:xlink="http://www.w3.org/1999/xlink" x="0px" y="0px"
	 viewBox="0 0 216.02 156.23" style="enable-background:new 0 0 216.02 156.23;" xml:space="preserve">
<style type="text/css">
	.st0{opacity:0.55;}
	.st1{fill:url(#Trazado_9499_1_);}
	.st2{fill:#FBB549;}
	.st3{fill:#EE3F3A;}
	.st4{fill:#00B3A1;}
	.st5{fill:#F7F6F4;}
	.st6{fill:#0A87B1;}
	.st7{fill:url(#Elipse_360_1_);}
	.st8{fill:url(#Elipse_361_1_);}
	.st9{opacity:0.75;}
	.st10{fill:#00B5A3;}
	.st11{fill:url(#Trazado_9532_1_);}
	.st12{opacity:0.5;fill:url(#Trazado_9533_1_);enable-background:new    ;}
	.st13{opacity:0.5;fill:url(#Trazado_9534_1_);enable-background:new    ;}
	.st14{opacity:0.65;fill:#F2F2F2;enable-background:new    ;}
	.st15{fill:url(#Trazado_9536_1_);}
	.st16{fill:#C1D9E5;}
	.st17{fill:url(#Trazado_9538_1_);}
	.st18{fill:url(#Trazado_9541_1_);}
	.st19{fill:url(#Trazado_9543_1_);}
	.st20{fill:#ED1C24;}
	.st21{fill:#EE5758;}
	.st22{fill:#F7931E;}
	.st23{fill:#FAB448;}
	.st24{fill:#023149;}
	.st25{fill:#F3A7A8;}
	.st26{fill:#DB9195;}
	.st27{fill:#D02729;}
	.st28{fill:#023444;}
	.st29{fill:#034251;}
	.st30{fill:#FFFFFF;}
	.st31{fill:#F6A9A9;}
	.st32{fill:#C61C1C;}
	.st33{fill:#CC7F7F;}
	.st34{fill:#016B80;}
	.st35{fill:#00414F;}
	.st36{fill:#C080B1;}
	.st37{fill:#005679;}
	.st38{fill:#23233B;}
	.st39{fill:#DD6B47;}
	.st40{fill:#047396;}
	.st41{fill:#F48154;}
	.st42{fill:#C0272D;}
	.st43{fill:url(#Trazado_9608_1_);}
	.st44{fill:#00B2CF;}
	.st45{fill:#011B21;}
	.st46{fill:#231F20;}
	.st47{fill:#023A4C;}
	.st48{fill:#00B1CD;}
	.st49{fill:#E5E5E2;}
</style>
<g id="Grupo_16011" transform="translate(-76.26 -108.692)">
	<g id="Grupo_15939" transform="translate(233.181 108.692)" class="st0">
		
			<linearGradient id="Trazado_9499_1_" gradientUnits="userSpaceOnUse" x1="-361.0295" y1="539.9937" x2="-359.8959" y2="539.9937" gradientTransform="matrix(24.192 0 0 -12.798 8836.7109 6921.9751)">
			<stop  offset="0" style="stop-color:#005679"/>
			<stop  offset="0.371" style="stop-color:#007B9C"/>
			<stop  offset="0.781" style="stop-color:#009FBE"/>
			<stop  offset="1" style="stop-color:#00ADCB"/>
		</linearGradient>
		<path id="Trazado_9499" class="st1" d="M50.76,18.31c-0.74-0.14-1.4-0.56-1.85-1.17c-0.5-0.92-0.84-5.37-2.35-5.54
			c-1.51-0.17-1.59,2.1-1.59,2.1s-0.17-9.81-4.95-9.81s-4.86,8.72-4.86,8.72s0.34-2.68-1.68-2.85c-2.02-0.17-1.85,4.36-1.85,4.36
			s-0.17-2.18-1.76-2.18c-1.59,0-1.71,2.6-1.76,3.44c-0.14,2.18-4.78,3.02-4.78,3.02L50.76,18.31z"/>
		<path id="Trazado_9500" class="st2" d="M41.45,14.84c-0.32-0.06-0.61-0.24-0.8-0.51c-0.22-0.4-0.36-2.33-1.02-2.4
			c-0.66-0.07-0.69,0.91-0.69,0.91s-0.07-4.26-2.15-4.26s-2.11,3.79-2.11,3.79s0.15-1.17-0.73-1.24c-0.87-0.07-0.8,1.89-0.8,1.89
			s-0.07-0.95-0.77-0.95c-0.69,0-0.74,1.13-0.77,1.49c-0.06,0.95-2.08,1.31-2.08,1.31L41.45,14.84z"/>
		<path id="Trazado_9501" class="st3" d="M51.23,16.48c-0.52-0.1-0.99-0.4-1.3-0.83c-0.35-0.65-0.59-3.79-1.66-3.9
			c-1.06-0.12-1.12,1.47-1.12,1.47s-0.11-6.92-3.49-6.92c-3.38,0-3.43,6.15-3.43,6.15s0.24-1.89-1.18-2.01
			c-1.42-0.12-1.3,3.08-1.3,3.08s-0.11-1.54-1.25-1.54c-1.13,0-1.27,1.83-1.25,2.42c0.07,1.71-3.37,2.13-3.37,2.13L51.23,16.48z"/>
	</g>
	<g id="Grupo_15947" transform="translate(90.227 198.101)">
		<g id="Grupo_15946" transform="translate(0)">
			<g id="Grupo_15940" transform="translate(2.255 0.027)">
				<path id="Trazado_9502" class="st4" d="M7.98,17.19c-1.1-0.57-2.25-1.03-3.44-1.36l3.17,6.35C7.93,20.53,8.02,18.86,7.98,17.19z
					"/>
			</g>
			<g id="Grupo_15941" transform="translate(0.082 5.123)">
				<path id="Trazado_9503" class="st4" d="M11.2,20.29c-2.09-0.97-4.03-2.24-5.75-3.77c0.26,1.61,1.22,3.05,3.05,4.77
					c3.65,3.44,0.64,3.91-0.07,3.75c-0.71-0.16-3.12-1.81-4.07-0.08c-0.05,0.09-0.09,0.18-0.12,0.28
					c3.36,3.56,11.76,7.48,13.58,8.31L11.2,20.29z"/>
			</g>
			<g id="Grupo_15942" transform="translate(5.234 1.359)">
				<path id="Trazado_9504" class="st4" d="M11.51,34.42c0.5-0.73,2.73-4.49,2.41-12.99c-1.83-0.16-2,2.64-2.3,3.29
					c-0.31,0.65-2.52,2.75-3.01-2.24c-0.33-3.4-1.23-5.2-3.34-6.47c0.03,1.76-0.08,3.51-0.33,5.25L11.51,34.42z"/>
			</g>
			<g id="Grupo_15943" transform="translate(1.083 0.14)">
				<path id="Trazado_9505" class="st4" d="M10.02,24.91L5.5,15.85c-0.76,1.65-1.13,3.45-1.09,5.27C6.1,22.63,7.99,23.9,10.02,24.91
					z"/>
			</g>
			<path id="Trazado_9506" class="st4" d="M4.26,30.66c-0.28,1.85,1.97,4.93,5.85,8.25c1.18,1,2.43,1.92,3.73,2.75
				c1.26,0.83,2.54,1.6,3.84,2.33c0.97,0.55,1.94,1.08,2.92,1.58c0.24,0.09,0.51,0.07,0.74-0.06l-3.23-6.47
				C16.98,38.55,7.96,34.49,4.26,30.66z"/>
			<g id="Grupo_15944" transform="translate(11.16 6.182)">
				<path id="Trazado_9507" class="st4" d="M8.25,16.66c0.34,8.98-2.16,12.74-2.52,13.23l4.65,9.31l0.02-0.02
					c0.09-0.14,0.15-0.3,0.15-0.47c0.04-0.38,0.11-0.74,0.17-1.11c0.1-0.61,0.2-1.22,0.29-1.84c0.22-1.48,0.4-2.98,0.52-4.49
					c0.14-1.56,0.17-3.13,0.11-4.7c0-0.02,0-0.04,0-0.07C11.35,20.97,10.13,17.12,8.25,16.66z"/>
			</g>
			<g id="Grupo_15945" transform="translate(0.021)">
				<path id="Trazado_9508" class="st5" d="M19.39,22.84c-0.04-0.01-0.09-0.02-0.13-0.03c-0.05-0.01-0.08-0.01-0.12-0.01
					c0.33,8.49-1.9,12.25-2.41,12.99l-6.57-13.16c0.25-1.74,0.36-3.49,0.33-5.25c-0.09-0.05-0.17-0.1-0.27-0.15
					c0.03,1.67-0.06,3.33-0.27,4.99l-3.17-6.35l-0.09-0.03c-0.04-0.01-0.06,0-0.08,0.04l-0.04,0.11l4.53,9.06
					c-2.03-1.01-3.92-2.28-5.62-3.79c0.01,0.13,0.03,0.25,0.05,0.38c1.72,1.53,3.66,2.8,5.75,3.77l6.63,13.26
					c-1.83-0.83-10.22-4.75-13.58-8.31c-0.03,0.1-0.05,0.19-0.07,0.29c3.7,3.83,12.72,7.9,13.84,8.39l3.23,6.47
					c0.08-0.04,0.14-0.09,0.2-0.15l-4.65-9.31C17.22,35.57,19.73,31.82,19.39,22.84z"/>
			</g>
		</g>
	</g>
	<g id="Grupo_15956" transform="translate(90.597 209.511)">
		<g id="Grupo_15955">
			<g id="Grupo_15948" transform="translate(0.311 0.006)">
				<path id="Trazado_9509" class="st6" d="M6.78,17.81c-0.8-0.24-1.62-0.39-2.46-0.45l2.92,3.79C7.17,20.03,7.02,18.91,6.78,17.81z
					"/>
			</g>
			<g id="Grupo_15949" transform="translate(0.238 3.523)">
				<path id="Trazado_9510" class="st6" d="M8.61,19.58c-1.51-0.37-2.96-0.96-4.29-1.75c0.54,1.19,1.47,2.17,2.64,2.77
					c2.86,1.81,0.93,2.51,0.44,2.49c-0.49-0.01-2.3-0.79-2.71,0.47c-0.02,0.07-0.04,0.13-0.04,0.2c2.69,1.93,8.75,3.43,10.07,3.75
					L8.61,19.58z"/>
			</g>
			<g id="Grupo_15950" transform="translate(2.649 0.465)">
				<path id="Trazado_9511" class="st6" d="M11.15,28.8c0.24-0.55,1.23-3.33-0.08-8.91c-1.24,0.13-0.98,2.01-1.1,2.47
					s-1.32,2.15-2.28-1.1c-0.66-2.21-1.49-3.29-3.04-3.85c0.25,1.16,0.4,2.33,0.46,3.51L11.15,28.8z"/>
			</g>
			<g id="Grupo_15951" transform="translate(0 0.105)">
				<path id="Trazado_9512" class="st6" d="M8.68,22.79l-4.17-5.42C4.22,18.56,4.21,19.8,4.47,21C5.79,21.78,7.21,22.38,8.68,22.79z
					"/>
			</g>
			<g id="Grupo_15952" transform="translate(0.519 8.939)">
				<path id="Trazado_9513" class="st6" d="M4.35,18.55c0.05,1.26,1.95,3.01,4.94,4.71c0.91,0.51,1.86,0.96,2.82,1.34
					c0.94,0.39,1.89,0.73,2.84,1.05c0.71,0.24,1.42,0.47,2.14,0.67c0.17,0.03,0.35-0.02,0.48-0.13l-2.98-3.87
					C13.8,22.14,7.3,20.61,4.35,18.55z"/>
			</g>
			<g id="Grupo_15953" transform="translate(8.477 2.643)">
				<path id="Trazado_9514" class="st6" d="M5.42,17.71c1.39,5.9,0.21,8.72,0.04,9.09l4.28,5.56l0.01-0.01
					c0.04-0.1,0.06-0.22,0.04-0.33c-0.02-0.26-0.02-0.5-0.03-0.76C9.75,30.84,9.73,30.42,9.71,30c-0.05-1.01-0.12-2.03-0.24-3.04
					c-0.11-1.05-0.29-2.1-0.53-3.13l-0.01-0.04C8.03,20.17,6.72,17.77,5.42,17.71z"/>
			</g>
			<g id="Grupo_15954" transform="translate(0.167)">
				<path id="Trazado_9515" class="st5" d="M13.72,20.35c-0.03,0-0.06,0-0.09,0s-0.06,0-0.08,0.01c1.31,5.58,0.32,8.36,0.08,8.91
					L7.58,21.4c-0.06-1.18-0.21-2.36-0.46-3.51c-0.06-0.02-0.13-0.05-0.19-0.07c0.24,1.1,0.39,2.22,0.46,3.34l-2.92-3.79L4.4,17.36
					c-0.03,0-0.04,0.01-0.05,0.04c-0.01,0.03-0.01,0.05-0.01,0.08l4.17,5.42c-1.48-0.41-2.89-1.01-4.21-1.79
					c0.02,0.08,0.05,0.16,0.08,0.24c1.34,0.79,2.78,1.38,4.29,1.75l6.1,7.93c-1.32-0.31-7.38-1.82-10.07-3.75
					C4.7,27.36,4.7,27.43,4.7,27.5c2.95,2.06,9.44,3.59,10.25,3.77l2.98,3.87c0.04-0.03,0.08-0.08,0.11-0.12l-4.28-5.56
					C13.94,29.07,15.11,26.25,13.72,20.35z"/>
			</g>
		</g>
	</g>
	<g id="Grupo_15965" transform="translate(240.165 209.387)">
		<g id="Grupo_15964">
			<g id="Grupo_15957" transform="translate(1.487 5.158)">
				<path id="Trazado_9516" class="st3" d="M24.47,22.13c1.28-1.34,2.85-2.76,4.42-4.1c1.1,0.78,2.46,1.08,3.78,0.83
					c-0.54,0.83-1.15,1.61-1.81,2.34c-0.49,0.54-1.03,1.03-1.61,1.47C27.47,23.34,25,22.35,24.47,22.13z"/>
			</g>
			<g id="Grupo_15958" transform="translate(5.507 0.184)">
				<path id="Trazado_9517" class="st3" d="M25,22.89c3-2.54,6-4.76,7.05-5.53c-0.29,0.76-0.64,1.5-1.03,2.21
					c-0.38,0.79-0.78,1.59-1.21,2.35c-0.33,0.59-0.67,1.16-1.03,1.72C27.47,23.92,26.1,23.64,25,22.89z"/>
			</g>
			<g id="Grupo_15959" transform="translate(2.698 0.523)">
				<path id="Trazado_9518" class="st3" d="M29.65,20.84c-1.66,1.34-3.45,2.86-5.02,4.35c0.25-1.84,0.86-3.61,1.78-5.22
					c1.35-1.15,2.92-2.02,4.61-2.56C30.44,18.5,29.98,19.65,29.65,20.84L29.65,20.84z"/>
			</g>
			<g id="Grupo_15960" transform="translate(7.28)">
				<path id="Trazado_9519" class="st3" d="M26.63,17.87c0.24-0.07,0.47-0.13,0.71-0.18c0.94-0.28,1.93-0.38,2.91-0.3
					c-0.79,0.58-2.76,2.03-5,3.84C25.58,20.06,26.04,18.94,26.63,17.87z"/>
			</g>
			<g id="Grupo_15961" transform="translate(0 3.064)">
				<path id="Trazado_9520" class="st3" d="M27.17,22.79h0.02c-1.04,0.97-2.01,2.02-2.91,3.13c-0.01-0.39,0.04-0.78,0.17-1.14
					c0.71-2.71,2.2-5.16,4.29-7.03C27.94,19.33,27.41,21.04,27.17,22.79z"/>
			</g>
			<g id="Grupo_15962" transform="translate(0.049 8.889)">
				<path id="Trazado_9521" class="st3" d="M30.28,19.23c-0.76,0.54-1.6,0.96-2.49,1.25c-0.78,0.25-1.61,0.34-2.43,0.25
					c-0.62-0.08-0.96-0.17-1.09-0.45c0.47-0.61,0.97-1.19,1.5-1.74C27.18,19.19,28.75,19.44,30.28,19.23z"/>
			</g>
			<g id="Grupo_15963" transform="translate(0.008 0.044)">
				<path id="Trazado_9522" class="st5" d="M27.18,25.81h-0.02c0.25-1.75,0.78-3.46,1.57-5.04c0.12-0.11,0.24-0.21,0.37-0.32
					c-0.92,1.61-1.52,3.38-1.78,5.22c1.57-1.49,3.36-3.01,5.02-4.35h-0.01c0.34-1.19,0.8-2.34,1.38-3.43l0.19-0.06
					c-0.58,1.06-1.05,2.19-1.39,3.35c2.24-1.8,4.21-3.26,5-3.84l0.08,0.01c-0.01,0.05-0.03,0.1-0.04,0.14
					c-1.05,0.77-4.05,2.99-7.05,5.53c1.1,0.75,2.46,1.03,3.77,0.76l-0.12,0.19c-1.32,0.24-2.68-0.06-3.78-0.83
					c-1.57,1.34-3.14,2.76-4.42,4.1c0.53,0.23,3,1.22,4.78,0.55c-0.13,0.1-0.27,0.2-0.4,0.29c-1.54,0.2-3.1-0.04-4.5-0.71
					c-0.53,0.55-1.03,1.13-1.5,1.74c-0.02-0.06-0.04-0.11-0.05-0.17C25.17,27.83,26.14,26.78,27.18,25.81z"/>
			</g>
		</g>
	</g>
	<g id="Grupo_15974" transform="translate(237.183 200.013)">
		<g id="Grupo_15973" transform="translate(0)">
			<g id="Grupo_15966" transform="translate(2.021 8.951)">
				<path id="Trazado_9523" class="st4" d="M24.14,26.1c1.37-2.62,2.88-5.17,4.53-7.63c2.3,0.3,4.64-0.11,6.69-1.19
					c-0.35,1.35-0.83,2.67-1.43,3.94c-0.46,0.97-1.02,1.89-1.66,2.75C29.82,25.84,25.15,26.07,24.14,26.1z"/>
			</g>
			<g id="Grupo_15967" transform="translate(6.141 0.177)">
				<path id="Trazado_9524" class="st4" d="M24.69,27.03c3.23-4.87,6.65-9.36,7.86-10.92c0.02,1.11-0.06,2.22-0.24,3.32
					c-0.11,1.2-0.24,2.4-0.44,3.6c-0.15,0.91-0.33,1.82-0.56,2.72C29.3,26.86,26.98,27.31,24.69,27.03z"/>
			</g>
			<g id="Grupo_15968" transform="translate(2.377 2.585)">
				<path id="Trazado_9525" class="st4" d="M30.33,21.45c-1.82,2.61-3.74,5.53-5.33,8.29c-0.26-0.87-1.31-4.68-0.51-7.46
					c1.55-2.3,3.53-4.29,5.83-5.85c-0.23,1.67-0.23,3.36,0,5.02L30.33,21.45z"/>
			</g>
			<g id="Grupo_15969" transform="translate(7.834 0.025)">
				<path id="Trazado_9526" class="st4" d="M25.13,18.8c0.34-0.23,0.68-0.44,1.03-0.64c1.4-0.92,2.93-1.61,4.53-2.07
					c-0.91,1.17-3.16,4.11-5.64,7.65C24.85,22.1,24.88,20.44,25.13,18.8z"/>
			</g>
			<g id="Grupo_15970" transform="translate(0 8.28)">
				<path id="Trazado_9527" class="st4" d="M27.2,24.31l0.03-0.01c-1.04,1.77-1.94,3.63-2.69,5.55c-0.27-0.46-0.43-0.97-0.47-1.5
					c-0.58-3.89,0.27-7.85,2.41-11.15C26.21,19.59,26.46,22.01,27.2,24.31z"/>
			</g>
			<g id="Grupo_15971" transform="translate(0.758 15.373)">
				<path id="Trazado_9528" class="st4" d="M33.07,18.14c-0.93,1.15-2.02,2.16-3.24,2.99c-1.15,0.79-2.44,1.38-3.8,1.73
					c-1.06,0.26-1.67,0.36-2.06,0.08c0.38-1.03,0.82-2.04,1.31-3.02C25.97,19.91,30.33,19.78,33.07,18.14z"/>
			</g>
			<g id="Grupo_15972" transform="translate(0.593)">
				<path id="Trazado_9529" class="st5" d="M26.64,32.58l-0.03,0.01c-0.74-2.29-0.99-4.72-0.73-7.11c0.13-0.2,0.25-0.4,0.39-0.6
					c-0.8,2.78,0.25,6.58,0.51,7.46c1.59-2.76,3.51-5.67,5.33-8.29H32.1c-0.23-1.67-0.23-3.36,0-5.02c0.09-0.06,0.19-0.13,0.28-0.19
					c-0.26,1.63-0.28,3.29-0.07,4.93c2.47-3.53,4.72-6.47,5.64-7.65c0.05-0.01,0.09-0.02,0.14-0.03c0.01,0.07,0.02,0.13,0.03,0.2
					c-1.21,1.56-4.64,6.04-7.86,10.92c2.29,0.28,4.61-0.17,6.63-1.28c-0.03,0.1-0.05,0.2-0.08,0.31c-2.05,1.08-4.39,1.5-6.69,1.19
					c-1.65,2.46-3.16,5-4.53,7.63c1.01-0.03,5.67-0.26,8.13-2.13c-0.15,0.2-0.3,0.4-0.46,0.59c-2.75,1.64-7.11,1.77-7.79,1.78
					c-0.5,0.98-0.93,1.99-1.31,3.02c-0.07-0.05-0.13-0.11-0.19-0.18C24.69,36.2,25.59,34.35,26.64,32.58z"/>
			</g>
		</g>
	</g>
	
		<linearGradient id="Elipse_360_1_" gradientUnits="userSpaceOnUse" x1="-135.6591" y1="664.6647" x2="-134.8565" y2="665.4673" gradientTransform="matrix(101.428 0 0 -101.428 13855.0996 67663.4141)">
		<stop  offset="0" style="stop-color:#93DAD3"/>
		<stop  offset="0.855" style="stop-color:#F2F2F2"/>
	</linearGradient>
	<circle id="Elipse_360" class="st7" cx="136.12" cy="207.15" r="57.49"/>
	
		<linearGradient id="Elipse_361_1_" gradientUnits="userSpaceOnUse" x1="-134.891" y1="663.5564" x2="-134.0884" y2="664.3589" gradientTransform="matrix(68.838 0 0 -68.838 9492.6758 45873.8477)">
		<stop  offset="0" style="stop-color:#93DAD3"/>
		<stop  offset="0.855" style="stop-color:#F2F2F2"/>
	</linearGradient>
	<circle id="Elipse_361" class="st8" cx="234.64" cy="168.37" r="39.02"/>
	<g id="Grupo_15975" transform="translate(83.277 144.95)" class="st9">
		<path id="Trazado_9530" class="st10" d="M3.31,21.13c0.64-0.12,1.21-0.48,1.59-1.01c0.43-0.79,0.72-4.61,2.02-4.76
			s1.37,1.8,1.37,1.8s0.14-8.44,4.25-8.44s4.18,7.5,4.18,7.5s-0.29-2.31,1.44-2.45c1.73-0.14,1.59,3.75,1.59,3.75
			s0.14-1.87,1.51-1.87s1.44,2.24,1.51,2.96s4.11,2.6,4.11,2.6L3.31,21.13z"/>
		<path id="Trazado_9531" class="st2" d="M6.92,21.79c0.53-0.07,1.03-0.32,1.4-0.71c0.38-0.56,0.64-3.26,1.79-3.36
			c1.15-0.1,1.21,1.27,1.21,1.27s0.13-5.96,3.76-5.96s3.7,5.3,3.7,5.3s-0.26-1.63,1.28-1.73c1.53-0.1,1.4,2.65,1.4,2.65
			s0.13-1.32,1.34-1.32s1.28,1.58,1.34,2.09c0.06,0.51,3.64,1.83,3.64,1.83L6.92,21.79z"/>
		
			<linearGradient id="Trazado_9532_1_" gradientUnits="userSpaceOnUse" x1="-214.3781" y1="500.1985" x2="-213.2445" y2="500.1985" gradientTransform="matrix(20.8 0 0 -11.004 4467.5986 5522.2432)">
			<stop  offset="0" style="stop-color:#005679"/>
			<stop  offset="0.247" style="stop-color:#007495"/>
			<stop  offset="0.556" style="stop-color:#0093B2"/>
			<stop  offset="0.818" style="stop-color:#00A6C4"/>
			<stop  offset="1" style="stop-color:#00ADCB"/>
		</linearGradient>
		<path id="Trazado_9532" class="st11" d="M32.12,24.21c-0.64-0.12-1.21-0.48-1.59-1.01c-0.43-0.79-0.72-4.61-2.02-4.76
			c-1.3-0.15-1.37,1.8-1.37,1.8s-0.14-8.44-4.25-8.44s-4.18,7.5-4.18,7.5s0.29-2.31-1.44-2.45c-1.73-0.15-1.59,3.75-1.59,3.75
			s-0.14-1.87-1.51-1.87s-1.43,2.24-1.51,2.96c-0.29,2.45-4.11,2.6-4.11,2.6L32.12,24.21z"/>
	</g>
	
		<linearGradient id="Trazado_9533_1_" gradientUnits="userSpaceOnUse" x1="-136.2227" y1="665.5631" x2="-135.0891" y2="665.5631" gradientTransform="matrix(154.5519 0 0 -126.6813 21151.3965 84518.3438)">
		<stop  offset="0.145" style="stop-color:#F2F2F2"/>
		<stop  offset="1" style="stop-color:#5ACABF"/>
	</linearGradient>
	<path id="Trazado_9533" class="st12" d="M159.85,137.84c0,0,11.2-7.57,25.03-5.24c13.83,2.33,17.62,10.48,20.91,13.97
		c3.29,3.49,5.76,12.52,32.44,14.85c26.67,2.33,31.12,17.76,31.94,20.81c0.82,3.06,3.13,13.1-3.79,19.79
		c-6.92,6.7-11.36,8.44-2.31,14.55c9.06,6.11,10.21,14.26,8.23,20.08s-8.23,17.03-21.08,15.72c-12.84-1.31-12.02-3.35-17.29,2.33
		c-5.27,5.68-8.07,11.93-18.44,13.39s-18.11-5.38-25.69-3.78c-7.57,1.6-13.17,7.71-16.79,9.61s-20.75,4.37-28.65-4.37
		c-7.9-8.73-9.22-6.55-11.86-4.37c-2.63,2.18-12.35,6.7-22.39-3.64s-10.37-21.54,1.65-32.46c12.02-10.92,9.39-14.99,3.46-19.5
		c-5.93-4.51-16.96-12.37-17.29-26.78s8.4-26.34,25.19-31.29C139.92,146.59,135.64,152.83,159.85,137.84z"/>
	
		<linearGradient id="Trazado_9534_1_" gradientUnits="userSpaceOnUse" x1="-136.0768" y1="664.5543" x2="-134.9432" y2="664.5543" gradientTransform="matrix(133.2791 0 0 -84.823 18254.332 56594.9453)">
		<stop  offset="0.145" style="stop-color:#F2F2F2"/>
		<stop  offset="1" style="stop-color:#5ACABF"/>
	</linearGradient>
	<path id="Trazado_9534" class="st13" d="M234.7,266.2c0,0-10.73,4.87-20.24,6.53s-17.78,0.82-24.22-3.26
		c-6.45-4.09-14.53-19.42-21.06-22.41c-6.53-2.99-20.45-5.65-28.55-7.92S116,229.04,118.36,206.9
		c2.36-22.14,18.34-29.78,32.91-25.83c14.57,3.95,22.41,8.02,48.09,1.03s52.93-8.54,64.83,11.87
		C276.1,214.39,267.07,249.37,234.7,266.2z"/>
	<path id="Trazado_9535" class="st14" d="M121.48,167.85c0,0,11.65-9.41,22.81-14.45c11.16-5.04,21.6-6.65,30.82-3.67
		c9.22,2.98,24.03,19.27,33.01,20.87c8.97,1.6,26.94,0.45,37.62,0.69c10.68,0.23,33.49,4.59,37.62,32.57
		c4.13,27.98-13.11,42.43-32.28,42.2c-19.17-0.23-30.1-2.75-59.46,13.99s-62.37,27.29-83.49,5.96
		C87.01,244.69,87.01,198.81,121.48,167.85z"/>
	<g id="Grupo_15979" transform="translate(252.316 151.905)">
		<g id="Grupo_15976">
			
				<linearGradient id="Trazado_9536_1_" gradientUnits="userSpaceOnUse" x1="-311.7874" y1="488.8639" x2="-310.2117" y2="488.8639" gradientTransform="matrix(9.294 0 0 -9.221 3499.2488 4522.7031)">
				<stop  offset="0" style="stop-color:#005679"/>
				<stop  offset="0.183" style="stop-color:#005D80"/>
				<stop  offset="0.459" style="stop-color:#007293"/>
				<stop  offset="0.792" style="stop-color:#0094B3"/>
				<stop  offset="1" style="stop-color:#00ADCB"/>
			</linearGradient>
			<path id="Trazado_9536" class="st15" d="M36.43,20.11L25.89,9.66l8.87,7.21L36.43,20.11z"/>
			<path id="Trazado_9537" class="st16" d="M39.96,13.84c0,0-11.34-3.13-14.07-4.18c0,0,4.81,8.74,5.83,11.67l3.04-4.45l1.2-1.12
				L39.96,13.84z"/>
			
				<linearGradient id="Trazado_9538_1_" gradientUnits="userSpaceOnUse" x1="-311.7874" y1="488.8639" x2="-310.2117" y2="488.8639" gradientTransform="matrix(9.294 0 0 -9.221 3499.2488 4522.7031)">
				<stop  offset="0" style="stop-color:#00ADCB"/>
				<stop  offset="0.263" style="stop-color:#00A9C8"/>
				<stop  offset="0.465" style="stop-color:#00A0BE"/>
				<stop  offset="0.646" style="stop-color:#008FAF"/>
				<stop  offset="0.816" style="stop-color:#007899"/>
				<stop  offset="0.976" style="stop-color:#005B7D"/>
				<stop  offset="1" style="stop-color:#005679"/>
			</linearGradient>
			<path id="Trazado_9538" class="st17" d="M36.43,20.11l-1.66-3.24l-8.87-7.21l10.07,6.09L36.43,20.11z"/>
		</g>
		<g id="Grupo_15978" transform="translate(1.598 9.495)">
			<g id="Grupo_15977">
				<path id="Trazado_9539" class="st16" d="M35.07,11.05l0.16-0.12c0,0.01,0.14,0.18,0.34,0.5l-0.17,0.1
					C35.2,11.22,35.07,11.05,35.07,11.05z"/>
				<path id="Trazado_9540" class="st16" d="M26.31,33.07c0.02-0.07,0.03-0.14,0.05-0.21l0.19,0.05c-0.02,0.07-0.04,0.14-0.05,0.22
					c-0.07,0.31-0.14,0.63-0.2,0.96l-0.19-0.04C26.17,33.71,26.24,33.39,26.31,33.07z M26.7,31.69c0.13-0.39,0.27-0.77,0.42-1.13
					l0.18,0.08c-0.15,0.36-0.29,0.74-0.42,1.12L26.7,31.69z M27.63,29.45c0.19-0.36,0.39-0.72,0.61-1.05l0.17,0.11
					c-0.21,0.33-0.41,0.68-0.6,1.04L27.63,29.45z M28.94,27.41c0.25-0.32,0.51-0.63,0.79-0.92l0.14,0.13
					c-0.27,0.29-0.53,0.6-0.78,0.91L28.94,27.41z M30.6,25.65c0.3-0.26,0.62-0.52,0.95-0.76l0.11,0.16
					c-0.32,0.24-0.64,0.49-0.93,0.75L30.6,25.65z M32.51,24.17c0.32-0.26,0.62-0.52,0.91-0.78l0.13,0.14
					c-0.29,0.27-0.6,0.53-0.92,0.79L32.51,24.17z M35.95,12.59l0.18-0.08c0.17,0.37,0.31,0.75,0.44,1.13l-0.19,0.06
					C36.26,13.32,36.12,12.95,35.95,12.59L35.95,12.59z M34.26,22.53c0.27-0.3,0.52-0.6,0.76-0.93l0.16,0.11
					c-0.23,0.32-0.49,0.63-0.77,0.94L34.26,22.53z M36.67,14.86l0.19-0.04c0.07,0.4,0.12,0.8,0.14,1.21l-0.2,0.01
					C36.79,15.64,36.74,15.25,36.67,14.86L36.67,14.86z M35.67,20.61c0.2-0.35,0.37-0.7,0.52-1.07l0.18,0.07
					c-0.15,0.38-0.33,0.74-0.54,1.09L35.67,20.61z M36.77,17.23l0.2,0.02c-0.04,0.4-0.11,0.81-0.21,1.2l-0.19-0.05
					C36.66,18.02,36.73,17.63,36.77,17.23L36.77,17.23z"/>
			</g>
		</g>
	</g>
	<g id="Grupo_15983" transform="translate(93.193 126.084)">
		<g id="Grupo_15980" transform="translate(0.96 0)">
			
				<linearGradient id="Trazado_9541_1_" gradientUnits="userSpaceOnUse" x1="-132.2996" y1="508.1603" x2="-130.9517" y2="508.1603" gradientTransform="matrix(10.86 0 0 -7.307 2393.3237 3723.481)">
				<stop  offset="0" style="stop-color:#005679"/>
				<stop  offset="0.183" style="stop-color:#005D80"/>
				<stop  offset="0.459" style="stop-color:#007293"/>
				<stop  offset="0.792" style="stop-color:#0094B3"/>
				<stop  offset="1" style="stop-color:#00ADCB"/>
			</linearGradient>
			<path id="Trazado_9541" class="st18" d="M7.05,14.49l12.31-8.28L9.29,11.62L7.05,14.49z"/>
			<path id="Trazado_9542" class="st16" d="M4.76,7.67c0,0,11.73-0.94,14.61-1.46c0,0-6.38,7.68-7.92,10.36l-2.15-4.95l-0.96-1.33
				L4.76,7.67z"/>
			
				<linearGradient id="Trazado_9543_1_" gradientUnits="userSpaceOnUse" x1="-132.2996" y1="508.1603" x2="-130.9517" y2="508.1603" gradientTransform="matrix(10.86 0 0 -7.307 2393.3237 3723.481)">
				<stop  offset="0" style="stop-color:#00ADCB"/>
				<stop  offset="0.263" style="stop-color:#00A9C8"/>
				<stop  offset="0.465" style="stop-color:#00A0BE"/>
				<stop  offset="0.646" style="stop-color:#008FAF"/>
				<stop  offset="0.816" style="stop-color:#007899"/>
				<stop  offset="0.976" style="stop-color:#005B7D"/>
				<stop  offset="1" style="stop-color:#005679"/>
			</linearGradient>
			<path id="Trazado_9543" class="st19" d="M7.05,14.49l2.24-2.87l10.07-5.41L8.32,10.29L7.05,14.49z"/>
		</g>
		<g id="Grupo_15982" transform="translate(0 7.51)">
			<g id="Grupo_15981">
				<path id="Trazado_9544" class="st16" d="M7.69,7.36L7.56,7.21C7.55,7.22,7.39,7.36,7.14,7.64l0.15,0.13
					C7.53,7.51,7.69,7.36,7.69,7.36z"/>
				<path id="Trazado_9545" class="st16" d="M12.17,31.63h-0.2c0-0.33,0-0.66-0.02-0.98c0-0.07-0.01-0.15-0.01-0.23l0.2-0.01
					c0,0.07,0.01,0.14,0.01,0.21C12.16,30.96,12.17,31.3,12.17,31.63z M11.83,29.23c-0.05-0.4-0.11-0.79-0.2-1.18l0.19-0.04
					c0.08,0.39,0.15,0.79,0.2,1.2L11.83,29.23z M11.34,26.89c-0.11-0.38-0.25-0.76-0.39-1.13l0.18-0.07
					c0.15,0.37,0.28,0.76,0.4,1.15L11.34,26.89z M10.46,24.67c-0.18-0.35-0.38-0.7-0.59-1.04l0.17-0.11
					c0.22,0.34,0.42,0.69,0.6,1.06L10.46,24.67z M9.18,22.66c-0.24-0.31-0.5-0.62-0.78-0.91l0.14-0.13c0.28,0.3,0.54,0.61,0.79,0.93
					L9.18,22.66z M7.59,20.85c-0.27-0.32-0.52-0.63-0.75-0.95L7,19.78c0.23,0.31,0.48,0.63,0.74,0.94L7.59,20.85z M5.91,9.71
					L5.73,9.62c0.19-0.36,0.41-0.7,0.64-1.03L6.54,8.7C6.31,9.03,6.1,9.36,5.91,9.71L5.91,9.71z M6.16,18.89
					c-0.21-0.35-0.41-0.71-0.58-1.07l0.18-0.09c0.17,0.36,0.36,0.71,0.57,1.05L6.16,18.89z M5.05,11.93l-0.19-0.05
					c0.09-0.4,0.22-0.78,0.36-1.16l0.18,0.07C5.26,11.17,5.14,11.55,5.05,11.93L5.05,11.93z M5.12,16.69
					c-0.13-0.38-0.24-0.78-0.32-1.18L5,15.48c0.08,0.39,0.18,0.77,0.31,1.15L5.12,16.69z M4.84,14.3l-0.2,0.01
					c-0.02-0.41-0.02-0.81,0.02-1.22l0.2,0.02C4.83,13.51,4.82,13.9,4.84,14.3L4.84,14.3z"/>
			</g>
		</g>
	</g>
	<g id="Grupo_15988" transform="translate(116.952 130.542)">
		<g id="Grupo_15985" transform="translate(3.46 1.236)">
			<g id="Grupo_15984">
				<path id="Trazado_9546" class="st20" d="M28.15,91.59c-2.52,0-4.62-1.94-4.81-4.45l0,0c-1.03-9.25,2.06-19.36,10.62-29.63
					c7.71-9.08,11.99-15.76,11.99-23.47c0-8.74-5.48-14.56-16.27-14.74c-4.64,0.03-9.22,1.05-13.44,3
					c-2.06,0.97-4.51,0.09-5.48-1.97c-0.05-0.1-0.09-0.2-0.13-0.3l-2.37-6.22c5.65-4.11,15.42-6.85,24.5-6.85
					c19.7,0,28.61,12.16,28.61,25.18c0,11.65-6.51,20.04-14.74,29.81c-7.54,8.91-10.28,16.45-9.76,25.18l0.17,4.45L28.15,91.59z"/>
				<circle id="Elipse_362" class="st20" cx="30.67" cy="108.31" r="9.92"/>
			</g>
		</g>
		<g id="Grupo_15987" transform="translate(0 0)">
			<g id="Grupo_15986">
				<path id="Trazado_9547" class="st21" d="M27.69,91.43c-2.52,0-4.62-1.94-4.81-4.45l0,0c-1.03-9.25,2.06-19.36,10.62-29.63
					c7.71-9.08,11.99-15.76,11.99-23.47c0-8.74-5.48-14.56-16.27-14.74c-4.64,0.03-9.22,1.05-13.44,3
					c-2.06,0.97-4.51,0.09-5.48-1.97c-0.05-0.1-0.09-0.19-0.12-0.29l-2.37-6.22C13.46,9.54,23.22,6.8,32.3,6.8
					c19.7,0,28.61,12.16,28.61,25.18c0,11.65-6.51,20.04-14.74,29.81c-7.54,8.91-10.28,16.45-9.76,25.18l0.17,4.45L27.69,91.43z"/>
				<circle id="Elipse_363" class="st21" cx="30.21" cy="108.14" r="9.92"/>
			</g>
		</g>
	</g>
	<g id="Grupo_15993" transform="translate(192.811 136.872)">
		<g id="Grupo_15990" transform="translate(1.653 1.147)">
			<g id="Grupo_15989" transform="translate(0)">
				<path id="Trazado_9548" class="st22" d="M24.58,85.75L19.93,7.8h20.12L35.4,85.75H24.58z"/>
				<circle id="Elipse_364" class="st22" cx="30.77" cy="101.75" r="9.21"/>
			</g>
		</g>
		<g id="Grupo_15992" transform="translate(0 0)">
			<g id="Grupo_15991">
				<path id="Trazado_9549" class="st23" d="M22.59,85.6L17.95,7.65h20.11L33.41,85.6H22.59z"/>
				<circle id="Elipse_365" class="st23" cx="28.78" cy="101.59" r="9.21"/>
			</g>
		</g>
	</g>
	<g id="Grupo_15996" transform="translate(186.117 113.223)">
		<path id="Trazado_9550" class="st24" d="M37.86,20.2c0,0,4.03,2.01,6.43-0.2c2.4-2.21,2.29-3.42,1.96-4.32
			c0.54-1.41-1.09-4.12-3.49-4.12c0,0-1.14-1-1.09-2.01c0.05-1-0.28-3.06-2.63-2.81c-2.34,0.25-2.27,0.96-2.22,1.51
			c0.14,0.61,0,1.26-0.38,1.76c-0.85,0.97-1.32,2.22-1.31,3.51C35.09,15.53,33.61,17.94,37.86,20.2z"/>
		<path id="Trazado_9551" class="st24" d="M35.28,7.33c-0.48-0.48-0.6-1.22-0.29-1.82c0.58-0.91,1.74-1.74,3.97,0
			c0.66,0.33,1.38,0.53,2.11,0.58c0.45,0.04,1.28,0.29,1.04,2.19c-0.25,1.9-0.41,2.4,0.83,3.35c1.24,0.95,2.32,2.03-0.04,4.84
			c-1.36,2.01-3.97,2.73-6.17,1.7c-1.7-0.54-3.64-2.44-3.19-3.64c0.46-1.2,1.2-1.57,0.83-2.65C33.64,10.33,34.01,8.48,35.28,7.33z"
			/>
		<path id="Trazado_9552" class="st25" d="M28.09,12.63c0.09,1.06,0.24,3.05,0.34,4.39c0,0.01,0.2,1.4,0.2,1.4
			c0.3,2.07,0.79,3.62,1.84,4c0.56,0.13,1.15-0.05,1.54-0.48c1.7-1.28,3.14-2.89,4.23-4.71c0-0.01,2.12-4.88,1.53-5.25
			c-0.57,0.27-1.11,0.62-1.59,1.03c-1.63,1.84-3.11,3.81-4.4,5.89c-0.95,1.58-2.42-4.99-2.69-6.19
			C29.09,12.71,28.18,12.29,28.09,12.63z"/>
		<path id="Trazado_9553" class="st25" d="M21.5,47.68l0.98-1.74c-0.09-0.49-0.19-1.28-0.3-2.23h1.69
			c-0.13,0.91-0.25,1.68-0.35,2.23l0.05,0.91L21.5,47.68z"/>
		<path id="Trazado_9554" class="st25" d="M26.92,47.68l0.98-1.74c-0.09-0.49-0.19-1.28-0.3-2.23h1.69
			c-0.13,0.91-0.25,1.68-0.35,2.23L29,46.84L26.92,47.68z"/>
		<path id="Trazado_9555" class="st3" d="M43.42,27.65c0,0-6.24,1.99-9.94,0.27c0.41-2.46,0.69-4.93,0.84-7.42
			c-0.15-0.98-1.29-1.14-1.27-2.2c0.04-1.54,2.23-3.99,3.38-5.55c0.09-0.11,0.14-0.16,0.19-0.21c0.82-0.31,1.67-0.53,2.53-0.63
			c1.53,0.13,2.99,0.66,4.24,1.55c0.69,1.84-1.22,6.53-0.88,10.13C42.73,24.96,43.03,26.32,43.42,27.65z"/>
		<path id="Trazado_9556" class="st25" d="M36.29,7.66c0.81,0.24,1.68,0.26,2.5,0.04c0.04,0.41,0.34,0.74,0.74,0.83
			c0,0,0.04-0.17,0.33-0.02c0.29,0.15,0.29,1.03-0.48,1.25c-0.1,0.23-0.17,0.48-0.23,0.72c0.01,0.49,0.07,0.97,0.16,1.45
			c-0.51,0.66-1.1,1.25-1.76,1.75c-0.52,0.23-1.97,0.83-0.62-1.57c0.14-0.26,0.21-0.55,0.21-0.85c0,0-0.89,0.06-0.74-1.16
			C36.5,9.29,36.45,8.46,36.29,7.66z"/>
		<path id="Trazado_9557" class="st26" d="M38.68,10.68c-0.53,0.53-1.11,1.01-1.73,1.43c0.13-0.26,0.2-0.55,0.21-0.85
			C37.71,11.19,38.23,10.99,38.68,10.68z"/>
		<path id="Trazado_9558" class="st27" d="M42.77,14.22c0.89,1.68,0.24,6.32,0.07,7.92c0.27,1.67,0.65,3.32,1.13,4.93
			c-1.06-0.08-2.12,0.1-3.09,0.53c-0.3-0.77-5.43-2.43-5.96-3.07c2.68-1.11,5.25-1.29,5.91-3.02c0.26-0.96-0.52-3.53,0.14-6.36
			C41.31,13.66,42.54,13.78,42.77,14.22z"/>
		<path id="Trazado_9559" class="st25" d="M28.15,12.86l-0.09-0.31c-0.06-0.2-0.21-0.35-0.4-0.42l0,0
			c-0.17-0.06-0.33-0.15-0.48-0.27c-0.1-0.07-0.19-0.16-0.27-0.25l0,0c-0.19-0.18-0.37-0.38-0.51-0.61
			c-0.02-0.03-0.09-0.15-0.04-0.19c0.04-0.04,0.1,0,0.15,0.03c-0.07-0.09-0.12-0.16-0.14-0.18c-0.02-0.03-0.11-0.17-0.06-0.23
			c0.05-0.05,0.15,0.01,0.21,0.04l0.02,0.01c-0.05-0.06-0.1-0.11-0.15-0.18c-0.03-0.04-0.09-0.16-0.03-0.23
			c0.06-0.06,0.16-0.02,0.23,0.01c0.05,0.03,0.1,0.07,0.14,0.11c-0.04-0.06-0.08-0.13-0.04-0.18c0.06-0.07,0.2,0.01,0.28,0.04
			c0.18,0.11,0.34,0.23,0.5,0.35l0.57,0.47l-0.07-0.17l-0.04-0.2c-0.04-0.13,0.01-0.33,0.08-0.25l0.33,0.36
			c0.05,0.06,0.09,0.12,0.13,0.19l0.33,0.64c0.1,0.18,0.16,0.38,0.17,0.59c0.02,0.17,0.06,0.33,0.1,0.49l0.12,0.58
			C28.83,13.11,28.48,13.02,28.15,12.86z"/>
		<path id="Trazado_9560" class="st28" d="M39.51,26.45c-0.75-1.63-15.9-1.35-17.86-0.53c-0.73,0.45-1.21,1.21-1.31,2.06
			c-0.18,0.93-0.22,1.88-0.12,2.82l0.18,2.07c0,0.01,0,0.02,0,0.03c0.3,4.15,0.87,8.27,1.69,12.34c0.31,0.23,1.22,0.07,1.83-0.08
			c0.41-0.15,0.68-0.53,0.67-0.96c0.35-4.36,0.36-8.75,0.05-13.12c1.7,0,7.24-0.02,8.64,0.05c2.73,0.13,6.14-1.8,6.26-3.19
			L39.51,26.45z"/>
		<path id="Trazado_9561" class="st29" d="M44.26,29.1c-0.23,1.38-1.3,2.21-3.44,2.21c-1.46,0-8.38-0.1-10.56-0.1
			c0.21,4.47,0.07,8.95-0.4,13.39c0,0.43-0.28,0.81-0.69,0.95c-0.62,0.13-1.53,0.27-1.83,0.03c-0.71-4.09-1.17-8.23-1.37-12.38
			c0-0.01,0-0.02,0-0.03l-0.13-2.07c-0.09-1.08,0.02-2.16,0.31-3.21c0.17-0.82,0.69-1.53,1.43-1.94c1.81-0.82,15.79-0.5,16.07,0.06
			C44.1,26.97,44.32,28.03,44.26,29.1z"/>
		<path id="Trazado_9562" class="st25" d="M33.5,24.81c0,0-1.36-0.1-1.69-0.1c-0.35-0.03-0.71-0.02-1.06,0.02
			c-0.42,0.19-0.82,0.43-1.19,0.71c-0.18,0.2-0.23,0.28-0.18,0.36c-0.03,0.04-0.04,0.09-0.03,0.14c0.03,0.07,0.11,0.1,0.18,0.07
			c0,0-0.01,0.08,0.13,0.08c0.1,0.01,0.2-0.02,0.28-0.09c0,0-0.02,0.03,0.04,0.08c0.08,0.07,0.38,0,0.54-0.05
			c0.21-0.04,0.42-0.06,0.63-0.08c0.08-0.02,0.29,0.11,0.57,0.12c0.47,0,0.93-0.08,1.36-0.25c0.48-0.13,0.97-0.18,1.46-0.17
			c0.01-0.29-0.02-0.57-0.09-0.85C34.38,24.71,34,24.79,33.5,24.81z"/>
		<path id="Trazado_9563" class="st25" d="M40.98,14.51c-0.26,1.15,0.68,6.78,0.26,7.74s-7.3,2.53-7.3,2.53l0.19,0.91
			c0,0,6.09,0.29,8.18-0.3c2.24-0.63,2.26-1.5,2.38-3.07c0-2.69-0.27-5.37-0.81-8.01C43.16,12.33,41.35,12.84,40.98,14.51z"/>
		<g id="Grupo_15995" transform="translate(0 10.482)">
			<g id="Grupo_15994">
				<path id="Trazado_9564" class="st24" d="M33.08,15.71H20.49c-0.06,0-0.11-0.04-0.13-0.09l-3.11-9.55
					C17.23,6,17.27,5.92,17.34,5.9c0.01,0,0.03-0.01,0.04-0.01h12.38c0.19,0,0.35,0.12,0.41,0.3l3.04,9.34
					c0.02,0.07-0.02,0.15-0.09,0.17C33.11,15.71,33.1,15.71,33.08,15.71z"/>
				<path id="Rectángulo_2625" class="st24" d="M29.21,15.04h11.85c0.12,0,0.23,0.1,0.23,0.23l0,0c0,0.12-0.1,0.23-0.23,0.23H29.21
					c-0.12,0-0.23-0.1-0.23-0.23l0,0C28.98,15.15,29.09,15.04,29.21,15.04z"/>
				<path id="Trazado_9565" class="st2" d="M33.01,15.71H20.58c-0.27,0-0.5-0.17-0.59-0.43l-2.93-9c-0.05-0.16,0.04-0.33,0.2-0.38
					c0.03-0.01,0.06-0.01,0.09-0.01h12.03c0.26,0,0.49,0.17,0.57,0.41L33.01,15.71z"/>
				<path id="Rectángulo_2626" class="st2" d="M28.98,15.26h12.3l0,0l0,0c0,0.25-0.2,0.45-0.45,0.45H28.98l0,0V15.26L28.98,15.26z"
					/>
			</g>
			<path id="Trazado_9566" class="st30" d="M25.57,10.79c0,0.46-0.54,0.83-1.22,0.83c-0.67,0-1.22-0.37-1.22-0.83
				c0-0.46,0.54-0.83,1.22-0.83C25.02,9.96,25.57,10.33,25.57,10.79z"/>
		</g>
		<path id="Trazado_9567" class="st24" d="M25.66,48.41l1.93-0.05c0.17,0,0.33-0.08,0.45-0.2l0.76-0.79l0.03,0.96l0.29-0.01
			l0.23-1.09c0.05-0.24,0-0.49-0.13-0.7l-0.15-0.23c-0.03-0.05-0.1-0.07-0.16-0.03c0,0-0.01,0.01-0.01,0.01l-1.08,0.92
			c-0.21,0.18-0.46,0.29-0.73,0.33l-0.23,0.03c-0.16,0.02-0.32,0.07-0.48,0.13l-0.29,0.11c-0.05,0.03-0.09,0.06-0.13,0.1
			c-0.08,0.07-0.16,0.15-0.22,0.24l-0.11,0.17c-0.02,0.03-0.01,0.06,0.01,0.08C25.64,48.41,25.65,48.41,25.66,48.41z"/>
		<path id="Trazado_9568" class="st24" d="M20.24,48.41l1.93-0.05c0.17,0,0.33-0.08,0.45-0.2l0.76-0.79l0.03,0.96l0.29-0.01
			l0.23-1.09c0.05-0.24,0-0.49-0.13-0.7l-0.15-0.23c-0.03-0.05-0.1-0.07-0.16-0.03c0,0-0.01,0.01-0.01,0.01l-1.08,0.92
			c-0.21,0.18-0.46,0.29-0.73,0.33l-0.23,0.03c-0.16,0.02-0.32,0.07-0.48,0.13l-0.29,0.11c-0.05,0.03-0.09,0.06-0.13,0.1
			c-0.08,0.07-0.16,0.15-0.22,0.24l-0.11,0.17c-0.02,0.03-0.01,0.06,0.01,0.08C20.22,48.41,20.23,48.41,20.24,48.41z"/>
	</g>
	<g id="Grupo_16002" transform="translate(160.878 181.304)">
		<path id="Trazado_9569" class="st31" d="M16.05,19.39c0,0-0.12-0.28-0.06-0.38c0.07-0.1,0.33-0.55,0.33-0.55l0.05-0.2
			c0,0,0.3-0.28,0.35-0.34c0.05-0.06,0.11-0.15-0.03-0.18c-0.19-0.01-0.37,0.05-0.52,0.18c-0.07,0.08-0.17,0.13-0.27,0.16
			c-0.08-0.17-0.17-0.34-0.26-0.5c0,0-0.13-0.68-0.21-0.96c-0.08-0.28-0.12-0.43-0.2-0.42c-0.08,0.01-0.12,0.18-0.09,0.49
			c0.03,0.23,0.07,0.57,0.09,0.72c0,0.01-0.01,0.02-0.02,0.02c-0.01,0-0.01,0-0.02-0.01c-0.1-0.19-0.38-0.71-0.45-0.83
			c-0.09-0.15-0.23-0.4-0.33-0.35c-0.1,0.05,0.09,0.58,0.18,0.82c0.06,0.16,0.13,0.34,0.18,0.44c0,0.01,0,0.01-0.01,0.02
			c0,0-0.01,0-0.01,0c-0.14-0.17-0.46-0.57-0.57-0.67c-0.14-0.13-0.23-0.15-0.26-0.12c-0.04,0.03,0.02,0.25,0.11,0.42
			c0.08,0.13,0.34,0.53,0.45,0.68c0,0.01,0,0.02-0.01,0.02c0,0-0.01,0-0.01,0c-0.11-0.09-0.36-0.27-0.47-0.35
			c-0.14-0.11-0.26-0.17-0.31-0.11c-0.05,0.07,0.22,0.38,0.32,0.49c0.1,0.12,0.36,0.35,0.36,0.35c0.09,0.27,0.19,0.54,0.32,0.79
			c0.13,0.24,0.33,0.43,0.57,0.57c0.04,0.12,0.08,0.41,0.08,0.41l0.86-0.26L16.05,19.39z"/>
		<path id="Trazado_9570" class="st32" d="M15.12,19.73l0.92-0.37c0.31-0.13,0.66,0.02,0.78,0.33c0,0,0,0.01,0.01,0.01
			c0.45,1.18,0.98,2.34,1.58,3.46c0.7,1.32,1.52,2.57,2.45,3.74c2.87,1.2,5.8,2.22,8.8,3.06c1.55,0.59,2.45,1.91,1.97,3.11
			l-0.16,0.4c-0.74,1.29-2.35,1.77-3.68,1.1l-1.34-0.51l-0.02-0.01c-2.38-0.85-4.61-2.07-6.6-3.63l0,0
			c-1.56-1.25-2.74-2.9-3.42-4.78l-0.45-1.25l-0.01-0.02c-0.49-1.3-0.88-2.64-1.18-4.01C14.72,20.1,14.87,19.83,15.12,19.73z"/>
		<g id="Grupo_15997" transform="translate(13.735 7.368)">
			<path id="Trazado_9571" class="st31" d="M16.15,22.07c0,0,1.13,1.88,2.62,0.99l0.05-1.56l0.3-1.02h-2.85
				C16.48,21,16.43,21.59,16.15,22.07z"/>
			<path id="Trazado_9572" class="st33" d="M17.96,21.37c-0.3,0.27-0.76,0.79-1.18,0.82c-0.21,0.03-0.43-0.04-0.59-0.18
				c0.08-0.51,0.11-1.02,0.09-1.53l2.57-0.07C18.59,20.77,18.29,21.09,17.96,21.37z"/>
			<path id="Trazado_9573" class="st24" d="M16.14,18.19c-0.18-0.24-0.31-0.52-0.37-0.82c-0.02-0.25,0.06-0.5,0.21-0.69
				c0,0-0.41-0.47,0-0.77c0.41-0.3,2.15,0.29,2.15,0.29L16.14,18.19z"/>
			<path id="Trazado_9574" class="st31" d="M16.87,16.72c-1.67,2.41-1.13,3.97-0.74,4.22c1.29,0.42,2.72,0.03,3.61-1
				c0.78-0.86,0.73-2.19-0.11-2.99C18.79,16.32,17.59,15.68,16.87,16.72z"/>
			<path id="Trazado_9575" class="st24" d="M16.19,14.82c0.35-0.24,0.83-0.57,1.6,0.43c0.19,0.24,0.59-0.09,1.33,0.09
				c1.15,0.28,0.98,0.93,1.62,1.29c0.44,0.25,0.29,0.63,0.59,1.43c0.19,0.52-0.41,0.76-0.28,1.25c0.15,0.57-0.83,0.49-0.92,0.85
				c-0.21,0.86-1.03,1.03-1.34,1.31c-0.09,0.08-0.04-0.37-0.03-0.49c0.06-0.38,0.23-0.73,0.48-1.01c0.24,0.01,0.84-0.07,0.84-0.98
				c0-0.98-0.8-0.06-0.8-0.06c-0.02-0.26,0.01-0.51,0.1-0.75c0.28-0.57-0.3-0.92-1.16-1c-0.37-0.03-0.39-0.51-0.69-0.51
				c-0.51,0.01-0.89-0.36-1.25-0.21c-0.19,0.08-0.36-0.24-0.52-0.36C15.23,15.7,15.6,15.23,16.19,14.82z"/>
			<path id="Trazado_9576" class="st24" d="M15.75,19.22c0.2-0.11,0.43-0.15,0.65-0.14c0.27,0.06,1.03,0.08,1.32,0.58
				c0.28,0.51,0.48,0.41,0.67,0.22c0.19-0.19,0.82-1.46,1.04-1.55s-0.3,1.12-0.3,1.12c-0.13,0.14-0.24,0.3-0.33,0.47
				c-0.12,0.2-0.22,0.42-0.29,0.64c-0.05,0.27-0.19,0.52-0.4,0.7c-0.4,0.18-0.86,0.19-1.27,0.02c-0.63-0.23-0.83-0.3-0.99-0.72
				C15.67,20.15,15.63,19.67,15.75,19.22z"/>
		</g>
		<g id="Grupo_15999" transform="translate(21.286 54.593)">
			<g id="Grupo_15998">
				<path id="Trazado_9577" class="st24" d="M18.86,20.88l1.02,2.21c-0.2,0.54-0.67,0.93-1.24,1.02l-0.87-2.21
					C18.12,21.55,18.48,21.2,18.86,20.88z"/>
				<path id="Trazado_9578" class="st24" d="M18.12,22.69c0,0,0.45,0.73,0.29,1.19c-0.17,0.46-0.56,0.66-1.17,0.99
					c-0.79,0.42-1.18,2.22,0.16,1.13c0.65-0.5,1.17-1.16,1.51-1.91c0.03-0.39-0.15-0.77-0.48-0.98L18.12,22.69z"/>
			</g>
		</g>
		<g id="Grupo_16001" transform="translate(5.386 56.617)">
			<g id="Grupo_16000">
				<path id="Trazado_9579" class="st24" d="M19.16,21.16l-0.29,2.42c-0.45,0.35-1.06,0.44-1.59,0.23l0.42-2.34
					C18.19,21.34,18.67,21.24,19.16,21.16z"/>
				<path id="Trazado_9580" class="st24" d="M17.59,22.31c0,0,0,0.86-0.38,1.16c-0.38,0.3-0.82,0.27-1.51,0.23
					c-0.89-0.06-2.17,1.27-0.45,1.05c0.82-0.08,1.61-0.37,2.29-0.84c0.23-0.32,0.27-0.73,0.1-1.09L17.59,22.31z"/>
			</g>
		</g>
		<path id="Trazado_9581" class="st34" d="M38.88,77.71c-1.69-1.38-8.29-9.65-8.29-9.65c-1.26-1.56-1.34-2.83-0.57-3.45l0.26-0.21
			c0.97-0.45,2.03-0.67,3.09-0.65c2.99,3.62,5.52,7.6,7.53,11.84c0.11,0.23,0.1,0.49-0.04,0.71C40.52,76.83,39.79,77.77,38.88,77.71
			z"/>
		<path id="Trazado_9582" class="st35" d="M22.33,51.35c0.63-2.47,0.97-4.43,2.35-5.51l7.63,1.17c0.73,3.15-2.24,5.68-4.36,11.3
			c-0.37,0.97-1.35,4.96-1.89,7.17c-0.22,1.57-1.67,2.67-3.24,2.45c-0.03,0-0.06-0.01-0.09-0.01c-0.97-0.45-1.59-1.42-1.58-2.49
			C21.07,60.71,21.46,55.99,22.33,51.35z"/>
		<path id="Trazado_9583" class="st35" d="M22.66,78.65c-1.38-3.09-1.75-12.26-1.49-14.02c0,0,4.88-0.33,4.88-0.32
			c-0.05,4.53-0.37,9.06-0.95,13.56c-0.06,0.3-0.28,0.54-0.57,0.61C23.93,78.71,23.29,78.77,22.66,78.65z"/>
		<path id="Trazado_9584" class="st34" d="M27.66,47.41c0.49-2.51,9.12-5.05,7.72,5.62c-0.32,2.45-1.57,11.69-2.63,13.34
			c-0.42,0.65-2.38,1.4-2.56,1.15c-0.32-0.42-0.59-0.87-0.81-1.35c-0.94-2.15-0.76-5.9-1.13-8.38C27.94,55.74,27.1,50.3,27.66,47.41
			z"/>
		<path id="Trazado_9585" class="st31" d="M21.88,17.06c0,0-0.04-0.3,0.05-0.38c0.09-0.08,0.47-0.44,0.47-0.44l0.1-0.18
			c0,0,0.37-0.19,0.43-0.23c0.06-0.04,0.16-0.11,0.02-0.18c-0.18-0.06-0.37-0.05-0.55,0.03c-0.09,0.05-0.2,0.08-0.3,0.08
			c-0.03-0.19-0.07-0.37-0.11-0.55c0,0,0.06-0.69,0.06-0.98s0-0.44-0.08-0.46c-0.08-0.02-0.17,0.14-0.22,0.44
			c-0.04,0.23-0.08,0.57-0.11,0.72c0,0.01-0.01,0.02-0.02,0.01c-0.01,0-0.01-0.01-0.01-0.01c-0.05-0.21-0.17-0.79-0.21-0.93
			c-0.04-0.17-0.11-0.44-0.22-0.43c-0.1,0.02-0.07,0.58-0.05,0.84c0.01,0.17,0.03,0.36,0.05,0.47c0,0.01,0,0.01-0.01,0.02
			c-0.01,0-0.01,0-0.01-0.01c-0.09-0.2-0.29-0.67-0.37-0.79c-0.1-0.16-0.17-0.21-0.22-0.19c-0.05,0.02-0.05,0.24,0,0.43
			c0.04,0.15,0.18,0.6,0.24,0.78c0,0.01,0,0.02-0.01,0.02c-0.01,0-0.02,0-0.02-0.01l0,0c-0.09-0.11-0.28-0.36-0.35-0.47
			c-0.1-0.15-0.2-0.24-0.27-0.19s0.1,0.42,0.17,0.57s0.25,0.44,0.25,0.44c0.01,0.29,0.03,0.57,0.09,0.85
			c0.06,0.26,0.2,0.51,0.39,0.7c0,0.13-0.04,0.42-0.04,0.42l0.9-0.01L21.88,17.06z"/>
		<path id="Trazado_9586" class="st36" d="M27.91,30.68c0.5-0.12,0.96-0.37,1.33-0.72l-0.03,0.43l-0.94,1.8l-0.82-1.47
			C27.62,30.72,27.77,30.71,27.91,30.68z"/>
		<path id="Trazado_9587" class="st3" d="M25.15,33.74c0.66-2.1,2.47-3.63,4.65-3.92c0.74,0.03,1.48,0.11,2.2,0.24
			c0.56,0.24,1.09,0.54,1.58,0.91c1.45,1.81,0,4.91,0,7.13s-0.16,3.32,0.61,4.99c0.41,1.1,0.67,2.24,0.77,3.41
			c-1.27,0.78-5.26,0.69-6.33,0.52c-1.39-0.22-4.62-0.74-4.59-1.67C24.17,41.22,24.49,36.04,25.15,33.74z"/>
		<path id="Trazado_9588" class="st3" d="M20.52,17.6c0.01-0.27,0.22-0.5,0.49-0.54l0.98-0.15c0.33-0.05,0.63,0.17,0.69,0.5
			c0,0,0,0.01,0,0.01c0.17,1.26,0.41,2.5,0.74,3.73c0.38,1.44,0.89,2.84,1.52,4.19c2.51,1.83,5.14,3.5,7.86,5
			c1.38,0.93,1.95,2.42,1.21,3.48l-0.25,0.35c-1.01,1.08-2.7,1.18-3.83,0.23l-1.19-0.8l-0.02-0.01c-2.12-1.37-4.01-3.08-5.59-5.05
			l0,0c-1.23-1.57-2-3.46-2.23-5.44l-0.15-1.31c0-0.01,0-0.01,0-0.02C20.57,20.38,20.5,18.99,20.52,17.6z"/>
	</g>
	<g id="Grupo_16007" transform="translate(220.825 183.123)">
		<path id="Trazado_9589" class="st31" d="M29.67,20.49c0,0,0.28,0.03,0.3,0.23c0.03,0.36-0.03,0.71-0.15,1.05
			c-0.15,0.32-0.14,0.68-0.71,0.71c-0.57,0.03-1.59-0.47-1.59-0.69c0-0.23,0.45-0.79,0.45-0.79l0.28-0.4
			C28.64,20.22,29.23,20.18,29.67,20.49z"/>
		<path id="Trazado_9590" class="st31" d="M31.66,51.25c-0.17,2.18-0.17,4.36,0,6.54c-0.05,0.41-0.06,0.83-0.06,1.25
			c0,0,1.25,14.4,1.81,17.16c0.6,0.44,1.41-0.21,1.41-0.21c0.87-4.84,1.35-9.75,1.42-14.67c0-0.01,0-0.02,0-0.04l-0.03-2.25
			c0-0.36-0.03-0.72-0.07-1.08C36.79,56.78,31.73,49.97,31.66,51.25z"/>
		<path id="Trazado_9591" class="st37" d="M31.53,38.03c-0.39,1.42-0.57,2.88-0.54,4.35c-0.11,2.08,0.16,11.82,0.41,14.08
			c-0.05,0.42,0.76,15.77,1.37,18.72c0.79,0.69,2.82-0.05,2.82-0.05c1.09-2.9,0.93-18.03,0.89-18.4c0.68-1.25,1.07-10.33,1.78-13
			c0.06-0.22,0.08-4.78,0.13-5.01C35.5,38.09,34.37,38.88,31.53,38.03z"/>
		<path id="Trazado_9592" class="st38" d="M33.93,20.35c-0.55,0.77-1.22,1.82-1.47,2.12c-0.42,0.48-0.57,1.14-0.4,1.75
			c0.65,0.96,1.82,1.42,2.95,1.15c1.39-0.26,2.45-1.39,2.62-2.8c0.1-1.75-0.07-5.14-0.07-5.14l-1.17-0.77
			C36.38,16.66,34.48,19.58,33.93,20.35z"/>
		<path id="Trazado_9593" class="st39" d="M28.16,21.87c-0.05,0.08,1.02,0.59,1,0.62c-0.68,1.2-1.06,4.68-1.14,5.68
			c-0.01,0.07,0.04,0.14,0.11,0.15c0.02,0,0.03,0,0.05,0c1.13-0.3,4.83-5.96,6.92-6.71c0.49-0.17,0.85,3.23,0.79,3.32
			c-0.87,1.41-1.95,2.68-3.2,3.76c-4.14,2.66-5.61,2.51-6.61,2.02c-1.12-0.56-0.6-2.54-0.33-3.25
			C26.4,25.54,27.21,23.67,28.16,21.87z"/>
		<g id="Grupo_16003" transform="translate(7.417 54.522)">
			<path id="Trazado_9594" class="st31" d="M27.41,21.11l0.09,1.56l-2.95,1.19l1.47-2.62L27.41,21.11z"/>
			<path id="Trazado_9595" class="st38" d="M22.76,24.91l2.74-0.08c0.24-0.01,0.47-0.11,0.63-0.28l1.08-1.13l0.04,1.36l0.41-0.01
				l0.33-1.55c0.07-0.34,0.01-0.7-0.19-0.99l-0.22-0.33c-0.05-0.08-0.15-0.1-0.23-0.05c-0.01,0-0.01,0.01-0.02,0.01l-1.54,1.31
				c-0.3,0.25-0.66,0.42-1.04,0.47l-0.32,0.05c-0.23,0.03-0.46,0.1-0.68,0.18l-0.41,0.17c-0.07,0.04-0.13,0.08-0.19,0.14
				c-0.12,0.1-0.22,0.22-0.31,0.35l-0.16,0.25c-0.03,0.04-0.02,0.09,0.02,0.11C22.72,24.91,22.74,24.92,22.76,24.91z"/>
		</g>
		<path id="Trazado_9596" class="st31" d="M43.98,57.38c0.22,0.5,0.39,1.01,0.53,1.54l0.6,2.27c0,0.01,0.01,0.02,0.01,0.04
			c0.99,4.91,2.13,11.4,2.41,14.43c-0.52,0.27-1.13,0.35-1.7,0.21c-1.26-2.66-5.82-15.8-5.82-15.8c-0.24-0.87-0.36-1.77-0.36-2.67
			L43.98,57.38z"/>
		<g id="Grupo_16004" transform="translate(18.889 53.7)">
			<path id="Trazado_9597" class="st31" d="M28.42,21l0.34,1.9l-1.88,2.18l-2.18,0.03l1.36-1.1c0.15-0.12,0.26-0.3,0.29-0.49
				l0.37-2.14L28.42,21z"/>
			<path id="Trazado_9598" class="st38" d="M27.54,25.64l0.3-0.13c0.23-0.1,0.42-0.29,0.51-0.52l0.62-1.53l0.57,1.32l0.4-0.17
				l-0.28-1.65c-0.06-0.36-0.27-0.69-0.57-0.9l-0.34-0.23c-0.08-0.05-0.19-0.03-0.24,0.04c0,0.01-0.01,0.01-0.01,0.02l-0.34,1.14
				c-0.19,0.36-0.53,1.13-0.88,1.34l-0.76,0.32c-0.35,0.09-0.72-0.21-0.95-0.19l-0.8,0.44c-0.31,0.16-0.51,0.45-0.56,0.79
				L27.54,25.64z"/>
		</g>
		<path id="Trazado_9599" class="st40" d="M43.43,37.42c1.3,2.89,1.6,6.14,0.85,9.22c-0.13,5.24,0.11,10.27,0.19,10.59
			c0,0,3.12,12.52,3.15,16.92c0,0-1.73,1.39-2.72,0.69c-1.93-3.05-5.33-16.26-5.33-16.26c-0.27-1.02-3.77-20.06-3.76-20.91
			L43.43,37.42z"/>
		<path id="Trazado_9600" class="st41" d="M44.27,39.12c0,0-8.94,2.6-13.2,0.62c0,0,1.14-7.43,0.96-8.56s-1.49-1.32-1.46-2.54
			c0.05-1.78,2.3-4.16,3.62-5.95c0.16-0.21,1.12-1.23,1.21-1.3c0.72-0.17,1.47-0.21,2.21-0.12c1.93,0.25,3.25,0.75,4.09,1.89
			c0.79,2.13-0.57,6.55-0.18,10.7C42.54,35.56,43.46,37.31,44.27,39.12z"/>
		<path id="Trazado_9601" class="st41" d="M40.15,32.09c-0.3-1.2-1.46-5.37-0.88-7.63c0.58-0.71,2.13,0.31,2.38,1.08
			c0.22,0.95,0.29,1.93,0.23,2.91c-0.52,1.97-0.48,4.04,0.12,5.99c0.78,1.57,2.29,4.68,2.29,4.68s-2.98,0.79-3.49,0.84
			c0.63-1.48,1.2-2.77,0.53-4.66C40.92,34.18,40.25,32.49,40.15,32.09z"/>
		<path id="Trazado_9602" class="st41" d="M39.33,22.44c0.57-0.41,1.35-0.35,1.84,0.15c1.09,0.82,3.3,5.36,4.27,6.1
			c0.88,0.67,5.22-2.65,6.01-3.27c0.07-0.06,0.17-0.06,0.25,0l0.72,0.56c0.07,0.06,0.09,0.17,0.03,0.24
			c-0.67,0.88-4.46,5.75-6.74,6.03c-1.77,0.22-2.25-0.91-3.43-2.28c-1.42-1.8-2.64-3.76-3.63-5.83
			C38.31,23.18,39.33,22.44,39.33,22.44z"/>
		<path id="Trazado_9603" class="st31" d="M52.39,26.12l0.4-0.31c0.14-0.11,0.31-0.17,0.49-0.16c0.22,0.02,0.43,0.06,0.65,0.1
			c0.44,0,0.87-0.08,1.28-0.23c0.13-0.05,0.63-0.23,0.49-0.39c0.18-0.09,0.18-0.23,0.11-0.28c0.09-0.05,0.18-0.1,0.16-0.23
			s-0.3-0.09-0.3-0.09s0.2-0.2-0.4-0.21c-0.54-0.01-1.18,0.05-1.18,0.05l0.17-0.14c0.13-0.08,0.23-0.28,0.11-0.27l-0.52,0.07
			c-0.08,0.01-0.16,0.03-0.24,0.07l-0.89,0.39l-0.08,0.05l-1.15,0.92C51.49,25.49,51.59,25.9,52.39,26.12z"/>
		<path id="Trazado_9604" class="st31" d="M34.79,16.28c-0.11,0.68-0.29,1.35-0.53,2c-0.24,0.41-0.37,0.88-0.36,1.36
			c0,0.46,0.09,0.75,0.76,0.76c0.75,0.01,0.6-0.03,0.6-0.03c0.03,0.43,0,0.87-0.07,1.3c-0.33,0.7-0.7,1.38-1.1,2.05
			c0,0,0.52,0.92,1.35,0.79c0.68-0.18,1.31-0.5,1.87-0.92l0.17-6.22c0,0-1.45-1.45-1.75-1.35C35.42,16.12,34.79,16.28,34.79,16.28z"
			/>
		<path id="Trazado_9605" class="st26" d="M36.64,19.92c-0.35,0.58-0.83,1.07-1.4,1.44c0,0-0.01-0.42,0-0.98
			C35.73,20.32,36.21,20.16,36.64,19.92z"/>
		<path id="Trazado_9606" class="st38" d="M36.17,20.25c-0.2,0.74-0.29,1.5-0.27,2.27c-0.02,0.91,0.4,1.78,1.13,2.33
			c1.2,0.72,2.7,0.75,3.93,0.07c1.08-0.78,1.32-2.3,0.53-3.37c-0.02-0.03-0.04-0.06-0.07-0.09c-0.93-0.86-1.8-0.79-1.86-1.86
			c-0.07-1.07,0.6-1.73-0.07-2.8c-0.35-0.75-1.1-1.22-1.93-1.2c-0.73-0.07-0.79-0.01-1.2-0.36c-0.48-0.4-1.12-0.55-1.72-0.4
			c-0.38,0.11-0.71,0.33-0.95,0.65c0,0.1-0.12,0.72,1,1.1c0,0,0.31,0.6,1.42,0.62c0.5,0.07,0.85,0.53,0.78,1.03
			c0,0.03-0.01,0.06-0.02,0.09C36.75,18.84,36.27,19.89,36.17,20.25z"/>
		<g id="Grupo_16006">
			<path id="Trazado_9607" class="st42" d="M30.67,19.34l0.31,0.08c0.11,0.03,0.21-0.03,0.24-0.14l0.03-0.11
				c0.03-0.1-0.03-0.21-0.14-0.24c0,0,0,0,0,0l-0.31-0.08c-0.02,0-0.03,0.01-0.04,0.02l-0.11,0.43
				C30.64,19.32,30.65,19.33,30.67,19.34C30.66,19.34,30.66,19.34,30.67,19.34z"/>
			
				<linearGradient id="Trazado_9608_1_" gradientUnits="userSpaceOnUse" x1="-331.2294" y1="435.3304" x2="-330.0958" y2="435.3304" gradientTransform="matrix(5.3 0 0 -5.11 1778.2253 2241.6885)">
				<stop  offset="0" style="stop-color:#EE3F3A"/>
				<stop  offset="0.383" style="stop-color:#EB3E39"/>
				<stop  offset="0.644" style="stop-color:#E23D38"/>
				<stop  offset="0.868" style="stop-color:#D33A37"/>
				<stop  offset="1" style="stop-color:#C63936"/>
			</linearGradient>
			<path id="Trazado_9608" class="st43" d="M26.58,16.49c0.69,0.35,1.4,0.67,2.12,0.94l-0.26,0.98l-0.04,0.15l-0.26,0.98
				c-0.76-0.12-1.53-0.21-2.31-0.24c-1.08,0.12-2.13,0.37-3.14,0.76l0.76-2.82l0.04-0.15l0.76-2.82
				C24.92,15.1,25.71,15.85,26.58,16.49z"/>
			<path id="Trazado_9609" class="st35" d="M24.11,17.33c-0.47,1.77-1.33,3.07-1.92,2.92c-0.59-0.16-0.68-1.72-0.21-3.48
				s1.33-3.07,1.92-2.92S24.58,15.56,24.11,17.33z"/>
			<path id="Trazado_9610" class="st30" d="M23.86,17.26c-0.43,1.62-1.16,2.83-1.63,2.71c-0.47-0.12-0.49-1.54-0.06-3.17
				c0.43-1.62,1.16-2.83,1.63-2.71S24.3,15.64,23.86,17.26z"/>
			<g id="Grupo_16005" transform="translate(0.641 1.879)">
				<path id="Trazado_9611" class="st2" d="M21.8,15.21l0.1-0.39c0.14-0.53,0.69-0.85,1.22-0.71l0.14,0.04
					c-0.12,0.79-0.32,1.57-0.62,2.32l-0.14-0.04C21.98,16.29,21.66,15.74,21.8,15.21z"/>
			</g>
			<path id="Trazado_9612" class="st37" d="M29.68,20.05c-0.08,0.63-0.25,1.25-0.49,1.84c-0.21,0.44-0.58,0.78-1.03,0.97
				c-0.18,0.04-0.37,0.02-0.53-0.07c-0.25-0.17-0.45-0.4-0.59-0.67c-0.09-0.23-0.05-0.3,0.24-0.32c0.29-0.01,1.13-0.65,1.06-2.22
				L29.68,20.05z"/>
			<path id="Trazado_9613" class="st44" d="M28.79,19.77c0.01,0.07,0.01,0.15,0,0.22c-0.01,0.36-0.07,0.72-0.18,1.06
				c-0.13,0.33-0.31,0.64-0.54,0.91c-0.19,0.24-0.46,0.41-0.76,0.47c-0.03,0.01-0.05,0.01-0.08,0c-0.02-0.01-0.03-0.02-0.04-0.04
				c-0.11-0.12-0.18-0.27-0.2-0.43c0.01-0.13,0.18-0.14,0.28-0.14c0.29-0.01,1.13-0.65,1.06-2.22l0.27,0.09
				c0.06,0.01,0.12,0.03,0.17,0.06C28.78,19.76,28.79,19.76,28.79,19.77z"/>
			<path id="Rectángulo_2627" class="st21" d="M29.27,20.09l-1.3-0.35c-0.11-0.03-0.18-0.14-0.15-0.25c0,0,0,0,0,0l0.58-2.19
				c0.03-0.11,0.14-0.18,0.25-0.15c0,0,0,0,0,0l1.3,0.35c0.72,0.19,1.14,0.93,0.95,1.64c0,0,0,0,0,0l0,0
				C30.72,19.86,29.99,20.28,29.27,20.09z"/>
		</g>
		<path id="Trazado_9614" class="st31" d="M28.98,20.66c0.07,0.05,0.12,0.13,0.14,0.21c0.01,0.09-0.07,0.18-0.15,0.15
			c0.1,0.04,0.16,0.14,0.18,0.24c0,0.1-0.1,0.21-0.2,0.18c0.08,0.03,0.12,0.13,0.09,0.21c0,0,0,0,0,0c-0.04,0.08-0.12,0.13-0.2,0.14
			c-0.09,0.01-0.17-0.01-0.25-0.04c0.03,0.11-0.03,0.23-0.13,0.28c-0.1,0.04-0.22,0.05-0.33,0.01c-0.11-0.03-0.21-0.09-0.31-0.13
			c-0.11-0.03-0.21-0.08-0.29-0.15c-0.09-0.07-0.1-0.2-0.02-0.29c0,0,0,0,0,0c0.02-0.01,0.04-0.02,0.05-0.05
			c0.01-0.03,0-0.06-0.01-0.09c-0.06-0.16,0.02-0.34,0.18-0.4c-0.09-0.08-0.09-0.22-0.02-0.31c0.08-0.09,0.2-0.13,0.31-0.11
			c-0.09-0.06-0.12-0.17-0.08-0.27C28.11,19.82,28.82,20.51,28.98,20.66z"/>
		<path id="Trazado_9615" class="st26" d="M29.18,20.89c-0.02,0-0.07,0.12-0.08,0.14c-0.02,0.05-0.07,0.08-0.12,0.09
			c-0.16,0.04-0.33-0.04-0.39-0.19c-0.08-0.19-0.09-0.41-0.02-0.61l0,0c0.16,0.11,0.32,0.22,0.46,0.35c0.07,0.05,0.12,0.12,0.15,0.2
			C29.18,20.88,29.18,20.88,29.18,20.89z"/>
		<path id="Trazado_9616" class="st31" d="M28.75,20.68c-0.04,0.07-0.05,0.15-0.04,0.23c0.01,0.08,0.06,0.14,0.13,0.17
			c0.04,0.01,0.08,0.01,0.12,0.01c0.17-0.02,0.33-0.09,0.45-0.2c0.02-0.02-0.24,0.13-0.01,0.57c0.04,0.08,0.37,0.09,0.36-0.23
			c0.02-0.14,0.04-0.27,0.08-0.4c0.03-0.08,0.01-0.16-0.04-0.23c-0.05-0.06-0.11-0.12-0.18-0.16c-0.22-0.2-0.57-0.18-0.76,0.05
			C28.81,20.55,28.78,20.61,28.75,20.68z"/>
	</g>
	<rect id="Rectángulo_2628" x="86.36" y="262.55" class="st30" width="196.98" height="18.49"/>
	<path id="Trazado_9617" class="st34" d="M282.63,262.55H87.07c-0.39,0-0.7,0.32-0.7,0.7l0,0c0,0.39,0.32,0.7,0.7,0.7h195.57
		c0.39,0,0.7-0.32,0.7-0.7l0,0C283.34,262.87,283.02,262.55,282.63,262.55z"/>
	<g id="Grupo_16010" transform="translate(100.547 184.339)">
		<path id="Trazado_9618" class="st45" d="M15.23,16.53c0.82-0.93,0.7-1.59,0.05-2.25c-0.32-0.33-1.42-0.62-0.84,0.6
			c0.14,0.3,0.09,0.66-0.13,0.91c-0.1,0.11-0.21,0.25-0.33,0.38C14.41,16.27,14.82,16.39,15.23,16.53z"/>
		<path id="Trazado_9619" class="st41" d="M16.31,23.91c-0.5,0.29-0.69,0.92-0.41,1.43c0.47,0.99,2.92,5.82,2.92,5.82
			c1.69,5,4.78,2.72,4.78,2.72c0.26-0.74,0.67-2.15-1.28-4.37L16.31,23.91z"/>
		<g id="Grupo_16008" transform="translate(9.736 53.408)">
			<path id="Trazado_9620" class="st46" d="M7.01,21.13l-0.1,3.26c0.52,0.36,1.19,0.41,1.76,0.14L8.53,21.6
				C8.03,21.42,7.53,21.26,7.01,21.13z"/>
			<path id="Trazado_9621" class="st46" d="M8.4,22.91c0,0-0.14,0.89,0.35,1.11c0.49,0.22,0.95,0.07,1.67-0.16
				c0.94-0.3,2.66,0.77,0.76,0.99c-0.9,0.13-1.81,0.03-2.67-0.28c-0.33-0.27-0.49-0.71-0.4-1.13L8.4,22.91z"/>
		</g>
		<path id="Trazado_9622" class="st31" d="M12.51,19.16c-0.06,1.21-0.26,2.4-0.61,3.56l5.01,3.88l-0.06-1.94
			c-1.22-1.13-1.72-4.51-1.72-4.51l-2.63-0.95"/>
		<path id="Trazado_9623" class="st33" d="M15.77,22.71c-0.28-0.83-0.49-1.69-0.63-2.56l-2.63-0.95v0.01
			c0.02,0.05,0.04,0.09,0.05,0.14C12.64,20.31,12.99,21.26,15.77,22.71z"/>
		<path id="Trazado_9624" class="st31" d="M15.09,16.24c1.88,2.36,1.44,4,1.05,4.29c-1.38,0.56-2.95,0.3-4.07-0.68
			c-0.78-0.95-0.69-2.35,0.21-3.19C13.09,15.95,14.27,15.22,15.09,16.24z"/>
		<path id="Trazado_9625" class="st47" d="M15.1,14.71c-0.07-0.45-0.79-1.34-1.03-0.01c-0.06,0.32-0.31,0.58-0.64,0.65
			c-0.7,0.15-1.39,0.34-2.07,0.58c-0.45,0.29-0.79,0.73-0.95,1.25c-0.18,0.58-0.26,1.19-0.23,1.8c0.57,0.77,1.2,1.48,1.9,2.13
			c0.07,0.07,0.18,0.06,0.25-0.01c0.02-0.02,0.03-0.05,0.04-0.08c0.1-0.44,0.17-0.89,0.19-1.34c-0.26,0.01-0.65-0.04-0.68-1.02
			c-0.03-0.76,0.94-0.32,0.94-0.32c0.06-0.19,0.04-0.39-0.04-0.57c-0.29-0.43-0.18-1.01,0.24-1.3c0.14-0.1,0.31-0.15,0.49-0.16
			C14.87,16.07,15.25,15.67,15.1,14.71z"/>
		<path id="Trazado_9626" class="st6" d="M20.96,56.54c0-0.01,0.43-10.87-1.3-17.28c-0.29-0.99-3.5-0.56-3.5-0.56
			c-3.31,0.28-5.22,2.1-3.76,8.91c0.37,1.71,1.2,8.88,2.13,10.67C15,62.16,15.3,71.1,15.76,74.48c0.09,0.62,0.6,1.09,1.22,1.13
			c0.59,0.13,1.21,0.09,1.78-0.11C19.19,73.21,21.21,60.47,20.96,56.54z"/>
		<g id="Grupo_16009" transform="translate(4.081 53.598)">
			<path id="Trazado_9627" class="st46" d="M6.16,21.16l0.09,3.26c0.54,0.33,1.21,0.34,1.77,0.04L7.7,21.54
				C7.2,21.39,6.68,21.26,6.16,21.16z"/>
			<path id="Trazado_9628" class="st46" d="M7.65,22.86c0,0-0.09,0.89,0.41,1.09c0.5,0.19,0.95,0.02,1.66-0.26
				c0.92-0.36,2.7,0.62,0.82,0.95c-0.89,0.18-1.81,0.14-2.68-0.13c-0.35-0.26-0.53-0.68-0.47-1.11L7.65,22.86z"/>
		</g>
		<path id="Trazado_9629" class="st48" d="M12.64,75.86c0.87-4.01,1.41-8.08,1.6-12.18c0-0.01,0-0.02,0-0.03l0.14-2.04
			c0.16-2.36-0.66-4.35-1.82-4.42l-0.39-0.03c-1.17-0.08-3.43,1.45-3.43,1.46C8.29,64.04,8.48,69.49,9.3,74.86
			c0.07,0.48,0.44,0.86,0.93,0.94C11.02,76,11.84,76.02,12.64,75.86z"/>
		<path id="Trazado_9630" class="st48" d="M16.2,38.81c-0.55-2.75-3.65-3.02-5.97-2.81l-0.66,0.06c-1.81,0.3-3.22,4.99-2.77,8.55
			c0.34,2.69,1.26,13.34,2.4,15.12c0.67,0.91,1.74,1.45,2.87,1.43c0.84-0.38,1.53-1.04,1.95-1.87c0.79-2.95,1.33-5.96,1.63-9
			C15.97,48.02,16.83,41.98,16.2,38.81z"/>
		<path id="Trazado_9631" class="st6" d="M19.34,39.19c-0.19-0.68-1.89-1.7-2.36-1.94c-1.13-0.56-4.05-2.67-6.26-1.77l-0.63,0.26
			c-2.67,1.09-3.12,6.16-3.17,6.86c-0.06,0.28-0.11,0.92-0.16,1.46C11.16,45.32,18.32,43.99,19.34,39.19z"/>
		<path id="Trazado_9632" class="st49" d="M16.1,23.47c2.74,2.38,3.07,10.3,3.85,15.91c0.03,0.36,0.02,0.72-0.01,1.08
			c-0.22,0.88-2.04,1.7-5.12,1.65c-2.74-0.05-5.05-0.82-5.62-1.85v-0.01c-0.01-0.02-0.02-0.05-0.04-0.07
			C9.05,39.9,9,39.59,9.03,39.27c0.03-2.02,0.22-4.03,0.56-6.02c1.37-8.28,3.3-10.33,3.41-10.31c1.6,0.53,2.08,1.65,2.8,1.63
			C16.53,24.51,16,23.38,16.1,23.47z"/>
		<path id="Trazado_9633" class="st2" d="M15.64,38.41c-0.22,1.43,0.01,6.16-1.61,6.92c-2.01,0.93-8.9,1.89-8.39-0.61
			c0.44-2.13,1.35-7.48,1.35-7.48s1.81-13.88,4.94-14.66c1.16,0.18,2.19,0.84,2.84,1.81C14.78,24.39,16.12,33.59,15.64,38.41z"/>
		<path id="Trazado_9634" class="st2" d="M16.16,23.73c0.25,0.2,0.46,0.44,0.62,0.71c2.26,3.63,2.42,16,2.37,20.05
			c-0.01,0.78,0.84,1.42,1.43,0.91c0.36-0.35,0.59-0.81,0.65-1.3c0.13-1.47-0.14-13.62-2.34-17.85c-0.53-0.93-1.25-1.73-2.13-2.35
			c-0.1-0.06-0.76-0.54-0.76-0.54C16.08,23.48,16.12,23.6,16.16,23.73z"/>
		<path id="Trazado_9635" class="st41" d="M10.5,35.44c0.53-0.97,3.69-5.42,2.65-10.17c-0.44,0.33-4.02,7.21-5.99,10.64
			c-0.04,0.16-0.13,0.96-0.18,1.38c3.92,0.3,8.6-3.96,8.6-3.96C13.81,33.81,12.1,34.52,10.5,35.44z"/>
		<path id="Trazado_9636" class="st2" d="M9.95,23.44c0.48-0.36,1.07-0.55,1.67-0.52c1.69,0.3,2.1,3.16,1.55,4.78
			c-0.8,2.2-1.83,4.32-3.06,6.31c-0.34,0.54-0.73,1.05-1.17,1.51c-0.58,0.45-1.34,0.62-2.06,0.45c-0.55-0.33-0.93-0.87-1.05-1.5
			c-0.18-1.39-0.07-2.8,0.31-4.14c0.39-1.82,1.15-3.55,2.21-5.08C8.76,24.55,9.3,23.93,9.95,23.44z"/>
		<path id="Trazado_9637" class="st31" d="M16.73,19.94l0.53,0.19l0.23,0.31c0.08,0.07,0.01,0.21-0.07,0.27l-0.1,0.07
			c-0.03,0.02-0.05,0.05-0.06,0.08l-0.09,0.31c0,0.01,0,0.02,0,0.02l-0.04,0.35c-0.01,0.05,0.01,0.09,0.05,0.13l0.38,0.36
			c0.01,0.01,0.02,0.02,0.03,0.02l0.5,0.27c0.13,0.2,0.25,0.4,0.34,0.62l0.6-0.49c-0.06-0.13-0.1-0.27-0.11-0.42l0.03-0.37
			c0.01-0.1-0.01-0.2-0.04-0.3l-0.28-0.74c-0.05-0.14-0.16-0.25-0.29-0.3l-0.82-0.49c-0.05-0.03-0.11-0.05-0.16-0.06l-0.5-0.08
			C16.84,19.72,16.51,19.7,16.73,19.94z"/>
		<path id="Trazado_9638" class="st31" d="M19.81,30.07L19.81,30.07l-1.01,0.38l-0.49,0.09l-0.45,0.22l-0.35-0.74l0.42-0.5
			c0,0,0.44-0.57,0.57-0.69c0.18-0.12,0.37-0.22,0.57-0.3c0.08-0.04,0.16-0.06,0.25-0.06c0.14,0,0.28,0.01,0.42,0.03
			c0.6,0.23,1.18,0.49,1.74,0.79c0,0,0.19,0.16,0.04,0.29c-0.15,0.13-0.59,0.45-0.59,0.45C20.56,30.01,20.19,30.02,19.81,30.07z"/>
		<path id="Trazado_9639" class="st2" d="M18.93,22.23l-0.47,0.23c-0.5,0.29-0.69,0.92-0.41,1.43c0.63,1.32,1.14,2.7,1.51,4.12v0.02
			l0.39,1.61c0.58,2.41,1.31,4.82,2.83,4.54c0,0,3.13-0.15,0.62-5.77l-0.76-1.48l-0.01-0.02c-0.73-1.47-1.55-2.9-2.45-4.27
			C19.91,22.2,19.38,22.03,18.93,22.23z"/>
		<path id="Trazado_9640" class="st2" d="M18.13,31.1l-0.49-1c-0.2-0.35-0.64-0.47-0.99-0.28c-1.4,0.7-2.88,1.25-4.39,1.64h-0.02
			l-1.6,0.39c-2.4,0.58-4.66,2.14-4.25,3.3l0.13,0.39c0.41,1.17,3.13,0.89,5.35-0.24l1.47-0.75l0.02-0.01
			c1.56-0.77,3.07-1.65,4.52-2.62C18.15,31.74,18.25,31.39,18.13,31.1z"/>
	</g>
</g>
</svg>
