<?xml version="1.0" encoding="utf-8"?>
<!-- Generator: Adobe Illustrator 23.0.3, SVG Export Plug-In . SVG Version: 6.00 Build 0)  -->
<svg version="1.1" id="Capa_1" xmlns="http://www.w3.org/2000/svg" xmlns:xlink="http://www.w3.org/1999/xlink" x="0px" y="0px"
	 viewBox="0 0 236.3 262" style="enable-background:new 0 0 236.3 262;" xml:space="preserve">
<style type="text/css">
	.st0{fill:#2986FF;}
</style>
<path id="Trazado_9427" class="st0" d="M197.3,184.85c-9.5,0.04-18.65,3.63-25.64,10.07l-93.3-54.2c0.72-3,1.12-6.07,1.18-9.15
	c-0.06-3.09-0.46-6.17-1.18-9.17l92.2-53.76c15.87,14.69,40.64,13.73,55.32-2.14c14.69-15.87,13.73-40.64-2.14-55.32
	s-40.64-13.73-55.32,2.14C161.7,20.57,157.98,30.1,158,39.99c0.06,3.09,0.46,6.15,1.18,9.15l-92.15,53.78
	c-15.82-14.8-40.65-13.98-55.45,1.84s-13.98,40.65,1.84,55.45c15.08,14.11,38.52,14.11,53.61,0l93.12,54.4
	c-0.68,2.78-1.03,5.63-1.05,8.5c0.04,21.09,17.17,38.17,38.26,38.13c21.09-0.04,38.17-17.17,38.13-38.26
	C235.46,201.91,218.37,184.85,197.3,184.85z"/>
</svg>
