<?xml version="1.0" encoding="utf-8"?>
<!-- Generator: Adobe Illustrator 23.0.3, SVG Export Plug-In . SVG Version: 6.00 Build 0)  -->
<svg version="1.1" id="Capa_1" xmlns="http://www.w3.org/2000/svg" xmlns:xlink="http://www.w3.org/1999/xlink" x="0px" y="0px"
	 viewBox="0 0 131.87 126.87" style="enable-background:new 0 0 131.87 126.87;" xml:space="preserve">
<style type="text/css">
	.st0{opacity:0.4;fill:#AF9CDA;enable-background:new    ;}
	.st1{clip-path:url(#SVGID_2_);}
	.st2{fill:#F2F2F2;}
	.st3{fill:#FFFFFF;}
	.st4{fill:#F9D9EB;}
	.st5{opacity:0.46;fill:#EF92C7;enable-background:new    ;}
	.st6{fill:#EF92C7;}
	.st7{fill:#243762;}
	.st8{opacity:0.89;fill:#4C65BA;enable-background:new    ;}
	.st9{opacity:0.13;fill:#C5D9FF;enable-background:new    ;}
	.st10{fill:#F9F9F9;}
	.st11{enable-background:new    ;}
</style>
<g id="Grupo_16192" transform="translate(-163.787 -44.304)">
	<circle id="Elipse_370" class="st0" cx="232.84" cy="114.71" r="52.65"/>
	<circle id="Elipse_371" class="st0" cx="232.91" cy="106.23" r="60.76"/>
	<g id="Grupo_16189">
		<g id="Grupo_16184">
			<g>
				<defs>
					<circle id="SVGID_1_" cx="232.84" cy="114.71" r="52.65"/>
				</defs>
				<clipPath id="SVGID_2_">
					<use xlink:href="#SVGID_1_"  style="overflow:visible;"/>
				</clipPath>
				<g id="Grupo_16183" class="st1">
					<g id="Grupo_16182">
						<g id="Grupo_16167">
							<path id="Trazado_10747" class="st2" d="M250.51,115.45h-35.43c-13.14,0-23.79,10.21-23.79,22.8v46.83h83.01v-46.82
								C274.3,125.66,263.65,115.45,250.51,115.45z"/>
							<g id="Grupo_16166">
								<path id="Trazado_10748" class="st3" d="M210.97,137.35c-0.14,0-0.25,0.11-0.25,0.25l0,0v8.86l-4.87-11.51
									c-0.06-0.12-0.21-0.17-0.33-0.11c-0.11,0.06-0.17,0.19-0.12,0.31l5.33,12.58v37.35c0,0.14,0.11,0.25,0.25,0.25
									s0.25-0.11,0.25-0.25V137.6C211.23,137.46,211.11,137.35,210.97,137.35C210.98,137.35,210.98,137.35,210.97,137.35z"/>
								<path id="Trazado_10749" class="st3" d="M260.64,134.83c-0.13-0.05-0.27,0.01-0.33,0.13l-4.66,11.01v-8.28
									c0-0.14-0.11-0.25-0.25-0.25s-0.25,0.11-0.25,0.25v9.45l-0.19,0.45c-0.05,0.13,0.01,0.27,0.13,0.32c0,0,0,0,0,0
									c0.02,0.01,0.04,0.01,0.06,0.01v37.16c0,0.14,0.11,0.25,0.25,0.25s0.25-0.11,0.25-0.25v-37.85l5.12-12.09
									C260.82,135.03,260.77,134.88,260.64,134.83z"/>
							</g>
						</g>
						<g id="Grupo_16180">
							<g id="Grupo_16179">
								<g id="Grupo_16178">
									<g id="Grupo_16170">
										<g id="Grupo_16168">
											<path id="Trazado_10750" class="st4" d="M241.15,112.4c-0.51,0.11-1.03,0.17-1.55,0.17h-12.86c-2,0-3.9-0.83-5.27-2.29
												v4.5c0.16,6.46,5.52,11.57,11.98,11.41c6.24-0.15,11.26-5.17,11.41-11.41v-4.5C243.87,111.35,242.57,112.09,241.15,112.4
												z"/>
											<path id="Trazado_10751" class="st5" d="M226.73,112.58c-0.52,0-1.04-0.06-1.55-0.17c4.5,4.19,11.47,4.19,15.97,0
												c-0.51,0.11-1.03,0.17-1.55,0.17H226.73z"/>
										</g>
										<g id="Grupo_16169">
											<path id="Trazado_10752" class="st4" d="M217.8,91.64c0-0.01,0-0.02,0-0.03c-0.03,0.01-0.05,0.04-0.08,0.04
												c-0.13,0-0.24-0.11-0.24-0.24l0,0c-0.11-1.24,0.8-2.35,2.05-2.47v-1.17c-0.11-0.15-0.2-0.31-0.29-0.47
												c-2.41,0.67-3.83,3.17-3.16,5.58c0.45,1.64,1.79,2.89,3.46,3.23v-1.86C218.51,93.77,217.85,92.76,217.8,91.64z"/>
											<path id="Trazado_10753" class="st4" d="M250.47,91.67c0-2.1-1.45-3.93-3.5-4.41c-0.05,0.13-0.11,0.27-0.16,0.4v1.14
												c0.1,0.04,0.2,0.08,0.3,0.13c1.27,0.07,2.24,1.15,2.17,2.42c0,0.02,0,0.05,0,0.07c0,0.13-0.11,0.24-0.24,0.24l0,0
												c-0.01,0-0.01-0.01-0.02-0.01c-0.09,1.31-0.96,2.43-2.21,2.84v1.64C248.93,95.7,250.47,93.84,250.47,91.67z"/>
											<path id="Trazado_10754" class="st6" d="M248.8,91.41c0.1-1.01-0.65-1.91-1.66-2c-0.05-0.01-0.11-0.01-0.16-0.01
												c-0.06,0-0.12-0.03-0.17-0.07v5.16c1.25-0.41,2.12-1.53,2.21-2.84C248.9,91.64,248.8,91.54,248.8,91.41z"/>
											<path id="Trazado_10755" class="st6" d="M217.95,91.41c0,0.1-0.07,0.18-0.16,0.21c0,0.01,0,0.02,0,0.03
												c0.05,1.12,0.71,2.13,1.72,2.62v-4.84C218.54,89.55,217.85,90.43,217.95,91.41z"/>
											<path id="Trazado_10756" class="st5" d="M246.98,88.91c0,0,0.05,0,0.13,0.01c-0.1-0.05-0.2-0.08-0.3-0.13v0.19
												C246.85,88.94,246.91,88.91,246.98,88.91z"/>
											<path id="Trazado_10757" class="st7" d="M246.81,88.98v0.35c0.04,0.04,0.1,0.07,0.17,0.07c1.02,0.01,1.83,0.84,1.83,1.85
												c0,0.05,0,0.11-0.01,0.16c0,0.13,0.1,0.23,0.23,0.24c0,0,0.01,0.01,0.02,0.01c0.13,0,0.24-0.11,0.24-0.24l0,0
												c0.11-1.27-0.84-2.38-2.1-2.48c-0.02,0-0.05,0-0.07,0c-0.08-0.01-0.13-0.01-0.13-0.01
												C246.91,88.91,246.85,88.94,246.81,88.98z"/>
											<path id="Trazado_10758" class="st7" d="M217.47,91.41c0,0.13,0.11,0.24,0.24,0.24l0,0c0.03,0,0.06-0.02,0.08-0.04
												c0.09-0.03,0.15-0.11,0.16-0.21c-0.11-0.98,0.59-1.86,1.56-1.98v-0.49C218.27,89.06,217.36,90.16,217.47,91.41z"/>
											<path id="Trazado_10759" class="st7" d="M246.81,89.33v-1.68c0.05-0.13,0.11-0.27,0.16-0.4c0.3-0.75,0.57-1.5,0.85-2.09
												c2.33-4.78,3.82-12.47-3.15-13.41c-0.31-0.04-0.63-0.06-0.95-0.06c-2.46,0-4.75-1.27-6.03-3.38l-0.03-0.04
												c-1.64-2.55-4.47-4.09-7.5-4.08c-5.04,0.12-9.03,4.3-8.91,9.34c0,0.02,0,0.05,0,0.07c-1.73,0.09-3.25,1.2-3.87,2.82
												c-0.34,1.16-0.4,2.39-0.17,3.58c0.24,1.81,0.64,3.6,1.19,5.35c0.2,0.67,0.47,1.32,0.81,1.94
												c0.09,0.16,0.19,0.32,0.29,0.47v17.59c0.01,3.98,3.23,7.21,7.22,7.21h12.87c3.98-0.01,7.21-3.23,7.22-7.21L246.81,89.33
												L246.81,89.33z"/>
										</g>
									</g>
									<g id="Grupo_16172">
										<path id="Trazado_10760" class="st4" d="M222.23,92.33v-9.77c-0.14-2.38,1.66-4.43,4.04-4.6h-0.52
											c-2.45,0.07-4.38,2.1-4.32,4.55v9.67c-0.04,2.07,1.34,3.9,3.34,4.43C223.16,95.8,222.17,94.13,222.23,92.33z"/>
										<path id="Trazado_10761" class="st4" d="M240.5,77.95h-0.44c2.38,0.17,4.18,2.22,4.04,4.6v9.77
											c0.05,1.75-0.89,3.39-2.43,4.22c1.9-0.6,3.19-2.39,3.16-4.38V82.5C244.88,80.05,242.95,78.02,240.5,77.95z"/>
										<path id="Trazado_10762" class="st5" d="M222.23,92.33v-9.77c-0.14-2.38,1.66-4.43,4.04-4.6h-0.52
											c-2.45,0.07-4.38,2.1-4.32,4.55v9.67c-0.04,2.07,1.34,3.9,3.34,4.43C223.16,95.8,222.17,94.13,222.23,92.33z"/>
										<path id="Trazado_10763" class="st5" d="M240.5,77.95h-0.44c2.38,0.17,4.18,2.22,4.04,4.6v9.77
											c0.05,1.75-0.89,3.39-2.43,4.22c1.9-0.6,3.19-2.39,3.16-4.38V82.5C244.88,80.05,242.95,78.02,240.5,77.95z"/>
										<g id="Grupo_16171">
											<path id="Trazado_10764" class="st4" d="M240.06,77.95h-0.66c-0.6,3.53-3.96,5.91-7.49,5.31
												c-2.72-0.46-4.84-2.59-5.31-5.31h-0.33c-2.38,0.17-4.18,2.22-4.04,4.6v9.77c-0.05,1.8,0.94,3.46,2.54,4.27
												c0.47,0.22,0.98,0.33,1.5,0.33h2.38c0.57-1.43,1.96-2.37,3.5-2.38h2.53c1.54,0,2.93,0.94,3.5,2.38h1.89
												c0.56,0,1.11-0.13,1.61-0.38c1.54-0.84,2.48-2.47,2.43-4.22v-9.77C244.25,80.17,242.44,78.11,240.06,77.95z"/>
										</g>
									</g>
									<g id="Grupo_16177">
										<path id="Trazado_10765" class="st7" d="M239.05,91.12L239.05,91.12c0.31,0,0.57-0.25,0.57-0.57l0,0v-1.14
											c0-0.31-0.25-0.57-0.57-0.57l0,0l0,0c-0.31,0-0.57,0.25-0.57,0.57v1.14C238.48,90.87,238.73,91.12,239.05,91.12z"/>
										<path id="Trazado_10766" class="st7" d="M227.84,91.12L227.84,91.12c0.31,0,0.57-0.25,0.57-0.57l0,0v-1.14
											c0-0.31-0.25-0.57-0.57-0.57l0,0l0,0c-0.31,0-0.57,0.25-0.57,0.57v1.14C227.27,90.87,227.53,91.12,227.84,91.12z"/>
										<g id="Grupo_16174">
											<g id="Grupo_16173">
												<path id="Trazado_10767" class="st7" d="M237.53,87.1c0.28,0.2,0.61,0.33,0.95,0.35c0.35,0.06,0.71,0.13,1.01,0.21
													s0.65,0.18,0.99,0.3c0.31,0.15,0.66,0.2,1,0.15c0.3-0.09,0.5-0.5,0.31-1.13c-0.29-0.82-0.97-1.43-1.82-1.63
													c-0.81-0.23-1.68-0.01-2.28,0.59C237.28,86.4,237.3,86.87,237.53,87.1z"/>
											</g>
										</g>
										<g id="Grupo_16176">
											<g id="Grupo_16175">
												<path id="Trazado_10768" class="st7" d="M225.31,88.13c0.36,0.06,0.74,0.01,1.07-0.13c0.36-0.11,0.73-0.22,1.06-0.29
													s0.71-0.14,1.09-0.19c0.36-0.01,0.72-0.13,1.02-0.34c0.24-0.23,0.22-0.72-0.27-1.21c-0.68-0.63-1.63-0.88-2.53-0.66
													c-0.88,0.17-1.59,0.81-1.86,1.66C224.73,87.6,224.99,88.03,225.31,88.13z"/>
											</g>
										</g>
										<path id="Trazado_10769" class="st3" d="M233.76,102.55l-1.29,0.07c-0.63,0.04-1.16-0.29-1.18-0.72l-0.16-2.77l7.14-0.32
											C238.48,102.56,236.36,102.41,233.76,102.55z"/>
										<path id="Trazado_10770" class="st7" d="M235.14,93.24h-2.47c-0.94,0-1.69-0.76-1.69-1.69c0-0.21,0.04-0.41,0.11-0.61
											l1.34-5.2c0.03-0.13,0.17-0.21,0.29-0.17s0.21,0.17,0.17,0.29l0,0l-1.35,5.23c-0.15,0.38-0.11,0.81,0.13,1.14
											c0.22,0.33,0.6,0.53,1,0.52h2.47c0.13,0,0.24,0.11,0.24,0.24C235.39,93.13,235.28,93.24,235.14,93.24L235.14,93.24z"/>
									</g>
								</g>
							</g>
						</g>
						<g id="Grupo_16181">
							<path id="Trazado_10771" class="st8" d="M237.85,132.42l-1.17-2.34l-1.41,2.72c-0.17,0.31-0.51,0.51-0.86,0.5h-1.74
								c-0.33,0.01-0.64-0.16-0.81-0.44l-1.77-3.02l-1.17,2.34l2.49,4.66c0,0.01,0.01,0.01,0.01,0.02l-2.61,30.72
								c-0.01,0.09,0,0.18,0.04,0.27l4.12,11.29c0.12,0.33,0.49,0.5,0.82,0.37c0.18-0.07,0.32-0.21,0.38-0.39l3.86-11.28
								c0.03-0.08,0.04-0.17,0.03-0.26l-2.39-30.64c0.05-0.06,0.09-0.12,0.13-0.19L237.85,132.42z M235.68,150.26
								c0,0.04,0,0.08-0.02,0.13l-1.88,5.5c-0.06,0.16-0.23,0.25-0.4,0.19c-0.09-0.03-0.16-0.1-0.19-0.19l-2.01-5.5
								c-0.02-0.04-0.02-0.09-0.02-0.13l1.09-12.82c0.06,0.01,0.12,0.02,0.18,0.02h2.24L235.68,150.26z"/>
							<path id="Trazado_10772" class="st8" d="M234.68,137.46h-2.24c-0.06,0-0.12-0.01-0.18-0.02l-1.09,12.82
								c0,0.05,0,0.09,0.02,0.13l2.01,5.5c0.06,0.16,0.24,0.24,0.4,0.18c0.09-0.03,0.16-0.1,0.19-0.19l1.88-5.5
								c0.01-0.04,0.02-0.08,0.02-0.13L234.68,137.46L234.68,137.46z"/>
							<path id="Trazado_10773" class="st9" d="M234.68,137.46h-2.24c-0.06,0-0.12-0.01-0.18-0.02l-1.09,12.82
								c0,0.05,0,0.09,0.02,0.13l2.01,5.5c0.06,0.16,0.24,0.24,0.4,0.18c0.09-0.03,0.16-0.1,0.19-0.19l1.88-5.5
								c0.01-0.04,0.02-0.08,0.02-0.13L234.68,137.46L234.68,137.46z"/>
							<path id="Trazado_10774" class="st8" d="M230.09,129.84l1.77,3.02c0.17,0.28,0.48,0.45,0.81,0.44h1.74
								c0.36,0.01,0.69-0.19,0.86-0.5l1.41-2.72l-3.36-6.72L230.09,129.84z"/>
							<path id="Trazado_10775" class="st9" d="M230.09,129.84l1.77,3.02c0.17,0.28,0.48,0.45,0.81,0.44h1.74
								c0.36,0.01,0.69-0.19,0.86-0.5l1.41-2.72l-3.36-6.72L230.09,129.84z"/>
							<path id="Trazado_10776" class="st3" d="M246.1,112.19l-12.77,10.43l-12.77-10.43l-6.38,9.58l14.1,11.71l0.65-1.3l1.17-2.34
								l3.24-6.47l3.36,6.72l1.17,2.34l0.53,1.06l14.1-11.71L246.1,112.19z"/>
						</g>
					</g>
				</g>
			</g>
		</g>
		<g id="Grupo_16188">
			<g id="Grupo_16185">
				<path id="Trazado_10777" class="st4" d="M287.13,103.85c-0.88-0.47-1.98-0.13-2.45,0.75c-0.04,0.07-0.07,0.14-0.09,0.21
					c-0.52,1.26-1.05,2.52-1.56,3.79c0.17-0.43,1.3-9.85,1.35-10.71c0.17-0.79,0.13-1.62-0.11-2.39c-0.21-0.27-0.54-0.43-0.88-0.43
					c-0.36-0.06-0.73-0.01-1.06,0.14c-0.3,0.18-0.53,0.46-0.66,0.79c-0.12,0.33-0.2,0.67-0.25,1.02c-0.46,2.79-0.95,5.59-1.34,8.39
					c0.08-3.85,0.46-7.67,0.7-11.51c0.08-0.6,0.04-1.21-0.12-1.8c-0.15-0.75-0.88-1.24-1.63-1.09c-0.46,0.09-0.84,0.41-1.01,0.84
					c-0.25,0.51-0.4,1.06-0.44,1.62l-0.76,5.29c-0.13,0.89-0.26,1.79-0.39,2.68l-0.19,1.3c0,0.43-0.07,0.85-0.21,1.25
					c-0.04-0.79-0.01-1.58,0.07-2.37l0.09-2.5c0.06-1.64,0.11-3.28,0.17-4.92c0.04-0.6,0.02-1.2-0.07-1.8
					c-0.09-0.6-0.37-1.16-0.8-1.58c-0.44-0.43-1.08-0.58-1.67-0.42c-0.39,0.15-0.72,0.43-0.93,0.79c-0.21,0.36-0.37,0.75-0.47,1.15
					c-0.42,1.51-0.73,3.06-0.93,4.61c-0.24,1.64-0.46,3.29-0.65,4.94c-0.08,0.68-0.19,1.61-0.89,1.94c-0.54,0.26-1.18,0.03-1.44-0.5
					c-0.03-0.05-0.05-0.11-0.06-0.16c-0.31-1.12-0.59-2.24-0.89-3.37c-0.17-0.87-0.65-1.66-1.35-2.21
					c-1.07-0.72-2.52-0.44-3.24,0.63c-0.16,0.24-0.28,0.5-0.34,0.78c-0.09,0.5-0.09,1.02-0.01,1.52c0.55,5.43,1.08,10.87,1.6,16.31
					l16.85,4.09l5.98-14.18C287.87,104.81,287.65,104.17,287.13,103.85z"/>
				<path id="Trazado_10778" class="st5" d="M271.88,112.17c0.09-0.02,0.16-0.09,0.17-0.18c0.72-3.25-0.56-6.62-3.26-8.57
					c-0.11-0.07-0.24-0.03-0.31,0.07c-0.07,0.11-0.03,0.24,0.07,0.31c2.57,1.83,3.77,5.04,3.05,8.11c-0.02,0.12,0.06,0.24,0.18,0.26
					c0,0,0,0,0,0C271.83,112.17,271.86,112.17,271.88,112.17z"/>
			</g>
			<g id="Grupo_16187">
				<g id="Grupo_16186">
					<path id="Trazado_10779" class="st2" d="M263.25,116.6c-1.44-0.35-2.88,0.53-3.23,1.97c-0.02,0.08-0.03,0.16-0.05,0.24
						l-5.88,39.41c0,0.25-0.01,0.5-0.01,0.75c0.04,15.23,22.3,16.7,24.32,1.6l4.89-36.65c0.18-1.35-0.69-2.62-2.01-2.94l-0.22-0.05
						l-16.85-4.09L263.25,116.6z"/>
				</g>
				<path id="Trazado_10780" class="st10" d="M282.1,130.88c0.27-0.03,0.45-0.28,0.42-0.54c-0.03-0.2-0.17-0.37-0.37-0.41
					l-18.54-4.29c-0.02,0-0.04-0.02-0.04-0.04l-1.09-5.4c-0.06-0.26-0.33-0.42-0.59-0.35c-0.24,0.06-0.4,0.3-0.36,0.54l1.09,5.4
					c0.08,0.39,0.38,0.7,0.77,0.79l18.53,4.29C281.98,130.89,282.04,130.89,282.1,130.88z"/>
				<path id="Trazado_10781" class="st10" d="M266.07,124.13c-0.91-0.21-1.48-1.12-1.27-2.03l0,0c0.21-0.91,1.12-1.48,2.03-1.27
					s1.48,1.12,1.27,2.03C267.89,123.78,266.98,124.34,266.07,124.13L266.07,124.13z M265.74,122.32L265.74,122.32
					c-0.09,0.39,0.16,0.78,0.54,0.87s0.78-0.16,0.87-0.54c0.09-0.39-0.16-0.78-0.54-0.87c-0.08-0.02-0.17-0.02-0.25-0.01
					C266.05,121.8,265.81,122.02,265.74,122.32L265.74,122.32z"/>
			</g>
		</g>
	</g>
	<g id="Grupo_16190">
		<path id="Trazado_10782" class="st8" d="M187.49,66.72c11.97,0,21.67,9.71,21.67,21.68c0,4.31-1.29,8.52-3.69,12.09
			c0.01,0.07,0.14,0.73,0.23,1.17c0.6,2.65,1.97,5.06,3.95,6.92c1.94,1.63-3.83,2.93-7.98,0.19c-0.9-0.59-1.67-1.35-2.28-2.24
			l-0.02-0.02c-10.01,6.57-23.44,3.78-30.01-6.23s-3.78-23.44,6.23-30.01C179.13,67.96,183.26,66.72,187.49,66.72z"/>
		<g class="st11">
			<path class="st3" d="M190.35,79.36v16.68h-4.72v-6.5h-6.43v6.5h-4.72V79.36h4.72v6.27h6.43v-6.27H190.35z"/>
			<path class="st3" d="M192.44,81.01c-0.51-0.46-0.76-1.03-0.76-1.72c0-0.68,0.25-1.25,0.76-1.72c0.51-0.46,1.18-0.69,2-0.69
				c0.83,0,1.49,0.22,2,0.66c0.51,0.44,0.76,1,0.76,1.68c0,0.71-0.25,1.31-0.76,1.78s-1.18,0.7-2,0.7
				C193.62,81.7,192.95,81.47,192.44,81.01z M192.18,83.13h4.53v12.92h-4.53V83.13z"/>
			<path class="st3" d="M198.54,95.53c-0.51-0.48-0.76-1.08-0.76-1.77c0-0.72,0.25-1.3,0.76-1.76s1.16-0.69,1.95-0.69
				s1.44,0.23,1.94,0.69c0.5,0.46,0.75,1.05,0.75,1.76c0,0.7-0.25,1.29-0.76,1.77c-0.51,0.49-1.15,0.73-1.93,0.73
				C199.7,96.26,199.05,96.02,198.54,95.53z M197.8,79.36h5.39l-0.91,10.6h-3.6L197.8,79.36z"/>
		</g>
	</g>
</g>
</svg>
