<?xml version="1.0" encoding="utf-8"?>
<!-- Generator: Adobe Illustrator 23.0.3, SVG Export Plug-In . SVG Version: 6.00 Build 0)  -->
<svg version="1.1" id="Capa_1" xmlns="http://www.w3.org/2000/svg" xmlns:xlink="http://www.w3.org/1999/xlink" x="0px" y="0px"
	 viewBox="0 0 35.61 31.4" style="enable-background:new 0 0 35.61 31.4;" xml:space="preserve">
<style type="text/css">
	.st0{fill:#2986FF;}
</style>
<g id="Grupo_14806" transform="translate(-1859.316 -1025.832)">
	<path id="Trazado_8570" class="st0" d="M1877.09,1056.18c-0.42,0-0.83-0.17-1.13-0.47l-12.72-12.72
		c-3.55-3.55-3.54-9.31,0.01-12.86c3.55-3.55,9.31-3.54,12.86,0.01c0.36,0.36,0.69,0.75,0.98,1.17c0.3-0.42,0.63-0.81,0.99-1.18l0,0
		c3.51-3.59,9.27-3.65,12.86-0.13c3.59,3.51,3.65,9.27,0.13,12.86c-0.04,0.04-0.09,0.09-0.13,0.13l-12.72,12.72
		C1877.92,1056.01,1877.51,1056.18,1877.09,1056.18z M1869.67,1030.67c-3.26,0-5.9,2.64-5.9,5.9c0,1.56,0.62,3.06,1.73,4.17
		l11.6,11.59l11.6-11.59c2.31-2.3,2.31-6.04,0.01-8.34c-2.3-2.31-6.04-2.31-8.34-0.01c-0.92,0.91-1.51,2.11-1.68,3.39
		c-0.12,0.87-0.92,1.48-1.8,1.37c-0.71-0.1-1.27-0.66-1.37-1.37C1875.13,1032.85,1872.63,1030.66,1869.67,1030.67L1869.67,1030.67z"
		/>
</g>
</svg>
