<?xml version="1.0" encoding="utf-8"?>
<!-- Generator: Adobe Illustrator 23.0.3, SVG Export Plug-In . SVG Version: 6.00 Build 0)  -->
<svg version="1.1" id="Capa_1" xmlns="http://www.w3.org/2000/svg" xmlns:xlink="http://www.w3.org/1999/xlink" x="0px" y="0px"
	 viewBox="0 0 26.13 29.56" style="enable-background:new 0 0 26.13 29.56;" xml:space="preserve">
<style type="text/css">
	.st0{fill:#2986FF;}
</style>
<g>
	<g>
		<path class="st0" d="M13.06,16.13C8.62,16.13,5,12.51,5,8.06S8.62,0,13.06,0s8.06,3.62,8.06,8.06S17.51,16.13,13.06,16.13z
			 M13.06,2.69c-2.96,0-5.38,2.41-5.38,5.38c0,2.96,2.41,5.38,5.38,5.38c2.96,0,5.38-2.41,5.38-5.38
			C18.44,5.1,16.03,2.69,13.06,2.69z"/>
	</g>
	<g>
		<path class="st0" d="M13.06,29.56c-5.26,0-10.16-2.83-12.8-7.39c-0.24-0.42-0.24-0.93,0-1.35c2.64-4.56,7.54-7.39,12.8-7.39
			c5.26,0,10.16,2.83,12.8,7.39c0.24,0.42,0.24,0.93,0,1.35C23.23,26.73,18.32,29.56,13.06,29.56z M3.01,21.5
			c2.23,3.33,6.02,5.38,10.05,5.38c4.04,0,7.82-2.04,10.05-5.38c-2.23-3.33-6.02-5.38-10.05-5.38C9.03,16.13,5.25,18.17,3.01,21.5z"
			/>
	</g>
</g>
</svg>
