<?xml version="1.0" encoding="utf-8"?>
<!-- Generator: Adobe Illustrator 23.0.3, SVG Export Plug-In . SVG Version: 6.00 Build 0)  -->
<svg version="1.1" id="Capa_1" xmlns="http://www.w3.org/2000/svg" xmlns:xlink="http://www.w3.org/1999/xlink" x="0px" y="0px"
	 viewBox="0 0 232.18 93.92" style="enable-background:new 0 0 232.18 93.92;" xml:space="preserve">
<style type="text/css">
	.st0{fill:#FFFFFF;}
</style>
<g>
	<g>
		<g>
			<path class="st0" d="M59.56,38.66c1.37,4.79,1.46,9.87,0.26,14.7c-1.2,4.83-3.68,9.39-7.46,13.17c-5.54,5.54-12.78,8.3-20.03,8.3
				c-7.26,0-14.49-2.76-20.03-8.3C6.76,60.99,4,53.75,4,46.49C4,39.23,6.76,32,12.3,26.46c3.85-3.85,8.51-6.35,13.43-7.52
				c1.07-0.26,1.74-1.33,1.48-2.41c-0.26-1.07-1.33-1.74-2.41-1.48c-5.62,1.34-10.96,4.2-15.33,8.58C3.16,29.94,0,38.22,0,46.49
				c0,8.27,3.16,16.55,9.47,22.86c6.31,6.31,14.59,9.47,22.86,9.47c8.27,0,16.55-3.16,22.86-9.47c4.3-4.3,7.14-9.52,8.51-15.03
				c1.37-5.51,1.27-11.3-0.3-16.76c-0.3-1.06-1.41-1.68-2.47-1.37C59.87,36.49,59.25,37.6,59.56,38.66L59.56,38.66z"/>
			<path class="st0" d="M9.99,81.66c8.06,5.13,17.49,7.22,26.67,6.27c9.17-0.95,18.11-4.95,25.13-11.98
				c8.13-8.13,12.2-18.8,12.2-29.46c0-10.66-4.07-21.33-12.2-29.46c-8.13-8.13-18.8-12.2-29.46-12.2C21.67,4.83,11,8.9,2.87,17.03
				c-0.18,0.18-0.34,0.35-0.49,0.5c-0.77,0.79-0.75,2.06,0.05,2.83c0.79,0.77,2.06,0.75,2.83-0.05c0.16-0.16,0.3-0.32,0.44-0.45
				C13.06,12.5,22.68,8.83,32.33,8.83c9.65,0,19.27,3.67,26.63,11.03c7.36,7.36,11.03,16.99,11.03,26.63
				c0,9.65-3.67,19.27-11.03,26.63c-6.36,6.36-14.42,9.96-22.72,10.83c-8.3,0.86-16.83-1.03-24.11-5.66
				c-0.93-0.59-2.17-0.32-2.76,0.61C8.78,79.83,9.05,81.07,9.99,81.66L9.99,81.66z"/>
			<path class="st0" d="M22.03,31.73c3.51-2.45,7.7-3.51,11.79-3.18c4.1,0.34,8.09,2.07,11.23,5.21c3.52,3.52,5.27,8.11,5.27,12.73
				c0,4.61-1.75,9.21-5.27,12.73c-3.52,3.52-8.11,5.27-12.73,5.27c-4.61,0-9.21-1.75-12.73-5.27c-3.55-3.55-5.3-8.2-5.27-12.86
				c0.01-1.1-0.88-2.01-1.99-2.01c-1.1-0.01-2.01,0.88-2.01,1.99c-0.04,5.67,2.11,11.38,6.44,15.71c4.29,4.29,9.93,6.45,15.55,6.44
				c5.62,0,11.26-2.15,15.55-6.44c4.29-4.29,6.45-9.93,6.44-15.55c0-5.62-2.15-11.26-6.44-15.55c-3.83-3.83-8.73-5.95-13.73-6.36
				c-5-0.41-10.12,0.88-14.42,3.89c-0.9,0.63-1.13,1.88-0.49,2.78C19.88,32.15,21.12,32.37,22.03,31.73L22.03,31.73z"/>
			
				<ellipse transform="matrix(0.2464 -0.9692 0.9692 0.2464 -13.6371 42.9214)" class="st0" cx="20.78" cy="30.23" rx="5.33" ry="5.33"/>
			<path class="st0" d="M57.05,39.3c-1.25-2.11-0.56-4.83,1.55-6.08c2.11-1.25,4.83-0.56,6.08,1.55c1.25,2.11,0.56,4.83-1.55,6.08
				C61.03,42.1,58.31,41.41,57.05,39.3z"/>
			<path class="st0" d="M6.62,82.19c-1.25-2.11-0.56-4.83,1.55-6.08c2.11-1.25,4.83-0.56,6.08,1.55c1.25,2.11,0.56,4.83-1.55,6.08
				C10.59,84.99,7.87,84.3,6.62,82.19z"/>
		</g>
		<g>
			<g>
				<path class="st0" d="M84.88,34.78c0-2.53,0.4-4.76,1.19-6.71c0.79-1.94,1.88-3.57,3.26-4.89c1.38-1.31,3-2.31,4.86-2.99
					c1.86-0.68,3.88-1.02,6.05-1.02c2.17,0,4.19,0.34,6.05,1.02c1.86,0.68,3.49,1.68,4.89,2.99c1.39,1.31,2.49,2.94,3.28,4.89
					c0.79,1.95,1.19,4.18,1.19,6.71c0,3.18-0.58,5.87-1.75,8.09c-1.17,2.22-2.75,3.96-4.76,5.23c0.49,0.23,1.06,0.47,1.73,0.73
					c0.66,0.26,1.36,0.52,2.09,0.78c0.73,0.26,1.48,0.51,2.26,0.75c0.78,0.24,1.51,0.46,2.19,0.66c0.03,0.2,0.05,0.36,0.05,0.51
					c0,0.15,0,0.28,0,0.41c0,1.85-0.48,3.19-1.43,4.03c-0.96,0.84-2.21,1.26-3.77,1.26c-1.49,0-3.03-0.41-4.62-1.24
					s-3.21-2.02-4.86-3.57l-2.14-1.99h-0.39c-2.2,0-4.25-0.35-6.13-1.05c-1.88-0.7-3.5-1.71-4.86-3.04
					c-1.36-1.33-2.43-2.97-3.21-4.91C85.27,39.49,84.88,37.27,84.88,34.78z M93.63,34.78c0,2.95,0.6,5.15,1.8,6.61
					c1.2,1.46,2.8,2.19,4.81,2.19c2.04,0,3.66-0.73,4.86-2.19c1.2-1.46,1.8-3.66,1.8-6.61c0-2.92-0.59-5.1-1.77-6.56
					c-1.18-1.46-2.8-2.19-4.84-2.19c-2.01,0-3.62,0.72-4.84,2.16C94.24,29.63,93.63,31.83,93.63,34.78z"/>
				<path class="st0" d="M119.98,26.27c0.32-0.1,0.83-0.2,1.53-0.29c0.7-0.1,1.42-0.15,2.16-0.15c0.71,0,1.35,0.05,1.92,0.15
					c0.57,0.1,1.05,0.29,1.43,0.58c0.39,0.29,0.69,0.69,0.9,1.19c0.21,0.5,0.32,1.16,0.32,1.97v10.45c0,1.33,0.32,2.28,0.97,2.84
					c0.65,0.57,1.59,0.85,2.82,0.85c0.75,0,1.35-0.07,1.82-0.2c0.47-0.13,0.83-0.26,1.09-0.39V26.27c0.32-0.1,0.83-0.2,1.53-0.29
					c0.7-0.1,1.42-0.15,2.16-0.15c0.71,0,1.35,0.05,1.92,0.15c0.57,0.1,1.05,0.29,1.43,0.58c0.39,0.29,0.69,0.69,0.9,1.19
					c0.21,0.5,0.32,1.16,0.32,1.97V44.5c0,1.62-0.68,2.84-2.04,3.65c-1.13,0.71-2.49,1.26-4.06,1.63s-3.28,0.56-5.13,0.56
					c-1.75,0-3.36-0.19-4.84-0.58c-1.47-0.39-2.75-0.99-3.82-1.8c-1.07-0.81-1.9-1.85-2.48-3.14c-0.58-1.28-0.88-2.83-0.88-4.64
					V26.27z"/>
				<path class="st0" d="M148.08,19.37c0-1.23,0.41-2.27,1.24-3.11c0.83-0.84,1.92-1.26,3.28-1.26c1.36,0,2.46,0.42,3.28,1.26
					c0.83,0.84,1.24,1.88,1.24,3.11c0,1.23-0.41,2.27-1.24,3.11c-0.83,0.84-1.92,1.26-3.28,1.26c-1.36,0-2.46-0.42-3.28-1.26
					C148.49,21.64,148.08,20.6,148.08,19.37z M156.73,49.51c-0.36,0.07-0.88,0.15-1.58,0.27c-0.7,0.11-1.4,0.17-2.11,0.17
					c-0.71,0-1.35-0.05-1.92-0.15c-0.57-0.1-1.05-0.29-1.43-0.58c-0.39-0.29-0.69-0.69-0.9-1.19c-0.21-0.5-0.32-1.16-0.32-1.97
					V26.27c0.36-0.07,0.88-0.15,1.58-0.27c0.7-0.11,1.4-0.17,2.11-0.17c0.71,0,1.35,0.05,1.92,0.15c0.57,0.1,1.05,0.29,1.43,0.58
					c0.39,0.29,0.69,0.69,0.9,1.19c0.21,0.5,0.32,1.16,0.32,1.97V49.51z"/>
				<path class="st0" d="M174.48,50.34c-1.91,0-3.69-0.27-5.32-0.8c-1.64-0.53-3.06-1.34-4.28-2.41c-1.22-1.07-2.17-2.41-2.87-4.04
					c-0.7-1.62-1.05-3.52-1.05-5.69c0-2.14,0.35-3.98,1.05-5.52c0.7-1.54,1.61-2.8,2.75-3.79c1.13-0.99,2.43-1.72,3.89-2.19
					c1.46-0.47,2.95-0.7,4.47-0.7c1.72,0,3.28,0.26,4.69,0.78c1.41,0.52,2.62,1.23,3.65,2.14c1.02,0.91,1.82,1.99,2.38,3.26
					c0.57,1.26,0.85,2.64,0.85,4.13c0,1.1-0.31,1.94-0.92,2.53c-0.62,0.58-1.47,0.96-2.58,1.12l-12.01,1.8
					c0.36,1.07,1.08,1.87,2.19,2.41c1.1,0.54,2.37,0.8,3.79,0.8c1.33,0,2.58-0.17,3.77-0.51c1.18-0.34,2.15-0.74,2.89-1.19
					c0.52,0.32,0.96,0.78,1.31,1.36c0.36,0.58,0.53,1.2,0.53,1.85c0,1.46-0.68,2.54-2.04,3.26c-1.04,0.55-2.2,0.92-3.5,1.12
					C176.83,50.24,175.61,50.34,174.48,50.34z M173.12,31.23c-0.78,0-1.45,0.13-2.02,0.39c-0.57,0.26-1.03,0.59-1.39,1
					c-0.36,0.41-0.62,0.86-0.8,1.36c-0.18,0.5-0.28,1.01-0.32,1.53l8.31-1.36c-0.1-0.65-0.45-1.3-1.07-1.94
					C175.22,31.55,174.31,31.23,173.12,31.23z"/>
				<path class="st0" d="M196.94,49.51c-0.32,0.1-0.83,0.2-1.53,0.29c-0.7,0.1-1.42,0.15-2.16,0.15c-0.71,0-1.35-0.05-1.92-0.15
					c-0.57-0.1-1.05-0.29-1.43-0.58c-0.39-0.29-0.69-0.69-0.9-1.19c-0.21-0.5-0.32-1.16-0.32-1.97V31.47c0-0.75,0.14-1.39,0.41-1.92
					c0.27-0.54,0.67-1.01,1.19-1.43c0.52-0.42,1.16-0.8,1.92-1.14c0.76-0.34,1.58-0.64,2.46-0.9c0.88-0.26,1.78-0.46,2.72-0.61
					c0.94-0.15,1.88-0.22,2.82-0.22c1.56,0,2.79,0.3,3.7,0.9c0.91,0.6,1.36,1.58,1.36,2.94c0,0.45-0.07,0.9-0.19,1.34
					c-0.13,0.44-0.29,0.83-0.49,1.19c-0.68,0-1.38,0.03-2.09,0.1c-0.71,0.07-1.41,0.16-2.09,0.29s-1.32,0.27-1.92,0.41
					c-0.6,0.15-1.11,0.32-1.53,0.51V49.51z"/>
				<path class="st0" d="M232.18,37.74c0,2.01-0.31,3.8-0.92,5.37c-0.62,1.57-1.48,2.89-2.6,3.96c-1.12,1.07-2.46,1.88-4.01,2.43
					c-1.56,0.55-3.29,0.83-5.2,0.83c-1.91,0-3.65-0.29-5.2-0.87c-1.56-0.58-2.89-1.42-4.01-2.5c-1.12-1.08-1.99-2.41-2.6-3.96
					c-0.62-1.56-0.92-3.31-0.92-5.25c0-1.91,0.31-3.65,0.92-5.2c0.62-1.56,1.48-2.88,2.6-3.96c1.12-1.09,2.46-1.92,4.01-2.5
					c1.56-0.58,3.29-0.87,5.2-0.87c1.91,0,3.65,0.3,5.2,0.9c1.56,0.6,2.89,1.44,4.01,2.53c1.12,1.09,1.98,2.41,2.6,3.96
					C231.87,34.15,232.18,35.86,232.18,37.74z M215.17,37.74c0,1.98,0.38,3.49,1.14,4.55c0.76,1.05,1.82,1.58,3.18,1.58
					c1.36,0,2.41-0.54,3.14-1.6c0.73-1.07,1.09-2.58,1.09-4.52c0-1.94-0.37-3.44-1.12-4.5c-0.75-1.05-1.8-1.58-3.16-1.58
					c-1.36,0-2.41,0.53-3.16,1.58C215.54,34.3,215.17,35.8,215.17,37.74z"/>
			</g>
			<g>
				<path class="st0" d="M90.35,85.53c-0.55,0-1.18-0.02-1.9-0.05c-0.71-0.03-1.45-0.1-2.21-0.2c-0.76-0.1-1.52-0.22-2.28-0.36
					c-0.76-0.15-1.47-0.35-2.11-0.61c-1.78-0.68-2.67-1.86-2.67-3.55v-22.7c0-0.68,0.19-1.21,0.56-1.58
					c0.37-0.37,0.88-0.67,1.53-0.9c1.39-0.45,2.87-0.75,4.42-0.9s2.95-0.22,4.18-0.22c2.53,0,4.82,0.31,6.88,0.92
					c2.06,0.62,3.82,1.56,5.3,2.84c1.47,1.28,2.62,2.89,3.43,4.84c0.81,1.94,1.22,4.25,1.22,6.9c0,2.59-0.39,4.85-1.17,6.78
					s-1.89,3.55-3.33,4.86s-3.17,2.29-5.18,2.94C95,85.21,92.78,85.53,90.35,85.53z M87.63,78.43c0.36,0.07,0.79,0.12,1.31,0.17
					c0.52,0.05,1,0.07,1.46,0.07c1.1,0,2.11-0.16,3.04-0.49c0.92-0.32,1.72-0.83,2.38-1.51c0.66-0.68,1.18-1.56,1.56-2.65
					c0.37-1.09,0.56-2.39,0.56-3.91c0-2.92-0.68-5.11-2.04-6.59c-1.36-1.47-3.18-2.21-5.44-2.21c-0.45,0-0.92,0.02-1.39,0.05
					c-0.47,0.03-0.95,0.08-1.43,0.15V78.43z"/>
				<path class="st0" d="M135.37,72.94c0,2.01-0.31,3.8-0.92,5.37c-0.62,1.57-1.48,2.89-2.6,3.96c-1.12,1.07-2.46,1.88-4.01,2.43
					c-1.56,0.55-3.29,0.83-5.2,0.83c-1.91,0-3.65-0.29-5.2-0.87c-1.56-0.58-2.89-1.42-4.01-2.5c-1.12-1.08-1.99-2.41-2.6-3.96
					c-0.62-1.56-0.92-3.31-0.92-5.25c0-1.91,0.31-3.65,0.92-5.2c0.62-1.56,1.48-2.88,2.6-3.96c1.12-1.09,2.46-1.92,4.01-2.5
					c1.56-0.58,3.29-0.87,5.2-0.87c1.91,0,3.65,0.3,5.2,0.9c1.56,0.6,2.89,1.44,4.01,2.53c1.12,1.09,1.98,2.41,2.6,3.96
					C135.06,69.34,135.37,71.06,135.37,72.94z M118.35,72.94c0,1.98,0.38,3.49,1.14,4.55c0.76,1.05,1.82,1.58,3.18,1.58
					c1.36,0,2.41-0.54,3.14-1.6c0.73-1.07,1.09-2.58,1.09-4.52c0-1.94-0.37-3.44-1.12-4.5c-0.75-1.05-1.8-1.58-3.16-1.58
					c-1.36,0-2.41,0.53-3.16,1.58C118.73,69.5,118.35,70.99,118.35,72.94z"/>
				<path class="st0" d="M154.38,69.78c0-1-0.28-1.74-0.85-2.21c-0.57-0.47-1.34-0.7-2.31-0.7c-0.65,0-1.29,0.08-1.92,0.24
					c-0.63,0.16-1.17,0.41-1.63,0.73V84.7c-0.32,0.1-0.83,0.2-1.53,0.29c-0.7,0.1-1.42,0.15-2.16,0.15c-0.71,0-1.35-0.05-1.92-0.15
					c-0.57-0.1-1.05-0.29-1.43-0.58c-0.39-0.29-0.69-0.69-0.9-1.19c-0.21-0.5-0.32-1.16-0.32-1.97V66.67c0-0.87,0.19-1.59,0.56-2.14
					c0.37-0.55,0.88-1.05,1.53-1.51c1.1-0.78,2.49-1.41,4.16-1.9c1.67-0.49,3.52-0.73,5.57-0.73c3.66,0,6.48,0.8,8.46,2.41
					c1.98,1.6,2.97,3.83,2.97,6.68V84.7c-0.32,0.1-0.83,0.2-1.53,0.29c-0.7,0.1-1.42,0.15-2.16,0.15c-0.71,0-1.35-0.05-1.92-0.15
					c-0.57-0.1-1.05-0.29-1.43-0.58c-0.39-0.29-0.69-0.69-0.9-1.19c-0.21-0.5-0.32-1.16-0.32-1.97V69.78z"/>
				<path class="st0" d="M177.47,60.4c1.75,0,3.35,0.18,4.79,0.53c1.44,0.36,2.67,0.9,3.69,1.63c1.02,0.73,1.81,1.65,2.36,2.77
					c0.55,1.12,0.83,2.44,0.83,3.96v10.89c0,0.84-0.24,1.53-0.7,2.07c-0.47,0.54-1.03,1-1.68,1.39c-2.11,1.26-5.07,1.9-8.9,1.9
					c-1.72,0-3.27-0.16-4.64-0.49c-1.38-0.32-2.56-0.81-3.55-1.46c-0.99-0.65-1.75-1.47-2.29-2.48c-0.53-1-0.8-2.17-0.8-3.5
					c0-2.24,0.66-3.95,1.99-5.15c1.33-1.2,3.39-1.95,6.17-2.24l6.37-0.68v-0.34c0-0.94-0.41-1.61-1.24-2.02
					c-0.83-0.41-2.02-0.61-3.57-0.61c-1.23,0-2.43,0.13-3.6,0.39c-1.17,0.26-2.22,0.58-3.16,0.97c-0.42-0.29-0.78-0.74-1.07-1.34
					c-0.29-0.6-0.44-1.22-0.44-1.87c0-0.84,0.2-1.51,0.61-2.02c0.4-0.5,1.03-0.93,1.87-1.29c0.94-0.36,2.05-0.62,3.33-0.78
					C175.13,60.48,176.33,60.4,177.47,60.4z M177.86,79.5c0.55,0,1.16-0.06,1.82-0.17c0.66-0.11,1.16-0.27,1.48-0.46v-3.89
					l-3.5,0.29c-0.91,0.07-1.65,0.26-2.24,0.58c-0.58,0.33-0.87,0.81-0.87,1.46s0.25,1.18,0.75,1.58
					C175.81,79.3,176.66,79.5,177.86,79.5z"/>
				<path class="st0" d="M202.46,84.7c-0.32,0.1-0.83,0.2-1.53,0.29c-0.7,0.1-1.42,0.15-2.16,0.15c-0.71,0-1.35-0.05-1.92-0.15
					c-0.57-0.1-1.05-0.29-1.43-0.58c-0.39-0.29-0.69-0.69-0.9-1.19c-0.21-0.5-0.32-1.16-0.32-1.97V66.67c0-0.75,0.14-1.39,0.41-1.92
					c0.27-0.54,0.67-1.01,1.19-1.43c0.52-0.42,1.16-0.8,1.92-1.14c0.76-0.34,1.58-0.64,2.46-0.9c0.88-0.26,1.78-0.46,2.72-0.61
					c0.94-0.15,1.88-0.22,2.82-0.22c1.56,0,2.79,0.3,3.7,0.9c0.91,0.6,1.36,1.58,1.36,2.94c0,0.45-0.07,0.9-0.19,1.34
					c-0.13,0.44-0.29,0.83-0.49,1.19c-0.68,0-1.38,0.03-2.09,0.1c-0.71,0.07-1.41,0.16-2.09,0.29s-1.32,0.27-1.92,0.41
					c-0.6,0.15-1.11,0.32-1.53,0.51V84.7z"/>
			</g>
		</g>
	</g>
</g>
</svg>
