<?xml version="1.0" encoding="utf-8"?>
<!-- Generator: Adobe Illustrator 23.0.3, SVG Export Plug-In . SVG Version: 6.00 Build 0)  -->
<svg version="1.1" id="Capa_1" xmlns="http://www.w3.org/2000/svg" xmlns:xlink="http://www.w3.org/1999/xlink" x="0px" y="0px"
	 viewBox="0 0 360 193.84" style="enable-background:new 0 0 360 193.84;" xml:space="preserve">
<style type="text/css">
	.st0{fill:#FBE280;}
	.st1{fill:#D99B00;}
	.st2{fill:#9C6D00;}
	.st3{fill:#FFD261;}
	.st4{fill:#FFFFFF;}
	.st5{fill:#3C57AB;}
	.st6{fill:#6582DB;}
	.st7{opacity:0.2;enable-background:new    ;}
	.st8{fill:#C3D4FB;}
	.st9{fill:#5F9E7A;}
	.st10{fill:#FF6344;}
	.st11{fill:#FF927D;}
	.st12{opacity:0.2;}
	.st13{fill:#2E8253;}
	.st14{fill:url(#Trazado_7105_1_);}
	.st15{fill:#414657;}
	.st16{fill:#782E20;}
	.st17{fill:url(#Trazado_7116_1_);}
	.st18{fill:url(#Trazado_7123_1_);}
	.st19{fill:url(#Trazado_7125_1_);}
	.st20{fill:url(#Trazado_7132_1_);}
	.st21{fill:url(#Trazado_7134_1_);}
	.st22{fill:url(#Trazado_7138_1_);}
	.st23{fill:none;stroke:#535373;stroke-width:1.227;stroke-miterlimit:10;}
</style>
<g>
	<path class="st0" d="M75.82,54.5c-8.14,0-14.74-6.61-14.74-14.75c0-8.14,6.6-14.75,14.75-14.75h24.56
		c5.5-8.21,12.17-15.57,19.77-21.83h-2.89c-3.07,0-5.85-1.21-7.91-3.17H0l0,89.69c40.85-35.82,86.21-32.61,86.21-32.61
		c0.01,0,0.03,0,0.04,0c0.21-0.86,0.43-1.72,0.67-2.58H75.82z"/>
	<path class="st0" d="M360,0h-81.63c2.47,2.16,4.03,5.32,4.03,8.85c0,6.5-5.27,11.76-11.76,11.77h-5.52
		C275,33.81,281.73,49.5,284.2,66.57h15.43c7.67,0,13.89,6.22,13.89,13.89c0,0,0,0,0,0c0,7.67-6.22,13.89-13.89,13.89c0,0,0,0,0,0
		h-3.44c-3.2,0.29-6.21,1.7-8.49,4c-2.61,2.45-4.08,5.87-4.08,9.44c0,7.44,6,13.48,13.43,13.54h11.92c3.98,0,7.36,2.59,8.54,6.18
		c28.01-2.41,42.49-9.98,42.49-9.98V0z"/>
	<path class="st0" d="M276.9,121.34h20.15c-7.43-0.06-13.43-6.1-13.43-13.54c0-3.58,1.47-6.99,4.08-9.44c2.28-2.3,5.29-3.71,8.49-4
		h-11.81C283.13,103.82,280.58,112.88,276.9,121.34z"/>
	<path class="st0" d="M202.17,97.47c-2.73-1.61-5.39-3.24-7.98-4.88c-28.96-18.32-71.52-35.49-107.94-35.51
		c-1.88,7.7-2.89,15.75-2.89,24.03c0,5.5,0.45,10.89,1.29,16.15h114.68C200.3,97.26,201.24,97.34,202.17,97.47z"/>
	<path class="st0" d="M199.33,139.88h-50.68c3.14,0.98,5.42,3.91,5.42,7.38c0,0,0,0,0,0c0,4.27-3.46,7.73-7.73,7.73h-6.63
		c-1.61,0.27-3.11,1.04-4.26,2.23c-1.45,1.36-2.27,3.26-2.27,5.26c0,4.15,3.36,7.51,7.5,7.54h0.24c-0.06,0-0.13,0-0.19,0
		c-0.02,0-0.03,0-0.05,0h-4.22c0,0,0.01,0,0.01,0h29.58c2.77,0,5.01,2.24,5.01,5.01c0,0,0,0,0,0c0,2.77-2.24,5.01-5.01,5.01
		c0,0,0,0,0,0h-1.87c6.5,1.32,13.23,2.01,20.12,2.01c19.57,0,37.84-5.58,53.31-15.22h-13.25c-4.54,0-8.22-3.68-8.22-8.22
		c0-4.54,3.68-8.22,8.22-8.22c0,0,0,0,0,0h33.35c3.27-3.46,6.29-7.15,9.05-11.05h-62.72C202.53,139.68,200.95,139.88,199.33,139.88z
		"/>
	<path class="st0" d="M215.8,105.04c3.03,3.68,4.85,8.39,4.85,13.53c0,0.94-0.08,1.86-0.2,2.77h26.66c1.65-0.09,3.23-0.48,4.67-1.13
		C239.13,116.16,227.05,110.89,215.8,105.04z"/>
	<path class="st0" d="M202.17,97.47c5.47,0.73,10.28,3.51,13.62,7.57c11.25,5.85,23.33,11.13,35.98,15.17
		c4.35-1.95,7.48-6.19,7.77-11.27c0.02-0.29,0.02-0.59,0.02-0.88c0.03-7.19-5.5-13.1-12.54-13.7h-21.8
		c-7.67,0-13.89-6.22-13.89-13.89c0,0,0,0,0,0c0-7.67,6.22-13.89,13.89-13.89h58.98c-2.46-17.07-9.19-32.77-19.08-45.96h-64.05
		c-6.5,0-11.76-5.27-11.76-11.77c0-3.53,1.57-6.7,4.03-8.85h-6.55c-2.06,1.96-4.84,3.17-7.91,3.17h-58.71
		c-7.6,6.27-14.27,13.62-19.77,21.83h62.63c8.14,0,14.75,6.6,14.75,14.75c0,8.15-6.6,14.75-14.75,14.75c0,0,0,0,0,0h-76.1
		c-0.23,0.85-0.45,1.71-0.67,2.58c36.41,0.01,78.98,17.19,107.94,35.51C196.78,94.22,199.45,95.85,202.17,97.47z"/>
	<path class="st0" d="M251.77,120.2c-1.44,0.65-3.02,1.05-4.67,1.13h8.34C254.21,120.97,252.99,120.59,251.77,120.2z"/>
	<path class="st0" d="M276.9,121.34c3.68-8.46,6.24-17.51,7.48-26.98h-37.36c7.04,0.6,12.57,6.51,12.54,13.7
		c0,0.29,0,0.59-0.02,0.88c-0.28,5.08-3.42,9.32-7.77,11.27c1.22,0.39,2.44,0.77,3.67,1.13H276.9z"/>
	<path class="st0" d="M115.42,154.87c-4.87-4.55-9.29-9.57-13.18-15H91.66c-3.14,0.98-5.42,3.92-5.42,7.38
		c0,4.27,3.46,7.73,7.73,7.73h19.41c-0.43-0.07-0.88-0.12-1.32-0.12H115.42z"/>
	<path class="st0" d="M115.42,154.87h25.51c-0.41,0-0.81,0.05-1.21,0.12h6.63c4.27,0,7.73-3.46,7.73-7.73c0,0,0,0,0,0
		c0-3.46-2.28-6.4-5.42-7.38h-46.42C106.13,145.3,110.55,150.33,115.42,154.87z"/>
	<path class="st0" d="M104.67,170.01C104.67,170.01,104.67,170.01,104.67,170.01c-2.77,0-5.01,2.24-5.01,5.01c0,0,0,0,0,0
		c0,2.77,2.24,5.01,5.01,5.01h59.51c-9.83-1.99-19.14-5.41-27.7-10.02H104.67z"/>
	<path class="st0" d="M166.05,180.03c2.77,0,5.01-2.24,5.01-5.01c0,0,0,0,0,0c0-2.77-2.24-5.01-5.01-5.01h-29.58
		c8.57,4.62,17.87,8.03,27.7,10.02H166.05C166.05,180.03,166.05,180.03,166.05,180.03z"/>
	<path class="st0" d="M240.24,180.04h-13.09c-1.74,0-3.15,1.41-3.15,3.15v3.73c0,1.74,1.41,3.15,3.15,3.15h13.09
		c1.74,0,3.15-1.41,3.15-3.15v-3.73C243.39,181.45,241.98,180.04,240.24,180.04z"/>
	<path class="st0" d="M237.62,166.82h32.36c4.54,0,8.22-3.68,8.22-8.22c0,0,0,0,0,0c0-4.54-3.68-8.22-8.22-8.22h-12.27
		C251.76,156.69,245.01,162.22,237.62,166.82z"/>
	<path class="st0" d="M224.36,150.38c-4.54,0-8.22,3.68-8.22,8.22c0,4.54,3.68,8.22,8.22,8.22h13.25
		c7.39-4.61,14.14-10.14,20.09-16.44H224.36C224.36,150.38,224.36,150.38,224.36,150.38z"/>
	<path class="st0" d="M113.38,154.99c1.57,0.27,3.03,1.01,4.17,2.15c3,3.01,2.99,7.89-0.03,10.89c-1.29,1.19-2.95,1.89-4.69,1.98
		h23.64c-7.62-4.11-14.64-9.17-20.93-15.02H113.38z"/>
	<path class="st0" d="M112.83,170.01h-0.77C112.32,170.02,112.58,170.02,112.83,170.01z"/>
	<path class="st0" d="M140.92,170.01h-0.24c0.02,0,0.03,0,0.05,0C140.8,170.01,140.86,170.01,140.92,170.01z"/>
	<path class="st0" d="M133.19,162.47c0-1.99,0.82-3.89,2.27-5.26c1.15-1.19,2.65-1.96,4.26-2.23h-24.18
		c6.28,5.85,13.31,10.91,20.93,15.02h4.22C136.54,169.98,133.19,166.62,133.19,162.47z"/>
	<path class="st0" d="M115.42,154.87h-3.36c0.45,0,0.89,0.04,1.32,0.12h2.16C115.5,154.95,115.46,154.91,115.42,154.87z"/>
	<path class="st0" d="M115.42,154.87c0.04,0.04,0.08,0.08,0.12,0.12h24.18c0.4-0.07,0.8-0.11,1.21-0.12H115.42z"/>
	<path class="st0" d="M285.24,81.11c0,4.47-0.29,8.87-0.86,13.18h13.13c-0.44,0-0.89,0.02-1.33,0.06h3.44c0,0,0,0,0,0
		c7.67,0,13.89-6.22,13.89-13.89c0,0,0,0,0,0c0-7.67-6.22-13.89-13.89-13.89H284.2C284.88,71.32,285.24,76.17,285.24,81.11
		C285.24,81.1,285.24,81.11,285.24,81.11z"/>
	<path class="st0" d="M284.38,94.29c0,0.02-0.01,0.04-0.01,0.06h11.81c0.44-0.04,0.88-0.06,1.33-0.06H284.38z"/>
	<path class="st0" d="M211.33,80.46C211.33,80.46,211.33,80.46,211.33,80.46c0,7.67,6.22,13.89,13.89,13.89h21.8
		c-0.37-0.03-0.74-0.06-1.11-0.06h-0.23c0.07,0,0.14,0,0.22,0c0.01,0,0.01,0,0.02,0h38.48c0.56-4.32,0.86-8.71,0.86-13.18
		c0,0,0,0,0-0.01c0-4.93-0.36-9.78-1.05-14.53h-58.98C217.54,66.57,211.33,72.79,211.33,80.46z"/>
	<path class="st0" d="M284.38,94.29h-38.48c0.37,0,0.74,0.03,1.11,0.06h37.36C284.38,94.33,284.38,94.31,284.38,94.29z"/>
	<path class="st0" d="M245.67,94.29h0.23c-0.01,0-0.01,0-0.02,0C245.82,94.29,245.74,94.29,245.67,94.29z"/>
	<path class="st0" d="M274.75,125.95c-2.32,4.68-5,9.16-7.99,13.39h42.21c4.97,0,9-4.03,9-9c0-0.98-0.16-1.93-0.46-2.82
		c-5.3,0.46-11.08,0.73-17.34,0.73C291.59,128.25,283.1,127.42,274.75,125.95z"/>
	<path class="st0" d="M308.97,121.34h-11.92c0.01,0,0.01,0,0.02,0h0.45c-0.12,0-0.24,0-0.36,0c-0.03,0-0.06,0-0.09,0H276.9
		c-0.68,1.56-1.39,3.09-2.15,4.61c8.34,1.48,16.84,2.3,25.42,2.3c6.26,0,12.04-0.27,17.34-0.73
		C316.33,123.93,312.96,121.34,308.97,121.34z"/>
	<path class="st0" d="M297.52,121.34h-0.45c0.03,0,0.06,0,0.09,0C297.28,121.34,297.4,121.34,297.52,121.34z"/>
	<path class="st0" d="M276.9,121.34h20.17c-0.01,0-0.01,0-0.02,0L276.9,121.34C276.9,121.34,276.9,121.34,276.9,121.34z"/>
	<path class="st0" d="M255.44,121.34h-8.35c-0.47,0.02-0.94,0.03-1.42,0h1.42c0,0,0.01,0,0.01,0h-26.66
		c-1.16,8.89-7.78,16.05-16.4,18h62.72c3-4.23,5.67-8.71,7.99-13.39C268.21,124.79,261.76,123.22,255.44,121.34z"/>
	<path class="st0" d="M274.75,125.95c0.75-1.51,1.47-3.05,2.15-4.61h-21.45C261.76,123.22,268.21,124.79,274.75,125.95z"/>
	<polygon class="st0" points="247.1,121.34 247.09,121.34 255.44,121.34 255.44,121.34 	"/>
	<path class="st0" d="M247.09,121.34h-1.42C246.15,121.36,246.62,121.36,247.09,121.34z"/>
	<polygon class="st0" points="255.44,121.34 255.44,121.34 276.9,121.34 276.9,121.34 	"/>
	<path class="st0" d="M61.08,39.75c0,8.14,6.6,14.75,14.74,14.75h11.1c2.9-10.63,7.49-20.57,13.47-29.5H75.83
		C67.68,25,61.08,31.6,61.08,39.75z"/>
	<path class="st0" d="M163.02,54.5C163.02,54.5,163.02,54.5,163.02,54.5c8.15,0,14.75-6.6,14.75-14.75c0-8.14-6.6-14.75-14.75-14.75
		h-62.63c-5.98,8.93-10.57,18.86-13.47,29.5H163.02z"/>
	<path class="st0" d="M93.97,139.52h8.01c-8.76-12.32-14.82-26.7-17.32-42.27H73.33c-11.77,0-21.31,9.54-21.31,21.31
		c0,11.77,9.54,21.31,21.31,21.31h18.32C92.39,139.65,93.16,139.52,93.97,139.52C93.97,139.52,93.97,139.52,93.97,139.52z"/>
	<path class="st0" d="M146.35,139.52c0.81,0,1.58,0.12,2.31,0.35h50.68c1.62,0,3.19-0.2,4.71-0.54h-5.32c-4.97,0-9-4.03-9-9
		s4.03-9,9-9h21.72c0.12-0.91,0.2-1.83,0.2-2.77c0-5.14-1.82-9.85-4.85-13.53c-4.69-2.44-9.24-4.98-13.62-7.57
		c-0.93-0.12-1.87-0.21-2.84-0.21H84.66c2.5,15.57,8.56,29.94,17.32,42.27H146.35z"/>
	<path class="st0" d="M202.17,97.47c4.38,2.59,8.93,5.13,13.62,7.57C212.46,100.98,207.64,98.2,202.17,97.47z"/>
	<path class="st0" d="M101.98,139.52h-8.01c0,0,0,0,0,0c-0.8,0-1.58,0.12-2.31,0.35h10.58
		C102.15,139.76,102.06,139.64,101.98,139.52z"/>
	<path class="st0" d="M101.98,139.52c0.08,0.12,0.17,0.23,0.26,0.35h46.42c-0.73-0.23-1.51-0.35-2.31-0.35H101.98z"/>
	<path class="st0" d="M189.72,130.34c0,4.97,4.03,9,9,9h5.32c8.62-1.95,15.24-9.11,16.4-18h-21.72
		C193.75,121.34,189.72,125.37,189.72,130.34z"/>
	<path class="st0" d="M265.12,20.62h5.52c6.5,0,11.76-5.27,11.76-11.77c0-3.53-1.57-6.7-4.03-8.85h-33.98
		C252.26,5.84,259.24,12.78,265.12,20.62z"/>
	<path class="st0" d="M244.39,0h-51.05c-2.47,2.16-4.03,5.32-4.03,8.85c0,6.5,5.27,11.76,11.76,11.77h64.05
		C259.24,12.78,252.26,5.84,244.39,0z"/>
	<path class="st0" d="M109.36,0c2.06,1.96,4.84,3.17,7.91,3.17h2.89c1.32-1.09,2.68-2.15,4.06-3.17H109.36z"/>
	<path class="st0" d="M120.16,3.17h58.71c3.07,0,5.85-1.21,7.91-3.17h-62.57C122.84,1.02,121.49,2.08,120.16,3.17z"/>
</g>
<g id="Grupo_13856" transform="translate(-754.953 -66.051)">
	<g id="Grupo_13861" transform="translate(1013.775 200.785)">
		<path id="Trazado_7062" class="st1" d="M22.92-26.29c0.15-5.03,2.17-9.32-0.43-13.78c-2.46-4.23-5.44-3.9-4.83-8.54
			s-2.32-6.89-6.64-6.89s-7.26,2.25-6.64,6.89s-2.36,4.3-4.83,8.54c-2.6,4.46-0.58,8.75-0.43,13.78S-4.5-19.66-4.5-9.82
			c0,8.33,4.4,16.31,15.52,16.31S26.55-1.49,26.55-9.82C26.55-19.66,22.76-21.26,22.92-26.29z"/>
		<g id="Grupo_13856-2" transform="translate(15.082 10.018)">
			<rect id="Rectángulo_1561" x="-4.5" y="-55.5" class="st2" width="0.88" height="93.1"/>
		</g>
		<g id="Grupo_13857" transform="translate(7.827 14.261)">
			<path id="Trazado_7063" class="st2" d="M2.94-45.08c-3.44-2.57-6.03-6.11-7.44-10.17l0.85-0.25c1.37,3.86,3.84,7.24,7.11,9.71
				L2.94-45.08z"/>
		</g>
		<g id="Grupo_13858" transform="translate(15.281 18.294)">
			<path id="Trazado_7064" class="st2" d="M-4.01-42.43l-0.49-0.74c6.09-4.02,8.8-12.25,8.83-12.33l0.84,0.27
				C5.05-54.88,2.33-46.62-4.01-42.43z"/>
		</g>
		<g id="Grupo_13859" transform="translate(3.46 34.093)">
			<path id="Trazado_7065" class="st2" d="M7.39-44.42c-9.52-3.86-11.81-10.52-11.9-10.8l0.84-0.28c0.02,0.07,2.27,6.56,11.39,10.26
				L7.39-44.42z"/>
		</g>
		<g id="Grupo_13860" transform="translate(15.476 41.188)">
			<path id="Trazado_7066" class="st2" d="M-4.4-44.28l-0.1-0.88C3.2-45.99,7.6-55.4,7.64-55.5l0.8,0.37
				C8.26-54.72,3.79-45.17-4.4-44.28z"/>
		</g>
	</g>
	<path id="Trazado_7067" class="st3" d="M875.07,120.68c-5.68-3.89-13.43-2.44-17.31,3.24c-3.89,5.68-2.44,13.43,3.24,17.31
		c4.81,3.29,11.25,2.81,15.52-1.15l6.87,1.37l-3.77-5.91C881.76,130.14,879.87,123.97,875.07,120.68z"/>
	<path id="Trazado_7068" class="st4" d="M870.29,134.36c-0.26,0-0.52,0.07-0.75,0.19l-4.16-3.01c0.04-0.17,0.04-0.35,0-0.52
		l4.16-3.01c0.23,0.12,0.49,0.19,0.75,0.19c0.89,0,1.61-0.72,1.61-1.61c0-0.89-0.72-1.61-1.61-1.61c-0.89,0-1.61,0.72-1.61,1.61
		c0,0.09,0.01,0.17,0.03,0.26l-4.16,3.01c-0.23-0.12-0.49-0.19-0.75-0.19c-0.89,0-1.61,0.72-1.61,1.62c0,0.89,0.72,1.61,1.61,1.61
		c0.26,0,0.52-0.07,0.75-0.19l4.16,3.01c-0.02,0.09-0.03,0.17-0.03,0.26c0,0.89,0.72,1.61,1.61,1.61c0.89,0,1.61-0.72,1.61-1.61
		C871.9,135.08,871.18,134.36,870.29,134.36z"/>
	<path id="Trazado_7069" class="st4" d="M1009.23,111.61h-28.11c-2.3,0-4.17,1.87-4.17,4.17v6.73c0,2.3,1.87,4.17,4.17,4.17h9.41
		l3.14,4.3v-4.3h15.57c2.3,0,4.17-1.87,4.17-4.17v-6.73C1013.39,113.47,1011.53,111.61,1009.23,111.61L1009.23,111.61z"/>
	<g id="Grupo_13862" transform="translate(935.084 167.165)">
		<path id="Trazado_7070" class="st5" d="M22.29-45.18c0.35,0.89,0.88,1.7,1.58,2.37c2.53,2.44,6.55,2.42,9.06-0.04
			c0.38-0.37,0.59-0.89,0.58-1.43h0.01v-1.52H32.7c-0.76-0.54-1.8-0.47-2.47,0.18c-1.05,1.03-2.74,1.01-3.77-0.05
			c-1.03-1.05-1.01-2.74,0.05-3.77c1.04-1.01,2.69-1.01,3.72,0c0.76,0.74,1.99,0.73,2.73-0.04c0.36-0.36,0.55-0.86,0.55-1.36l0,0
			v-1.52h-0.76c-2.54-2.31-6.43-2.25-8.9,0.13c-0.69,0.66-1.22,1.47-1.56,2.35H6.72c-0.34-0.88-0.87-1.67-1.54-2.33
			c-2.46-2.4-6.37-2.47-8.92-0.16H-4.5v1.52l0,0c-0.01,1.07,0.85,1.94,1.91,1.95c0.51,0,1-0.19,1.36-0.55
			c1.05-1.03,2.74-1.01,3.77,0.05c1.03,1.05,1.01,2.74-0.05,3.77c-1.04,1.01-2.69,1.01-3.72,0c-0.67-0.65-1.71-0.73-2.47-0.18H-4.5
			v1.52h0.01c-0.01,0.53,0.19,1.05,0.58,1.43c2.59,2.51,6.72,2.45,9.23-0.13c0.61-0.63,1.09-1.38,1.41-2.2L22.29-45.18"/>
		<path id="Trazado_7071" class="st6" d="M30.23-47.07c-1.05,1.03-2.74,1.01-3.77-0.05s-1.01-2.74,0.05-3.77
			c1.04-1.01,2.69-1.01,3.72,0c0.76,0.74,1.99,0.73,2.73-0.04c0.74-0.76,0.73-1.99-0.04-2.73c-2.52-2.46-6.54-2.47-9.07-0.02
			c-0.69,0.66-1.22,1.47-1.56,2.35H6.72c-0.34-0.88-0.87-1.67-1.54-2.33c-2.53-2.47-6.57-2.47-9.1,0c-0.78,0.73-0.82,1.95-0.09,2.73
			c0.73,0.78,1.95,0.82,2.73,0.09c0.02-0.02,0.04-0.04,0.06-0.06c1.05-1.03,2.74-1.01,3.77,0.05c1.03,1.05,1.01,2.74-0.05,3.77
			c-1.04,1.01-2.69,1.01-3.72,0c-0.76-0.75-1.99-0.73-2.73,0.03c-0.75,0.76-0.73,1.99,0.03,2.73c2.59,2.51,6.72,2.45,9.23-0.13
			c0.61-0.63,1.09-1.38,1.41-2.2h15.57c0.35,0.89,0.88,1.7,1.58,2.37c2.53,2.44,6.55,2.42,9.06-0.04c0.77-0.74,0.8-1.96,0.06-2.73
			c-0.74-0.77-1.96-0.8-2.73-0.06c-0.01,0.01-0.02,0.02-0.03,0.03L30.23-47.07z"/>
	</g>
	<g id="Grupo_13863" transform="translate(934.041 274.44)">
		<path id="Trazado_7072" class="st5" d="M28.41-55.5H7.08C7.08-29.53-4.5-26.14-4.5-26.14h44.49
			C39.99-26.14,28.41-29.53,28.41-55.5z"/>
		<path id="Trazado_7073" class="st7" d="M28.41-55.5H7.08c0.01,2.54-0.12,5.07-0.38,7.6l23.66,8.46
			C28.97-44.68,28.31-50.08,28.41-55.5z"/>
	</g>
	<g id="Grupo_13868" transform="translate(903.414 206.331)">
		<path id="Rectángulo_1562" class="st5" d="M0.81-55.5h95.12c2.93,0,5.31,2.38,5.31,5.31v60.41c0,2.93-2.38,5.31-5.31,5.31H0.81
			c-2.93,0-5.31-2.38-5.31-5.31v-60.41C-4.5-53.12-2.12-55.5,0.81-55.5z"/>
		<g id="Grupo_13865" transform="translate(5.429 5.27)">
			<path id="Rectángulo_1563" class="st4" d="M-1.99-55.5h89.86c1.39,0,2.51,1.13,2.51,2.51V2.48c0,1.39-1.13,2.51-2.51,2.51H-1.99
				c-1.39,0-2.51-1.13-2.51-2.51v-55.46C-4.5-54.37-3.37-55.5-1.99-55.5z"/>
			<path id="Rectángulo_1564" class="st8" d="M-2.23-55.5h90.33c1.26,0,2.28,1.02,2.28,2.27c0,0,0,0,0,0v4.84l0,0H-4.5l0,0v-4.84
				C-4.5-54.48-3.48-55.5-2.23-55.5C-2.23-55.5-2.23-55.5-2.23-55.5z"/>
			<g id="Grupo_13864" transform="translate(4.73 1.988)">
				<circle id="Elipse_183" class="st6" cx="-2.93" cy="-53.93" r="1.57"/>
				<circle id="Elipse_184" class="st6" cx="3.57" cy="-53.93" r="1.57"/>
				<circle id="Elipse_185" class="st6" cx="10.08" cy="-53.93" r="1.57"/>
			</g>
		</g>
		<g id="Grupo_13866" transform="translate(19.776 40.042)">
			<path id="Rectángulo_1565" class="st8" d="M-2.65-55.5h44.38c1.02,0,1.85,0.83,1.85,1.85l0,0c0,1.02-0.83,1.85-1.85,1.85H-2.65
				c-1.02,0-1.85-0.83-1.85-1.85l0,0C-4.5-54.67-3.67-55.5-2.65-55.5z"/>
			<path id="Rectángulo_1566" class="st8" d="M-2.65-48.62h44.38c1.02,0,1.85,0.83,1.85,1.85l0,0c0,1.02-0.83,1.85-1.85,1.85H-2.65
				c-1.02,0-1.85-0.83-1.85-1.85l0,0C-4.5-47.79-3.67-48.62-2.65-48.62z"/>
			<path id="Rectángulo_1567" class="st8" d="M-2.65-41.74h17.15c1.02,0,1.85,0.83,1.85,1.85l0,0c0,1.02-0.83,1.85-1.85,1.85H-2.65
				c-1.02,0-1.85-0.83-1.85-1.85l0,0C-4.5-40.91-3.67-41.74-2.65-41.74z"/>
		</g>
		<g id="Grupo_13867" transform="translate(16.815 21.925)">
			<path id="Trazado_7074" class="st6" d="M61.7-43.68H1.41c-3.26,0-5.91-2.65-5.91-5.91c0,0,0,0,0,0l0,0
				c0-3.27,2.65-5.91,5.91-5.91H61.7c3.27,0,5.91,2.65,5.91,5.91l0,0C67.61-46.32,64.97-43.68,61.7-43.68z"/>
			<path id="Trazado_7075" class="st5" d="M61.7-43.68h-3.56c-3.26,0-5.91-2.65-5.91-5.91c0,0,0,0,0,0l0,0
				c0-3.27,2.65-5.91,5.91-5.91h3.57c3.27,0,5.91,2.65,5.91,5.91l0,0C67.62-46.32,64.97-43.68,61.7-43.68
				C61.7-43.68,61.7-43.68,61.7-43.68z"/>
			<path id="Trazado_7076" class="st4" d="M63.49-46.83l-2.17-2.17c0.84-1.1,0.63-2.68-0.47-3.52c-1.1-0.84-2.68-0.63-3.52,0.47
				c-0.84,1.1-0.63,2.68,0.47,3.52c0.9,0.69,2.16,0.69,3.06-0.01l2.17,2.17L63.49-46.83z M58.04-49.21c-0.72-0.72-0.72-1.89,0-2.61
				c0.72-0.72,1.89-0.72,2.61,0c0.72,0.72,0.72,1.89,0,2.61C59.92-48.52,58.77-48.51,58.04-49.21L58.04-49.21z"/>
		</g>
	</g>
	<g id="Grupo_13869" transform="translate(872.526 285.755)">
		<path id="Trazado_7077" class="st9" d="M69.34-37.46c-4.72-3.64-15.76-11.01-25.18-8.66c-4.08-5.47-11.32-7.52-17.67-5.02
			C22.06-57.28-1.63-60.13-4.5-37.46H69.34z"/>
		<path id="Trazado_7078" class="st9" d="M89.18-37.46c4.72-3.64,15.76-11.01,25.18-8.66c4.08-5.47,11.32-7.53,17.67-5.02
			c4.43-6.13,28.12-8.98,30.99,13.68H89.18z"/>
	</g>
	<g id="Grupo_13875" transform="translate(889.428 153.923)">
		<circle id="Elipse_186" class="st7" cx="16.03" cy="-33.6" r="15.77"/>
		<circle id="Elipse_187" class="st4" cx="16.72" cy="-34.28" r="15.01"/>
		<g id="Grupo_13870" transform="translate(9.451 9.451)">
			<path id="Trazado_7079" class="st10" d="M7.27-31.96c-6.5,0-11.77-5.27-11.77-11.77c0-6.5,5.27-11.77,11.77-11.77
				c6.5,0,11.77,5.27,11.77,11.77v0C19.03-37.23,13.77-31.97,7.27-31.96z M7.27-52.25c-4.7,0-8.52,3.81-8.52,8.52
				s3.81,8.52,8.52,8.52s8.52-3.81,8.52-8.52C15.78-48.43,11.97-52.24,7.27-52.25L7.27-52.25z"/>
		</g>
		<g id="Grupo_13871" transform="translate(15.398 15.399)">
			<path id="Trazado_7080" class="st10" d="M1.32-43.86c-3.21,0-5.82-2.61-5.82-5.82c0-3.21,2.61-5.82,5.82-5.82
				c3.21,0,5.82,2.61,5.82,5.82c0,0,0,0,0,0C7.14-46.47,4.53-43.86,1.32-43.86z M1.32-52.25c-1.42,0-2.57,1.15-2.57,2.57
				s1.15,2.57,2.57,2.57s2.57-1.15,2.57-2.57c0,0,0,0,0,0C3.89-51.1,2.74-52.25,1.32-52.25L1.32-52.25z"/>
		</g>
		<g id="Grupo_13874" transform="translate(20.954 8.252)">
			<path id="Trazado_7081" class="st5" d="M15.41-52.88L-1.1-44.23c-0.24,0.12-0.53,0.03-0.65-0.2l-0.28-0.54l-2.38,2.56
				c-0.13,0.14-0.12,0.35,0.02,0.47c0.07,0.07,0.17,0.1,0.27,0.09l3.46-0.5l-0.28-0.54c-0.12-0.24-0.03-0.53,0.2-0.65l16.51-8.65
				L15.41-52.88z"/>
			<g id="Grupo_13872" transform="translate(16.308)">
				<path id="Trazado_7082" class="st4" d="M-3.6-51.46l-0.9,0.47l0.35-2.62l0.9-0.47L-3.6-51.46z"/>
				<path id="Trazado_7083" class="st10" d="M-2.7-51.94l-0.9,0.47l0.35-2.62l0.9-0.47L-2.7-51.94z"/>
				<path id="Trazado_7084" class="st4" d="M-1.8-52.41l-0.9,0.47l0.35-2.62l0.9-0.47L-1.8-52.41z"/>
				<path id="Trazado_7085" class="st10" d="M-0.89-52.88l-0.9,0.47l0.35-2.62l0.9-0.47L-0.89-52.88z"/>
			</g>
			<g id="Grupo_13873" transform="translate(16.673 3.316)">
				<path id="Trazado_7086" class="st4" d="M-3.6-54.08l-0.9,0.47l2.35,1.2l0.9-0.47L-3.6-54.08z"/>
				<path id="Trazado_7087" class="st10" d="M-2.7-54.56l-0.9,0.47l2.35,1.2l0.9-0.47L-2.7-54.56z"/>
				<path id="Trazado_7088" class="st4" d="M-1.8-55.03l-0.9,0.47l2.35,1.2l0.9-0.47L-1.8-55.03z"/>
				<path id="Trazado_7089" class="st10" d="M-0.9-55.5l-0.9,0.47l2.35,1.2l0.9-0.47L-0.9-55.5z"/>
			</g>
		</g>
	</g>
	<g id="Grupo_13876" transform="translate(951.719 182.999)">
		<path id="Trazado_7090" class="st4" d="M-2.61-54.56c0,0.52-0.42,0.94-0.95,0.94s-0.95-0.42-0.95-0.95s0.42-0.94,0.95-0.94
			c0,0,0,0,0,0C-3.03-55.5-2.61-55.08-2.61-54.56C-2.61-54.56-2.61-54.56-2.61-54.56z"/>
		<path id="Trazado_7091" class="st4" d="M-2.61-47.37c0,0.52-0.42,0.94-0.95,0.94s-0.95-0.42-0.95-0.95s0.42-0.94,0.95-0.94
			c0,0,0,0,0,0C-3.03-48.32-2.61-47.9-2.61-47.37C-2.61-47.37-2.61-47.37-2.61-47.37z"/>
		<path id="Trazado_7092" class="st4" d="M-2.61-40.2c0,0.52-0.42,0.94-0.95,0.94S-4.5-39.67-4.5-40.2s0.42-0.94,0.95-0.94
			c0,0,0,0,0,0C-3.03-41.14-2.61-40.72-2.61-40.2C-2.61-40.2-2.61-40.2-2.61-40.2z"/>
	</g>
	<g id="Grupo_13879" transform="translate(965.512 187.55)">
		<path id="Trazado_7093" class="st11" d="M23.86,42.36l1.22,11.69c0.08,0.75-0.3,1.47-0.95,1.84c-2.14,1.2-6.69,3.83-6.55,4.42
			c0.19,0.77,9.08,0.58,11.78-1.16s0.1-2.99,0-6.08s0.1-10.72,0.1-10.72L23.86,42.36z"/>
		<path id="Trazado_7094" class="st5" d="M29.36,59.15c2.08-1.34,1.02-2.39,0.38-4.21l-3.42,1.41c-0.48-0.43-1.03-0.75-1.64-0.96
			c-0.15,0.2-0.34,0.37-0.55,0.5c-2.14,1.2-6.69,3.83-6.55,4.42C17.77,61.09,26.66,60.89,29.36,59.15z"/>
		<path id="Trazado_7095" class="st11" d="M42.51,41.68l5.6,10.34c0.36,0.66,0.29,1.48-0.18,2.07c-1.52,1.93-4.72,6.1-4.35,6.59
			c0.47,0.64,8.61-2.94,10.44-5.58s-1.06-2.8-2.33-5.62s-4.01-9.94-4.01-9.94L42.51,41.68z"/>
		<g id="Grupo_13877" transform="translate(28.359 95.035)" class="st12">
			<path id="Trazado_7096" d="M14.15-53.36l3.43,6.33l5.31,0.45c-1.37-3.22-3.57-8.92-3.57-8.92L14.15-53.36z"/>
			<path id="Trazado_7097" d="M-4.5-52.68l0.4,3.8l5.12,0.44c0.04-2.31,0.09-4.23,0.09-4.23L-4.5-52.68z"/>
		</g>
		<path id="Trazado_7098" class="st5" d="M54.03,55.09c1.41-2.03,0.03-2.6-1.27-4.03l-2.62,2.61c-0.6-0.21-1.24-0.3-1.88-0.26
			c-0.06,0.24-0.17,0.47-0.32,0.67c-1.52,1.93-4.72,6.1-4.36,6.59C44.06,61.31,52.19,57.73,54.03,55.09z"/>
		<path id="Trazado_7099" class="st13" d="M30.61-11.13h12.63c0,0,3.11,3.38,2.53,9.65s-0.39,16.8,1.35,20.08s3.09,5.6,2.8,8.5
			s4.37,4.89,4.26,9.37c-0.07,1.73,0.37,3.45,1.27,4.93c0.54,0.84,0.3,1.96-0.54,2.5c-0.29,0.19-0.62,0.29-0.97,0.29H23.09
			l-1.33-18.45c-0.28-3.85,0.06-7.71,1.01-11.45C24.7,6.61,28.21-6.53,30.61-11.13z"/>
		<path id="Trazado_7100" class="st7" d="M45.77,12.35c-0.39-4.6-0.39-9.23,0-13.83c0.58-6.27-2.53-9.65-2.53-9.65H30.62
			c-0.76,1.56-1.42,3.18-1.96,4.83C29.88-0.95,33.78,9.29,45.77,12.35z"/>
		<path id="Trazado_7101" class="st11" d="M29.71-33.66c-1.62,1.21-10.59,9.59-10.59,9.59l2.03-9.27l-2.41-0.32
			c0,0-7.34,12.58-2.71,14.47s13.37-7.87,13.37-7.87S31.9-30.75,29.71-33.66z"/>
		<path id="Trazado_7102" class="st7" d="M20.65-31.02l0.51-2.32l-2.41-0.32c0,0-1.05,1.8-2.11,4.14
			C18.12-29.51,19.54-30.04,20.65-31.02z"/>
		<path id="Trazado_7103" class="st11" d="M29.2-45.44l-0.26,1.06l0.8,0.13c0,0-0.74,5.66,4.47,5.18v4.41l4.92-0.42l-0.93-13.03
			l-7.47-5.57C30.74-53.68,26.47-49.79,29.2-45.44z"/>
		<path id="Trazado_7104" class="st7" d="M32.39-39.2c0.6,0.15,1.22,0.2,1.83,0.13v4.41l4.92-0.42l-0.48-6.76
			C35.79-39.64,33.2-39.1,32.39-39.2z"/>
		
			<linearGradient id="Trazado_7105_1_" gradientUnits="userSpaceOnUse" x1="-199.8578" y1="171.6341" x2="-199.8578" y2="172.2141" gradientTransform="matrix(16.3566 0 0 -26.9104 3305.2617 4604.3838)">
			<stop  offset="0" style="stop-color:#3C57AB"/>
			<stop  offset="1" style="stop-color:#6582DB"/>
		</linearGradient>
		<path id="Trazado_7105" class="st14" d="M44.45-25.42l-1.4-8.84c0,0-0.47-0.03-1.23-0.07c-0.69-0.04-1.23-0.61-1.24-1.31l0,0
			c0-0.51-0.41-0.92-0.92-0.92h-6.72c-0.51,0-0.92,0.41-0.92,0.92v0.31c0,0.58-0.38,1.1-0.94,1.26l-1.37,0.4
			c-0.03,1.43-0.29,2.84-0.77,4.18c-0.71,1.54-1.48,3.48,0,5.47s1.93,6.76,0.84,10.75s-0.13,3.6,3.35,3.6h8.82
			c2.06,0,2.83-0.77,2.38-4.05C43.91-17.61,43.95-21.54,44.45-25.42z"/>
		<path id="Trazado_7106" class="st4" d="M53.2,0.64H35.55c-0.52,0-0.94-0.42-0.94-0.94c0-0.06,0.01-0.13,0.02-0.19L37-12.22
			c0.09-0.44,0.48-0.76,0.92-0.76h17.66c0.52,0,0.94,0.42,0.94,0.94c0,0.06-0.01,0.13-0.02,0.19L54.13-0.12
			C54.04,0.32,53.65,0.64,53.2,0.64z"/>
		<path id="Trazado_7107" class="st11" d="M42.27-34.31c3.07-1.52,10.07,11.49,10.07,17.48c0,5.99-5.99,15.25-5.99,15.25
			c0.02,0.82-0.24,1.62-0.74,2.27c-0.81,0.96-3.36,1.35-3.65,0.63c-0.16-0.52-0.16-1.07,0-1.59c0,0-1.45,1.26-1.74,0.96
			S41-1.82,44.18-3.27l4.33-13.02c0,0-4.62-9.5-5.73-12.29C41.68-31.35,40.48-33.43,42.27-34.31z"/>
		<path id="Trazado_7108" class="st11" d="M18.84-37.3c0.93-1.57,2.54-0.96,3.35-0.64s1.29,2.45,0.96,2.96s-0.6,0-0.6,0
			s-0.13,2.51-2.26,2.51S17.81-35.56,18.84-37.3z"/>
		<path id="Trazado_7109" class="st10" d="M21.6-34.77l-2.06-0.26l0.18-6.75l2.06,0.26L21.6-34.77z"/>
		<g id="Grupo_13878" transform="translate(0 1.668)">
			<path id="Trazado_7110" class="st4" d="M3.4-51.61l-6.09-2.61l0.16-1.28l6.05,2.97L3.4-51.61z"/>
			<path id="Trazado_7111" class="st4" d="M2.96-48.2l-6.26-1.29l0.16-1.28l6.22,1.64L2.96-48.2z"/>
			<path id="Trazado_7112" class="st4" d="M2.53-44.78l-6.43,0.04l0.16-1.28l6.38,0.32L2.53-44.78z"/>
			<path id="Trazado_7113" class="st4" d="M2.1-41.36L-4.5-40l0.16-1.28l6.55-1L2.1-41.36z"/>
		</g>
		<path id="Trazado_7114" class="st15" d="M30.23-51.24c0,0,0.39,3.93,5.73,5.21l0.81,18.07c0.02,0.39,0.35,0.7,0.74,0.68
			c0.25-0.01,0.47-0.15,0.59-0.36c0.46-0.82,0.86-1.68,1.21-2.55c1.42-3.48,3.93-1.54,3.93-5.6s0.71-19.71-8.61-19.71
			c-9.35,0-9.67,9.48-5.42,10.06C29.16-47.42,29.51-49.39,30.23-51.24z"/>
		<path id="Trazado_7115" class="st10" d="M19.54-39.62l-13.91,2.9l1.93-15.21l12.74,6.28L19.54-39.62z"/>
		<path id="Rectángulo_1568" class="st10" d="M22.64-44.95l1.19,0.15c1.44,0.18,2.46,1.5,2.28,2.94l0,0
			c-0.18,1.44-1.5,2.46-2.94,2.28l-1.19-0.15l0,0L22.64-44.95L22.64-44.95z"/>
		
			<rect id="Rectángulo_1569" x="17.97" y="-43.69" transform="matrix(0.126 -0.992 0.992 0.126 60.6044 -16.1887)" class="st16" width="6.29" height="2.41"/>
		
			<ellipse id="Elipse_188" transform="matrix(0.126 -0.992 0.992 0.126 49.7415 -32.2001)" class="st16" cx="6.6" cy="-44.33" rx="7.67" ry="2.2"/>
	</g>
	<g id="Grupo_13882" transform="translate(861.181 190.168)">
		
			<linearGradient id="Trazado_7116_1_" gradientUnits="userSpaceOnUse" x1="-98.8806" y1="173.4985" x2="-98.8806" y2="173.8215" gradientTransform="matrix(25.738 0 0 -63.515 2565.0037 11031.5869)">
			<stop  offset="0" style="stop-color:#3C57AB"/>
			<stop  offset="1" style="stop-color:#6582DB"/>
		</linearGradient>
		<path id="Trazado_7116" class="st17" d="M20.92-13.64l9.99,25.33c1.95,4.95,2.47,10.35,1.5,15.58l-4.19,22.6h-7.18
			c0,0-0.23-23.53,2.8-30.78L9.04,0.42c0,0-4.54-6.95,0.42-14.06L20.92-13.64z"/>
		<path id="Trazado_7117" class="st4" d="M23.85-42.43l4.22,4.02L16.68-17.41C16.68-17.41,18.02-32.71,23.85-42.43z"/>
		<path id="Trazado_7118" class="st11" d="M46.32-24.77c0.63,0.5,0.96,1.29,0.86,2.09c-0.14,1.4-0.82,3.59-2.26,3.53
			S45.18-25.64,46.32-24.77z"/>
		<g id="Grupo_13881" transform="translate(44.359 11.621)">
			<path id="Trazado_7119" class="st5" d="M5.48-54.77c-4.17-0.94-8.31,1.67-9.25,5.84c-0.74,3.25,0.69,6.61,3.55,8.33
				c0.69,0.42,1.01,1.25,0.8,2.03l-2.7,10.22c-0.12,0.46,0.15,0.93,0.61,1.05l0,0c0.46,0.12,0.93-0.15,1.05-0.61c0,0,0,0,0,0
				l2.7-10.21c0.21-0.79,0.91-1.35,1.72-1.37c4.27-0.1,7.65-3.64,7.56-7.91C11.43-50.95,8.95-53.99,5.48-54.77L5.48-54.77z"/>
			<circle id="Elipse_189" class="st8" cx="3.78" cy="-47.22" r="5.94"/>
			<g id="Grupo_13880" transform="translate(2.523 2.522)">
				<path id="Trazado_7120" class="st4" d="M5.07-54.29l-8.36,8.36c0.71,0.84,1.63,1.47,2.67,1.81l7.51-7.51
					C6.54-52.66,5.91-53.59,5.07-54.29z"/>
				<path id="Trazado_7121" class="st4" d="M-3.82-46.66l8.16-8.16c-0.48-0.3-1.01-0.52-1.55-0.67c-0.02-0.01-0.04-0.01-0.06-0.01
					l-7.23,7.23C-4.35-47.7-4.12-47.16-3.82-46.66z"/>
			</g>
		</g>
		<path id="Trazado_7122" class="st11" d="M39-20.65l2.82-1.59c0,0,0.76-2.67,2.47-2.68c1.38-0.01,1.48,2.29,1.21,2.41
			c-0.55,0.26-1.05-1.17-1.05-1.17s-0.65,3.91-2.04,4.34L40.23-18L39-20.65z"/>
		
			<linearGradient id="Trazado_7123_1_" gradientUnits="userSpaceOnUse" x1="-96.7174" y1="168.5553" x2="-95.7174" y2="168.5553" gradientTransform="matrix(17.6838 0 0 -24.209 1733.7505 4058.5903)">
			<stop  offset="0" style="stop-color:#3C57AB"/>
			<stop  offset="1" style="stop-color:#6582DB"/>
		</linearGradient>
		<path id="Trazado_7123" class="st18" d="M33.04-33.79c1.38,1.29-3.52,16.82-3.52,16.82L40-22.06l1.09,3.99
			c0,0-9.33,7.21-14.1,8.11s-4.31-4.64-1.35-14.21C25.65-24.17,30.64-36.02,33.04-33.79z"/>
		<path id="Trazado_7124" class="st7" d="M32.61-28.27c0.61-2.75,0.92-5.05,0.42-5.51c-2.4-2.23-7.39,9.62-7.39,9.62
			c-0.51,1.66-0.94,3.19-1.29,4.59L32.61-28.27z"/>
		
			<linearGradient id="Trazado_7125_1_" gradientUnits="userSpaceOnUse" x1="-96.7824" y1="173.2639" x2="-96.7824" y2="173.5899" gradientTransform="matrix(18.9412 0 0 -64.851 1840.9425 11266.5674)">
			<stop  offset="0" style="stop-color:#3C57AB"/>
			<stop  offset="1" style="stop-color:#6582DB"/>
		</linearGradient>
		<path id="Trazado_7125" class="st19" d="M14.64-14.98l2.47,26.02c0.41,4.33-0.18,8.7-1.73,12.77L5.47,49.88h-7.18
			c0,0,2.58-26.17,8.96-32.43L2.77-0.91c0,0-4.54-6.95,0.42-14.06L14.64-14.98z"/>
		<path id="Trazado_7126" class="st11" d="M5.08,48.86l-1.4,4.88c0,0,8.64,2.9,8.83,4.01s-15.93,0-15.93,0
			c0.11-1.61,0.84-3.11,2.03-4.2l0.87-4.69H5.08z"/>
		<path id="Trazado_7127" class="st15" d="M12.52,57.75c-0.19-1.11-8.83-4.01-8.83-4.01l0.52-1.8c-0.95,0.07-1.77,0.7-2.08,1.61
			h-3.51c-1.19,1.08-1.92,2.59-2.03,4.2C-3.41,57.74,12.71,58.86,12.52,57.75z"/>
		<path id="Trazado_7128" class="st11" d="M27.45,48.86l-0.34,4.88c0,0,8.64,2.9,8.84,4.01s-15.93,0-15.93,0
			c0.11-1.61,0.84-3.11,2.03-4.2l-0.19-4.69H27.45z"/>
		<path id="Trazado_7129" class="st15" d="M35.95,57.75c-0.19-1.11-8.84-4.01-8.84-4.01l0.13-1.8c-0.9,0.01-1.64,0.71-1.69,1.61
			h-3.51c-1.19,1.08-1.92,2.59-2.03,4.2C20.02,57.74,36.14,58.86,35.95,57.75z"/>
		<path id="Trazado_7130" class="st11" d="M39.23-46.9l-2.09,3.9l-1.03-0.68c0,0-1.58,3.48-3.48,3.28s-2.12-0.74-2.12-0.74
			l-2.45,2.74c0,0-3.86-1.19-4.22-4.02l2.29-3.69l5.92-6.06L39.23-46.9z"/>
		<path id="Trazado_7131" class="st15" d="M34.9-49.19c0,0,3.16,2.63,5.17,3.95s4.74-0.58,4.74-3.82s-4.04-4.42-5.4-3.63
			c0,0-3.46-2.8-5.74-2.8c-1.06-0.14-2.03,0.59-2.17,1.65c-0.01,0.06-0.01,0.13-0.02,0.19c-1.25-0.7-2.81-0.45-3.77,0.61
			c-1.75,1.84-1.58,6.93-1.58,6.93l2.02,1.21l1.23-1.21c0,0-0.63-3.96,2.1-3.51c1.05,0.18,0.26,2.37,0.26,2.37
			C33.04-47.36,34.22-48.08,34.9-49.19z"/>
		
			<linearGradient id="Trazado_7132_1_" gradientUnits="userSpaceOnUse" x1="-97.0456" y1="170.4235" x2="-96.0456" y2="170.4235" gradientTransform="matrix(18.3929 0 0 -31.798 1799.5972 5396.623)">
			<stop  offset="0" style="stop-color:#3C57AB"/>
			<stop  offset="1" style="stop-color:#6582DB"/>
		</linearGradient>
		<path id="Trazado_7132" class="st20" d="M28.06-38.41L14.64-14.98l0.64,8.37h8.56l-3.09-8.69l12.28-18.49L28.06-38.41z"/>
		<path id="Trazado_7133" class="st8" d="M17.32-19.66l10.74-18.74l2.08,5.63l-7.19,4.97l1.4,3.63L17.32-19.66z"/>
		
			<linearGradient id="Trazado_7134_1_" gradientUnits="userSpaceOnUse" x1="-99.4973" y1="171.4846" x2="-98.4973" y2="171.4846" gradientTransform="matrix(26.262 0 0 -38.686 2610.5815 6608.1035)">
			<stop  offset="0" style="stop-color:#3C57AB"/>
			<stop  offset="1" style="stop-color:#6582DB"/>
		</linearGradient>
		<path id="Trazado_7134" class="st21" d="M23.85-42.43l-7.66,26.74l-4.38,9.08H-2.41l7.08-13.77l6.05-21.63l7.27-3.28L23.85-42.43z
			"/>
		<path id="Trazado_7135" class="st7" d="M7.18-29.35l9.37-11.38l-6.42,0.84L7.18-29.35z"/>
		<path id="Trazado_7136" class="st8" d="M23.85-42.43l-7.66,26.74l-1.09-13.37l3.48-0.34l-0.64-11.78L23.85-42.43z"/>
		<path id="Trazado_7137" class="st11" d="M4.02-21.26l0.8,2.27l3.11,1.55c0.54,0.27,0.96,0.74,1.16,1.31l0.85,2.43l-0.88,0.39
			C8.36-13,7.53-13.26,7.14-13.93l-0.3-0.5l-3.12-1.35c-0.66-0.29-1.12-0.91-1.18-1.63l-0.07-0.74l-1.02-2.07L4.02-21.26z"/>
		
			<linearGradient id="Trazado_7138_1_" gradientUnits="userSpaceOnUse" x1="-98.721" y1="169.3196" x2="-97.721" y2="169.3196" gradientTransform="matrix(23.1289 0 0 -26.8283 2278.8096 4510.5264)">
			<stop  offset="0" style="stop-color:#3C57AB"/>
			<stop  offset="1" style="stop-color:#6582DB"/>
		</linearGradient>
		<path id="Trazado_7138" class="st22" d="M17.99-45.29c-2.69-1.32-21.05,6.08-22.34,10.6s5.83,16.07,5.83,16.07l3.18-1.77
			l-3.15-11.4c0,0,8.45-4.66,11.97-6.62C17.05-40.39,19.96-44.33,17.99-45.29z"/>
		<path id="Trazado_7139" class="st7" d="M28.23,49.88l2.26-12.21L23.85,19.1c-3.03,7.25-2.8,30.78-2.8,30.78H28.23z"/>
	</g>
	<line id="Línea_257" class="st23" x1="844.95" y1="248.41" x2="1050.95" y2="248.41"/>
	<path id="Trazado_7140" class="st4" d="M920.6,142.89h-1.51c-0.26,0-0.47-0.21-0.47-0.46c0,0,0,0,0,0v-1.51h-0.72v1.51
		c0,0.26-0.21,0.46-0.47,0.46c0,0,0,0,0,0h-1.51v0.72h1.51c0.26,0,0.47,0.21,0.47,0.46c0,0,0,0,0,0v1.51h0.72v-1.51
		c0-0.26,0.21-0.47,0.46-0.47c0,0,0,0,0,0h1.51L920.6,142.89z"/>
	<path id="Trazado_7141" class="st4" d="M1019.1,135.25h-1.51c-0.26,0-0.47-0.21-0.47-0.47v-1.51h-0.72v1.51
		c0,0.26-0.21,0.47-0.46,0.47h-1.51v0.72h1.51c0.26,0,0.46,0.21,0.46,0.46v1.51h0.72v-1.51c0-0.26,0.21-0.46,0.46-0.46c0,0,0,0,0,0
		h1.51V135.25z"/>
	<path id="Trazado_7142" class="st4" d="M1040.03,220.91h-1.51c-0.26,0-0.46-0.21-0.46-0.46v-1.51h-0.72v1.51
		c0,0.26-0.21,0.46-0.46,0.46c0,0,0,0,0,0h-1.51v0.72h1.51c0.26,0,0.47,0.21,0.47,0.47v1.51h0.72v-1.51c0-0.26,0.21-0.47,0.46-0.47
		h1.51L1040.03,220.91z"/>
	<path id="Trazado_7143" class="st4" d="M932.92,94.37h-1.51c-0.26,0-0.47-0.21-0.47-0.46c0,0,0,0,0,0v-1.5h-0.72v1.5
		c0,0.26-0.21,0.46-0.47,0.46c0,0,0,0,0,0h-1.51v0.72h1.51c0.26,0,0.47,0.21,0.47,0.47l0,0v1.51h0.72v-1.51
		c0-0.26,0.21-0.47,0.47-0.47l0,0h1.51L932.92,94.37z"/>
	<g id="Grupo_13884" transform="translate(954.23 260.945)">
		<circle id="Elipse_190" class="st5" cx="10.28" cy="-40.72" r="8.59"/>
		<g id="Grupo_13883">
			<path id="Trazado_7144" class="st8" d="M10.27-47.56c-3.78,0-6.84,3.06-6.84,6.84s3.06,6.84,6.84,6.84
				c3.78,0,6.84-3.06,6.84-6.84c0,0,0,0,0,0C17.11-44.5,14.05-47.56,10.27-47.56z M10.27-37.63c-1.71,0-3.1-1.39-3.1-3.1
				s1.39-3.1,3.1-3.1c1.71,0,3.1,1.39,3.1,3.1c0,0,0,0,0,0C13.37-39.02,11.99-37.63,10.27-37.63z"/>
			<path id="Trazado_7145" class="st8" d="M24.73-37.68c0.42-2.01,0.42-4.09,0-6.1h-3.41c-0.25-0.91-0.61-1.79-1.08-2.61l2.41-2.41
				c-1.12-1.72-2.59-3.19-4.31-4.31l-2.41,2.41c-0.82-0.47-1.7-0.83-2.61-1.08v-3.41c-2.01-0.42-4.09-0.42-6.1,0v3.41
				c-0.91,0.25-1.79,0.61-2.61,1.08L2.21-53.1c-1.72,1.12-3.19,2.59-4.31,4.31l2.41,2.41c-0.47,0.82-0.83,1.7-1.08,2.61h-3.41
				c-0.42,2.01-0.42,4.09,0,6.1h3.41c0.25,0.91,0.61,1.79,1.08,2.61l-2.41,2.41c1.12,1.72,2.59,3.19,4.31,4.31l2.41-2.41
				c0.82,0.47,1.7,0.83,2.61,1.08v3.41c2.01,0.42,4.09,0.42,6.1,0v-3.41c0.91-0.25,1.79-0.61,2.61-1.08l2.41,2.41
				c1.72-1.12,3.19-2.59,4.31-4.31l-2.41-2.41c0.47-0.82,0.83-1.7,1.08-2.61H24.73z M10.27-33.01c-4.26,0-7.71-3.45-7.71-7.71
				c0-4.26,3.45-7.71,7.71-7.71c4.26,0,7.71,3.45,7.71,7.71c0,0,0,0,0,0C17.98-36.47,14.53-33.01,10.27-33.01L10.27-33.01z"/>
		</g>
	</g>
	<g id="Grupo_13886" transform="translate(939.024 280.128)">
		<path id="Trazado_7146" class="st5" d="M8.33-47.39c0,2.6-2.11,4.71-4.71,4.71s-4.71-2.11-4.71-4.71c0-2.6,2.11-4.71,4.71-4.71
			l0,0C6.22-52.1,8.33-49.99,8.33-47.39z"/>
		<g id="Grupo_13885">
			<path id="Trazado_7147" class="st8" d="M3.61-51.14c-2.07,0-3.75,1.68-3.75,3.75c0,2.07,1.68,3.75,3.75,3.75
				c2.07,0,3.75-1.68,3.75-3.75C7.36-49.45,5.68-51.13,3.61-51.14z M3.61-45.68c-0.94,0-1.7-0.76-1.7-1.7c0-0.94,0.76-1.7,1.7-1.7
				c0.94,0,1.7,0.76,1.7,1.7C5.31-46.45,4.55-45.69,3.61-45.68L3.61-45.68z"/>
			<path id="Trazado_7148" class="st8" d="M11.56-45.71c0.23-1.1,0.23-2.24,0-3.35H9.68c-0.14-0.5-0.34-0.98-0.59-1.43l1.32-1.32
				c-0.62-0.94-1.42-1.75-2.37-2.37l-1.32,1.32c-0.45-0.26-0.93-0.46-1.43-0.59v-1.87c-1.1-0.23-2.24-0.23-3.35,0v1.87
				c-0.5,0.14-0.98,0.34-1.43,0.59l-1.32-1.32c-0.94,0.62-1.75,1.42-2.37,2.37l1.32,1.32c-0.26,0.45-0.46,0.93-0.59,1.43h-1.87
				c-0.23,1.1-0.23,2.24,0,3.35h1.87c0.14,0.5,0.34,0.98,0.59,1.43l-1.32,1.32c0.62,0.94,1.42,1.75,2.37,2.37l1.32-1.32
				c0.45,0.26,0.93,0.46,1.43,0.59v1.87c1.1,0.23,2.24,0.23,3.35,0v-1.88c0.5-0.14,0.98-0.34,1.43-0.59l1.32,1.32
				c0.94-0.62,1.75-1.42,2.37-2.37l-1.32-1.32c0.26-0.45,0.46-0.93,0.59-1.43L11.56-45.71z M3.62-43.15c-2.34,0-4.23-1.9-4.23-4.24
				c0-2.34,1.9-4.23,4.24-4.23c2.34,0,4.23,1.9,4.23,4.24C7.85-45.05,5.95-43.15,3.62-43.15L3.62-43.15z"/>
		</g>
	</g>
</g>
</svg>
