<?xml version="1.0" encoding="utf-8"?>
<!-- Generator: Adobe Illustrator 23.0.3, SVG Export Plug-In . SVG Version: 6.00 Build 0)  -->
<svg version="1.1" id="Capa_1" xmlns="http://www.w3.org/2000/svg" xmlns:xlink="http://www.w3.org/1999/xlink" x="0px" y="0px"
	 viewBox="0 0 306 187" style="enable-background:new 0 0 306 187;" xml:space="preserve">
<style type="text/css">
	.st0{fill:#E5E9FF;}
	.st1{fill:#F5C5B3;}
	.st2{fill:#42B2FC;}
	.st3{fill:#FEC4AD;}
	.st4{fill:#E8D4E5;}
	.st5{fill:#7B2B1A;}
	.st6{fill:#133A50;}
	.st7{fill:#FFFFFF;}
	.st8{fill:none;stroke:#FFFFFF;stroke-width:2;stroke-miterlimit:10;}
	.st9{fill:#4FAE86;}
	.st10{fill:#319188;}
	.st11{fill:none;stroke:#194459;stroke-miterlimit:10;}
	.st12{fill:none;stroke:#FFFFFF;stroke-miterlimit:10;}
	.st13{fill:#21295B;}
	.st14{fill:#FF3A46;}
	.st15{fill:#CFCFCF;}
	.st16{fill:#B3B3B3;}
	.st17{fill:#D6313B;}
	.st18{clip-path:url(#SVGID_2_);}
	.st19{fill:#FFD71D;}
	.st20{opacity:0.7;fill:url(#Trazado_10092_1_);enable-background:new    ;}
	.st21{fill:url(#Trazado_10093_1_);}
	.st22{opacity:0.7;fill:#FFDD00;enable-background:new    ;}
	.st23{fill:url(#Trazado_10108_1_);}
	.st24{fill:url(#Trazado_10109_1_);}
	.st25{fill:#471A16;}
	.st26{enable-background:new    ;}
	.st27{fill:#2D2D2D;}
	.st28{clip-path:url(#SVGID_4_);}
	.st29{fill:#F7A096;}
	.st30{fill:#FB7061;}
	.st31{fill:#D9473B;}
	.st32{fill:url(#Trazado_10151_1_);}
	.st33{fill:url(#Trazado_10152_1_);}
	.st34{fill:url(#Trazado_10153_1_);}
	.st35{fill:url(#Trazado_10154_1_);}
	.st36{fill:url(#Trazado_10155_1_);}
	.st37{fill:url(#Trazado_10156_1_);}
	.st38{fill:url(#Trazado_10157_1_);}
	.st39{fill:url(#Trazado_10158_1_);}
	.st40{fill:#104C75;}
	.st41{fill:#1F5A8A;}
	.st42{fill:url(#Trazado_10161_1_);}
	.st43{fill:url(#Trazado_10162_1_);}
	.st44{fill:url(#Trazado_10164_1_);}
	.st45{fill:url(#Elipse_321_1_);}
	.st46{fill:url(#Trazado_10167_1_);}
	.st47{fill:url(#Elipse_323_1_);}
	.st48{fill:url(#Trazado_10168_1_);}
	.st49{fill:#D7D8F4;}
	.st50{fill:#F6F6F8;}
	.st51{opacity:0.67;fill:url(#Trazado_10188_1_);enable-background:new    ;}
</style>
<g>
	<g id="Grupo_10476" transform="translate(193.648 126.472)">
		<path id="Trazado_5960" class="st0" d="M15.17-63.42h44.07c-3.13-0.02-6.14,1.23-8.35,3.45c-2.21,2.08-3.47,4.99-3.47,8.02
			c0,6.36,5.15,11.51,11.51,11.52c0.1,0,0.2,0,0.3,0H15.17c6.17,0.34,11.44-4.38,11.79-10.54c0.01-0.25,0.02-0.5,0.02-0.75
			C27-58.16,21.8-63.4,15.36-63.42C15.3-63.42,15.23-63.42,15.17-63.42z"/>
	</g>
	<g>
		<g id="Grupo_10478" transform="translate(34.214 171.577)">
			<path id="Trazado_5962" class="st0" d="M45.66-70.19h44.52c3.63,0,6.57,2.94,6.57,6.57c0,0,0,0,0,0l0,0
				c0,3.63-2.94,6.57-6.57,6.57H45.66c-3.63,0-6.57-2.94-6.57-6.57l0,0C39.09-67.25,42.03-70.19,45.66-70.19
				C45.66-70.19,45.66-70.19,45.66-70.19z"/>
		</g>
		<g id="Grupo_10479" transform="translate(47.639 201.946)">
			<path id="Trazado_5963" class="st0" d="M41.33-74.74h52.17c2.35,0,4.26,1.91,4.26,4.26c0,0,0,0,0,0l0,0
				c0,2.35-1.91,4.26-4.26,4.26c0,0,0,0,0,0H41.33c-2.35,0-4.26-1.91-4.26-4.26c0,0,0,0,0,0l0,0
				C37.07-72.84,38.98-74.74,41.33-74.74C41.33-74.74,41.33-74.74,41.33-74.74z"/>
		</g>
		<g id="Grupo_10481" transform="translate(164.117 182.323)">
			<path id="Trazado_5964" class="st0" d="M26.59-71.81h38.77c3.86,0,6.99,3.13,6.99,6.99c0,0,0,0,0,0l0,0
				c0,3.86-3.13,6.99-6.99,6.99H26.59c-3.86,0-6.99-3.13-6.99-6.99l0,0C19.6-68.68,22.73-71.81,26.59-71.81
				C26.59-71.81,26.59-71.81,26.59-71.81z"/>
		</g>
		<g id="Grupo_10482" transform="translate(60.037 186.811)">
			<path id="Trazado_5965" class="st0" d="M35.21-72.48h24.53c-1.75,0.02-3.43,0.73-4.65,1.99c-1.23,1.16-1.93,2.77-1.93,4.47
				c0,3.54,2.88,6.41,6.42,6.41c0.05,0,0.11,0,0.16,0H35.21c1.71,0.09,3.39-0.52,4.65-1.68c2.56-2.55,2.57-6.69,0.02-9.26
				C38.65-71.79,36.97-72.48,35.21-72.48z"/>
		</g>
		<g id="Grupo_10484" transform="translate(137.691 153.446)">
			<path id="Trazado_5967" class="st0" d="M31.22-67.47h93.71c4.22,0,7.65,3.43,7.65,7.65l0,0c0,4.22-3.43,7.65-7.65,7.65H31.22
				c-4.22,0-7.65-3.43-7.65-7.65l0,0l0,0C23.57-64.05,27-67.47,31.22-67.47z"/>
		</g>
		<g id="Grupo_10486" transform="translate(0 129.384)">
			<path id="Trazado_5969" class="st0" d="M169.43-27.63H62.33c-10,0-18.11-8.11-18.11-18.11l0,0c0-10,8.11-18.11,18.11-18.11h107.1
				c10,0,18.11,8.11,18.11,18.11l0,0C187.55-35.74,179.44-27.63,169.43-27.63z"/>
		</g>
	</g>
	<g>
		<path class="st0" d="M0,0.12l0,58.81C34.73,28.47,73.28,31.2,73.28,31.2c30.96,0,67.16,14.6,91.78,30.18
			c24.63,15.58,56.62,30.32,90.09,30.32c33.46,0,50.85-9.1,50.85-9.1V0.12H0z"/>
	</g>
	<g>
		<path class="st0" d="M88.41,0.12C77.4,14.49,70.86,32.45,70.86,51.93c0,47.22,38.42,85.5,85.8,85.5s85.8-38.28,85.8-85.5
			c0-19.48-6.54-37.44-17.55-51.82H88.41z"/>
	</g>
</g>
<g class="st26">
	<path class="st27" d="M122.25,90.57h-10.43v13.44H92.46V90.57H55.34V77.63l31.5-43.84h20.56L78.81,74.82h14.24V62.89h18.76v11.94
		h10.43V90.57z"/>
	<path class="st27" d="M141.21,101.11c-4.68-2.87-8.34-7.07-10.98-12.59c-2.64-5.52-3.96-12.05-3.96-19.61
		c0-7.56,1.32-14.09,3.96-19.61c2.64-5.52,6.3-9.71,10.98-12.59c4.68-2.87,10.03-4.31,16.05-4.31c5.95,0,11.27,1.44,15.95,4.31
		c4.68,2.88,8.34,7.07,10.98,12.59c2.64,5.52,3.96,12.06,3.96,19.61c0,7.56-1.32,14.09-3.96,19.61c-2.64,5.52-6.3,9.71-10.98,12.59
		c-4.68,2.88-10,4.31-15.95,4.31C151.24,105.42,145.89,103.98,141.21,101.11z M165.23,84.3c1.97-3.24,2.96-8.38,2.96-15.4
		c0-7.02-0.99-12.15-2.96-15.4c-1.97-3.24-4.63-4.87-7.97-4.87c-3.41,0-6.1,1.62-8.08,4.87c-1.97,3.24-2.96,8.38-2.96,15.4
		c0,7.02,0.99,12.15,2.96,15.4c1.97,3.24,4.66,4.86,8.08,4.86C160.6,89.17,163.26,87.55,165.23,84.3z"/>
	<path class="st27" d="M261.18,90.57h-10.43v13.44h-19.36V90.57h-37.11V77.63l31.5-43.84h20.56l-28.59,41.03h14.24V62.89h18.76
		v11.94h10.43V90.57z"/>
</g>
<g id="Grupo_15634" transform="translate(0 -49.201)">
	<g id="Grupo_15633">
		<g>
			<defs>
				<path id="SVGID_3_" d="M277,83.4v109.13c-71.93,54.98-171.66,55.36-244,0.92V83.4H277z"/>
			</defs>
			<clipPath id="SVGID_2_">
				<use xlink:href="#SVGID_3_"  style="overflow:visible;"/>
			</clipPath>
			<g id="Grupo_15632" class="st18">
				<g id="Grupo_15622">
					<path id="Trazado_10126" class="st29" d="M188.32,170.1c-0.67-1.85-1.54-3.76-1.19-5.69s2.68-3.59,4.29-2.48
						c1,0.69,1.27,2.08,2.19,2.88c1.42,1.23,3.84,0.38,4.74-1.26s0.66-3.68,0.07-5.46c-0.59-1.78-1.5-3.46-1.88-5.29
						c-0.37-1.84-0.09-3.98,1.34-5.19c1.43-1.21,4.13-0.78,4.6,1.04c0.19,0.72,0.03,1.55,0.45,2.16c0.68,1,2.38,0.56,3.02-0.47
						c0.64-1.03,0.57-2.32,0.62-3.53c0.29-5.59,3.41-10.65,8.29-13.41c1.48-0.82,3.33-1.39,4.84-0.61c2.19,1.14,2.23,4.27,1.55,6.64
						c-0.99,3.49-2.82,6.68-5.33,9.31c-1.13,1.04-2.17,2.17-3.12,3.38c-0.95,1.23-1.31,2.82-0.97,4.34c0.43,1.47,2.09,2.61,3.53,2.1
						c1.59-0.56,2.43-2.76,4.11-2.74c1.79,0.03,2.37,2.54,1.78,4.22c-0.97,2.64-3.29,4.54-6.07,4.97c-1.36,0.19-2.78,0.01-4.07,0.48
						c-1.29,0.46-2.38,1.96-1.74,3.17s2.32,1.19,3.59,1.67c2.65,1.02,3.33,5.16,1.13,6.96c-2.8,2.3-7.25,0.14-10.54,1.67
						c-2.16,1.01-3.33,3.4-3.86,5.73c-0.53,2.33-0.6,4.76-1.38,7.02c-0.79,2.25-2.58,4.4-4.95,4.63c-5.71,0.54-4.63-6.05-3.96-9.55
						C190.57,181.22,190.2,175.46,188.32,170.1z"/>
					<path id="Trazado_10127" class="st30" d="M206.39,198.69c8.21-7.87,18.36-14.05,29.56-16.05c3.06-0.55,6.76-0.54,8.62,1.95
						c1.48,1.97,1.14,4.86-0.15,6.96c-1.29,2.1-3.34,3.59-5.34,5.03l-12.92,9.28l-18.6,13.37c-5.61,4.04-11.77,10.18-18.15,12.84
						c-3.86,1.61-9-0.69-7.09-5.2c1.58-3.75,6.3-6.62,8.85-9.72C196.28,210.93,200.53,204.3,206.39,198.69z"/>
					<path id="Trazado_10128" class="st30" d="M112.12,173.98c-6.42-14.74-11.75-30.82-9.05-46.67c0.56-3.29,1.5-6.6,3.46-9.31
						s5.09-4.72,8.43-4.66c3.42,0.07,6.51,2.28,8.47,5.08c1.96,2.8,2.97,6.14,3.87,9.44c5.14,18.24,7.88,37.08,8.16,56.03
						c0.09,9.49-0.33,19.21-1.96,28.58c-1.73,9.9-7.53-5.05-8.57-8.14C121.45,193.9,116.5,184.05,112.12,173.98z"/>
					<path id="Trazado_10129" class="st30" d="M121.55,184.97c-5.82-9.77-13.95-18.44-24.2-23.35c-2.8-1.34-6.37-2.32-8.83-0.42
						c-1.95,1.51-2.39,4.38-1.71,6.75c0.68,2.37,2.26,4.36,3.81,6.28l9.97,12.4l14.35,17.85c4.33,5.39,8.63,12.95,14.07,17.22
						c3.29,2.58,8.86,1.74,8.23-3.12c-0.53-4.04-4.3-8.06-5.93-11.73C128.03,199.47,125.71,191.95,121.55,184.97z"/>
					<path id="Trazado_10130" class="st30" d="M154.95,194.53c0.8-11.35,4.17-22.74,11.13-31.74c1.9-2.46,4.65-4.94,7.7-4.35
						c2.42,0.47,4.1,2.84,4.56,5.26c0.46,2.42-0.06,4.91-0.58,7.32c-1.11,5.18-2.22,10.37-3.34,15.55c-1.6,7.46-3.2,14.93-4.8,22.39
						c-1.45,6.76-1.89,15.45-4.83,21.7c-1.78,3.79-7.13,5.54-8.75,0.91c-1.34-3.84,0.22-9.13,0.03-13.14
						C155.68,210.4,154.38,202.63,154.95,194.53z"/>
					<path id="Trazado_10131" class="st30" d="M178.09,194.42c4.42-10.48,11.29-20.17,20.78-26.45c2.59-1.72,5.99-3.17,8.69-1.63
						c2.14,1.23,2.97,4.01,2.62,6.45c-0.35,2.44-1.64,4.63-2.91,6.74c-2.73,4.55-5.45,9.09-8.18,13.64
						c-3.93,6.55-7.85,13.09-11.78,19.64c-3.56,5.93-6.77,14.01-11.58,18.98c-2.91,3.01-8.54,2.94-8.58-1.97
						c-0.03-4.07,3.16-8.57,4.27-12.43C173.65,209.67,174.93,201.91,178.09,194.42z"/>
					<path id="Trazado_10132" class="st31" d="M112.24,198.58c-8.33-2.44-16.36-5.8-23.94-10.04c-0.65-0.3-1.22-0.75-1.66-1.31
						c-0.44-0.59-0.42-1.4,0.05-1.97c0.36-0.35,0.91-0.45,1.27-0.8c0.49-0.58,0.5-1.43,0.03-2.03c-0.47-0.57-1.07-1.02-1.75-1.3
						c-4.63-2.34-9.98-4.49-12.13-9.2c-0.55-1.2-0.85-2.51-1.44-3.7c-2.16-4.35-12.48-7.84-8.99-11.21
						c2.96-2.86,7.65,3.19,10.64,6.03c1.93,1.83,3.94,4.13,6.59,4.06c1.07-0.03,2.13-0.47,3.19-0.34c1.91,0.23,3.1,2.13,3.91,3.88
						c0.81,1.74,1.69,3.71,3.48,4.4c1.28,0.49,2.72,0.18,4.08,0.34c3.19,0.36,5.49,3.12,7.45,5.66l9.84,12.82
						c1.61,2.1,3.32,4.73,2.4,7.21l-6.75-4.29"/>
					<g id="Grupo_15614">
						<path id="Trazado_10133" class="st30" d="M218.41,190.62c10.12-12.49,19.55-26.57,21.18-42.56c0.34-3.32,0.32-6.76-0.85-9.89
							c-1.17-3.13-3.65-5.91-6.88-6.74c-3.31-0.85-6.88,0.46-9.52,2.64c-2.63,2.18-4.5,5.13-6.25,8.06
							c-9.82,16.21-17.49,33.63-22.82,51.82c-2.62,9.12-4.81,18.6-5.74,28.06c-0.98,10.01,8.6-2.86,10.43-5.56
							C204.11,207.32,211.5,199.14,218.41,190.62z"/>
						<path id="Trazado_10134" class="st29" d="M232.62,155.12l-0.01-0.07c-0.03-0.1-0.12-0.17-0.22-0.17
							c-0.14,0-0.27,0.05-0.37,0.15c-0.45,0.35-0.7,1.2-1.12,1.65c-1.12,1.14-2.35,2.17-3.67,3.09c-1.13,0.88-2.34,1.66-3.61,2.33
							c-0.71,0.37-1.46,0.64-2.24,0.81c-0.54,0.07-1.09,0.1-1.63,0.11c2.05-4.12,3.87-8.35,5.47-12.66
							c1.85-4.96,3.38-10.06,6.35-14.5c0.12-0.18-0.16-0.34-0.29-0.17c-2.66,3.64-4.18,7.91-5.72,12.1
							c-0.42,1.13-0.84,2.27-1.28,3.39c-1.1-1.13-1.45-3.07-1.71-4.59c-0.26-1.56-0.32-3.14-0.2-4.72c0.12,0.01,0.24-0.08,0.25-0.2
							c0.01-0.07-0.02-0.13-0.06-0.18l-0.24-0.29c-0.17-0.2-0.44-0.02-0.47,0.19c-0.21,1.93-0.11,3.88,0.29,5.77
							c0.27,1.29,0.56,3.43,1.75,4.22c0.07,0.04,0.15,0.04,0.22,0l0.14-0.08c-1.22,3.13-2.51,6.24-3.96,9.28
							c-2.11,4.45-4.56,8.73-7.32,12.81c-0.29-0.88-0.78-1.7-1.1-2.58c-0.32-0.87-0.58-1.76-0.79-2.66
							c-0.23-1.02-0.38-2.06-0.45-3.1c-0.02-0.32-0.1-3.38,0.31-3.24c0.15,0.05,0.26-0.13,0.19-0.25l-0.11-0.19
							c-0.06-0.1-0.18-0.15-0.29-0.12c-0.76,0.17-0.65,1.02-0.67,1.66c-0.05,1.23,0.02,2.47,0.2,3.69c0.32,2.28,0.97,5.27,2.49,7.09
							c-2.36,3.45-4.97,6.73-7.79,9.81c-3.51,3.82-7.54,7.43-10.41,11.77c-0.09,0.14,0.12,0.3,0.23,0.18
							c3.29-3.45,6.44-7.05,9.69-10.54c1.5-1.61,2.95-3.25,4.35-4.93c-0.04,0.1,0.01,0.21,0.11,0.25c0.01,0,0.03,0.01,0.04,0.01
							c2.53,0.44,5.11,0.36,7.61-0.23c0.12-0.04,0.19-0.17,0.15-0.29c-0.03-0.09-0.11-0.16-0.21-0.16c-1.24-0.01-2.49,0.2-3.74,0.23
							c-1.25,0.04-2.5-0.06-3.75,0c-0.02,0-0.05,0.01-0.07,0.02c1.45-1.75,2.83-3.56,4.12-5.43c2.39-3.49,4.54-7.13,6.44-10.91
							c0.92,0.37,2.12,0.06,3.01-0.23c1.41-0.52,2.73-1.25,3.94-2.15c1.24-0.86,2.44-1.78,3.58-2.76c0.56-0.45,1.07-0.96,1.54-1.5
							c0.32-0.44,0.59-0.91,0.81-1.41c0.04,0,0.08-0.02,0.11-0.05l0.07-0.05C232.62,155.27,232.64,155.19,232.62,155.12z"/>
					</g>
					<g id="Grupo_15615">
						<path id="Trazado_10135" class="st31" d="M189.98,234.47c8.64-0.88,17.15-2.72,25.37-5.5c0.69-0.18,1.34-0.52,1.87-0.99
							c0.54-0.5,0.67-1.3,0.32-1.95c-0.29-0.41-0.81-0.61-1.11-1.02c-0.37-0.66-0.23-1.5,0.34-2c0.57-0.48,1.24-0.8,1.97-0.96
							c4.98-1.45,10.63-2.59,13.61-6.83c0.76-1.08,1.3-2.32,2.09-3.38c2.91-3.88,13.7-5.43,10.88-9.38
							c-2.39-3.35-8.11,1.74-11.56,3.99c-2.23,1.45-4.63,3.35-7.22,2.79c-1.05-0.23-2-0.85-3.08-0.91c-1.92-0.12-3.44,1.53-4.55,3.1
							c-1.11,1.57-2.34,3.34-4.23,3.69c-1.35,0.25-2.71-0.32-4.08-0.41c-3.2-0.22-5.96,2.06-8.35,4.21l-12.01,10.81
							c-1.97,1.77-4.13,4.04-3.67,6.65l7.42-2.99"/>
						<path id="Trazado_10136" class="st29" d="M243.01,203.23c-6.97,2.26-12.77,6.81-18.71,10.94c-3.03,2.19-6.24,4.13-9.58,5.81
							c-3.44,1.65-7.05,2.93-10.57,4.38c0.71-0.85,1.17-2.08,1.83-2.96c0.46-0.62,0.95-1.21,1.48-1.76
							c0.47-0.49,1.38-1.64,2.08-1.71c0.09,0,0.16-0.08,0.16-0.17c0-0.05-0.03-0.1-0.08-0.13l-0.2-0.14c-0.08-0.05-0.17-0.05-0.25,0
							c-1.31,0.72-2.44,2.15-3.34,3.32c-0.76,0.99-1.97,2.41-2.1,3.72c-3.63,1.51-7.31,3.19-10.29,5.79
							c-0.18,0.16,0.06,0.47,0.26,0.33c3.07-2.15,6.37-3.96,9.83-5.39c0.8-0.34,1.61-0.66,2.42-0.98c2.16,0.9,4.91,2.35,7.22,1.21
							c0.14-0.07,0.03-0.25-0.1-0.23c-1.32,0.19-2.67,0.08-3.95-0.31c-0.92-0.28-1.8-0.62-2.74-0.84c2.41-0.95,4.82-1.87,7.18-2.93
							c6.71-3,12.37-7.62,18.42-11.71c3.45-2.43,7.19-4.41,11.14-5.9C243.33,203.51,243.24,203.16,243.01,203.23z"/>
					</g>
					<g id="Grupo_15616">
						<path id="Trazado_10137" class="st31" d="M126.4,172.44c-1.55-2.07-3.56-3.75-5.87-4.91c-2.35-1.06-5.2-1.24-7.45,0.02
							c-3.79,2.12-4.56,7.31-3.78,11.58c2.5,13.63,14.52,23.06,17.33,36.68c0.69,3.38,0.48,6.87,4.62,7.23
							c2.6,0.23,4.44-1.22,5.35-3.48c2.08-5.15-0.54-15.12-0.94-20.54C134.98,189.58,132.46,179.93,126.4,172.44z"/>
						<path id="Trazado_10138" class="st29" d="M129.43,204.68c-1.12-3.8-2.41-7.55-3.81-11.26c-0.21-0.56-0.43-1.12-0.65-1.68
							c1.74-1.57,2.82-4.57,2.82-6.81c0-0.22-0.35-0.28-0.39-0.05c-0.17,1.27-0.49,2.51-0.95,3.7c-0.47,0.96-1.02,1.88-1.64,2.74
							c-1.13-2.89-2.3-5.75-3.51-8.6c-0.17-0.39-0.34-0.78-0.5-1.17c0.04-0.01,0.07-0.03,0.1-0.05c2.29-1.79,2.63-6.12,2.52-8.76
							c-0.01-0.17-0.15-0.3-0.33-0.3c-0.16,0.01-0.29,0.14-0.3,0.3c-0.33,2.76-0.18,6.03-2.27,8.19c-0.53-1.22-1.06-2.44-1.59-3.66
							c-0.76-1.73-1.43-3.64-2.64-5.12c-0.11-0.14-0.29,0.04-0.23,0.18c0.46,0.98,0.9,1.97,1.35,2.96c-0.25-0.15-0.57-0.2-0.85-0.33
							c-0.59-0.27-1.13-0.63-1.61-1.07c-0.41-0.38-0.68-0.99-1.1-1.31c-0.16-0.17-0.42-0.19-0.61-0.05c-0.1,0.06-0.15,0.18-0.12,0.3
							c0.05,0.17,0.09,0.22,0.26,0.27c0.08,0.02,0.16-0.03,0.19-0.11c0.01-0.02,0.01-0.05,0-0.08c0.41,0.89,1.1,1.62,1.97,2.08
							c0.5,0.31,1.46,0.93,2.07,0.69c2.72,6.03,5.25,12.15,7.58,18.35c1.34,3.57,2.58,7.17,3.65,10.83
							c1.11,3.8,1.77,7.72,2.91,11.49c0.04,0.13,0.25,0.11,0.24-0.03C131.75,212.4,130.53,208.42,129.43,204.68z"/>
					</g>
					<path id="Trazado_10139" class="st29" d="M120.43,163.18c-2.13-1.15-4.08-2.59-5.79-4.3c-1.54-1.59-2.91-3.38-4.31-5.06
						c-0.14-0.17-0.39,0.08-0.25,0.25c0.64,0.77,1.2,1.75,1.85,2.55c0.81,1.02,1.68,1.99,2.61,2.91c1.63,1.59,3.59,3.2,5.82,3.84
						c0.06,0.01,0.12-0.03,0.13-0.09C120.48,163.25,120.46,163.2,120.43,163.18z"/>
					<g id="Grupo_15618">
						<path id="Trazado_10140" class="st31" d="M178.79,214.28c7.52-12.44,13.63-25.69,18.19-39.49c0.46-1.11,0.65-2.31,0.56-3.5
							c-0.18-1.18-1.1-2.34-2.29-2.38c-0.84-0.03-1.64,0.48-2.48,0.46c-1.23-0.04-2.17-1.24-2.34-2.47
							c-0.07-1.24,0.17-2.47,0.7-3.59c3.07-8.12,7.24-16.83,4.56-25.09c-0.68-2.11-1.8-4.07-2.41-6.2
							c-2.25-7.81,6.53-23.8-1.6-24.02c-6.89-0.18-5.83,12.6-6.3,19.48c-0.3,4.44-0.18,9.56-3.54,12.48
							c-1.36,1.18-3.15,1.83-4.32,3.19c-2.09,2.45-1.42,6.15-0.44,9.22c0.97,3.07,2.12,6.49,0.68,9.37
							c-1.03,2.06-3.15,3.3-4.66,5.04c-3.52,4.06-3.25,10.06-2.78,15.42l2.36,26.96c0.39,4.42,1.25,9.59,5.2,11.62
							c1.16-4.31,2.31-8.62,3.47-12.93"/>
						<g id="Grupo_15617">
							<path id="Trazado_10141" class="st29" d="M191.02,179.35c-1.12,2.86-3.52,4.88-5.76,6.87c-2.04,1.88-4.29,3.5-6.72,4.85
								c0.18-1.66,0.4-3.32,0.66-4.98c1.02-6.23,2.51-12.38,4.46-18.39c1.75-5.8,2.76-11.8,3-17.85c0.05-0.94,0.1-1.89,0.14-2.83
								c0.06,0,0.12-0.02,0.18-0.06c1.33-1.05,2.49-2.29,3.46-3.68c0.81-1.16,1.97-2.75,2.05-4.21c0-0.11-0.09-0.19-0.2-0.19
								c-0.05,0-0.09,0.02-0.13,0.05c-0.9,1.11-1.34,2.65-2.16,3.85c-0.91,1.29-1.97,2.48-3.16,3.52
								c0.21-5.06,0.31-10.12,0.75-15.17c0.27-3.48,0.78-6.94,1.51-10.36c0.71-3.2,2.12-6.39,2.04-9.71c0-0.11-0.17-0.14-0.19-0.03
								c-0.49,3.04-1.55,5.92-2.27,8.9c-0.68,2.86-1.18,5.76-1.5,8.68c-0.72,6.2-0.78,12.45-1.06,18.68
								c-0.28,6.32-0.78,12.56-2.61,18.64c-1.8,6-3.59,11.92-4.64,18.11c-0.42,2.45-0.76,4.9-1.02,7.37
								c-0.04,0.02-0.09,0.05-0.14,0.07c-0.09,0.06-0.12,0.19-0.05,0.28c0.03,0.05,0.08,0.08,0.14,0.09
								c-0.09,0.84-0.17,1.68-0.24,2.52c-0.4,3.61-0.51,7.25-0.33,10.88c0,0.12,0.1,0.22,0.22,0.22c0.12,0,0.22-0.1,0.22-0.22
								c0.24-3.15,0.22-6.31,0.45-9.46c0.1-1.4,0.23-2.8,0.38-4.2c2.76-1.14,5.1-3.19,7.3-5.15c2.27-2.03,4.6-4.07,5.74-6.97
								C191.66,179.17,191.14,179.03,191.02,179.35z"/>
							<path id="Trazado_10142" class="st29" d="M185.37,154.6c-3.17-1.99-4.56-5.29-5.94-8.61c-0.12-0.3-0.61-0.18-0.49,0.14
								c1.27,3.32,2.91,7.09,6.22,8.84c0.11,0.05,0.23,0,0.28-0.11C185.48,154.76,185.45,154.66,185.37,154.6z"/>
							<path id="Trazado_10143" class="st29" d="M179.12,181.65c-1.39-1.47-2.39-3.26-2.9-5.22c-0.48-1.77-0.56-3.59-0.88-5.39
								c-0.05-0.26-0.47-0.2-0.46,0.06c0.14,3.85,1.1,8.08,3.98,10.81c0.07,0.07,0.19,0.07,0.26,0S179.19,181.72,179.12,181.65z"/>
						</g>
					</g>
					<path id="Trazado_10144" class="st29" d="M221.21,211.51c-0.92,1.5-1.24,3.28-0.9,5.01c0.03,0.14,0.28,0.12,0.26-0.04
						c-0.23-1.66,0.09-3.35,0.92-4.81c0.04-0.08,0.01-0.18-0.07-0.22C221.35,211.42,221.26,211.44,221.21,211.51z"/>
					<g id="Grupo_15619">
						<path id="Trazado_10145" class="st29" d="M119.57,187.47c-0.51-2.76-3.83-5.14-6.15-3.55c-1.43,0.98-1.82,2.98-3.14,4.11
							c-2.03,1.76-5.49,0.55-6.79-1.8c-1.3-2.35-0.94-5.27-0.09-7.82c0.85-2.55,2.15-4.95,2.69-7.58c0.54-2.63,0.13-5.69-1.92-7.42
							c-2.05-1.73-5.91-1.11-6.58,1.49c-0.27,1.03-0.04,2.21-0.64,3.09c-0.97,1.43-3.41,0.8-4.32-0.67s-0.81-3.32-0.88-5.05
							c-0.41-8-4.88-15.24-11.86-19.2c-2.12-1.17-4.77-1.99-6.92-0.88c-3.13,1.63-3.19,6.1-2.22,9.5c1.42,4.99,4.04,9.57,7.63,13.32
							c1.52,1.58,3.21,3.03,4.46,4.83c1.25,1.81,2.02,4.11,1.39,6.21c-0.62,2.11-2.99,3.74-5.06,3c-2.27-0.8-3.47-3.96-5.89-3.92
							c-2.56,0.04-3.39,3.63-2.54,6.05c1.38,3.78,4.71,6.5,8.69,7.11c1.94,0.27,3.97,0.02,5.81,0.69s3.4,2.8,2.49,4.54
							c-0.91,1.74-3.32,1.7-5.14,2.4c-3.8,1.45-4.76,7.39-1.61,9.96c4.01,3.29,10.38,0.2,15.08,2.39c3.1,1.44,4.77,4.87,5.53,8.2
							c0.76,3.33,0.85,6.82,1.98,10.04s3.68,6.3,7.08,6.62c8.17,0.77,6.63-8.66,5.67-13.67c-1.54-8.01-1.27-16.13,1.54-23.85
							C118.84,192.98,120.08,190.24,119.57,187.47z"/>
						<path id="Trazado_10146" class="st30" d="M105.91,208.56c0.33-0.27,0.63-0.61,0.81-0.77c1.61-1.49,2.98-3.23,4.07-5.14
							c2.41-4.18,3.44-8.89,4.07-13.62c0.02-0.18-0.29-0.23-0.32-0.04c-0.58,3.8-1.64,7.52-3.16,11.05c-0.68,1.5-1.5,2.93-2.46,4.26
							c-0.52,0.72-1.09,1.4-1.7,2.05c-0.27,0.28-0.55,0.56-0.84,0.83c-0.19,0.18-0.39,0.35-0.59,0.52c-0.07,0.04-0.14,0.09-0.2,0.15
							c-2.25-5.16-4.8-10.19-7.13-15.31c-1.49-3.26-2.82-6.59-4.11-9.93c2.13-2.11,3.95-4.51,5.42-7.12
							c1.51-2.38,2.34-5.13,2.39-7.94c-0.01-0.08-0.08-0.14-0.16-0.14c-0.07,0-0.13,0.06-0.14,0.14
							c-0.22,5.75-4.24,10.27-7.76,14.44c-2.58-6.73-5.02-13.51-8.14-20.01c-2.54-5.52-5.87-10.63-9.9-15.18
							c-0.28-0.31-0.73,0.15-0.46,0.46c7.3,8.25,11.52,18.43,15.39,28.61c1.48,3.89,2.93,7.78,4.51,11.63
							c-3.69-1-7.44-1.73-11.11-2.8c-1.85-0.52-3.66-1.17-5.42-1.94c-0.89-0.39-1.75-0.83-2.59-1.32c-0.69-0.5-1.43-0.92-2.22-1.24
							c-0.1-0.03-0.2,0.03-0.23,0.13c-0.01,0.05-0.01,0.1,0.02,0.14c0.87,1.29,2.9,2.1,4.27,2.75c1.74,0.8,3.53,1.48,5.36,2.03
							c3.99,1.23,8.12,2.22,12.2,3.07c0.02,0,0.04,0,0.06,0c0.31,0.73,0.61,1.47,0.92,2.2c1.69,3.87,3.54,7.66,5.35,11.48
							c-1.18,0.62-2.44,1.11-3.73,1.43c-1.63,0.27-3.28,0.34-4.93,0.21c-1.78-0.1-3.54-0.35-5.28-0.76
							c-1.76-0.41-3.44-1.13-5.19-1.56c-0.11-0.02-0.21,0.04-0.24,0.15c-0.02,0.08,0.02,0.16,0.09,0.21
							c1.61,0.9,3.34,1.53,5.15,1.89c1.87,0.45,3.77,0.73,5.69,0.84c2.61,0.14,6.61,0.15,8.72-1.79c0.59,1.25,1.17,2.5,1.74,3.75
							c0.26,0.57,0.5,1.13,0.75,1.7l-0.05,0.01c-0.1,0.03-0.18,0.11-0.21,0.21c-0.1,0.25,0.02,0.54,0.27,0.64
							c0.02,0.01,0.04,0.01,0.06,0.02c0.1,0.03,0.21,0.03,0.31,0c2.27,5.36,4.05,10.91,5.33,16.59c0.06,0.27,0.53,0.22,0.5-0.07
							c-0.7-5.69-2.79-11.21-5.03-16.46C106.03,208.82,105.97,208.69,105.91,208.56z"/>
					</g>
					<g id="Grupo_15620">
						<path id="Trazado_10147" class="st29" d="M154.88,157.9c-1.42-1.81-3.85-2.48-5.99-1.65c-1.29,0.53-2.39,1.6-3.79,1.71
							c-2.44,0.2-4.1-2.85-3.46-5.21c0.64-2.36,2.71-4.02,4.72-5.41c2-1.39,4.18-2.81,5.23-5.02c1.05-2.21,0.34-5.45-2.01-6.12
							c-2.14-0.61-4.17,1.1-5.86,2.55s-4.19,2.77-6,1.48c-1.97-1.41-1.25-4.44-0.46-6.73c1.98-5.76,2.99-11.81,3-17.9
							c0-2.51-0.2-5.15-1.52-7.29s-4.05-3.6-6.4-2.71c-1.76,0.67-2.89,2.48-3.26,4.33c-0.27,1.87-0.21,3.77,0.15,5.63
							c0.54,3.85,1.08,7.7,1.62,11.56c0.27,1.95,0.12,4.58-1.79,5.05c-2.46,0.6-3.63-3.16-5.96-4.16c-2.57-1.1-5.35,1.98-5.05,4.76
							c0.19,1.42,0.79,2.76,1.71,3.86c-0.09,0.33-0.16,0.66-0.27,0.99c-0.24,0.79-0.56,1.55-0.94,2.28
							c-0.69,1.22-1.55,2.33-2.55,3.3c-0.85-3.57-1.44-7.2-1.77-10.85c-0.27-4.09-0.3-8.2-0.07-12.3c0.01-0.19-0.3-0.23-0.33-0.04
							c-0.55,3.9-0.66,7.85-0.33,11.78c-0.13-0.6-0.59-0.87-1.02-1.32c-0.63-0.65-1.23-1.34-1.79-2.05
							c-1.13-1.47-2.15-3.04-3.03-4.68c-0.19-0.33-0.66-0.04-0.5,0.29c0.83,1.64,1.83,3.2,2.99,4.63c0.61,0.76,1.26,1.49,1.95,2.19
							c0.45,0.45,0.76,0.9,1.39,0.98l0,0c0.35,4.22,1.04,8.4,2.06,12.5c0.08,0.32,0.17,0.65,0.25,0.97c-0.6-0.2-1.25-0.22-1.85-0.04
							c-1.43,0.53-2.38,1.89-2.39,3.41c0.02,1.49,0.52,2.94,1.44,4.12c1.61,2.29,3.9,3.91,6.26,5.46l1.15,4.27
							c0.53,1.97,0.85,4.2,1.76,6.03c0.06,0.11,0.2,0.14,0.31,0.07c0.06-0.04,0.11-0.11,0.11-0.19c-0.12-1.89-0.89-3.82-1.38-5.64
							c-0.36-1.33-0.71-2.65-1.07-3.98c1.43,0.89,2.82,1.86,4.15,2.9c8,6.45,10.94,18.44,6.85,27.86l3.02-4.89
							c-1.48,3.17-2.99,6.62-2.27,10.04c0.72,3.42,4.85,6.24,7.78,4.35c2-1.29,2.47-3.97,2.75-6.33c0.58-4.87,1.16-9.73,1.74-14.6
							c0.42-3.56,1.04-7.48,3.83-9.74c2.1-1.7,5.14-2.15,6.83-4.26C156.17,162.29,156.21,159.77,154.88,157.9z M124.42,152.08
							c-2.21,0-3.76-2.07-5.07-3.84c-0.73-1.05-1.67-1.94-2.77-2.62c-0.07-0.27-0.14-0.54-0.21-0.81c-0.09-0.34-0.17-0.68-0.25-1.02
							c2-1.73,3.43-4.01,4.13-6.56c0.74,0.81,1.53,1.57,2.37,2.26c2.13,1.8,4.47,3.66,5.32,6.32
							C128.8,148.48,127.22,152.08,124.42,152.08L124.42,152.08z"/>
						<path id="Trazado_10148" class="st30" d="M151.52,160.01c-0.44,1.43-1.81,2.23-2.96,3.05c-1.18,0.84-2.36,1.66-3.6,2.41
							c-2.26,1.32-4.66,2.38-7.16,3.15c-0.31-1.65-0.69-3.29-1.11-4.93c0-0.07-0.01-0.13-0.05-0.19c-0.35-1.33-0.72-2.65-1.11-3.98
							c-0.98-3.12-1.76-6.3-2.36-9.52c2.74-0.15,5.77-1.76,8.02-3.17c2.55-1.56,4.76-3.61,6.52-6.03c0.11-0.16-0.14-0.35-0.27-0.2
							c-1.87,2.24-4.08,4.18-6.55,5.74c-1.29,0.79-2.64,1.45-4.05,1.99c-1.23,0.47-2.54,0.72-3.76,1.18
							c-0.33-2.06-0.49-4.14-0.47-6.22c0.01-0.7,0.04-1.41,0.08-2.11c0.06-0.1,0.07-0.21,0.02-0.32c0.3-4.59,1.15-9.13,1.79-13.68
							c0.81-5.74,1.24-11.5-0.18-17.18c-0.06-0.23-0.41-0.14-0.36,0.1c2.27,10.1-1.16,20.22-1.91,30.3
							c-1.87-1.06-3.63-2.29-5.26-3.69c-1.64-1.51-3.19-3.13-4.64-4.83c-0.09-0.08-0.23-0.07-0.31,0.02
							c-0.06,0.07-0.07,0.17-0.03,0.25c2.39,3.8,6.28,6.9,10.18,9.06c0,0.05-0.01,0.09-0.01,0.14c-0.22,5.18,0.44,10.37,1.95,15.33
							c0.61,2.15,1.25,4.29,1.84,6.44c-8.09-2.64-13.36-9.52-20.53-13.75c-0.35-0.2-0.63,0.31-0.31,0.53
							c3.67,2.58,7.02,5.52,10.55,8.28c3.17,2.48,6.61,4.76,10.53,5.82c0.42,1.6,0.81,3.2,1.12,4.83c-0.17,0.07-0.24,0.27-0.17,0.44
							c0.05,0.11,0.16,0.19,0.29,0.19c0.2,1.1,0.36,2.21,0.47,3.34c0.53,6.27,0,12.59-1.56,18.68c-0.04,0.17,0.07,0.34,0.24,0.38
							c0.16,0.04,0.32-0.05,0.37-0.21c2.08-7.27,2.47-14.91,1.14-22.35c2.88-0.84,5.62-2.12,8.11-3.8c1.31-0.87,2.6-1.8,3.83-2.78
							c0.93-0.62,1.62-1.55,1.94-2.63c0.02-0.08-0.02-0.17-0.1-0.19C151.63,159.88,151.55,159.93,151.52,160.01z"/>
					</g>
					<g id="Grupo_15621">
						<path id="Trazado_10149" class="st29" d="M242.46,186.93c-3.64,0.85-7.13,2.28-10.33,4.22c-0.58,0.33-1.15,0.66-1.72,0.99
							c0.27-0.9,0.67-1.76,1.18-2.55c0.64-0.96,1.54-1.58,2.27-2.44c0.07-0.08,0.07-0.19-0.01-0.27c-0.06-0.06-0.15-0.07-0.22-0.03
							c-2.01,0.85-3.36,3.61-3.81,5.62c-2.31,1.35-4.6,2.74-6.89,4.14c-0.03-0.01-0.05-0.03-0.08-0.05
							c-0.14-0.08-0.35,0.09-0.24,0.24c-0.13,0.08-0.26,0.16-0.39,0.24c-1.51,0.92-3.01,1.86-4.5,2.81
							c0.76-1.13,1.44-2.32,2.03-3.54c1.89-3.91,2.54-9.12-0.55-12.17c-1.83-1.81-4.63-2.4-7.17-2.01c-2.54,0.5-4.92,1.59-6.97,3.17
							c-7.84,5.6-12.84,14.23-16.02,23.15c-1.83,5.11-7.02,14.02-6.39,19.54c0.28,2.42,1.66,4.31,4.23,4.78
							c4.09,0.75,4.81-2.67,6.38-5.73c5.47-10.69,16.75-16.54,23.61-25.97c2.01-1.31,4.05-2.59,6.09-3.85
							c1.77,1.9,5.05,3.03,7.51,3.02c0.29,0,0.37-0.47,0.07-0.52c-1.4-0.17-2.77-0.51-4.08-1.01c-1.06-0.51-2.07-1.11-3.03-1.79
							c2.35-1.44,4.7-2.87,7.06-4.28c3.79-2.28,7.69-4.45,12.02-5.48C242.69,187.14,242.62,186.9,242.46,186.93z"/>
						<path id="Trazado_10150" class="st30" d="M205.9,198.33c0.01-0.04,0.01-0.08,0.01-0.12c0.53-0.68,1.07-1.35,1.62-2.01
							c2.55-3.06,5.3-6.46,8.66-8.65c0.06-0.04,0.08-0.12,0.05-0.18c-0.04-0.06-0.12-0.08-0.18-0.05c-1.84,0.79-3.27,2.35-4.65,3.75
							c-1.38,1.41-2.71,2.89-3.99,4.41c-0.48,0.57-0.94,1.14-1.41,1.72c0.07-1.29-0.02-2.63,0.09-3.91
							c0.21-1.92,0.53-3.83,0.96-5.72c0.02-0.1-0.04-0.21-0.14-0.23c-0.1-0.02-0.19,0.03-0.22,0.13c-0.57,1.75-0.95,3.55-1.14,5.37
							c-0.3,1.69-0.35,3.41-0.16,5.11c-1.59,2-3.1,4.07-4.55,6.18l-0.12,0c-0.15,0-0.28,0.12-0.28,0.28c0,0.07,0.03,0.14,0.08,0.2
							c-0.1,0.15-0.2,0.29-0.3,0.44c-1.65,2.44-3.25,4.93-4.8,7.47c-0.04-0.34-0.05-0.69-0.09-1c-0.1-0.85-0.17-1.69-0.21-2.55
							c-0.08-1.63,0-3.24,0.05-4.87c0.01-0.23-0.37-0.29-0.41-0.05c-0.23,1.79-0.29,3.59-0.18,5.39c0.05,0.93,0.13,1.85,0.24,2.77
							c0.04,0.34,0.06,0.71,0.14,1.06c-2.61,4.29-5.07,8.68-7.36,13.12c-0.08,0.13-0.03,0.3,0.1,0.38c0.13,0.08,0.3,0.03,0.38-0.1
							l0,0c2.47-4.19,4.79-8.44,7.23-12.63c0.07,0.04,0.16,0.06,0.24,0.04l0.16-0.03c0.1-0.03,0.16-0.14,0.13-0.24
							c0-0.02-0.01-0.03-0.02-0.05c-0.07-0.1-0.13-0.2-0.18-0.31c1.47-2.5,2.98-4.98,4.59-7.4c0.3-0.45,0.6-0.89,0.9-1.33
							c2.15,0.08,4.3-0.28,6.31-1.05c2.07-0.82,3.89-2.12,5.89-3.08c0.17-0.08,0.02-0.33-0.15-0.25c-1.99,0.89-3.84,2.08-5.88,2.84
							c-1.85,0.68-3.82,1.02-5.79,0.99c1.33-1.93,2.72-3.83,4.16-5.68C205.79,198.49,205.88,198.43,205.9,198.33z"/>
					</g>
				</g>
				<g id="Grupo_15623">
					
						<linearGradient id="Trazado_10151_1_" gradientUnits="userSpaceOnUse" x1="-501.9427" y1="546.8108" x2="-501.9427" y2="547.1483" gradientTransform="matrix(137.0606 0 0 -188.6273 68906.4531 103342.2422)">
						<stop  offset="0" style="stop-color:#E64010"/>
						<stop  offset="1" style="stop-color:#FFFFFF;stop-opacity:0"/>
					</linearGradient>
					<path id="Trazado_10151" class="st32" d="M155.36,157.9c-1.42-1.81-3.85-2.48-5.99-1.65c-1.29,0.53-2.39,1.6-3.79,1.71
						c-2.44,0.2-4.1-2.85-3.46-5.21c0.64-2.36,2.71-4.02,4.72-5.41c2-1.39,4.18-2.81,5.23-5.02c1.05-2.21,0.34-5.45-2.01-6.12
						c-2.14-0.61-4.17,1.1-5.86,2.55s-4.19,2.77-6,1.48c-1.97-1.41-1.25-4.44-0.46-6.73c1.98-5.76,2.99-11.81,3-17.9
						c0-2.52-0.2-5.15-1.52-7.29s-4.05-3.6-6.4-2.71c-1.76,0.67-2.89,2.48-3.26,4.33c-0.27,1.87-0.21,3.77,0.15,5.63
						c0.54,3.85,1.08,7.7,1.62,11.56c0.27,1.95,0.12,4.58-1.79,5.05c-0.19,0.05-0.39,0.07-0.59,0.06c-0.37-1.45-0.76-2.91-1.15-4.35
						c-0.91-3.29-1.92-6.63-3.87-9.44s-5.05-5.02-8.47-5.08c-3.34-0.06-6.47,1.96-8.43,4.66s-2.9,6.01-3.46,9.31
						c-2.46,14.48,1.77,29.15,7.42,42.82c-0.09,0.16-0.18,0.31-0.26,0.47c-1.3-1.23-2.65-2.4-4.06-3.5
						c-0.21-1.42-0.91-2.73-1.99-3.68c-1.3-1.01-3.04-1.26-4.57-0.65c-0.74-0.41-1.49-0.79-2.25-1.16
						c-1.79-0.94-3.77-1.45-5.79-1.47c-1.05-7.18-5.35-13.48-11.66-17.06c-2.12-1.17-4.77-1.99-6.92-0.88
						c-3.13,1.63-3.19,6.1-2.22,9.5c1.42,4.99,4.04,9.57,7.63,13.32c0.67,0.7,1.38,1.38,2.07,2.07c-2.43-0.18-4.32-2.32-6.14-4.05
						c-2.98-2.84-7.67-8.89-10.64-6.03c-3.49,3.37,6.83,6.87,8.99,11.21c0.59,1.19,0.89,2.5,1.44,3.7c1.48,3.23,4.45,5.26,7.66,6.96
						c-0.81,0.4-1.74,0.46-2.59,0.18c-2.27-0.8-3.47-3.96-5.89-3.92c-2.56,0.04-3.39,3.63-2.54,6.05c1.38,3.78,4.71,6.5,8.69,7.11
						c1.94,0.27,3.97,0.02,5.81,0.69c1.84,0.66,3.4,2.8,2.49,4.54c-0.91,1.74-3.32,1.7-5.14,2.4c-3.8,1.45-4.76,7.39-1.61,9.96
						c4.01,3.29,10.38,0.2,15.08,2.39c3.1,1.44,4.77,4.87,5.53,8.2c0.76,3.33,0.85,6.82,1.98,10.04c1.13,3.22,3.68,6.3,7.08,6.62
						c8.17,0.77,6.63-8.66,5.67-13.67c-0.92-4.65-1.16-9.4-0.69-14.12c3.72,4.82,7.47,11.01,11.98,15.14
						c0.55,1.37,1.53,2.36,3.63,2.55c0.33,0.03,0.67,0.03,1,0c2.76,0.38,5.43-1.04,4.98-4.49c-0.03-0.24-0.08-0.48-0.13-0.72
						c1.05-5.34-1.02-13.69-1.42-18.58c1.27,0.6,2.76,0.53,3.95-0.21c2-1.29,2.47-3.97,2.75-6.33c0.58-4.87,1.16-9.73,1.74-14.6
						c0.42-3.56,1.04-7.48,3.83-9.74c2.1-1.7,5.14-2.15,6.83-4.26C156.66,162.29,156.7,159.77,155.36,157.9z"/>
					
						<linearGradient id="Trazado_10152_1_" gradientUnits="userSpaceOnUse" x1="-502.2317" y1="546.8367" x2="-502.2317" y2="547.1736" gradientTransform="matrix(134.2171 0 0 -189.4127 67608.8438 103776.7109)">
						<stop  offset="0" style="stop-color:#E64010"/>
						<stop  offset="1" style="stop-color:#FFFFFF;stop-opacity:0"/>
					</linearGradient>
					<path id="Trazado_10152" class="st33" d="M245.8,202.46c-2.39-3.35-8.11,1.74-11.56,3.99c-2.23,1.45-4.63,3.35-7.22,2.79
						c-1.05-0.23-2-0.85-3.08-0.91c-0.27-0.02-0.54,0-0.8,0.06l3.5-2.52l12.92-9.29c2-1.44,4.05-2.93,5.34-5.03
						c1.29-2.1,1.63-4.98,0.15-6.96c-1.86-2.49-5.56-2.5-8.62-1.95c-5.18,0.96-10.17,2.72-14.8,5.23c-0.04-0.18-0.08-0.36-0.13-0.53
						c9.09-11.66,17.08-24.67,18.57-39.28c0.34-3.32,0.32-6.76-0.85-9.89c-1.17-3.13-3.65-5.91-6.88-6.74
						c-3.31-0.85-6.88,0.46-9.52,2.64c-0.33,0.27-0.65,0.56-0.96,0.86c-0.24-0.91-0.85-1.69-1.68-2.14c-1.5-0.78-3.35-0.2-4.84,0.61
						c-4.87,2.76-8,7.82-8.29,13.41c-0.05,1.21,0.02,2.5-0.62,3.53c-0.64,1.03-2.34,1.47-3.02,0.47c-0.42-0.61-0.26-1.44-0.45-2.16
						c-0.47-1.82-3.17-2.25-4.6-1.04c-1.43,1.21-1.72,3.35-1.34,5.19c0.37,1.84,1.29,3.52,1.88,5.29c0.59,1.78,0.84,3.82-0.07,5.46
						c-0.91,1.64-3.33,2.48-4.74,1.26c-0.86-0.75-1.16-2.01-2.02-2.73c3-7.77,6.63-16.02,4.09-23.87c-0.68-2.11-1.8-4.07-2.41-6.2
						c-2.25-7.81,6.53-23.8-1.6-24.02c-6.89-0.18-5.83,12.6-6.3,19.48c-0.3,4.44-0.18,9.56-3.54,12.48
						c-1.36,1.18-3.15,1.83-4.32,3.19c-2.09,2.45-1.42,6.15-0.44,9.22c0.97,3.07,2.12,6.49,0.68,9.37
						c-0.01,0.03-0.03,0.05-0.04,0.08c-0.71-1.68-2.17-2.93-3.94-3.36c-3.05-0.59-5.8,1.88-7.7,4.35c-6.95,9-10.32,20.4-11.13,31.74
						c-0.57,8.1,0.73,15.86,1.11,23.9c0.19,4.01-1.37,9.3-0.03,13.14c1.62,4.63,6.97,2.88,8.75-0.91c2.94-6.26,3.38-14.94,4.83-21.7
						c0.72-3.36,1.44-6.71,2.16-10.07c0.3,3.42,0.6,6.84,0.9,10.26c0.07,0.81,0.16,1.64,0.28,2.47c-0.48,1.93-0.98,3.86-1.53,5.79
						c-1.11,3.86-4.3,8.36-4.27,12.43c0.04,4.91,5.67,4.98,8.58,1.97c4.64-4.8,7.79-12.48,11.2-18.34c-1.85,4.13-4,8.94-4.29,12.74
						c-0.12,0.22-0.22,0.44-0.32,0.66c-1.36,3.2,0.83,5.29,3.6,5.66c0.31,0.12,0.64,0.2,0.96,0.26c0.18,0.03,0.35,0.06,0.52,0.07
						c-0.72,1.02-1.02,2.27-0.85,3.51l5.19-2.09c8.03-0.94,15.94-2.72,23.6-5.31c0.69-0.18,1.34-0.52,1.87-0.99
						c0.54-0.5,0.67-1.3,0.32-1.95c-0.29-0.41-0.81-0.61-1.11-1.02c-0.37-0.66-0.23-1.5,0.34-2c0.57-0.48,1.24-0.8,1.97-0.96
						c4.98-1.45,10.63-2.59,13.61-6.83c0.76-1.08,1.3-2.32,2.09-3.38C237.84,207.96,248.62,206.41,245.8,202.46z M215.17,215.11
						c-0.46,0.08-0.94,0.08-1.4,0.02l6.19-4.45c-0.2,0.25-0.39,0.5-0.56,0.75C218.28,212.99,217.06,214.76,215.17,215.11
						L215.17,215.11z"/>
				</g>
				<g id="Grupo_15624">
					
						<linearGradient id="Trazado_10153_1_" gradientUnits="userSpaceOnUse" x1="-501.3934" y1="546.0353" x2="-501.3934" y2="545.6415" gradientTransform="matrix(91.529 0 0 -62.234 46045.3359 34157.3594)">
						<stop  offset="0" style="stop-color:#DDA68A"/>
						<stop  offset="1" style="stop-color:#FDCFB1"/>
					</linearGradient>
					<path id="Trazado_10153" class="st34" d="M172.52,199.25c-7.68-3.05-8.53-4.46-9.12-10.34c-0.59-5.87,2-12.02,2-12.02
						s-11.63-1.02-12.1-1.02s-12.1,1.02-12.1,1.02s2.59,6.14,2,12.02c-0.59,5.87-1.44,7.28-9.12,10.34
						c-7.68,3.05-11.79,4.35-11.79,4.35s17.62,14.33,31.02,14.45c13.39-0.12,31.02-14.45,31.02-14.45S180.2,202.3,172.52,199.25z"/>
					
						<linearGradient id="Trazado_10154_1_" gradientUnits="userSpaceOnUse" x1="-500.101" y1="546.1108" x2="-500.101" y2="545.6662" gradientTransform="matrix(56.7254 0 0 -78.879 28521.6992 43219.7305)">
						<stop  offset="0" style="stop-color:#DDA68A"/>
						<stop  offset="1" style="stop-color:#FDCFB1"/>
					</linearGradient>
					<path id="Trazado_10154" class="st35" d="M172.47,157.3v-0.01c0.02-0.38,0.04-0.77,0.04-1.16c0-10.61-0.79-22.21-18.64-22.56
						c-13.08-0.26-19.78,11.95-19.78,22.56c0,0.39,0.02,0.78,0.04,1.16v0.01c-0.84,11.16,8.83,29.72,18.93,29.72h0.24
						C163.4,187.03,173.31,168.47,172.47,157.3z"/>
					
						<linearGradient id="Trazado_10155_1_" gradientUnits="userSpaceOnUse" x1="-500.6481" y1="545.9225" x2="-500.6481" y2="545.7592" gradientTransform="matrix(67.7142 0 0 -70.68 34053.6445 38713.0352)">
						<stop  offset="0" style="stop-color:#83D1E1"/>
						<stop  offset="1" style="stop-color:#33A4B3"/>
					</linearGradient>
					<path id="Trazado_10155" class="st36" d="M154.43,139.83c-6.22-0.37-12.78-4.98-16.82,10.13c-2.01,7.67-1.93,15.75,0.25,23.38
						c0,0-2.69-0.05-3.79-3.69s-7.63-21.83-2.28-27.73c5.76-6.34,4.21-11.03,10.56-13.96c4.68-2.17,11.16,1.14,15.27-1.33
						c5.5-3.3,11.88,0.84,13.58,4.92c1.21,2.92-1.22,8.6,1.32,11.66c2.63,3.16,4.27,13.22,2.04,18.77
						c-1.36,3.38-3.05,6.62-5.02,9.68c0,0,1.25-11.38,0.94-18.88C169.77,135.63,162.3,140.3,154.43,139.83z"/>
					
						<linearGradient id="Trazado_10156_1_" gradientUnits="userSpaceOnUse" x1="-501.9888" y1="546.0785" x2="-501.9888" y2="545.5051" gradientTransform="matrix(127.5882 0 0 -61.4 64201.1289 33730.8242)">
						<stop  offset="0" style="stop-color:#83D1E1"/>
						<stop  offset="1" style="stop-color:#33A4B3"/>
					</linearGradient>
					<path id="Trazado_10156" class="st37" d="M187.84,204.07c-4.47-2-20.78-7.43-20.78-7.43s-2.37,4.84-13.76,4.84
						s-13.76-4.84-13.76-4.84s-16.32,5.43-20.78,7.43c-4.46,2-8.58,13.39-8.69,19.5c-0.12,6.11,25.5,14.69,43.24,14.69
						s43.36-8.57,43.24-14.69C196.41,217.46,192.3,206.06,187.84,204.07z"/>
					
						<linearGradient id="Trazado_10157_1_" gradientUnits="userSpaceOnUse" x1="-493.0578" y1="527.1768" x2="-493.0578" y2="525.2987" gradientTransform="matrix(18.0543 0 0 -6.1163 9064.1182 3351.7441)">
						<stop  offset="0" style="stop-color:#83D1E1"/>
						<stop  offset="1" style="stop-color:#33A4B3"/>
					</linearGradient>
					<path id="Trazado_10157" class="st38" d="M163.96,149.92l-6.17,1.64c-0.27,0.09-0.55,0.12-0.83,0.09
						c-0.72-0.15-0.96-1.16-0.6-1.8c0.43-0.61,1.04-1.05,1.75-1.26c1.74-0.79,3.64-1.15,5.54-1.05c1.93,0.13,3.67,1.23,4.61,2.91
						c0.21,0.31,0.22,0.71,0.02,1.03c-0.22,0.19-0.53,0.24-0.79,0.11c-0.25-0.13-0.49-0.29-0.7-0.48c-1.17-0.92-2.7-1.25-4.15-0.91"
						/>
					
						<linearGradient id="Trazado_10158_1_" gradientUnits="userSpaceOnUse" x1="-492.62" y1="527.177" x2="-492.62" y2="525.2989" gradientTransform="matrix(18.0548 0 0 -6.1163 9039.8164 3351.7693)">
						<stop  offset="0" style="stop-color:#83D1E1"/>
						<stop  offset="1" style="stop-color:#33A4B3"/>
					</linearGradient>
					<path id="Trazado_10158" class="st39" d="M144.02,149.92l6.17,1.64c0.27,0.09,0.55,0.12,0.83,0.09c0.72-0.15,0.96-1.16,0.6-1.8
						c-0.43-0.61-1.04-1.05-1.75-1.26c-1.74-0.79-3.64-1.15-5.54-1.05c-1.93,0.13-3.67,1.23-4.61,2.91
						c-0.21,0.31-0.22,0.71-0.02,1.03c0.22,0.19,0.53,0.24,0.79,0.11c0.25-0.13,0.49-0.29,0.7-0.48c1.17-0.92,2.7-1.25,4.15-0.91"/>
					<path id="Trazado_10159" class="st40" d="M161.81,149.99c-1.44,0.73-4.02,3.67-7.94,3.67c-3.92,0-6.52-2.82-7.97-3.85
						c-1.32-0.93-3.18,12.27-0.86,11.71c2.32-0.56,6.09-2.18,8.82-2.18s6.26,1.63,8.57,2.18S163.25,149.25,161.81,149.99z"/>
					<path id="Trazado_10160" class="st41" d="M149.06,155.61c0,3.51-2.85,6.36-6.36,6.36c-3.51,0-6.36-2.85-6.36-6.36
						c0-3.51,2.85-6.36,6.36-6.36h0C146.21,149.25,149.06,152.1,149.06,155.61z"/>
					
						<linearGradient id="Trazado_10161_1_" gradientUnits="userSpaceOnUse" x1="-479.8579" y1="494.0859" x2="-479.1801" y2="494.0859" gradientTransform="matrix(8.0286 0 0 -2.5807 4003.729 1444.4117)">
						<stop  offset="0" style="stop-color:#E79A73"/>
						<stop  offset="1" style="stop-color:#F7AF88"/>
					</linearGradient>
					<path id="Trazado_10161" class="st42" d="M151.32,168.46c0.49-0.19,1.94,0.48,2.42,0.53s1.59-0.49,2.11-0.53
						c0.53-0.04,1.37,0.22,0,0.93c-0.55,0.28-1.7,0.97-2.33,0.75C152.89,169.91,150.53,168.77,151.32,168.46z"/>
					
						<linearGradient id="Trazado_10162_1_" gradientUnits="userSpaceOnUse" x1="-482.5679" y1="488.1217" x2="-481.9112" y2="488.1217" gradientTransform="matrix(14.558 0 0 -2.2782 7291.772 1286.8668)">
						<stop  offset="0" style="stop-color:#E79A73"/>
						<stop  offset="1" style="stop-color:#F7AF88"/>
					</linearGradient>
					<path id="Trazado_10162" class="st43" d="M159.13,174.07c-1.89,0.18-3.78,0.31-5.67,0.41c-1.33,0.07-2.91-0.11-4.2,0.25
						c1.75,0.57,3.58,0.86,5.41,0.88c0.82,0,1.63-0.11,2.41-0.35C157.67,175.07,158.64,174.12,159.13,174.07z"/>
					<path id="Trazado_10163" class="st41" d="M146.64,150.61c-0.29-0.14-14.74-17.04-14.74-17.04l-8.02,34.54l21.16-6.58
						L146.64,150.61z"/>
					
						<linearGradient id="Trazado_10164_1_" gradientUnits="userSpaceOnUse" x1="-500.4663" y1="547.0181" x2="-500.4663" y2="546.7361" gradientTransform="matrix(68.4724 0 0 -134.5477 34390.0352 73752.4766)">
						<stop  offset="0" style="stop-color:#DDA68A"/>
						<stop  offset="1" style="stop-color:#FDCFB1"/>
					</linearGradient>
					<path id="Trazado_10164" class="st44" d="M99.81,143.78c-4.12,4.35,4.57,15.74,7.42,20.57c5.26,8.93,6.06,9.29,7.99,17.04
						s-6.54,46.34-5.66,47.75c0.88,1.41,13.06,6.22,18.33,5.82c5.27-0.41,1.87-13.55,0.96-31.59c-1.29-25.5,2.08-28.26,5.21-32.33
						s8.31-7.54,10.46-13.86c2.07-6.11-1.64-9.63-3.23-4.17c-1.59,5.46-8.69,12.75-14.02,14.17c-5.79,1.55-17,2.16-22.84-5.69
						C100.63,156.42,98.97,150.06,99.81,143.78z"/>
					
						<linearGradient id="Elipse_321_1_" gradientUnits="userSpaceOnUse" x1="-505.0695" y1="544.1202" x2="-505.0695" y2="543.5223" gradientTransform="matrix(14.1744 -58.9046 -58.9046 -14.1744 39307.0195 -21894.916)">
						<stop  offset="0" style="stop-color:#83D1E1"/>
						<stop  offset="1" style="stop-color:#33A4B3"/>
					</linearGradient>
					<circle id="Elipse_321" class="st45" cx="117.81" cy="148.49" r="20.53"/>
					<circle id="Elipse_322" class="st41" cx="117.81" cy="148.49" r="13.48"/>
					<path id="Trazado_10165" class="st41" d="M158.42,155.61c0,3.51,2.85,6.36,6.36,6.36c3.51,0,6.36-2.85,6.36-6.36
						c0-3.51-2.85-6.36-6.36-6.36C161.27,149.25,158.42,152.1,158.42,155.61z"/>
					<path id="Trazado_10166" class="st41" d="M160.43,150.97c0.29-0.14,15.15-17.4,15.15-17.4l8.02,34.54l-21.16-6.58
						L160.43,150.97z"/>
					
						<linearGradient id="Trazado_10167_1_" gradientUnits="userSpaceOnUse" x1="-500.9081" y1="547.0181" x2="-500.9081" y2="546.7361" gradientTransform="matrix(68.4719 0 0 -134.5477 34483.6992 73752.4766)">
						<stop  offset="0" style="stop-color:#DDA68A"/>
						<stop  offset="1" style="stop-color:#FDCFB1"/>
					</linearGradient>
					<path id="Trazado_10167" class="st46" d="M207.67,143.78c4.12,4.35-4.57,15.74-7.42,20.57c-5.26,8.93-6.06,9.29-7.99,17.04
						c-1.94,7.75,6.54,46.34,5.66,47.75c-0.88,1.41-13.06,6.22-18.33,5.82s-1.87-13.55-0.96-31.59c1.29-25.5-2.08-28.26-5.21-32.33
						c-3.13-4.07-8.31-7.54-10.46-13.86c-2.07-6.11,1.64-9.63,3.23-4.17c1.59,5.46,8.69,12.75,14.02,14.17
						c5.79,1.55,17,2.16,22.84-5.69C206.85,156.42,208.51,150.06,207.67,143.78z"/>
					
						<linearGradient id="Elipse_323_1_" gradientUnits="userSpaceOnUse" x1="-500.9203" y1="545.278" x2="-500.9203" y2="544.6802" gradientTransform="matrix(60.1412 -7.3279 -7.3279 -60.1412 34308.7734 29250.0059)">
						<stop  offset="0" style="stop-color:#83D1E1"/>
						<stop  offset="1" style="stop-color:#33A4B3"/>
					</linearGradient>
					<circle id="Elipse_323" class="st47" cx="189.67" cy="148.49" r="20.53"/>
					<circle id="Elipse_324" class="st41" cx="189.67" cy="148.49" r="13.48"/>
					
						<linearGradient id="Trazado_10168_1_" gradientUnits="userSpaceOnUse" x1="-449.0038" y1="468.7104" x2="-448.3349" y2="468.7104" gradientTransform="matrix(5.6552 0 0 -1.6969 2809.5723 973.772)">
						<stop  offset="0" style="stop-color:#E79A73"/>
						<stop  offset="1" style="stop-color:#F7AF88"/>
					</linearGradient>
					<path id="Trazado_10168" class="st48" d="M156.35,178.05c-0.15,0.03-0.57,0.57-0.78,0.68c-0.39,0.19-0.83,0.27-1.27,0.24
						c-0.61-0.03-1.98-0.31-1.77-1.14C153.84,177.94,154.99,178.31,156.35,178.05z"/>
					<path id="Trazado_10169" class="st49" d="M202.11,148.49c0,0.66-0.05,1.33-0.16,1.98c-0.22,1.39-0.68,2.74-1.36,3.98
						c-3.29,6.03-10.84,8.26-16.88,4.97c-6.03-3.29-8.26-10.84-4.97-16.88c1.37-2.52,3.57-4.48,6.23-5.57
						c1.3-0.54,2.69-0.84,4.1-0.91c0.2-0.01,0.39-0.01,0.6-0.01C196.54,136.05,202.11,141.62,202.11,148.49z"/>
					<path id="Trazado_10170" class="st50" d="M201.96,150.47c-0.22,1.39-0.68,2.74-1.36,3.98l-15.63-17.47
						c1.3-0.54,2.69-0.84,4.1-0.91L201.96,150.47z"/>
					<path id="Trazado_10171" class="st49" d="M130.25,148.49c0,0.66-0.05,1.33-0.16,1.98c-0.22,1.39-0.68,2.74-1.36,3.98
						c-3.29,6.03-10.84,8.26-16.88,4.97s-8.26-10.84-4.97-16.88c1.37-2.52,3.57-4.49,6.23-5.57c1.3-0.54,2.69-0.84,4.1-0.91
						c0.2-0.01,0.39-0.01,0.6-0.01C124.68,136.05,130.25,141.62,130.25,148.49z"/>
					<path id="Trazado_10172" class="st50" d="M130.09,150.47c-0.22,1.39-0.68,2.74-1.36,3.98l-15.62-17.47
						c1.3-0.54,2.69-0.84,4.1-0.91L130.09,150.47z"/>
				</g>
				<g id="Grupo_15631">
					<g id="Grupo_15625">
						<path id="Trazado_10173" class="st30" d="M189.23,212.7c8.21-7.87,18.36-14.05,29.56-16.05c3.06-0.55,6.76-0.54,8.62,1.95
							c1.48,1.97,1.14,4.86-0.15,6.96c-1.29,2.1-3.34,3.6-5.34,5.03L209,219.87l-18.6,13.37c-5.61,4.04-11.77,10.18-18.15,12.84
							c-3.86,1.61-9-0.69-7.09-5.21c1.58-3.75,6.3-6.62,8.85-9.72C179.12,224.94,183.37,218.31,189.23,212.7z"/>
						<path id="Trazado_10174" class="st29" d="M224.99,200.44c-4.32-0.37-8.3,1.76-11.64,4.3c-0.85,0.64-1.67,1.32-2.48,2.01
							c-0.01-0.9,0.09-1.8,0.3-2.68c0.07-0.27,1.1-3.36,1.52-3.14c0.08,0.04,0.2-0.03,0.17-0.13l-0.04-0.12
							c-0.02-0.07-0.08-0.12-0.16-0.12c-0.86-0.02-1.29,1.6-1.53,2.25c-0.5,1.36-0.71,2.8-0.62,4.24c-2.67,2.32-5.17,4.85-7.62,7.38
							c-3.75,3.87-7.37,7.88-11.17,11.7c-0.02-0.95-0.22-1.89-0.27-2.84c-0.06-0.97-0.06-1.95-0.01-2.92
							c0.19-2.14,0.53-4.26,1.02-6.35c0.03-0.12-0.05-0.24-0.17-0.26c-0.11-0.02-0.22,0.04-0.26,0.15c-0.74,2-1.15,4.11-1.22,6.25
							c-0.12,1.98-0.26,4.46,0.46,6.34c0.01,0.02,0.02,0.05,0.04,0.07c-2.87,2.91-5.92,5.65-9.12,8.19
							c-0.31,0.24-0.62,0.47-0.94,0.71c1.68-2.49,3.35-5.65,2.81-8.62c-0.04-0.2-0.32-0.14-0.34,0.05c-0.1,1.78-0.52,3.53-1.23,5.16
							c-0.66,1.41-1.54,2.68-2.31,4.02c-0.04,0.06-0.05,0.14-0.03,0.21c-1.52,1.1-3.09,2.14-4.71,3.09
							c-2.27,1.33-4.66,2.32-7.01,3.47c-0.24,0.12-0.07,0.5,0.18,0.43c4.17-1.19,8.15-3.77,11.65-6.28c3.6-2.63,7-5.52,10.17-8.66
							c5.82-5.67,11.12-11.83,16.94-17.5c1.9,0.97,4.45,1.11,6.53,1c1.54-0.09,3.9-0.16,4.79-1.65c0.12-0.2-0.14-0.36-0.3-0.23
							c-1.49,1.2-3.53,1.32-5.38,1.33c-1.85,0.01-3.56-0.46-5.35-0.73c1.1-1.07,2.22-2.12,3.36-3.14c3.93-3.5,8.49-6.78,13.98-6.69
							C225.17,200.72,225.16,200.46,224.99,200.44z"/>
						<path id="Trazado_10175" class="st29" d="M202.14,205.75c-0.8,1.88-1.38,3.85-1.73,5.87c-0.27,1.6-0.78,3.74-0.28,5.31
							c0.02,0.08,0.11,0.12,0.19,0.1c0.05-0.01,0.08-0.05,0.1-0.1c0.15-0.76,0.22-1.53,0.18-2.31c0.06-1.11,0.18-2.22,0.36-3.32
							c0.31-1.87,0.74-3.71,1.31-5.52C202.31,205.7,202.17,205.67,202.14,205.75z"/>
					</g>
					<g id="Grupo_15626">
						<path id="Trazado_10176" class="st31" d="M122.67,215.03c-7.15-7.21-16.96-11.15-27.12-10.87c-3.05,0.07-6.87,0.88-9.34,3.95
							c-1.95,2.44-2.22,5.46-1.34,7.44s2.68,3.14,4.44,4.25l11.36,7.18l16.35,10.35c4.94,3.12,9.98,8.39,16.01,9.88
							c3.65,0.9,9.46-2.67,8.46-7.11c-0.83-3.68-5.09-5.75-7.06-8.53C130.49,226,127.52,219.8,122.67,215.03z"/>
						<path id="Trazado_10177" class="st29" d="M128.51,238.68c-2.01-2.19-4.13-4.31-6.33-6.36c0.85-1.97,1.21-4.13,1.02-6.27
							c0-0.06-0.06-0.1-0.11-0.1c-0.05,0-0.09,0.04-0.1,0.1c-0.09,2.05-0.46,4.07-1.08,6.02c-2.19-2.03-4.45-3.99-6.75-5.88
							c1.26-4.5,1.88-10.17-1.47-13.95c-0.21-0.24-0.53,0.1-0.34,0.35c3.1,4.01,2.31,8.74,1.55,13.39
							c-1.56-1.28-3.14-2.52-4.73-3.73c-1.63-1.23-3.28-2.42-4.97-3.57c0.18-1.42,0.21-2.85,0.09-4.27
							c-0.01-1.1-0.37-2.16-1.02-3.05l0,0l0,0c-0.01-0.01-0.02-0.03-0.03-0.04l0,0c-0.08-0.08-0.22-0.07-0.3,0.01
							c-0.06,0.07-0.07,0.16-0.03,0.24c1.16,2.2,0.84,4.47,0.87,6.83c-1.55-1.04-3.13-2.04-4.75-2.99c-0.47-0.27-0.94-0.54-1.41-0.8
							c0.17-1.4,0.04-2.82-0.4-4.17c-0.38-1.19-0.96-2.69-1.99-3.46c-0.09-0.05-0.21-0.01-0.25,0.08c-0.02,0.04-0.03,0.09-0.02,0.13
							c0.49,1.18,1.31,2.15,1.7,3.4c0.36,1.21,0.51,2.48,0.46,3.74c-1.21-0.67-2.44-1.31-3.68-1.91c-1.85-1.01-3.84-1.74-5.91-2.18
							c-0.13-0.03-0.26,0.05-0.29,0.18c-0.03,0.12,0.04,0.24,0.16,0.28c4.64,1.52,9.08,3.61,13.2,6.23c-0.75,1.09-1.72,2-2.85,2.69
							c-1.05,0.59-2.29,0.6-3.3,1.14c-0.08,0.05-0.1,0.15-0.05,0.22c0.02,0.03,0.05,0.06,0.09,0.07c1.14,0.37,2.74-0.43,3.71-1.02
							c1.17-0.68,2.14-1.67,2.78-2.86c0.95,0.6,1.89,1.21,2.82,1.84c0.03,0.1,0.13,0.17,0.23,0.16c1.67,1.14,3.3,2.32,4.89,3.52
							c0.75,0.57,1.49,1.14,2.21,1.73c-0.84,1.2-1.99,2.15-3.33,2.74c-1.19,0.43-2.43,0.75-3.69,0.94c-0.07-0.03-0.15-0.02-0.2,0.03
							l-0.07,0.06c-0.05,0.05-0.07,0.13-0.05,0.2l0.02,0.08c0.03,0.1,0.1,0.17,0.2,0.2c0.66,0.03,1.32-0.08,1.95-0.3
							c0.91-0.19,1.79-0.49,2.64-0.87c1.15-0.55,2.49-1.5,2.91-2.78c3.19,2.58,6.21,5.31,9.21,8.08c0.02,0.06,0.06,0.11,0.13,0.12
							c2.16,2,4.32,4,6.51,5.98c0.06,0.04,0.14,0.02,0.18-0.04C128.54,238.78,128.54,238.72,128.51,238.68z"/>
					</g>
					<path id="Trazado_10178" class="st30" d="M157.42,226.98c1.59-5.44,5.35-9.97,10.4-12.54c1.51-0.78,3.6-1.4,5.63-0.55
						c1.41,0.54,2.41,1.8,2.64,3.29c-0.01,1.17-0.38,2.31-1.05,3.27l-3.65,6.54c-1.75,3.14-3.51,6.28-5.26,9.42
						c-1.59,2.85-2.66,6.77-5.22,9.1c-1.55,1.41-5.35,1.21-6.04-1.24c-0.57-2.03,0.96-4.17,1.19-6.06
						C156.51,234.44,156.31,230.61,157.42,226.98z"/>
					<g id="Grupo_15627">
						<path id="Trazado_10179" class="st30" d="M143.19,218.94c-2.23-7.65-7.53-14.04-14.63-17.65c-2.13-1.09-5.07-1.97-7.92-0.77
							c-1.98,0.76-3.4,2.53-3.71,4.63c-0.14,1.69,0.68,3.17,1.47,4.6l5.14,9.21c2.47,4.42,4.94,8.84,7.4,13.26
							c2.24,4,3.74,9.53,7.34,12.81c2.18,1.99,7.52,1.7,8.5-1.74c0.81-2.85-1.36-5.87-1.67-8.52
							C144.48,229.44,144.76,224.05,143.19,218.94z"/>
						<path id="Trazado_10180" class="st29" d="M140.05,237.98c-1.43-3.07-3.07-6.05-4.65-9.05c-1.55-2.95-2.87-5.94-4.17-9
							c-1.32-3.1-2.93-6.08-4.79-8.89c1.88-0.87,3.34-4.46,2.79-6.39c-0.02-0.08-0.11-0.13-0.19-0.1c-0.05,0.01-0.09,0.05-0.1,0.1
							c-0.33,1.19-0.32,2.36-0.86,3.51c-0.46,0.99-1.28,1.71-1.8,2.64c-1.41-2.11-2.99-4.09-4.74-5.93
							c-0.09-0.1-0.28,0.03-0.19,0.15c1.8,2.43,3.7,4.75,5.33,7.3c1.7,2.67,3.17,5.48,4.38,8.4c0.51,1.23,1.05,2.45,1.6,3.66
							c-0.63-0.03-1.25-0.21-1.8-0.52c-0.52-0.3-0.86-0.83-1.38-1.11c-0.07-0.04-0.17-0.01-0.21,0.06
							c-0.02,0.03-0.02,0.07-0.01,0.11c0.13,0.65,0.89,1.14,1.44,1.44c0.67,0.36,1.41,0.54,2.17,0.55c0.01,0,0.02,0,0.04-0.01
							c2.08,4.52,4.39,8.92,6.93,13.2C139.91,238.28,140.13,238.14,140.05,237.98z"/>
						<path id="Trazado_10181" class="st29" d="M128.99,216.49c-1.86-0.69-3.54-1.79-4.92-3.21c-0.13-0.17-0.41,0.05-0.29,0.23
							c1.24,1.71,3.05,2.91,5.11,3.38c0.11,0.03,0.22-0.03,0.25-0.14C129.16,216.63,129.1,216.52,128.99,216.49z"/>
					</g>
					<g id="Grupo_15628">
						<path id="Trazado_10182" class="st29" d="M155.42,227.12c0.65-1.25,1.44-2.52,1.37-3.93c-0.07-1.41-1.56-2.8-2.82-2.16
							c-0.77,0.39-1.1,1.36-1.82,1.84c-1.12,0.74-2.76-0.09-3.25-1.33s-0.13-2.67,0.46-3.88c0.68-1.16,1.29-2.35,1.82-3.58
							c0.44-1.27,0.43-2.81-0.47-3.8s-2.86-0.93-3.36,0.31c-0.2,0.49-0.16,1.09-0.52,1.49c-0.58,0.65-1.74,0.18-2.1-0.61
							c-0.25-0.83-0.29-1.71-0.11-2.56c0.32-4-1.43-7.88-4.63-10.29c-0.98-0.72-2.24-1.3-3.37-0.88c-1.66,0.6-1.98,2.82-1.72,4.57
							c0.38,2.57,1.38,5,2.91,7.1c0.7,0.84,1.34,1.74,1.9,2.69c0.56,0.96,0.67,2.12,0.29,3.17c-0.44,1.05-1.64,1.57-2.7,1.16
							c-1.07-0.55-1.46-2.19-2.66-2.32c-1.27-0.15-1.92,1.58-1.65,2.83c0.44,1.96,1.91,3.53,3.85,4.09
							c0.94,0.26,1.97,0.27,2.84,0.72c0.87,0.45,1.51,1.61,0.94,2.41c-0.56,0.8-1.76,0.63-2.7,0.85c-1.98,0.47-2.84,3.35-1.45,4.84
							c1.78,1.89,5.13,0.77,7.32,2.16c1.44,0.91,2.05,2.72,2.21,4.42c0.16,1.7-0.02,3.43,0.33,5.11c0.35,1.67,1.42,3.36,3.08,3.74
							c4,0.91,3.85-3.86,3.7-6.41C152.79,234.8,153.59,230.74,155.42,227.12z"/>
						<path id="Trazado_10183" class="st30" d="M146.22,229.13c-0.49-1.54-0.95-3.09-1.38-4.64c-0.17-0.62-0.34-1.24-0.5-1.85
							c2.09-2.69,3.45-5.88,3.95-9.25c0.02-0.11-0.14-0.16-0.17-0.05c-0.64,3.15-1.99,6.12-3.95,8.68
							c-0.62-2.37-1.17-4.76-1.67-7.17c-1.02-4.95-1.15-11.35-5.13-15.02c-0.08-0.07-0.2-0.06-0.27,0.02
							c-0.06,0.07-0.06,0.18,0,0.25c1.95,2.09,2.9,4.72,3.47,7.48c0.59,2.84,0.99,5.71,1.59,8.55c0.43,2.05,0.92,4.1,1.45,6.13
							c-0.43-0.28-0.92-0.47-1.38-0.72c-0.76-0.4-1.51-0.83-2.24-1.29c-1.45-0.9-2.76-2.09-4.25-2.9c-0.08-0.04-0.18-0.01-0.22,0.06
							c-0.03,0.06-0.02,0.14,0.02,0.19c1.06,1.31,2.71,2.31,4.12,3.21c1.1,0.7,2.48,1.75,3.82,2.09c-0.09,0.23,0.17,0.48,0.36,0.32
							c0.19,0.7,0.38,1.4,0.58,2.1c0.4,1.42,0.83,2.83,1.27,4.23c-0.7-0.35-1.45-0.6-2.23-0.74c-1.21-0.36-2.48-0.93-3.73-0.48
							c-0.07,0.02-0.1,0.09-0.08,0.16c0.02,0.05,0.06,0.09,0.12,0.09c2.01,0.04,4.26,0.97,6.06,1.8c0.04,0.02,0.08,0.02,0.13,0.02
							c0.35,1.29,0.8,2.55,1.36,3.76c0.13,0.25,0.49,0.07,0.44-0.18C147.42,232.32,146.72,230.72,146.22,229.13z"/>
					</g>
					<g id="Grupo_15629">
						<path id="Trazado_10184" class="st30" d="M156.88,222.39c4.06-6.07,9.56-11.35,16.3-14.15c1.84-0.77,4.16-1.27,5.67,0.03
							c1.2,1.03,1.39,2.89,0.87,4.38c-0.62,1.46-1.52,2.78-2.65,3.9l-6.81,7.61l-9.8,10.95c-2.96,3.31-5.96,8.01-9.6,10.56
							c-2.2,1.54-5.74,0.82-5.17-2.28c0.47-2.57,3.03-5.02,4.2-7.32C152.24,231.47,153.98,226.72,156.88,222.39z"/>
						<path id="Trazado_10185" class="st29" d="M175.22,212.03c-1.97,1.51-3.8,3.19-5.46,5.04c0.14-0.75,0.19-1.51,0.36-2.26
							c0.2-0.92,0.52-1.8,0.77-2.7c0.02-0.06-0.02-0.12-0.08-0.14c-0.05-0.01-0.1,0.01-0.12,0.05c-1.01,1.65-1.5,3.57-1.4,5.51
							c0,0.02,0.01,0.03,0.02,0.05c-2.76,3.22-5.33,6.59-7.71,10.09c-0.24,0.34-0.47,0.67-0.71,1.01c0-0.07,0.01-0.15,0.01-0.22
							c0.01-0.01,0.03-0.02,0.04-0.04c0.53-1.17,0.34-2.76,0.49-4.03c0.19-1.62,0.53-3.21,0.68-4.83c0.02-0.16-0.22-0.17-0.27-0.04
							c-0.49,1.49-0.82,3.03-0.98,4.6c-0.17,1.27-0.61,3.01-0.18,4.24c-0.03,0.19-0.02,0.39,0.02,0.58
							c-1.63,2.31-3.25,4.62-4.95,6.88c0.09-0.72,0.1-1.44,0.01-2.16c-0.03-0.83-0.08-1.66-0.08-2.5c-0.01-0.07-0.06-0.12-0.13-0.11
							c-0.06,0-0.11,0.05-0.11,0.11c-0.09,1.44-0.44,3.28,0.03,4.68c0.03,0.08,0.12,0.12,0.19,0.09c0,0,0,0,0,0
							c-0.12,0.15-0.23,0.31-0.34,0.46c-1.14,1.57-2.41,3.04-3.78,4.41c-1.48,1.33-3.1,2.5-4.82,3.5c-0.11,0.07-0.04,0.27,0.09,0.22
							c3.32-1.25,5.85-3.94,8-6.67c1.34-1.71,2.62-3.47,3.88-5.24c0.02,0.05,0.06,0.09,0.11,0.12c0.9,0.35,2.2-0.47,2.89-0.99
							c0.11-0.08,0.01-0.26-0.11-0.18c-0.47,0.29-0.98,0.49-1.51,0.61c-0.41,0.05-0.82,0.12-1.22,0.22c0.74-1.04,1.47-2.07,2.2-3.11
							c1.55-2.21,3.12-4.42,4.74-6.57c1.62,0.2,3.45-0.68,4.76-1.54c0.04-0.03,0.06-0.08,0.03-0.12c-0.03-0.04-0.08-0.05-0.12-0.03
							c-0.81,0.38-1.65,0.68-2.51,0.91c-0.6,0.16-1.22,0.2-1.82,0.33c0.53-0.69,1.06-1.38,1.6-2.06c2.34-2.85,4.88-5.53,7.6-8.02
							C175.39,212.1,175.3,211.97,175.22,212.03z"/>
					</g>
					<g id="Grupo_15630">
						<path id="Trazado_10186" class="st29" d="M177.41,229.82c4.77-5.89,9.22-12.53,9.99-20.07c0.22-1.57,0.09-3.16-0.4-4.66
							c-0.51-1.52-1.72-2.7-3.25-3.18c-1.61-0.31-3.27,0.15-4.49,1.24c-1.19,1.09-2.19,2.38-2.95,3.8
							c-4.63,7.64-8.25,15.86-10.76,24.43c-1.3,4.32-2.2,8.75-2.71,13.23c-0.46,4.72,4.06-1.35,4.92-2.62
							C170.67,237.7,174.15,233.84,177.41,229.82z"/>
						<path id="Trazado_10187" class="st30" d="M181.53,218.86c-1.1,1.18-2.11,2.4-3.31,3.48c-1.08,0.97-2.38,1.69-3.47,2.63
							c0.6-1.01,1.2-2.01,1.81-3.02c1.8-2.79,3.45-5.68,4.93-8.66c1.17-2.55,2.14-5.52,1.49-8.34c-0.01-0.05-0.06-0.08-0.11-0.06
							c-0.04,0.01-0.07,0.05-0.07,0.09c-0.01,3.22-0.82,6.38-2.34,9.22c-1.51,2.91-3.32,5.69-5.03,8.5
							c-1.75,2.88-3.51,5.76-5.25,8.64c-0.28,0.46-0.56,0.91-0.85,1.37c-0.24-0.71-0.4-1.44-0.49-2.19
							c-0.03-0.8-0.02-1.59,0.04-2.39c0-0.09-0.08-0.16-0.17-0.16c-0.07,0-0.13,0.05-0.15,0.11c-0.5,1.71-0.34,3.55,0.44,5.16
							c-1.5,2.25-2.88,4.58-4.13,6.98c-0.07,0.14-0.02,0.32,0.12,0.39c0.13,0.07,0.3,0.03,0.38-0.1c2.1-2.9,3.78-6.19,5.63-9.26
							c1.15-1.91,2.3-3.82,3.44-5.74c0.04,0.05,0.1,0.06,0.16,0.04c1.39-0.52,2.72-1.77,3.81-2.76c1.28-1.1,2.4-2.37,3.34-3.78
							c0.04-0.06,0.02-0.14-0.04-0.18C181.64,218.8,181.57,218.81,181.53,218.86z"/>
					</g>
				</g>
				
					<linearGradient id="Trazado_10188_1_" gradientUnits="userSpaceOnUse" x1="-502.5993" y1="545.8317" x2="-502.5993" y2="546.4816" gradientTransform="matrix(212.4434 0 0 -75.2506 106930.2891 41323.293)">
					<stop  offset="0" style="stop-color:#FFFFFF;stop-opacity:0"/>
					<stop  offset="1" style="stop-color:#FFA6AC"/>
				</linearGradient>
				<path id="Trazado_10188" class="st51" d="M227.41,198.6c-1.86-2.49-5.56-2.5-8.62-1.95c-11.2,2-21.34,8.18-29.56,16.05
					c-1.2,1.15-2.33,2.34-3.41,3.56c0.81-2.09,1.34-4.28,1.58-6.5c0.22-1.57,0.09-3.16-0.4-4.66c-0.51-1.52-1.72-2.7-3.25-3.18
					c-1.61-0.31-3.27,0.15-4.49,1.24c-1.19,1.09-2.19,2.38-2.95,3.8c-0.11,0.18-0.21,0.36-0.31,0.53c-0.97,0.11-1.92,0.36-2.82,0.75
					c-6.74,2.81-12.24,8.09-16.3,14.15c-0.06,0.09-0.12,0.18-0.18,0.28c-0.35-1.2-1.63-2.19-2.72-1.63
					c-0.77,0.39-1.1,1.36-1.82,1.84c-1.12,0.74-2.76-0.09-3.25-1.33s-0.13-2.67,0.46-3.88c0.68-1.16,1.29-2.35,1.82-3.58
					c0.44-1.27,0.43-2.81-0.47-3.8s-2.86-0.93-3.36,0.31c-0.2,0.49-0.16,1.09-0.52,1.49c-0.58,0.65-1.74,0.18-2.1-0.61
					c-0.25-0.83-0.29-1.71-0.11-2.56c0.32-4-1.43-7.88-4.63-10.29c-0.98-0.72-2.24-1.3-3.37-0.88c-1.66,0.6-1.98,2.82-1.72,4.57
					c0.26,1.75,0.81,3.44,1.63,5c-2.29-2.45-4.99-4.47-7.98-5.99c-2.13-1.09-5.07-1.97-7.92-0.77c-1.98,0.76-3.4,2.53-3.71,4.63
					c-0.14,1.69,0.68,3.17,1.47,4.6c0.54,0.97,1.08,1.95,1.63,2.92c-6.85-5.74-15.56-8.76-24.49-8.5c-3.05,0.07-6.87,0.88-9.34,3.95
					c-1.95,2.44-2.22,5.46-1.34,7.44c0.88,1.98,2.68,3.14,4.44,4.25l11.36,7.18l16.35,10.35c4.94,3.12,9.98,8.39,16.01,9.88
					c1.86,0.46,4.28-0.25,6.07-1.63c1.94,1.04,5.03,0.92,6.69-0.66c0.66,1.76,3.3,1.99,5.07,0.74c1.52-1.13,2.9-2.43,4.11-3.89
					c-0.27,0.81-0.31,1.67-0.12,2.5c0.69,2.44,4.49,2.65,6.04,1.24c0.87-0.83,1.61-1.79,2.18-2.85c-0.09,0.65-0.17,1.3-0.23,1.96
					c-0.28,2.81,1.21,1.8,2.64,0.25c1.36,1.68,4.31,2.23,6.76,1.21c6.38-2.66,12.54-8.8,18.15-12.84l18.6-13.37l12.92-9.29
					c2-1.44,4.06-2.93,5.34-5.03C228.54,203.46,228.89,200.57,227.41,198.6z M144.95,233.13c0.61,0.99,0.97,2.11,1.05,3.27
					c0.05,0.56,0.07,1.12,0.08,1.68c-0.44-1.07-0.76-2.19-0.96-3.33C145.05,234.22,145,233.67,144.95,233.13z"/>
			</g>
		</g>
	</g>
	<path id="Trazado_10190" class="st7" d="M33,193.46c0,0,52.19,40.82,116.47,40.82s95.81-21.05,127.53-41.75v44.98H33V193.46z"/>
</g>
</svg>
