<?xml version="1.0" encoding="utf-8"?>
<!-- Generator: Adobe Illustrator 23.0.3, SVG Export Plug-In . SVG Version: 6.00 Build 0)  -->
<svg version="1.1" id="Capa_1" xmlns="http://www.w3.org/2000/svg" xmlns:xlink="http://www.w3.org/1999/xlink" x="0px" y="0px"
	 viewBox="0 0 360 193.84" style="enable-background:new 0 0 360 193.84;" xml:space="preserve">
<style type="text/css">
	.st0{fill:#95E383;}
	.st1{fill:#FDD247;}
	.st2{fill:#D3EDEE;}
	.st3{fill:#B2EBF3;}
	.st4{fill:#FFFFFF;}
	.st5{fill:#E7CFFF;}
	.st6{fill:#6ACEF0;}
	.st7{fill:#F4A086;}
	.st8{fill:#004275;}
	.st9{fill:#F4B09A;}
	.st10{fill:#0071BC;}
	.st11{fill:#F45E32;}
	.st12{fill:#DF4223;}
	.st13{fill:#FED20F;}
	.st14{fill:#0396C8;}
	.st15{fill:#0A3C5F;}
</style>
<g>
	<path class="st0" d="M86.21,57.08c0.35,0,0.69,0.01,1.04,0.02c0.21-0.87,0.43-1.73,0.67-2.59h-11.1c-8.14,0-14.74-6.61-14.74-14.75
		c0-8.14,6.6-14.75,14.75-14.75h24.56c6.46-9.64,14.53-18.1,23.83-25H0l0,89.69C40.85,53.86,86.21,57.08,86.21,57.08z"/>
	<path class="st0" d="M245.39,0c24.78,18.39,40.85,47.87,40.85,81.1c0,0,0,0,0,0.01c0,16.17-3.81,31.44-10.57,44.99
		c8.05,1.38,16.23,2.15,24.5,2.15c39.37,0,59.83-10.71,59.83-10.71V0H245.39z"/>
	<path class="st0" d="M185.3,182.04c33.03,0,62.35-15.86,80.77-40.39l-178.4-34.84C99.04,150.11,138.44,182.04,185.3,182.04z"/>
	<path class="st0" d="M101.39,25h62.63c8.14,0,14.75,6.6,14.75,14.75c0,8.15-6.6,14.75-14.75,14.75c0,0,0,0,0,0h-76.1
		c-0.23,0.86-0.46,1.72-0.67,2.59c36.19,0.32,78.24,17.34,106.94,35.49c22.89,14.48,51.2,28.34,81.49,33.52
		c6.76-13.55,10.57-28.82,10.57-44.99c0,0,0,0,0-0.01c0-33.23-16.07-62.71-40.85-81.1H125.22C115.92,6.9,107.85,15.36,101.39,25z"/>
	<path class="st0" d="M194.19,92.58c-28.7-18.16-70.75-35.17-106.94-35.49c-1.88,7.7-2.88,15.74-2.88,24.01
		c0,8.88,1.15,17.5,3.31,25.71l178.4,34.84c3.65-4.86,6.87-10.07,9.61-15.55C245.39,120.92,217.08,107.06,194.19,92.58z"/>
	<path class="st0" d="M76.83,25c-8.14,0-14.75,6.6-14.75,14.75c0,8.14,6.6,14.75,14.74,14.75h11.1c2.9-10.63,7.49-20.57,13.47-29.5
		H76.83z"/>
	<path class="st0" d="M164.02,54.5c8.15,0,14.75-6.6,14.75-14.75c0-8.14-6.6-14.75-14.75-14.75h-62.63
		c-5.98,8.93-10.57,18.86-13.47,29.5H164.02C164.02,54.5,164.02,54.5,164.02,54.5z"/>
</g>
<g id="Grupo_10476_1_" transform="translate(193.648 126.926)">
	<path id="Trazado_5960_1_" class="st0" d="M53.02-32.63h51.85c-3.69-0.02-7.22,1.45-9.82,4.06c-2.61,2.45-4.08,5.87-4.08,9.44
		c0,7.48,6.06,13.55,13.54,13.55c0.12,0,0.24,0,0.36,0H53.02c7.25,0.4,13.46-5.15,13.87-12.4c0.02-0.29,0.02-0.59,0.02-0.88
		c0.03-7.58-6.09-13.74-13.67-13.76C53.17-32.64,53.1-32.63,53.02-32.63z"/>
</g>
<g id="Grupo_10478_1_" transform="translate(34.214 172.158)">
	<path id="Trazado_5962_1_" class="st0" d="M60.76-32.63h52.38c4.27,0,7.73,3.46,7.73,7.73c0,0,0,0,0,0l0,0
		c0,4.27-3.46,7.73-7.73,7.73H60.76c-4.27,0-7.73-3.46-7.73-7.73l0,0C53.02-29.17,56.48-32.63,60.76-32.63
		C60.76-32.63,60.76-32.63,60.76-32.63z"/>
</g>
<g id="Grupo_10479_1_" transform="translate(47.639 202.646)">
	<path id="Trazado_5963_1_" class="st0" d="M58.03-32.63h61.38c2.77,0,5.01,2.24,5.01,5.01c0,0,0,0,0,0l0,0
		c0,2.77-2.24,5.01-5.01,5.01c0,0,0,0,0,0H58.03c-2.77,0-5.01-2.24-5.01-5.01c0,0,0,0,0,0l0,0C53.02-30.39,55.27-32.63,58.03-32.63
		C58.03-32.63,58.03-32.63,58.03-32.63z"/>
</g>
<g id="Grupo_10480_1_" transform="translate(171.979 212.67)">
	<path id="Rectángulo_578_1_" class="st0" d="M69.26-22.61H56.17c-1.74,0-3.15-1.41-3.15-3.15v-3.73c0-1.74,1.41-3.15,3.15-3.15
		h13.09c1.74,0,3.15,1.41,3.15,3.15v3.73C72.41-24.02,71-22.61,69.26-22.61z"/>
</g>
<g id="Grupo_10481_1_" transform="translate(164.117 183.023)">
	<path id="Trazado_5964_1_" class="st0" d="M61.25-32.64h45.61c4.54,0,8.22,3.68,8.22,8.22c0,0,0,0,0,0l0,0
		c0,4.54-3.68,8.22-8.22,8.22H61.25c-4.54,0-8.22-3.68-8.22-8.22l0,0C53.02-28.96,56.7-32.64,61.25-32.64
		C61.24-32.64,61.25-32.64,61.25-32.64z"/>
</g>
<g id="Grupo_10482_1_" transform="translate(60.037 187.511)">
	<path id="Trazado_5965_1_" class="st0" d="M53.02-32.64h28.86c-2.06,0.02-4.03,0.86-5.47,2.34c-1.45,1.36-2.27,3.26-2.27,5.26
		c0,4.17,3.38,7.54,7.55,7.54c0.06,0,0.13,0,0.19,0H53.02c2.01,0.11,3.99-0.61,5.47-1.98c3.01-3,3.03-7.88,0.03-10.89
		C57.06-31.83,55.08-32.65,53.02-32.64z"/>
</g>
<g id="Grupo_10483_1_" transform="translate(159.302 99.208)">
	<path id="Trazado_5966_1_" class="st0" d="M66.91-32.63h74.41c7.67,0,13.89,6.22,13.89,13.89c0,0,0,0,0,0l0,0
		c0,7.67-6.22,13.89-13.89,13.89c0,0,0,0,0,0H66.91c-7.67,0-13.89-6.22-13.89-13.89c0,0,0,0,0,0l0,0
		C53.02-26.42,59.24-32.63,66.91-32.63z"/>
</g>
<g id="Grupo_10484_1_" transform="translate(137.691 153.972)">
	<path id="Trazado_5967_1_" class="st0" d="M62.03-32.63h110.25c4.97,0,9,4.03,9,9l0,0c0,4.97-4.03,9-9,9H62.03c-4.97,0-9-4.03-9-9
		l0,0l0,0C53.03-28.61,57.06-32.63,62.03-32.63z"/>
</g>
<g id="Grupo_10486_1_" transform="translate(0 129.889)">
	<path id="Trazado_5969_1_" class="st0" d="M200.33,9.99h-126c-11.77,0-21.31-9.54-21.31-21.31l0,0c0-11.77,9.54-21.31,21.31-21.31
		h126c11.77,0,21.31,9.54,21.31,21.31l0,0C221.64,0.45,212.1,9.99,200.33,9.99z"/>
</g>
<g id="Grupo_10487" transform="translate(137.282 29.721)">
	<path id="Trazado_5970_1_" class="st0" d="M146.12-20.87L146.12-20.87c0,6.5-5.27,11.76-11.76,11.77H64.79
		c-6.5,0-11.76-5.27-11.76-11.77l0,0"/>
</g>
<g id="leaves" transform="translate(0 0)">
	<g id="Grupo_14453" transform="translate(8.857 17.968)">
		<g id="Grupo_14451">
			<path id="Trazado_8332" class="st1" d="M103.44,81.64c0,0-3.69,2.12-6.4,1.21s-4.09-3.07-1.75-3.47
				C99.75,78.62,103.44,81.64,103.44,81.64z"/>
			<path id="Trazado_8333" class="st1" d="M103.44,81.64c0,0,2.93-3.08,2.7-5.93s-2-4.7-2.95-2.52
				C101.4,77.33,103.44,81.64,103.44,81.64z"/>
			<path id="Trazado_8334" class="st1" d="M96.39,73.19c0,0-4.22,0.52-6.37-1.37s-2.58-4.42-0.26-3.87
				C94.16,68.98,96.39,73.19,96.39,73.19z"/>
			<path id="Trazado_8335" class="st1" d="M96.38,73.19c0,0,3.9-1.7,4.79-4.41s-0.02-5.11-1.74-3.47
				C96.17,68.43,96.38,73.19,96.38,73.19z"/>
			<path id="Trazado_8336" class="st1" d="M94.28,65.98c0,0-3.92,0.93-6.15-0.62c-2.22-1.55-2.9-3.89-0.66-3.62
				C90.21,62.21,92.65,63.73,94.28,65.98z"/>
			<path id="Trazado_8337" class="st1" d="M94.28,65.98c0,0,3.49-1.52,4.29-3.95c0.8-2.43-0.02-4.57-1.55-3.1
				C95.21,60.84,94.23,63.37,94.28,65.98z"/>
			<path id="Trazado_8338" class="st1" d="M92.71,59.13c0,0-3.8,1.35-6.18,0.04s-3.3-3.56-1.04-3.53
				C88.26,55.82,90.85,57.08,92.71,59.13z"/>
			<path id="Trazado_8339" class="st1" d="M92.71,59.14c0,0,3.31-1.88,3.84-4.38s-0.51-4.55-1.88-2.92
				C93.09,53.92,92.38,56.54,92.71,59.14z"/>
			<path id="Trazado_8340" class="st1" d="M89,52.57c0,0-2.49,1.84-4.53,1.41s-3.22-1.87-1.55-2.36
				C84.99,51.14,87.17,51.48,89,52.57z"/>
			<path id="Trazado_8341" class="st1" d="M88.98,52.59c0,0,2.23-2.33,2.06-4.47s-1.52-3.52-2.24-1.88
				C88.02,48.3,88.09,50.58,88.98,52.59z"/>
			<path id="Trazado_8342" class="st1" d="M83.9,48.22c0,0-2.36,0.61-3.72-0.3s-1.8-2.32-0.44-2.18
				C81.39,45.99,82.89,46.88,83.9,48.22z"/>
			<path id="Trazado_8343" class="st1" d="M82.6,44.37c-0.78-0.53-1.43-1.23-1.9-2.04c-0.63-1.38,0.53-2.41,1.64-1.05
				C83.04,42.15,83.14,43.38,82.6,44.37z"/>
			<path id="Trazado_8344" class="st1" d="M83.87,48.23c0,0,2.11-0.95,2.56-2.42s-0.07-2.74-0.99-1.85
				C84.38,45.13,83.81,46.66,83.87,48.23z"/>
		</g>
		<g id="Grupo_14452" transform="translate(3.582 3.66)">
			<path id="Trazado_8345" class="st1" d="M115.11,87.41c-3.95-1.71-7.72-3.8-11.25-6.25c-5.27-3.67-11.79-9.61-12.95-17.03
				C88.85,50.91,86.25,49.36,83.96,48c-0.18-0.11-0.37-0.22-0.54-0.33c-2.61-1.65-4.47-4.54-4.5-7.03h0.15
				c0.03,2.44,1.86,5.28,4.43,6.91c0.18,0.11,0.36,0.22,0.54,0.33c2.32,1.38,4.95,2.95,7.03,16.24c1.15,7.37,7.64,13.27,12.88,16.93
				c3.53,2.44,7.29,4.53,11.22,6.23L115.11,87.41z"/>
		</g>
	</g>
	<path id="Trazado_8346" class="st2" d="M213.93,161.9c0,0,59.16-2.9,56.68-13.65c-1.59-6.88-12.17-0.48-13.33-5.35
		s28.13-7.14,22.96-21.51s-71.52,33.75-71.52,33.75L213.93,161.9z"/>
	<path id="Trazado_8347" class="st2" d="M146.21,161.56c0,0-59.16-2.9-56.68-13.65c1.59-6.88,12.17-0.48,13.33-5.35
		s-28.13-7.14-22.96-21.51s71.52,33.75,71.52,33.75L146.21,161.56z"/>
	<path id="Trazado_8348" class="st3" d="M111.82,155.67h137.83c11.99,0,20.28,1.86,20.28,5.78s-9.68,7.33-31.8,7.33
		s-14.31,3.23-52.3,3.23s-32.18-3.72-69.44-3.72c-20.21,0-23.9-2.44-23.9-6.84S105.79,155.67,111.82,155.67z"/>
	<g id="Grupo_14455" transform="translate(47.578)">
		<g id="Grupo_14454" transform="translate(10.096 10.131)">
			<path id="Trazado_8349" class="st4" d="M101.39,41c-12.21,0-22.11,9.9-22.11,22.11c0,12.21,9.9,22.11,22.11,22.11
				c12.21,0,22.11-9.9,22.11-22.11v0c0-12.21-9.89-22.1-22.09-22.11C101.4,41,101.39,41,101.39,41z M101.39,72.43
				c-5.15,0-9.32-4.17-9.32-9.32s4.17-9.32,9.32-9.32c5.15,0,9.32,4.17,9.32,9.32l0,0C110.7,68.25,106.53,72.43,101.39,72.43z"/>
			<path id="Trazado_8350" class="st2" d="M101.39,85.59c-12.41,0-22.48-10.06-22.48-22.48c0-12.41,10.06-22.48,22.48-22.48
				s22.48,10.06,22.48,22.48C123.85,75.52,113.8,85.57,101.39,85.59z M101.39,41.37c-12,0-21.73,9.73-21.73,21.73
				s9.73,21.74,21.73,21.74s21.73-9.73,21.73-21.73C123.11,51.11,113.39,41.39,101.39,41.37z M101.39,72.8
				c-5.35,0-9.69-4.34-9.69-9.69c0-5.35,4.34-9.69,9.69-9.69c5.35,0,9.69,4.34,9.69,9.69v0C111.07,68.46,106.74,72.79,101.39,72.8z
				 M101.39,54.16c-4.94,0-8.95,4.01-8.95,8.95s4.01,8.95,8.95,8.95c4.94,0,8.95-4.01,8.95-8.95
				C110.33,58.17,106.33,54.17,101.39,54.16L101.39,54.16z"/>
		</g>
		<path id="Trazado_8351" class="st2" d="M144.05,73.02c-0.1-1.35-0.18-2.69-0.28-4.04c-0.03-0.34-0.11-0.68-0.17-1.03
			c-2.1-0.07-4.14-0.14-6.17-0.19c-0.32-0.01-0.46-0.09-0.55-0.43c-0.42-1.87-1.05-3.69-1.89-5.42c-0.06-0.13-0.1-0.27-0.15-0.41
			c1.67-1.43,3.33-2.85,5.1-4.35c-0.99-1.43-1.97-2.81-2.95-4.21c-0.2-0.31-0.38-0.31-0.7-0.14c-1.68,0.93-3.38,1.84-5.06,2.76
			c-0.19,0.15-0.46,0.13-0.62-0.06c-0.01-0.01-0.02-0.02-0.02-0.03c-0.56-0.61-1.15-1.19-1.77-1.73c-0.95-0.81-1.94-1.56-2.94-2.36
			c0.72-2.04,1.46-4.1,2.23-6.29c-1.61-0.74-3.16-1.46-4.72-2.18c-0.26-0.12-0.4-0.07-0.56,0.19c-0.84,1.38-1.69,2.76-2.55,4.13
			c-0.24,0.4-0.49,0.8-0.71,1.15c-1.07-0.26-2.07-0.56-3.1-0.74s-2.07-0.27-3.1-0.43c-0.17-0.06-0.3-0.19-0.36-0.36
			c-0.13-0.54-0.21-1.09-0.31-1.63c-0.27-1.51-0.56-3.01-0.83-4.53c-0.17-0.01-0.3-0.04-0.43-0.03c-1.54,0.12-3.06,0.25-4.59,0.35
			c-0.47,0.03-0.57,0.22-0.58,0.65c-0.04,1.87-0.1,3.75-0.15,5.62c-0.01,0.31-0.06,0.48-0.41,0.56c-1.9,0.41-3.73,1.05-5.47,1.91
			c-0.2,0.14-0.48,0.1-0.62-0.1c-0.01-0.01-0.02-0.02-0.02-0.03c-0.78-0.95-1.59-1.88-2.38-2.82c-0.55-0.64-1.09-1.28-1.7-2
			c-1.55,1.06-3.08,2.1-4.6,3.15c1.09,2.03,2.13,3.96,3.14,5.85c-0.78,0.83-1.56,1.6-2.28,2.43s-1.36,1.72-2.04,2.62
			c-2.04-0.74-4.11-1.47-6.28-2.24c-0.82,1.7-1.62,3.36-2.42,5.02c0.26,0.17,0.39,0.26,0.54,0.35c1.6,0.99,3.21,1.97,4.81,2.99
			c0.16,0.11,0.26,0.29,0.27,0.48c-0.59,1.92-0.96,3.9-1.11,5.9c-0.05,0.17-0.19,0.31-0.36,0.37c-0.56,0.13-1.13,0.22-1.69,0.32
			c-1.49,0.27-2.97,0.55-4.57,0.84c0.14,1.86,0.29,3.7,0.43,5.56c2.32,0.07,4.5,0.13,6.56,0.2c0.75,2.14,1.47,4.2,2.22,6.32
			c-1.58,1.35-3.25,2.76-5,4.25c1.05,1.55,2.09,3.08,3.13,4.62c2.03-1.09,3.97-2.14,5.92-3.18c1.42,1.56,3.01,2.95,4.74,4.14
			c0.12,0.13,0.17,0.32,0.13,0.49c-0.17,0.57-0.4,1.15-0.6,1.71c-0.5,1.39-0.99,2.78-1.53,4.28c1.69,0.81,3.35,1.61,5.03,2.41
			c1.13-1.82,2.2-3.53,3.25-5.26c0.11-0.29,0.44-0.44,0.74-0.33c0.02,0.01,0.04,0.02,0.06,0.03c1.8,0.58,3.66,0.93,5.55,1.04
			c0.31,0.02,0.44,0.12,0.5,0.42c0.2,1.16,0.41,2.32,0.62,3.48c0.17,0.88,0.33,1.77,0.52,2.75c1.88-0.15,3.7-0.29,5.55-0.44
			c0.07-2.3,0.14-4.49,0.21-6.68c0.07-0.03,0.14-0.05,0.21-0.07c1.97-0.44,3.88-1.11,5.7-2c0.31-0.16,0.42,0,0.58,0.19
			c1.21,1.43,2.42,2.85,3.64,4.28c0.13,0.15,0.26,0.29,0.45,0.5c1.55-1.05,3.06-2.09,4.59-3.13c-1.08-2.03-2.12-3.96-3.15-5.89
			c0.04-0.06,0.09-0.12,0.14-0.17c1.49-1.37,2.82-2.92,3.94-4.6c0.16-0.25,0.33-0.22,0.55-0.14c1.05,0.39,2.12,0.76,3.18,1.15
			c0.9,0.32,1.8,0.63,2.78,0.98c0.82-1.7,1.61-3.37,2.41-5.02c-1.98-1.23-3.85-2.38-5.58-3.46c0.42-2.23,0.83-4.36,1.24-6.56
			c0.03-0.01,0.09-0.03,0.17-0.05c1.9-0.35,3.81-0.71,5.72-1.04C143.97,73.56,144.09,73.41,144.05,73.02z M111.48,93.7
			c-11.32,0-20.49-9.18-20.49-20.5c0-11.32,9.18-20.49,20.5-20.49c11.32,0,20.49,9.18,20.49,20.5
			C131.97,84.53,122.8,93.69,111.48,93.7L111.48,93.7z"/>
		<path id="Trazado_8352" class="st2" d="M111.48,56.4c-9.29,0-16.82,7.53-16.82,16.82s7.53,16.82,16.82,16.82
			c9.29,0,16.82-7.53,16.82-16.82C128.29,63.93,120.77,56.41,111.48,56.4z M111.49,86.34c-7.27-0.01-13.15-5.92-13.14-13.19
			c0.01-7.27,5.92-13.15,13.19-13.14c7.25,0.01,13.12,5.88,13.14,13.13C124.67,80.43,118.77,86.32,111.49,86.34z"/>
	</g>
	<g id="Grupo_14458" transform="translate(146.522 72.107)">
		<g id="Grupo_14456" transform="translate(17.422)">
			<path id="Trazado_8353" class="st1" d="M79.37,67.13c0,0,2.32,3.56,5.15,3.99s5.04-0.87,3.13-2.29
				C84.03,66.13,79.37,67.13,79.37,67.13z"/>
			<path id="Trazado_8354" class="st1" d="M79.37,67.13c0,0-1.21-4.08,0.3-6.51s3.93-3.28,3.78-0.9
				C83.15,64.24,79.37,67.13,79.37,67.13z"/>
			<path id="Trazado_8355" class="st1" d="M89.5,62.83c0,0,3.52,2.38,6.29,1.68c2.77-0.71,4.31-2.76,2-3.33
				C93.4,60.1,89.5,62.83,89.5,62.83z"/>
			<path id="Trazado_8356" class="st1" d="M89.5,62.83c0,0-2.7-3.28-2.26-6.11s2.34-4.54,3.13-2.3
				C91.86,58.69,89.5,62.83,89.5,62.83z"/>
			<path id="Trazado_8357" class="st1" d="M94.66,57.37c0,0,3.07,2.62,5.76,2.25s4.35-2.14,2.24-2.93
				C100,55.87,97.13,56.11,94.66,57.37z"/>
			<path id="Trazado_8358" class="st1" d="M94.66,57.38c0,0-2.42-2.94-2.02-5.47s2.1-4.07,2.8-2.05
				C96.17,52.37,95.89,55.07,94.66,57.38z"/>
			<path id="Trazado_8359" class="st1" d="M99.18,51.99c0,0,2.77,2.93,5.48,2.85s4.56-1.66,2.54-2.67
				C104.65,51.07,101.77,51.01,99.18,51.99z"/>
			<path id="Trazado_8360" class="st1" d="M99.18,52c0,0-2.09-3.18-1.42-5.65s2.52-3.82,3-1.74C101.21,47.18,100.65,49.83,99.18,52z
				"/>
			<path id="Trazado_8361" class="st1" d="M105.47,47.84c0,0,1.38,2.77,3.39,3.32s3.72-0.2,2.46-1.39
				C109.69,48.39,107.59,47.7,105.47,47.84z"/>
			<path id="Trazado_8362" class="st1" d="M105.47,47.86c0,0-0.93-3.09,0.2-4.92s2.96-2.44,2.85-0.65
				C108.28,44.48,107.19,46.48,105.47,47.86z"/>
			<path id="Trazado_8363" class="st1" d="M111.99,46.29c0,0,1.82,1.62,3.45,1.43s2.66-1.24,1.39-1.74
				C115.24,45.44,113.5,45.56,111.99,46.29z"/>
			<path id="Trazado_8364" class="st1" d="M114.91,43.45c0.94-0.11,1.83-0.44,2.63-0.95c1.19-0.94,0.62-2.39-0.98-1.68
				C115.52,41.28,114.87,42.32,114.91,43.45z"/>
			<path id="Trazado_8365" class="st1" d="M112.02,46.32c0,0-1.44-1.81-1.18-3.32s1.31-2.41,1.72-1.19
				C112.98,43.32,112.78,44.94,112.02,46.32z"/>
		</g>
		<g id="Grupo_14457" transform="translate(0 2.673)">
			<path id="Trazado_8366" class="st1" d="M83.03,66.18c-2.49,0-4.09-0.14-4.12-0.14l0.04-0.42c4.27,0.28,8.56,0.13,12.81-0.43
				c6.3-0.86,14.73-3.15,19.08-9.14c7.94-10.93,11.03-11.13,13.75-11.31c0.21-0.01,0.42-0.03,0.63-0.05
				c2.99-0.27,5.86-1.94,6.98-4.06l0.37,0.2c-1.19,2.24-4.19,4-7.32,4.28c-0.21,0.02-0.42,0.03-0.64,0.05
				c-2.63,0.17-5.62,0.36-13.44,11.14c-4.44,6.12-12.99,8.44-19.38,9.31C88.9,66,85.97,66.19,83.03,66.18z"/>
		</g>
	</g>
	<g id="Grupo_14459" transform="translate(108.063 7.884)">
		<path id="Trazado_8367" class="st2" d="M137.3,69.66c-0.09-1.21-0.16-2.41-0.25-3.62c-0.03-0.3-0.1-0.61-0.15-0.92
			c-1.88-0.06-3.71-0.13-5.53-0.17c-0.29-0.01-0.41-0.08-0.49-0.39c-0.37-1.68-0.94-3.31-1.69-4.86c-0.05-0.12-0.09-0.24-0.14-0.37
			c1.5-1.28,2.99-2.55,4.57-3.9c-0.89-1.28-1.77-2.52-2.64-3.78c-0.19-0.28-0.35-0.28-0.63-0.13c-1.51,0.84-3.03,1.65-4.54,2.47
			c-0.17,0.14-0.42,0.11-0.56-0.07c0-0.01-0.01-0.01-0.01-0.02c-0.5-0.54-1.03-1.06-1.58-1.55c-0.85-0.72-1.74-1.4-2.63-2.12
			c0.65-1.83,1.31-3.68,2-5.64c-1.44-0.67-2.83-1.31-4.23-1.95c-0.23-0.11-0.36-0.06-0.5,0.16c-0.75,1.24-1.52,2.47-2.29,3.7
			c-0.22,0.36-0.44,0.72-0.64,1.03c-0.96-0.24-1.86-0.5-2.78-0.67s-1.85-0.24-2.79-0.39c-0.15-0.05-0.27-0.17-0.32-0.32
			c-0.12-0.48-0.19-0.98-0.28-1.47c-0.24-1.35-0.5-2.7-0.74-4.06c-0.13-0.02-0.26-0.02-0.39-0.02c-1.38,0.11-2.74,0.23-4.12,0.31
			c-0.42,0.03-0.51,0.2-0.52,0.58c-0.03,1.68-0.09,3.36-0.14,5.04c-0.01,0.28-0.06,0.43-0.37,0.5c-1.7,0.36-3.35,0.94-4.9,1.71
			c-0.18,0.13-0.43,0.09-0.56-0.09c-0.01-0.01-0.01-0.02-0.02-0.03c-0.7-0.85-1.42-1.69-2.13-2.53c-0.49-0.57-0.98-1.15-1.53-1.79
			c-1.39,0.95-2.76,1.88-4.12,2.83c0.97,1.82,1.91,3.55,2.82,5.24c-0.7,0.74-1.4,1.43-2.04,2.18s-1.21,1.54-1.83,2.35
			c-1.83-0.66-3.69-1.32-5.62-2.01c-0.74,1.53-1.45,3.01-2.17,4.5c0.23,0.15,0.34,0.24,0.48,0.31c1.44,0.89,2.88,1.77,4.31,2.68
			c0.14,0.1,0.23,0.26,0.24,0.43c-0.53,1.72-0.87,3.49-1,5.29c-0.05,0.15-0.17,0.28-0.32,0.33c-0.5,0.12-1.01,0.19-1.52,0.29
			l-4.1,0.75c0.13,1.67,0.26,3.32,0.39,4.99c2.08,0.06,4.03,0.12,5.88,0.17c0.68,1.92,1.31,3.77,1.99,5.67
			c-1.42,1.21-2.91,2.48-4.48,3.81c0.94,1.39,1.87,2.76,2.81,4.14c1.82-0.98,3.56-1.92,5.31-2.85c1.27,1.4,2.7,2.65,4.25,3.71
			c0.11,0.12,0.16,0.28,0.12,0.43c-0.15,0.52-0.35,1.03-0.53,1.54c-0.45,1.25-0.89,2.5-1.37,3.84c1.52,0.73,3,1.44,4.51,2.16
			c1.01-1.63,1.97-3.17,2.91-4.71c0.1-0.26,0.4-0.4,0.66-0.29c0.02,0.01,0.04,0.02,0.05,0.02c1.61,0.52,3.29,0.83,4.98,0.94
			c0.28,0.02,0.4,0.11,0.44,0.38c0.18,1.04,0.37,2.08,0.56,3.12c0.15,0.79,0.3,1.58,0.47,2.46c1.69-0.14,3.31-0.26,4.97-0.4
			c0.07-2.06,0.13-4.02,0.2-5.99c0.06-0.03,0.12-0.05,0.18-0.06c1.77-0.4,3.49-1,5.11-1.79c0.28-0.14,0.38,0,0.52,0.17
			c1.08,1.28,2.17,2.56,3.26,3.84c0.12,0.14,0.23,0.26,0.4,0.45c1.39-0.95,2.74-1.87,4.12-2.8c-0.97-1.82-1.9-3.55-2.82-5.28
			c0.04-0.06,0.08-0.11,0.13-0.15c1.34-1.23,2.53-2.61,3.54-4.12c0.14-0.22,0.29-0.2,0.5-0.13c0.94,0.34,1.9,0.68,2.85,1.03
			c0.81,0.29,1.61,0.57,2.5,0.88c0.73-1.53,1.44-3.02,2.16-4.51c-1.78-1.11-3.45-2.14-5-3.1c0.38-2,0.74-3.91,1.11-5.88
			c0.03-0.01,0.09-0.03,0.15-0.04c1.71-0.31,3.42-0.64,5.13-0.93C137.23,70.15,137.33,70.01,137.3,69.66z M108.11,88.2
			c-10.14,0-18.37-8.23-18.36-18.37c0-10.14,8.23-18.37,18.37-18.36c10.14,0,18.37,8.23,18.36,18.37c0,0,0,0,0,0
			C126.47,79.98,118.25,88.19,108.11,88.2L108.11,88.2z"/>
		<path id="Trazado_8368" class="st2" d="M108.11,54.76c-8.33,0-15.07,6.75-15.07,15.07c0,8.33,6.75,15.07,15.07,15.07
			c8.33,0,15.07-6.75,15.07-15.07c0,0,0,0,0,0C123.17,61.52,116.43,54.77,108.11,54.76z M108.11,81.6
			c-6.52-0.01-11.79-5.3-11.78-11.82c0.01-6.52,5.3-11.79,11.82-11.78c6.5,0.01,11.77,5.27,11.78,11.77
			C119.93,76.3,114.64,81.59,108.11,81.6L108.11,81.6z"/>
	</g>
	<g id="Grupo_14470" transform="translate(60.285 27.203)">
		<g id="Grupo_14461">
			<path id="Trazado_8369" class="st1" d="M86.94,40.95c56.79,34.35,51.04,62.85,41.91,77.3c-4.77,7.52-13.95,10.98-22.5,8.46
				C89.95,121.85,66.85,104.21,86.94,40.95z"/>
			<g id="Grupo_14460">
				<path id="Trazado_8370" class="st4" d="M111.95,127.73c-1.92,0-3.83-0.28-5.67-0.82c-4.17-1.21-8.1-3.12-11.63-5.66
					c-4.27-3.13-7.77-7.2-10.23-11.89c-8.07-15.21-7.29-38.24,2.31-68.47l0.08-0.26l0.23,0.14c27.14,16.42,42.9,33.23,46.85,49.99
					c1.24,5.15,1.29,10.51,0.14,15.68c-0.98,4.23-2.67,8.26-5.02,11.92C125.31,124.19,118.87,127.73,111.95,127.73z M87.05,41.27
					c-9.49,29.99-10.24,52.83-2.26,67.89c4.53,8.49,12.33,14.76,21.6,17.35c8.46,2.48,17.53-0.94,22.26-8.37
					c5.27-8.05,7.01-17.91,4.82-27.28C129.58,74.26,113.96,57.58,87.05,41.27L87.05,41.27z"/>
			</g>
		</g>
		<g id="Grupo_14469" transform="translate(0.19 0.128)">
			<g id="Grupo_14462" transform="translate(7.649)">
				<path id="Trazado_8371" class="st5" d="M79.1,40.82l31.04,82.56L79.1,40.82z"/>
				<path id="Trazado_8372" class="st4" d="M110.14,123.57c-0.08,0-0.15-0.05-0.18-0.12L78.92,40.89c-0.03-0.1,0.02-0.21,0.12-0.24
					c0.09-0.03,0.19,0.02,0.23,0.1l31.04,82.56c0.04,0.1-0.01,0.21-0.11,0.24C110.19,123.56,110.16,123.57,110.14,123.57
					L110.14,123.57z"/>
			</g>
			<g id="Grupo_14463" transform="translate(1.021 55.806)">
				<path id="Trazado_8373" class="st5" d="M79.1,40.82l33.87,16.64L79.1,40.82z"/>
				<path id="Trazado_8374" class="st4" d="M112.97,57.65c-0.03,0-0.06-0.01-0.08-0.02L79.02,40.99c-0.1-0.04-0.14-0.15-0.1-0.25
					s0.15-0.14,0.25-0.1c0,0,0.01,0,0.01,0.01l33.87,16.64c0.09,0.05,0.13,0.16,0.09,0.25C113.1,57.61,113.04,57.65,112.97,57.65
					L112.97,57.65z"/>
			</g>
			<g id="Grupo_14464" transform="translate(33.783 35.853)">
				<path id="Trazado_8375" class="st5" d="M79.1,74.47l14.56-33.65L79.1,74.47z"/>
				<path id="Trazado_8376" class="st4" d="M79.1,74.66c-0.03,0-0.05-0.01-0.07-0.02c-0.1-0.04-0.14-0.15-0.1-0.25c0,0,0,0,0,0
					l14.56-33.65c0.04-0.1,0.15-0.14,0.25-0.1s0.14,0.15,0.1,0.25l0,0L79.27,74.54C79.24,74.61,79.17,74.66,79.1,74.66z"/>
			</g>
			<g id="Grupo_14465" transform="translate(0 37.402)">
				<path id="Trazado_8377" class="st5" d="M79.1,40.82l26.25,12.06L79.1,40.82z"/>
				<path id="Trazado_8378" class="st4" d="M105.35,53.07c-0.03,0-0.05-0.01-0.08-0.02L79.02,40.99c-0.09-0.05-0.13-0.16-0.09-0.25
					c0.04-0.09,0.15-0.13,0.25-0.09l26.25,12.06c0.09,0.04,0.14,0.16,0.09,0.25C105.49,53.03,105.42,53.07,105.35,53.07
					L105.35,53.07z"/>
			</g>
			<g id="Grupo_14466" transform="translate(24.38 23.068)">
				<path id="Trazado_8379" class="st5" d="M79.1,62.25l13.64-21.43L79.1,62.25z"/>
				<path id="Trazado_8380" class="st4" d="M79.1,62.44c-0.1,0-0.19-0.09-0.19-0.19c0-0.04,0.01-0.07,0.03-0.1l13.64-21.43
					c0.07-0.08,0.19-0.09,0.27-0.03c0.07,0.05,0.09,0.15,0.05,0.23L79.26,62.35C79.23,62.4,79.17,62.44,79.1,62.44z"/>
			</g>
			<g id="Grupo_14467" transform="translate(2.792 17.994)">
				<path id="Trazado_8381" class="st5" d="M94.47,50.78L79.1,40.82L94.47,50.78z"/>
				<path id="Trazado_8382" class="st4" d="M94.47,50.97c-0.04,0-0.07-0.01-0.1-0.03L79,40.98c-0.09-0.05-0.13-0.17-0.08-0.26
					c0.05-0.09,0.17-0.13,0.26-0.08c0.01,0,0.02,0.01,0.02,0.02l15.37,9.95c0.09,0.06,0.11,0.18,0.06,0.26
					C94.59,50.93,94.54,50.96,94.47,50.97L94.47,50.97z"/>
			</g>
			<g id="Grupo_14468" transform="translate(17.397 10.776)">
				<path id="Trazado_8383" class="st5" d="M79.1,55.97l6.35-15.15L79.1,55.97z"/>
				<path id="Trazado_8384" class="st4" d="M79.1,56.16c-0.1,0-0.19-0.09-0.19-0.19c0-0.02,0.01-0.05,0.01-0.07l6.35-15.15
					c0.04-0.1,0.15-0.15,0.24-0.11s0.15,0.15,0.11,0.24c0,0.01,0,0.01-0.01,0.02l-6.35,15.15C79.25,56.11,79.18,56.16,79.1,56.16z"
					/>
			</g>
		</g>
	</g>
	<g id="Grupo_14481" transform="translate(73.675 27.523)">
		<g id="Grupo_14472" transform="translate(0 0.007)">
			<path id="Trazado_8385" class="st3" d="M141.53,40.85c15.69,75.71-13.2,93.4-32.77,97.05c-10.21,1.89-20.43-3.21-25.06-12.5
				C74.85,107.56,71.6,73.85,141.53,40.85z"/>
			<g id="Grupo_14471">
				<path id="Trazado_8386" class="st4" d="M104.53,138.44c-8.88-0.01-17-5.03-20.97-12.98c-2.27-4.51-3.75-9.37-4.38-14.38
					c-0.71-6.11-0.01-12.31,2.04-18.11c6.58-18.92,26.85-36.5,60.24-52.25l0.17-0.08l0.04,0.18c7.49,36.15,5.63,62.92-5.52,79.55
					c-3.4,5.13-7.93,9.42-13.24,12.52c-4.38,2.51-9.15,4.26-14.12,5.15C107.38,138.31,105.96,138.44,104.53,138.44z M141.42,41.06
					c-33.22,15.7-53.38,33.2-59.92,52c-3.67,10.62-2.83,22.28,2.32,32.27c4.61,9.22,14.76,14.29,24.9,12.42
					c11.08-1.89,20.9-8.23,27.18-17.55C147,103.67,148.85,77.04,141.42,41.06L141.42,41.06z"/>
			</g>
		</g>
		<g id="Grupo_14480" transform="translate(9.497)">
			<g id="Grupo_14473" transform="translate(7.024)">
				<path id="Trazado_8387" class="st5" d="M125.01,40.85L79.14,132.8L125.01,40.85z"/>
				<path id="Trazado_8388" class="st4" d="M79.13,133.02c-0.12,0-0.22-0.1-0.22-0.22c0-0.04,0.01-0.07,0.02-0.1l45.88-91.95
					c0.06-0.11,0.19-0.16,0.3-0.1s0.16,0.19,0.1,0.3L79.33,132.9C79.29,132.98,79.22,133.02,79.13,133.02z"/>
			</g>
			<g id="Grupo_14474" transform="translate(0 38.581)">
				<path id="Trazado_8389" class="st5" d="M79.13,40.85l12.64,42.1L79.13,40.85z"/>
				<path id="Trazado_8390" class="st4" d="M91.78,83.18c-0.1,0-0.18-0.06-0.21-0.16l-12.64-42.1c-0.04-0.12,0.03-0.24,0.15-0.28
					c0.12-0.04,0.24,0.03,0.28,0.15l0,0l12.64,42.1c0.03,0.12-0.03,0.24-0.15,0.28C91.82,83.18,91.8,83.18,91.78,83.18L91.78,83.18z
					"/>
			</g>
			<g id="Grupo_14475" transform="translate(14.279 63.164)">
				<path id="Trazado_8391" class="st5" d="M79.13,55.1l40.27-14.24L79.13,55.1z"/>
				<path id="Trazado_8392" class="st4" d="M79.13,55.32c-0.12,0-0.22-0.1-0.22-0.22c0-0.1,0.06-0.18,0.15-0.21l40.27-14.24
					c0.12-0.04,0.24,0.02,0.28,0.13s-0.02,0.24-0.13,0.28L79.21,55.31C79.18,55.31,79.16,55.32,79.13,55.32z"/>
			</g>
			<g id="Grupo_14476" transform="translate(14.904 23.119)">
				<path id="Trazado_8393" class="st5" d="M79.13,40.85l10.51,31.97L79.13,40.85z"/>
				<path id="Trazado_8394" class="st4" d="M89.64,73.04c-0.1,0-0.18-0.06-0.21-0.15L78.92,40.92c-0.04-0.12,0.03-0.24,0.14-0.28
					s0.24,0.03,0.28,0.14l0,0l10.51,31.97c0.04,0.12-0.03,0.24-0.14,0.28C89.69,73.04,89.67,73.04,89.64,73.04L89.64,73.04z"/>
			</g>
			<g id="Grupo_14477" transform="translate(28.174 44.217)">
				<path id="Trazado_8395" class="st5" d="M79.13,46.19l29.11-5.34L79.13,46.19z"/>
				<path id="Trazado_8396" class="st4" d="M79.13,46.42c-0.12,0-0.22-0.09-0.23-0.22c0-0.11,0.08-0.2,0.19-0.22l29.11-5.34
					c0.12-0.02,0.24,0.06,0.26,0.18c0.02,0.12-0.06,0.24-0.18,0.26l-29.11,5.34C79.16,46.41,79.15,46.42,79.13,46.42z"/>
			</g>
			<g id="Grupo_14478" transform="translate(33.687 10.118)">
				<path id="Trazado_8397" class="st5" d="M82.81,61.86l-3.68-21.01L82.81,61.86z"/>
				<path id="Trazado_8398" class="st4" d="M82.81,62.08c-0.11,0-0.2-0.08-0.22-0.18l-3.68-21.01c-0.02-0.12,0.06-0.24,0.18-0.26
					c0.12-0.02,0.23,0.06,0.26,0.18l0,0l3.68,21.01c0.02,0.12-0.06,0.23-0.18,0.26c0,0,0,0,0,0C82.84,62.08,82.83,62.08,82.81,62.08
					z"/>
			</g>
			<g id="Grupo_14479" transform="translate(38.494 22.288)">
				<path id="Trazado_8399" class="st5" d="M79.13,47.44l17.97-6.58L79.13,47.44z"/>
				<path id="Trazado_8400" class="st4" d="M79.13,47.66c-0.12,0-0.22-0.1-0.22-0.22c0-0.09,0.06-0.18,0.15-0.21l17.97-6.59
					c0.11-0.04,0.24,0.01,0.29,0.13c0.04,0.11-0.01,0.24-0.13,0.29c0,0,0,0-0.01,0l-17.97,6.59C79.18,47.66,79.16,47.66,79.13,47.66
					z"/>
			</g>
		</g>
	</g>
	<g id="Grupo_14499" transform="translate(122.721 30.638)">
		<g id="Grupo_14482">
			<path id="Trazado_8401" class="st4" d="M87.97,118.28c-4.18-3.79-6.27-6.71-7.92-11.79c-3.59-11.02,3.94-13.95,7.83-14.48
				c8.37-1.16-3.65-14.42,6.34-20.18c7.84-4.52,14.11,1.32,18.82-1.03c6.83-3.4,2.19-10.08,6.12-14.65
				c8.2-9.53,13.29,2.33,19.09-4.36s14.46-13.83,18.93-9.77s-1.8,13.37-7.9,19.79s3.92,8.58-2.5,19.42
				c-4.52,7.65-14.1,1.94-16.83,9.07c-1.88,4.92,7.37,9.04,3.63,17.28c-4.76,10.5-19.13-0.18-19.47,8.27
				c-0.16,3.92-2.35,11.7-13.66,9.19C95.26,123.87,92.15,122.07,87.97,118.28z"/>
			<path id="Trazado_8402" class="st6" d="M104.55,125.71c-1.39-0.01-2.77-0.18-4.13-0.49c-5.05-1.12-8.23-2.83-12.59-6.79l0,0
				c-4.36-3.96-6.37-6.95-7.98-11.87c-1.38-4.25-1.26-7.71,0.36-10.3c2.09-3.34,6.03-4.21,7.63-4.43c0.93-0.05,1.81-0.48,2.41-1.2
				c0.96-1.32,0.57-3.56,0.12-6.16c-0.75-4.31-1.68-9.66,3.74-12.79c4.58-2.64,8.59-1.8,12.13-1.07c2.56,0.53,4.77,0.99,6.7,0.03
				c3.81-1.9,3.95-4.81,4.1-7.89c0.11-2.31,0.23-4.71,1.96-6.71c4.54-5.28,8.21-4.1,11.44-3.05c2.73,0.88,5.09,1.64,7.65-1.31
				c2.16-2.49,9.68-10.66,15.53-11.01c2.64-0.25,4.99,1.69,5.24,4.33c0.01,0.15,0.02,0.3,0.02,0.45c0.22,5.86-7.19,14.13-9.46,16.52
				c-2.81,2.96-2.11,4.94-1.23,7.44c0.97,2.75,2.18,6.17-1.24,11.94c-2.33,3.95-6.06,4.42-9.34,4.84c-3.31,0.42-6.17,0.78-7.48,4.2
				c-0.77,2.01,0.42,3.9,1.79,6.08c1.89,3,4.02,6.4,1.84,11.21c-2.59,5.7-8.01,5.29-12.37,4.96c-2.63-0.2-4.9-0.37-6.12,0.72
				c-0.66,0.67-1.01,1.58-0.96,2.51c-0.07,1.61-0.56,5.62-3.68,8.02C108.88,125.15,106.73,125.8,104.55,125.71z M100.8,70.25
				c-2.28-0.01-4.52,0.59-6.48,1.75c-5.19,2.99-4.32,7.98-3.55,12.38c0.47,2.68,0.87,5-0.19,6.46c-0.66,0.81-1.63,1.3-2.67,1.36
				c-1.54,0.21-5.35,1.06-7.35,4.26c-1.56,2.49-1.67,5.84-0.32,9.98c1.58,4.85,3.56,7.8,7.87,11.7s7.44,5.6,12.41,6.7
				c4.24,0.94,7.57,0.51,9.9-1.28c2.99-2.3,3.46-6.17,3.53-7.73c-0.04-1.04,0.36-2.06,1.1-2.79c1.35-1.2,3.69-1.02,6.41-0.81
				c4.46,0.34,9.51,0.72,11.98-4.73c2.1-4.62,0.02-7.93-1.81-10.84c-1.37-2.18-2.66-4.23-1.82-6.43c1.39-3.64,4.5-4.03,7.79-4.45
				c3.35-0.42,6.81-0.86,9.05-4.65c3.32-5.62,2.2-8.8,1.21-11.61c-0.89-2.53-1.66-4.71,1.31-7.84c2.25-2.37,9.56-10.53,9.35-16.23
				c0-2.44-1.97-4.42-4.4-4.42c-0.15,0-0.29,0.01-0.44,0.02c-5.7,0.34-13.12,8.41-15.25,10.88c-2.73,3.15-5.32,2.31-8.06,1.43
				c-3.27-1.06-6.65-2.15-11.03,2.93c-1.64,1.9-1.75,4.23-1.86,6.47c-0.15,3.06-0.31,6.22-4.32,8.22c-2.06,1.02-4.33,0.55-6.96,0
				C104.42,70.55,102.62,70.3,100.8,70.25L100.8,70.25z"/>
		</g>
		<g id="Grupo_14498" transform="translate(6.604 0.72)">
			<g id="Grupo_14483" transform="translate(2.618 0.529)">
				<path id="Trazado_8403" class="st4" d="M79.05,117.31l68.92-76.55L79.05,117.31z"/>
				
					<rect id="Rectángulo_1729" x="62.01" y="78.84" transform="matrix(0.669 -0.7432 0.7432 0.669 -21.1757 110.5248)" class="st6" width="103" height="0.39"/>
			</g>
			<g id="Grupo_14484" transform="translate(0 51.037)">
				<path id="Trazado_8404" class="st4" d="M79.06,40.76L91.4,55.89L79.06,40.76z"/>
				
					<rect id="Rectángulo_1730" x="85.03" y="38.56" transform="matrix(0.7752 -0.6317 0.6317 0.7752 -11.3671 64.7006)" class="st6" width="0.39" height="19.52"/>
			</g>
			<g id="Grupo_14485" transform="translate(14.525 28.68)">
				<path id="Trazado_8405" class="st4" d="M79.1,40.67l5.44,29.18L79.1,40.67z"/>
				
					<rect id="Rectángulo_1731" x="81.63" y="40.42" transform="matrix(0.9831 -0.1832 0.1832 0.9831 -8.7385 15.9263)" class="st6" width="0.39" height="29.68"/>
			</g>
			<g id="Grupo_14486" transform="translate(27.065 29.49)">
				<path id="Trazado_8406" class="st4" d="M79.09,40.72l6.53,13.15L79.09,40.72z"/>
				
					<rect id="Rectángulo_1732" x="82.15" y="39.95" transform="matrix(0.8958 -0.4445 0.4445 0.8958 -12.4404 41.5383)" class="st6" width="0.39" height="14.68"/>
			</g>
			<g id="Grupo_14487" transform="translate(37.681 11.427)">
				<path id="Trazado_8407" class="st4" d="M79.1,40.67l4.32,21.93L79.1,40.67z"/>
				
					<rect id="Rectángulo_1733" x="81.06" y="40.46" transform="matrix(0.9812 -0.1931 0.1931 0.9812 -8.4398 16.659)" class="st6" width="0.39" height="22.35"/>
			</g>
			<g id="Grupo_14488" transform="translate(59.296 0)">
				<path id="Trazado_8408" class="st4" d="M85.19,40.71l-6.1,14.14L85.19,40.71z"/>
				
					<rect id="Rectángulo_1734" x="74.44" y="47.58" transform="matrix(0.396 -0.9183 0.9183 0.396 5.7393 104.2849)" class="st6" width="15.4" height="0.39"/>
			</g>
			<g id="Grupo_14489" transform="translate(50.033 12.255)">
				<path id="Trazado_8409" class="st4" d="M79.1,40.68l2.55,9.33L79.1,40.68z"/>
				
					<rect id="Rectángulo_1735" x="80.18" y="40.51" transform="matrix(0.9648 -0.2631 0.2631 0.9648 -9.101 22.7485)" class="st6" width="0.39" height="9.68"/>
			</g>
			<g id="Grupo_14490" transform="translate(8.714 70.388)">
				<path id="Trazado_8410" class="st4" d="M78.96,40.82l19.69,5.5L78.96,40.82z"/>
				
					<rect id="Rectángulo_1736" x="88.61" y="33.35" transform="matrix(0.269 -0.9631 0.9631 0.269 22.9511 117.3789)" class="st6" width="0.39" height="20.44"/>
			</g>
			<g id="Grupo_14491" transform="translate(17.127 60.996)">
				<path id="Trazado_8411" class="st4" d="M78.97,40.82l27.5,8.9L78.97,40.82z"/>
				
					<rect id="Rectángulo_1737" x="92.52" y="30.82" transform="matrix(0.3081 -0.9513 0.9513 0.3081 21.081 119.525)" class="st6" width="0.39" height="28.89"/>
			</g>
			<g id="Grupo_14492" transform="translate(25.181 52.035)">
				<path id="Trazado_8412" class="st4" d="M78.97,40.82l22.92,6.87L78.97,40.82z"/>
				
					<rect id="Rectángulo_1738" x="90.23" y="32.29" transform="matrix(0.287 -0.9579 0.9579 0.287 22.0858 118.1764)" class="st6" width="0.39" height="23.93"/>
			</g>
			<g id="Grupo_14493" transform="translate(31.058 45.624)">
				<path id="Trazado_8413" class="st4" d="M78.93,40.83l14.3,1.45L78.93,40.83z"/>
				
					<rect id="Rectángulo_1739" x="85.89" y="34.36" transform="matrix(0.101 -0.9949 0.9949 0.101 36.049 122.9985)" class="st6" width="0.39" height="14.38"/>
			</g>
			<g id="Grupo_14494" transform="translate(39.199 36.509)">
				<path id="Trazado_8414" class="st4" d="M78.95,40.82l20.87,4.76L78.95,40.82z"/>
				
					<rect id="Rectángulo_1740" x="89.19" y="32.5" transform="matrix(0.2224 -0.975 0.975 0.2224 27.3904 120.7471)" class="st6" width="0.39" height="21.41"/>
			</g>
			<g id="Grupo_14495" transform="translate(44.589 30.612)">
				<path id="Trazado_8415" class="st4" d="M78.91,40.83h18.73H78.91z"/>
				<rect id="Rectángulo_1741" x="78.91" y="40.63" class="st6" width="18.73" height="0.39"/>
			</g>
			<g id="Grupo_14496" transform="translate(54.817 17.068)">
				<path id="Trazado_8416" class="st4" d="M78.95,42.93l11.76-2.11L78.95,42.93z"/>
				
					<rect id="Rectángulo_1742" x="78.85" y="41.68" transform="matrix(0.9843 -0.1763 0.1763 0.9843 -6.0543 15.6104)" class="st6" width="11.95" height="0.39"/>
			</g>
			<g id="Grupo_14497" transform="translate(61.615 7.684)">
				<path id="Trazado_8417" class="st4" d="M78.98,44.71l10.79-3.9L78.98,44.71z"/>
				
					<rect id="Rectángulo_1743" x="78.64" y="42.57" transform="matrix(0.9405 -0.3399 0.3399 0.9405 -9.5126 31.2245)" class="st6" width="11.47" height="0.39"/>
			</g>
		</g>
	</g>
	<g id="Grupo_14517" transform="translate(0 32.742)">
		<g id="Grupo_14500">
			<path id="Trazado_8418" class="st4" d="M148.21,119.74c4.26-3.7,6.42-6.57,8.18-11.61c3.83-10.93-3.63-14.03-7.5-14.66
				c-8.34-1.35,3.97-14.34-5.89-20.32c-7.74-4.69-14.14,1-18.8-1.45c-6.75-3.55-1.97-10.13-5.79-14.78
				c-7.98-9.71-13.34,2.03-18.99-4.79S85.27,37.98,80.71,41.94s1.5,13.41,7.45,19.96s-4.11,8.49,2.06,19.47
				c4.35,7.74,14.06,2.25,16.62,9.44c1.77,4.96-7.57,8.87-4.02,17.2c4.53,10.6,19.13,0.25,19.28,8.7
				c0.07,3.93,2.09,11.75,13.45,9.49C140.8,125.16,143.94,123.43,148.21,119.74z"/>
			<path id="Trazado_8419" class="st6" d="M131.8,126.8c-2.3,0.1-4.56-0.6-6.39-1.99c-3.07-2.47-3.47-6.49-3.5-8.1
				c0.06-0.93-0.27-1.85-0.91-2.53c-1.2-1.11-3.47-0.99-6.1-0.85c-4.36,0.23-9.8,0.52-12.26-5.24c-2.08-4.86,0.14-8.21,2.09-11.17
				c1.42-2.15,2.65-4.01,1.92-6.04c-1.23-3.44-4.08-3.87-7.38-4.36c-3.27-0.49-6.98-1.05-9.23-5.04c-3.29-5.85-2.01-9.24-0.97-11.97
				c0.94-2.48,1.68-4.45-1.06-7.47c-2.22-2.44-9.44-10.87-9.09-16.73c0.06-2.65,2.27-4.75,4.92-4.69c0.15,0,0.3,0.01,0.45,0.03
				c5.84,0.48,13.17,8.81,15.28,11.36c2.49,3.01,4.87,2.3,7.61,1.48c3.26-0.97,6.95-2.08,11.37,3.31c1.68,2.04,1.74,4.44,1.81,6.75
				c0.08,3.08,0.16,6,3.93,7.98c1.91,1.01,4.13,0.6,6.7,0.12c3.55-0.66,7.58-1.4,12.1,1.34c5.35,3.25,4.3,8.58,3.46,12.87
				c-0.51,2.59-0.95,4.82-0.02,6.16c0.58,0.73,1.45,1.19,2.38,1.26c1.59,0.26,5.51,1.22,7.53,4.6c1.56,2.63,1.61,6.1,0.13,10.31
				c-1.71,4.88-3.79,7.83-8.24,11.69s-7.66,5.5-12.74,6.51C134.34,126.65,133.07,126.79,131.8,126.8z M117.32,112.84
				c1.66,0,3.04,0.21,3.95,1.05c0.72,0.75,1.1,1.77,1.03,2.82c0.03,1.56,0.41,5.43,3.35,7.8c2.29,1.84,5.6,2.35,9.87,1.5
				c5-0.99,8.17-2.61,12.56-6.42s6.44-6.72,8.13-11.53c1.44-4.1,1.4-7.46-0.1-9.98c-1.93-3.24-5.71-4.17-7.25-4.42
				c-1.04-0.08-2-0.6-2.64-1.42c-1.03-1.48-0.57-3.79-0.05-6.46c0.86-4.39,1.84-9.36-3.28-12.46c-4.39-2.66-8.34-1.93-11.83-1.29
				c-2.64,0.49-4.92,0.91-6.96-0.16c-3.97-2.09-4.05-5.26-4.14-8.32c-0.06-2.25-0.12-4.58-1.72-6.51
				c-4.26-5.18-7.66-4.16-10.96-3.18c-2.76,0.82-5.37,1.6-8.03-1.61c-2.08-2.51-9.32-10.75-15.01-11.21
				c-2.42-0.29-4.62,1.43-4.91,3.85c-0.02,0.15-0.03,0.29-0.03,0.44c-0.34,5.7,6.79,14.02,8.99,16.44c2.91,3.2,2.09,5.36,1.14,7.87
				c-1.05,2.79-2.25,5.94,0.95,11.64c2.15,3.83,5.6,4.35,8.94,4.85c3.28,0.49,6.38,0.96,7.69,4.62c0.79,2.21-0.55,4.24-1.97,6.39
				c-1.9,2.87-4.05,6.13-2.05,10.8c2.35,5.51,7.41,5.24,11.87,5C115.74,112.89,116.56,112.84,117.32,112.84L117.32,112.84z"/>
		</g>
		<g id="Grupo_14516" transform="translate(0.773 0.79)">
			<g id="Grupo_14501" transform="translate(0.874 0.394)">
				<path id="Trazado_8420" class="st4" d="M146.25,118.83L79.06,40.76L146.25,118.83z"/>
				
					<rect id="Rectángulo_1744" x="112.46" y="28.29" transform="matrix(0.7579 -0.6523 0.6523 0.7579 -24.7822 92.8024)" class="st6" width="0.39" height="103"/>
			</g>
			<g id="Grupo_14502" transform="translate(58.585 52.479)">
				<path id="Trazado_8421" class="st4" d="M91.73,40.76L79.06,55.61L91.73,40.76z"/>
				
					<rect id="Rectángulo_1745" x="75.63" y="47.99" transform="matrix(0.6491 -0.7607 0.7607 0.6491 -6.6874 81.872)" class="st6" width="19.52" height="0.39"/>
			</g>
			<g id="Grupo_14503" transform="translate(51.067 29.799)">
				<path id="Trazado_8422" class="st4" d="M85.19,40.67L79.1,69.72L85.19,40.67z"/>
				
					<rect id="Rectángulo_1746" x="67.3" y="55" transform="matrix(0.2049 -0.9788 0.9788 0.2049 11.2885 124.2891)" class="st6" width="29.68" height="0.39"/>
			</g>
			<g id="Grupo_14504" transform="translate(37.813 30.329)">
				<path id="Trazado_8423" class="st4" d="M85.9,40.72l-6.82,13L85.9,40.72z"/>
				
					<rect id="Rectángulo_1747" x="75.15" y="47.03" transform="matrix(0.4641 -0.8858 0.8858 0.4641 2.373 98.3745)" class="st6" width="14.68" height="0.39"/>
			</g>
			<g id="Grupo_14505" transform="translate(29.581 12.035)">
				<path id="Trazado_8424" class="st4" d="M83.91,40.67l-4.8,21.83L83.91,40.67z"/>
				
					<rect id="Rectángulo_1748" x="70.33" y="51.39" transform="matrix(0.2151 -0.9766 0.9766 0.2151 13.592 120.089)" class="st6" width="22.35" height="0.39"/>
			</g>
			<g id="Grupo_14506" transform="translate(6.956 0)">
				<path id="Trazado_8425" class="st4" d="M79.09,40.71l5.78,14.27L79.09,40.71z"/>
				
					<rect id="Rectángulo_1749" x="81.79" y="40.14" transform="matrix(0.9268 -0.3755 0.3755 0.9268 -11.9659 34.2907)" class="st6" width="0.39" height="15.4"/>
			</g>
			<g id="Grupo_14507" transform="translate(19.27 12.587)">
				<path id="Trazado_8426" class="st4" d="M81.85,40.69l-2.75,9.28L81.85,40.69z"/>
				
					<rect id="Rectángulo_1750" x="75.64" y="45.13" transform="matrix(0.285 -0.9585 0.9585 0.285 14.0943 109.545)" class="st6" width="9.68" height="0.39"/>
			</g>
			<g id="Grupo_14508" transform="translate(42.506 71.635)">
				<path id="Trazado_8427" class="st4" d="M98.77,40.82l-19.8,5.06L98.77,40.82z"/>
				
					<rect id="Rectángulo_1751" x="78.64" y="43.15" transform="matrix(0.9689 -0.2476 0.2476 0.9689 -7.9659 23.3477)" class="st6" width="20.44" height="0.39"/>
			</g>
			<g id="Grupo_14509" transform="translate(26.402 62.06)">
				<path id="Trazado_8428" class="st4" d="M106.66,40.82L78.97,49.1L106.66,40.82z"/>
				
					<rect id="Rectángulo_1752" x="78.36" y="44.77" transform="matrix(0.9582 -0.2861 0.2861 0.9582 -8.9835 28.4288)" class="st6" width="28.9" height="0.39"/>
			</g>
			<g id="Grupo_14510" transform="translate(23.184 52.914)">
				<path id="Trazado_8429" class="st4" d="M102.03,40.82l-23.07,6.35L102.03,40.82z"/>
				
					<rect id="Rectángulo_1753" x="78.53" y="43.8" transform="matrix(0.964 -0.2658 0.2658 0.964 -8.4394 25.6339)" class="st6" width="23.93" height="0.39"/>
			</g>
			<g id="Grupo_14511" transform="translate(26.259 46.379)">
				<path id="Trazado_8430" class="st4" d="M93.26,40.83l-14.33,1.13L93.26,40.83z"/>
				
					<rect id="Rectángulo_1754" x="78.9" y="41.2" transform="matrix(0.9969 -0.0786 0.0786 0.9969 -2.9876 6.8963)" class="st6" width="14.38" height="0.39"/>
			</g>
			<g id="Grupo_14512" transform="translate(11.635 37.084)">
				<path id="Trazado_8431" class="st4" d="M99.92,40.82l-20.97,4.29L99.92,40.82z"/>
				
					<rect id="Rectángulo_1755" x="78.73" y="42.78" transform="matrix(0.9798 -0.2 0.2 0.9798 -6.7869 18.7523)" class="st6" width="21.41" height="0.39"/>
			</g>
			<g id="Grupo_14513" transform="translate(8.7 30.65)">
				<path id="Trazado_8432" class="st4" d="M97.64,41.25l-18.73-0.42L97.64,41.25z"/>
				
					<rect id="Rectángulo_1756" x="88.08" y="31.67" transform="matrix(0.0224 -0.9997 0.9997 0.0224 45.2704 128.3736)" class="st6" width="0.39" height="18.73"/>
			</g>
			<g id="Grupo_14514" transform="translate(5.677 17.037)">
				<path id="Trazado_8433" class="st4" d="M90.66,43.19l-11.71-2.37L90.66,43.19z"/>
				
					<rect id="Rectángulo_1757" x="84.61" y="36.03" transform="matrix(0.198 -0.9802 0.9802 0.198 26.8357 116.8129)" class="st6" width="0.39" height="11.95"/>
			</g>
			<g id="Grupo_14515" transform="translate(0 7.526)">
				<path id="Trazado_8434" class="st4" d="M89.68,44.95l-10.7-4.14L89.68,44.95z"/>
				
					<rect id="Rectángulo_1758" x="84.14" y="37.15" transform="matrix(0.3609 -0.9326 0.9326 0.3609 13.9063 106.0604)" class="st6" width="0.39" height="11.48"/>
			</g>
		</g>
	</g>
</g>
<g id="people" transform="translate(45.492 32.578)">
	<g id="Grupo_14541" transform="translate(38.032 0)">
		<path id="Trazado_8435" class="st7" d="M95.98,47.64c-0.26,1.07-0.26,2.19,0.01,3.26c0,0-0.15,0.73-1.2,0.7s-1.26-0.51-1.38-0.69
			c0.32-0.64,0.47-1.35,0.44-2.07C93.87,47.42,95.98,47.64,95.98,47.64z"/>
		<path id="Trazado_8436" class="st8" d="M92.15,42.6c-0.25,0.94-0.29,1.91-0.12,2.87c0.28,1.55,0.71-2.66,0.71-2.66L92.15,42.6z"/>
		<path id="Trazado_8437" class="st9" d="M92.2,43.5c-0.34,1.52-0.54,5.29,1.24,5.88c1.22,0.4,3.08-1.56,3.39-2.76
			c0.31-1.22,1.45-2.99-1.44-4C93.08,41.8,92.39,42.67,92.2,43.5z"/>
		<path id="Trazado_8438" class="st8" d="M93.26,40.63c-0.12,0.44,1.41,0.7,2.12,0.71c0.2,0,0.4,0.02,0.6,0.05
			c0.09,0.01,0.17,0.03,0.25,0.05c0.27,0.05,0.52,0.17,0.73,0.34c0.13,0.12,0.23,0.25,0.32,0.4c0.2,0.45,0.32,0.94,0.35,1.43
			c0.04,0.51-0.24,0.79-0.28,1.23c0,1.14-0.45,2.24-1.24,3.06c-0.11-0.13,0.18-0.39,0.33-0.59c0.22-0.26,0.36-0.57,0.41-0.9
			c0.1-0.64,0.03-0.95-0.14-1c-0.03-0.01-0.06,0-0.08,0.02c-0.05,0.03-0.1,0.07-0.13,0.12c-0.05,0.06-0.1,0.13-0.14,0.21l0,0
			c-0.09,0.21-0.14,0.43-0.13,0.66c0.01,0.2,0.02,0.36,0.02,0.36l-0.17,0.02c-0.05-0.25-0.07-0.5-0.07-0.75
			c-0.01-0.14,0-0.29,0.03-0.43c0.02-0.11,0.04-0.22,0.07-0.32c0.26-0.98,0.17-1.75-0.31-1.99c-1.13-0.57-3.41-0.45-3.55-0.04
			c-0.17-0.22-0.26-0.49-0.25-0.77C91.96,41.31,93.26,40.63,93.26,40.63z"/>
		<g id="Grupo_14518" transform="translate(0 11.157)">
			<path id="Trazado_8439" class="st10" d="M90.29,40.8c-0.92,0.42-1.32,1.5-0.9,2.42c0.42,0.92,1.5,1.32,2.42,0.9
				c0.92-0.42,1.32-1.5,0.9-2.42C92.29,40.78,91.2,40.38,90.29,40.8C90.29,40.8,90.29,40.8,90.29,40.8z"/>
			<path id="Trazado_8440" class="st10" d="M79.88,46.03c-0.77,0.35-1.1,1.25-0.75,2.02s1.25,1.1,2.02,0.75
				c0.77-0.35,1.1-1.25,0.75-2.02c0,0,0,0,0,0C81.55,46.02,80.65,45.68,79.88,46.03z"/>
			<path id="Trazado_8441" class="st10" d="M90.5,40.69c0.88-0.25,1.82,0.18,2.2,1.01c0.46,0.93,0.08,2.06-0.85,2.53
				c-5.33,3.37-7,2.38-10.36,4.45c-0.88,0.45-1.97,0.11-2.43-0.77c-0.33-0.62-0.15-1.39,0.42-1.79
				C85.63,41.53,89.56,40.83,90.5,40.69z"/>
		</g>
		<g id="Grupo_14519" transform="translate(15.84 11.157)">
			<path id="Trazado_8442" class="st10" d="M81.52,40.8c0.92,0.42,1.32,1.5,0.9,2.42c-0.42,0.92-1.5,1.32-2.42,0.9
				c-0.92-0.42-1.32-1.5-0.9-2.42C79.53,40.78,80.61,40.38,81.52,40.8C81.52,40.8,81.52,40.8,81.52,40.8z"/>
			<path id="Trazado_8443" class="st10" d="M91.93,46.03c0.77,0.35,1.1,1.25,0.75,2.02s-1.25,1.1-2.02,0.75
				c-0.77-0.35-1.1-1.25-0.75-2.02c0,0,0,0,0,0C90.26,46.02,91.16,45.68,91.93,46.03C91.93,46.03,91.93,46.03,91.93,46.03z"/>
			<path id="Trazado_8444" class="st10" d="M81.31,40.69c-0.88-0.25-1.82,0.18-2.2,1.01c-0.46,0.93-0.08,2.06,0.85,2.53
				c5.33,3.37,7,2.38,10.36,4.45c0.88,0.45,1.97,0.11,2.43-0.77c0.33-0.62,0.15-1.39-0.42-1.79C86.19,41.53,82.25,40.83,81.31,40.69
				z"/>
		</g>
		<path id="Trazado_8445" class="st10" d="M100.57,92.62L100.57,92.62c-0.07-6.02-0.24-10.38-0.64-15.81c0-0.1-0.01-0.2-0.02-0.3
			V76.5l0,0c-0.01-0.05-0.01-0.11-0.02-0.16c-1.93-3.62-6.42-4.99-10.03-3.06c-1.3,0.69-2.36,1.75-3.05,3.04
			c-0.01,0.05-0.01,0.11-0.02,0.16l0,0v0.02c-0.01,0.1-0.01,0.2-0.01,0.3c-0.21,5.44-0.22,9.8-0.09,15.82l0,0c0,0.03,0,0.05,0,0.08
			c0.03,0.88,0.77,1.56,1.65,1.53c0.34-0.01,0.66-0.13,0.92-0.34l0.66,0.32c1.23-2.08,2.67-7.28,3.67-10.53
			c1.13,3.3,2.48,8.56,3.82,10.65l0.65-0.35c0.71,0.52,1.7,0.37,2.22-0.34c0.2-0.27,0.31-0.6,0.31-0.93
			C100.57,92.68,100.57,92.65,100.57,92.62z"/>
		<path id="Trazado_8446" class="st8" d="M99.16,57.86c-0.34,2.78-4.71,8.85-6.32,11.36c0,0-4.41-9.78-4.02-12.04
			s5.34-5.82,5.64-6.47C94.49,51.28,99.47,55.3,99.16,57.86z"/>
		<path id="Trazado_8447" class="st11" d="M90.59,56.63l-0.9,2.03l3.55,3.9l4.6-3.9l-0.9-2.03H90.59z"/>
		<path id="Trazado_8448" class="st12" d="M90.37,58.55l0.6-1.35h5.62l0.57,1.3l-3.86,3.27L90.37,58.55z"/>
		<path id="Trazado_8449" class="st4" d="M96.14,51.1l-1.74-0.5l-1.63,0.56L88,57.43L87.2,73.99l5.98,0.36l6.12-0.39l0.43-16.77
			L96.14,51.1z M98.67,58.11c-0.32,2.63-4.24,8.23-5.76,10.61c0,0-4.18-9.26-3.8-11.39s5.05-5.51,5.34-6.12
			C94.47,51.75,98.96,55.69,98.67,58.11L98.67,58.11z"/>
		<path id="Trazado_8450" class="st12" d="M98.65,74.36c-3.54,0.39-7.11,0.39-10.66,0l0.08-0.71c3.49,0.39,7.01,0.39,10.5,0
			L98.65,74.36z"/>
		<path id="Rectángulo_1759" class="st13" d="M92.71,73.68h0.33c0.35,0,0.64,0.29,0.64,0.64l0,0c0,0.35-0.29,0.64-0.64,0.64h-0.33
			c-0.35,0-0.64-0.29-0.64-0.64l0,0C92.06,73.97,92.35,73.68,92.71,73.68z"/>
		<path id="Trazado_8451" class="st10" d="M95.07,50.87c0.9-0.07,4.97,0.74,5.75,11.02c0.61,8.05,0.54,14.27,0.54,14.27
			c-1.25,0.57-2.56,1.01-3.9,1.3c0,0,1.64-18.4,1.28-20.13C98.21,54.76,95.07,50.87,95.07,50.87z"/>
		<path id="Trazado_8452" class="st10" d="M94.07,50.81c-1.64,0-6.23,0.68-7.51,11.07s-1.85,13.74-1.85,13.74
			c1.31,0.77,2.73,1.34,4.2,1.71c0,0-0.36-18.28,0-20.01C89.45,54.76,94.07,50.81,94.07,50.81z"/>
		<g id="Grupo_14522" transform="translate(10.523 10.549)">
			<g id="Grupo_14520" transform="translate(6.11 0.103)">
				<path id="Trazado_8453" class="st14" d="M82.06,45.5c-0.03,0-0.06-0.02-0.07-0.06l-0.48-2.55l-0.78-0.06
					c-0.04,0-0.07-0.04-0.06-0.08c0-0.01,0-0.02,0.01-0.02l0.33-0.66l-2.06-1.3c-0.03-0.02-0.04-0.06-0.02-0.1c0,0,0,0,0,0
					c0.02-0.03,0.06-0.04,0.1-0.02c0,0,0,0,0,0l2.12,1.34c0.03,0.02,0.04,0.06,0.03,0.09l-0.31,0.62l0.72,0.05
					c0.03,0,0.06,0.03,0.06,0.06l0.49,2.6c0.01,0.04-0.02,0.08-0.06,0.08c0,0,0,0,0,0L82.06,45.5z"/>
			</g>
			<g id="Grupo_14521">
				<path id="Trazado_8454" class="st14" d="M78.98,45.05c-0.04,0-0.07-0.03-0.07-0.07c0-0.01,0-0.02,0-0.02l0.83-2.52
					c0.01-0.03,0.04-0.05,0.07-0.05l0.72,0.04l-0.23-0.66c-0.01-0.03,0-0.07,0.04-0.09l2.28-1.04c0.04-0.02,0.08,0,0.09,0.04
					s0,0.08-0.04,0.09l-2.22,1.02l0.24,0.7c0.01,0.02,0,0.05-0.01,0.07c-0.01,0.02-0.04,0.03-0.06,0.03l-0.78-0.04L79.05,45
					C79.04,45.03,79.01,45.05,78.98,45.05z"/>
			</g>
		</g>
		<g id="Grupo_14524" transform="translate(18.552 15.206)">
			<path id="Trazado_8455" class="st7" d="M81.03,41.21c0,0-0.08-0.55-1.08-0.58c-0.72-0.02,0.11,1.1,0.11,1.1L81.03,41.21z"/>
			<path id="Trazado_8456" class="st9" d="M82.27,42.39c0,0-1.11-0.33-1.22-1.26c-0.06-0.5-1.26-0.3-1.67-0.25s-0.24,0.42-0.05,0.48
				c0,0-0.89,0.19-0.09,0.64c0,0-0.71,0.33,0,0.64c0,0-0.58,0.23,0.05,0.58c0.79,0.45,1.45,0.37,1.67,0.13s1.07-0.22,1.07-0.22
				L82.27,42.39z"/>
			<g id="Grupo_14523" transform="translate(1.663 0.67)">
				<path id="Trazado_8457" class="st7" d="M78.98,42.76c-0.04,0-0.07-0.03-0.07-0.07c0-0.02,0.01-0.04,0.02-0.05
					c0.16-0.14,0.12-0.21,0.06-0.32c-0.09-0.1-0.08-0.26,0.02-0.35c0,0,0,0,0,0c0.12-0.11,0.11-0.13,0.07-0.19
					c-0.05-0.06-0.08-0.13-0.08-0.21c0.01-0.09,0.05-0.17,0.11-0.23c0.07-0.08,0.12-0.13,0.03-0.3c-0.09-0.13-0.06-0.32,0.08-0.41
					c0,0,0.01,0,0.01-0.01c0.03-0.02,0.08,0,0.09,0.03c0.02,0.03,0.01,0.07-0.02,0.09c-0.07,0.05-0.09,0.14-0.05,0.21
					c0,0,0.01,0.01,0.01,0.01c0.11,0.14,0.1,0.34-0.04,0.46c0,0,0,0,0,0c-0.05,0.05-0.08,0.08-0.08,0.13c0,0.05,0.02,0.09,0.05,0.13
					c0.08,0.12,0.09,0.21-0.09,0.37c-0.06,0.05-0.05,0.08,0.01,0.17c0.11,0.15,0.09,0.36-0.06,0.47c-0.01,0.01-0.02,0.02-0.03,0.02
					C79.01,42.75,79,42.76,78.98,42.76z"/>
			</g>
		</g>
		<g id="Grupo_14525" transform="translate(21.278 16.23)">
			<path id="Trazado_8458" class="st10" d="M85.97,43.87c-0.84,0.07-1.57-0.56-1.64-1.4s0.56-1.57,1.4-1.64s1.57,0.56,1.64,1.4
				c0,0,0,0,0,0C87.44,43.07,86.81,43.8,85.97,43.87z"/>
			<path id="Trazado_8459" class="st10" d="M78.91,42.18c5.22,1.67,6.3,1.66,6.81,1.68c0.83,0.08,1.57-0.52,1.65-1.35
				c0-0.01,0-0.02,0-0.03c0.07-0.83-0.11-1.62-1.2-1.74c-2.42-0.16-4.85-0.08-7.26,0.23L78.91,42.18z"/>
		</g>
		<g id="Grupo_14526" transform="translate(21.407 16.163)">
			<path id="Trazado_8460" class="st14" d="M78.98,41.09c-0.04,0-0.07-0.04-0.06-0.07c0-0.03,0.03-0.06,0.06-0.06l0.62-0.06
				c2.07-0.25,4.15-0.31,6.23-0.17c0.04,0,0.06,0.04,0.06,0.07c0,0.04-0.04,0.06-0.07,0.06c-2.07-0.13-4.14-0.08-6.2,0.17
				L78.98,41.09L78.98,41.09z"/>
		</g>
		<g id="Grupo_14529" transform="translate(8.022 34.014)">
			<g id="Grupo_14527" transform="translate(10.451 0.123)">
				<path id="Trazado_8461" class="st14" d="M78.91,43.41l0.01-0.1c0,0,0.09-1.03,0.23-2.61c0-0.04,0.04-0.07,0.08-0.06
					c0.04,0,0.07,0.04,0.06,0.08c-0.11,1.3-0.19,2.23-0.22,2.52c0.58-0.13,1.57-0.39,2.08-0.55c0.04-0.01,0.08,0.01,0.09,0.05
					s-0.01,0.08-0.05,0.09c-0.55,0.17-1.61,0.45-2.18,0.57L78.91,43.41z"/>
			</g>
			<g id="Grupo_14528">
				<path id="Trazado_8462" class="st14" d="M80.96,43.41l-0.09-0.02c-0.66-0.11-1.31-0.32-1.92-0.6c-0.04-0.02-0.05-0.06-0.04-0.09
					s0.06-0.05,0.09-0.04l0,0c0.57,0.27,1.18,0.46,1.81,0.57c-0.01-0.28-0.02-1.21-0.04-2.53c0-0.04,0.03-0.07,0.07-0.07
					c0.04,0,0.07,0.03,0.07,0.07c0.03,1.59,0.05,2.62,0.05,2.62L80.96,43.41z"/>
			</g>
		</g>
		<g id="Grupo_14531" transform="translate(7.917 15.206)">
			<path id="Trazado_8463" class="st7" d="M80.16,41.21c0,0,0.08-0.55,1.08-0.58c0.72-0.02-0.11,1.1-0.11,1.1L80.16,41.21z"/>
			<path id="Trazado_8464" class="st9" d="M78.91,42.39c0,0,1.11-0.33,1.22-1.26c0.06-0.5,1.26-0.3,1.67-0.25s0.24,0.42,0.05,0.48
				c0,0,0.89,0.19,0.1,0.64c0,0,0.71,0.33,0,0.64c0,0,0.57,0.23-0.05,0.58c-0.79,0.45-1.45,0.37-1.67,0.13s-1.1-0.12-1.1-0.12
				L78.91,42.39z"/>
			<g id="Grupo_14530" transform="translate(1.271 0.67)">
				<path id="Trazado_8465" class="st7" d="M79.27,42.76c-0.02,0-0.03-0.01-0.05-0.02c-0.16-0.1-0.21-0.3-0.11-0.46
					c0.01-0.01,0.02-0.02,0.02-0.03c0.06-0.1,0.06-0.12,0.01-0.17c-0.18-0.16-0.17-0.26-0.09-0.37c0.03-0.03,0.05-0.08,0.05-0.13
					c0-0.05-0.03-0.08-0.08-0.13c-0.14-0.11-0.16-0.32-0.05-0.46c0,0,0,0,0,0c0.05-0.07,0.04-0.16-0.03-0.22
					c0,0-0.01-0.01-0.01-0.01c-0.03-0.02-0.05-0.06-0.03-0.09c0.02-0.03,0.06-0.05,0.09-0.03c0,0,0.01,0,0.01,0.01
					c0.14,0.09,0.18,0.27,0.09,0.4c0,0,0,0.01-0.01,0.01c-0.1,0.17-0.05,0.22,0.03,0.3c0.07,0.06,0.11,0.14,0.11,0.23
					c0,0.08-0.03,0.15-0.08,0.21c-0.04,0.06-0.06,0.08,0.07,0.19c0.1,0.09,0.11,0.24,0.02,0.35c0,0,0,0,0,0
					c-0.06,0.11-0.1,0.18,0.06,0.32c0.03,0.02,0.03,0.07,0.01,0.1c0,0,0,0,0,0C79.31,42.75,79.29,42.76,79.27,42.76z"/>
			</g>
		</g>
		<g id="Grupo_14532" transform="translate(0.077 16.23)">
			<path id="Trazado_8466" class="st10" d="M80.33,43.87c0.84,0.07,1.57-0.56,1.64-1.4s-0.56-1.57-1.4-1.64s-1.57,0.56-1.64,1.4
				c0,0,0,0,0,0C78.86,43.07,79.49,43.8,80.33,43.87z"/>
			<path id="Trazado_8467" class="st10" d="M87.39,42.18c-5.22,1.67-6.3,1.66-6.81,1.68c-0.83,0.08-1.57-0.52-1.65-1.35
				c0-0.01,0-0.02,0-0.03c-0.07-0.83,0.11-1.62,1.2-1.74c2.42-0.16,4.85-0.08,7.26,0.23L87.39,42.18z"/>
		</g>
		<g id="Grupo_14533" transform="translate(1.386 16.163)">
			<path id="Trazado_8468" class="st14" d="M85.82,41.09L85.82,41.09l-0.63-0.06c-2.06-0.25-4.13-0.31-6.2-0.17
				c-0.04,0-0.07-0.03-0.07-0.07c0-0.03,0.02-0.06,0.06-0.07c2.08-0.14,4.16-0.08,6.23,0.17l0.62,0.06
				c0.04,0.01,0.06,0.04,0.06,0.08C85.88,41.06,85.85,41.08,85.82,41.09L85.82,41.09z"/>
		</g>
		<g id="Grupo_14534" transform="translate(21.113 66.272)">
			<path id="Trazado_8469" class="st15" d="M78.91,43.14h3.49v-0.09c-0.02-0.17-0.14-0.31-0.3-0.36c-0.71-0.27-1.26-0.85-1.5-1.57
				c-0.02-0.04-0.05-0.08-0.07-0.12c-0.27-0.39-0.79-0.48-1.18-0.22c-0.19,0.13-0.32,0.34-0.36,0.57c0,0.04-0.01,0.09-0.01,0.14
				C78.95,42.05,78.9,42.78,78.91,43.14z"/>
			<path id="Trazado_8470" class="st15" d="M78.99,41.48v0.01c0.02,0.47,0.41,0.83,0.88,0.81c0.45-0.02,0.8-0.38,0.81-0.82
				c0-0.12-0.03-0.24-0.08-0.35c-0.02-0.04-0.05-0.08-0.07-0.12c-0.27-0.39-0.79-0.48-1.18-0.22c-0.19,0.13-0.32,0.34-0.36,0.57
				C78.99,41.39,78.99,41.43,78.99,41.48z"/>
		</g>
		<g id="Grupo_14535" transform="translate(17.658 50.468)">
			<path id="Trazado_8471" class="st10" d="M79.74,42.32c0.06,0.88,0.81,1.54,1.69,1.48c0.88-0.06,1.54-0.81,1.48-1.69
				c-0.06-0.88-0.81-1.54-1.69-1.48c0,0,0,0,0,0C80.35,40.69,79.69,41.45,79.74,42.32z"/>
			<path id="Trazado_8472" class="st10" d="M84.04,56.79c-0.53,0.27-1.11,0.4-1.71,0.36c-1.48-6.68-4.61-11.41-2.95-15.01l3.53-0.02
				C83.29,45.63,83.8,51.48,84.04,56.79z"/>
		</g>
		<g id="Grupo_14536" transform="translate(5.333 66.272)">
			<path id="Trazado_8473" class="st15" d="M82.4,43.14h-3.49v-0.09c0.01-0.17,0.13-0.31,0.3-0.36c0.71-0.27,1.26-0.85,1.5-1.57
				c0.02-0.04,0.05-0.08,0.07-0.12c0.27-0.39,0.79-0.48,1.18-0.22c0.19,0.13,0.32,0.34,0.36,0.57c0,0.04,0.01,0.09,0.01,0.14
				C82.37,42.05,82.41,42.78,82.4,43.14z"/>
			<path id="Trazado_8474" class="st15" d="M82.32,41.48v0.01c-0.02,0.47-0.41,0.83-0.88,0.81c-0.45-0.02-0.8-0.38-0.81-0.82
				c0-0.12,0.03-0.24,0.08-0.35c0.02-0.04,0.05-0.08,0.07-0.12c0.27-0.39,0.79-0.48,1.18-0.22c0.19,0.13,0.32,0.34,0.36,0.57
				C82.32,41.39,82.32,41.43,82.32,41.48z"/>
		</g>
		<g id="Grupo_14537" transform="translate(7.147 50.408)">
			<path id="Trazado_8475" class="st10" d="M82.7,42.27c-0.03,0.88-0.76,1.57-1.64,1.54c-0.88-0.03-1.57-0.76-1.54-1.64
				c0.03-0.88,0.76-1.57,1.64-1.54C82.04,40.66,82.73,41.39,82.7,42.27C82.7,42.27,82.7,42.27,82.7,42.27z"/>
			<path id="Trazado_8476" class="st10" d="M78.91,56.87c0.53,0.25,1.13,0.36,1.72,0.3c1.25-6.73,4.21-11.56,2.43-15.11l-3.53,0.1
				C79.27,45.69,78.97,51.56,78.91,56.87z"/>
		</g>
		<path id="Trazado_8477" class="st4" d="M93.76,49.82c0.14,0.33,0.41,0.59,0.76,0.69c0.5-0.06,0.95-0.31,1.26-0.71l0.37,1.41
			l-0.49,0.77l-1.15-1.22l-1.02,1.18l-0.4-0.89L93.76,49.82z"/>
		<g id="Grupo_14538" transform="translate(14.266 10.047)">
			<path id="Trazado_8478" class="st3" d="M81.39,41.99c-0.02,0-0.04-0.01-0.05-0.02l-1.09-1.16l-0.97,1.12
				c-0.02,0.02-0.04,0.03-0.06,0.02c-0.02,0-0.05-0.02-0.06-0.04l-0.24-0.53c-0.02-0.04,0-0.08,0.04-0.09
				c0.04-0.02,0.08,0,0.09,0.04l0,0l0.19,0.43l0.95-1.1c0.01-0.02,0.03-0.02,0.05-0.02c0.02,0,0.04,0.01,0.05,0.02l1.09,1.15
				l0.3-0.47c0.02-0.03,0.07-0.04,0.1-0.02c0.03,0.02,0.04,0.07,0.02,0.1l0,0l-0.35,0.54C81.44,41.98,81.42,41.99,81.39,41.99
				L81.39,41.99z"/>
		</g>
		<g id="Grupo_14539" transform="translate(13.822 28.516)">
			<path id="Trazado_8479" class="st6" d="M79.02,44.69c-0.04,0-0.07-0.03-0.07-0.07c-0.08-1.34,0-3.9,0-3.92
				c0-0.04,0.03-0.07,0.07-0.07c0,0,0,0,0.01,0c0.04,0,0.07,0.03,0.07,0.07c0,0,0,0,0,0c0,0.03-0.08,2.58,0,3.91
				C79.09,44.65,79.06,44.69,79.02,44.69C79.02,44.69,79.02,44.69,79.02,44.69L79.02,44.69z"/>
		</g>
		<g id="Grupo_14540" transform="translate(13.609 38.366)">
			<path id="Trazado_8480" class="st14" d="M79.71,44.48c-0.03,0-0.06-0.02-0.07-0.05c-0.01-0.03-0.64-2.63-0.73-3.71
				c0-0.04,0.03-0.07,0.06-0.08c0,0,0,0,0,0c0.04,0,0.07,0.03,0.08,0.07c0.09,1.07,0.72,3.67,0.73,3.69
				c0.01,0.04-0.01,0.08-0.05,0.09h0L79.71,44.48z"/>
		</g>
	</g>
	<g id="Grupo_14565" transform="translate(0 2.745)">
		<g id="Grupo_14542" transform="translate(13.903 7.26)">
			<path id="Trazado_8481" class="st7" d="M81.19,43.82c-0.28-0.73-0.4-1.52-0.33-2.3c0.03-0.46-0.32-0.86-0.79-0.89
				c-0.01,0-0.01,0-0.02,0l0,0c-0.46,0.02-0.82,0.4-0.81,0.87c0,0.01,0,0.01,0,0.02c0.06,0.78-0.05,1.57-0.33,2.3
				C78.93,44.49,81.17,44.49,81.19,43.82z"/>
			<ellipse id="Elipse_243" class="st7" cx="80.05" cy="41.26" rx="0.59" ry="0.59"/>
		</g>
		<g id="Grupo_14543" transform="translate(12.131)">
			<path id="Trazado_8482" class="st9" d="M79.1,44.48c-0.1,1.47-0.1,5.1,1.66,5.4c1.21,0.21,3.02-1.95,3.14-3.13
				c0.12-1.19,0.94-3.02-1.92-3.56C79.69,42.76,79.16,43.68,79.1,44.48z"/>
			<path id="Trazado_8483" class="st15" d="M84.16,44.07c0.03-0.44,0.45-1.35-0.52-2.1c-0.46-0.41-1.03-0.67-1.64-0.75
				c0.22,0.28,0.29,0.66,0.17,1c-1.52-0.53-0.12-1.55-0.12-1.55c-1.04-0.2-2.09,0.26-2.65,1.16c-0.51,0.9-0.62,1.98-0.31,2.97
				c0,0-0.1-1.7,2.6-1.24c1.53,0.26,1.58,0.95,1.63,1.39c0,0.17-0.03,0.34-0.07,0.51c-0.04,0.15-0.08,0.31-0.13,0.49
				c-0.17,0.66,0.05,0.89,0.05,0.89c0-0.3,0.07-0.59,0.23-0.84c0.16-0.2,0.43,0.02,0.37,0.64c-0.07,0.69-0.48,0.84-0.6,1.45
				s0.15,0.73,0.15,0.73c-0.05-0.27-0.01-0.54,0.11-0.79c0.55-0.9,0.86-1.93,0.9-2.99C84.36,44.71,84.3,44.37,84.16,44.07z"/>
		</g>
		<path id="Trazado_8484" class="st11" d="M93.73,51.12c0,0,6.71,0.04,10.04,5.38s2.2,10.45,8.44,15.17
			c7.66,5.8,4.22,19.18,4.22,19.18s-5.69-3.47-8.63,0.33s-6.84,6.11-10,4.8s-8.63-10.42-17.91-2.45c0,0-2.93-6.32,1.4-10.42
			c4.33-4.1,6.74-4.75,7.51-10.73C90,62.92,79.43,58.97,93.73,51.12z"/>
		<g id="Grupo_14544" transform="translate(2.353 12.157)">
			<path id="Trazado_8485" class="st14" d="M86.49,41.21c-0.64,0.71-0.58,1.8,0.12,2.44c0.71,0.64,1.8,0.58,2.44-0.12
				c0.64-0.71,0.58-1.8-0.12-2.44c0,0,0,0,0,0C88.22,40.44,87.13,40.5,86.49,41.21z"/>
			<path id="Trazado_8486" class="st14" d="M79.42,49.67c-0.54,0.59-0.49,1.5,0.1,2.04c0.59,0.54,1.5,0.49,2.04-0.1
				c0.54-0.59,0.49-1.5-0.1-2.04C80.86,49.03,79.95,49.08,79.42,49.67C79.42,49.67,79.42,49.67,79.42,49.67z"/>
			<path id="Trazado_8487" class="st14" d="M86.63,41.03c0.67-0.55,1.65-0.53,2.3,0.05c0.75,0.64,0.84,1.76,0.21,2.52
				c-3.37,4.93-5.19,4.7-7.33,7.76c-0.6,0.72-1.67,0.83-2.4,0.24c-0.52-0.42-0.64-1.15-0.3-1.72C82.72,43.6,85.87,41.51,86.63,41.03
				z"/>
		</g>
		<g id="Grupo_14545" transform="translate(2.37 20.628)">
			<path id="Trazado_8488" class="st14" d="M79.07,42.5c0.19,0.78,0.97,1.25,1.74,1.07c0.78-0.19,1.25-0.97,1.07-1.74
				c-0.19-0.78-0.97-1.25-1.74-1.07C79.36,40.95,78.88,41.73,79.07,42.5C79.07,42.5,79.07,42.5,79.07,42.5z"/>
			<path id="Trazado_8489" class="st14" d="M84.44,51.98c-2.09-2.95-3.91-6.09-5.44-9.37c-0.26-0.71,0.11-1.5,0.83-1.75
				c0.02-0.01,0.05-0.02,0.07-0.02c0.73-0.31,1.49-0.37,1.92,0.57c1.42,3.34,2.65,6.75,3.71,10.22L84.44,51.98z"/>
		</g>
		<path id="Trazado_8490" class="st10" d="M99.46,90.79L99.46,90.79c-0.07-5.7-0.22-9.83-0.6-14.98c0-0.1-0.01-0.19-0.02-0.29V75.5
			l0,0c-0.01-0.05-0.01-0.1-0.02-0.16c-1.82-3.43-6.08-4.73-9.51-2.9c-1.23,0.65-2.24,1.66-2.89,2.89c-0.01,0.05-0.01,0.1-0.02,0.16
			l0,0v0.02c-0.01,0.1-0.01,0.19-0.01,0.29c-0.2,5.16-0.21,9.28-0.08,14.99l0,0c0,0.02,0,0.05,0,0.07c0.03,0.83,0.72,1.48,1.55,1.45
			c0.32-0.01,0.63-0.12,0.89-0.33l0.62,0.31c1.17-1.97,2.53-6.89,3.48-9.98c1.07,3.12,2.35,8.11,3.62,10.09l0.61-0.33
			c0.67,0.49,1.6,0.35,2.1-0.31c0.19-0.26,0.3-0.58,0.3-0.9C99.47,90.83,99.47,90.81,99.46,90.79z"/>
		<path id="Trazado_8491" class="st4" d="M98.51,63.91l-0.23,9.19l-5.8,0.37l-5.67-0.34l0.4-8.45c0.23-4.71,1.88-9.24,4.73-13
			l0.14-0.18l1.54-0.53l1.65,0.47l0,0C97.49,55.22,98.62,59.53,98.51,63.91z"/>
		<path id="Trazado_8492" class="st12" d="M97.65,73.49c-3.35,0.37-6.74,0.37-10.09,0c0.02-0.22,0.05-0.45,0.07-0.67
			c3.3,0.36,6.64,0.36,9.94,0C97.6,73.04,97.62,73.26,97.65,73.49z"/>
		<path id="Rectángulo_1760" class="st13" d="M92.02,72.84h0.32c0.34,0,0.61,0.27,0.61,0.61l0,0c0,0.34-0.27,0.61-0.61,0.61h-0.32
			c-0.34,0-0.61-0.27-0.61-0.61l0,0C91.41,73.11,91.68,72.84,92.02,72.84z"/>
		<g id="Grupo_14546" transform="translate(20.04 63.681)">
			<path id="Trazado_8493" class="st15" d="M78.91,43.01h3.31v-0.08c-0.01-0.16-0.13-0.3-0.28-0.34c-0.67-0.26-1.19-0.81-1.42-1.49
				c-0.02-0.04-0.05-0.08-0.06-0.12c-0.25-0.37-0.74-0.46-1.11-0.22c-0.19,0.13-0.31,0.33-0.34,0.55c0,0.04-0.01,0.09-0.01,0.13
				C78.95,41.98,78.9,42.66,78.91,43.01z"/>
			<path id="Trazado_8494" class="st15" d="M78.99,41.43v0.01c0,0.44,0.36,0.8,0.81,0.79c0.44,0,0.8-0.36,0.79-0.81l0,0
				c0-0.12-0.03-0.23-0.07-0.34c-0.02-0.04-0.05-0.08-0.06-0.12c-0.25-0.37-0.74-0.46-1.11-0.22
				C79.11,40.91,78.98,41.16,78.99,41.43L78.99,41.43z"/>
		</g>
		<g id="Grupo_14547" transform="translate(16.767 48.71)">
			<path id="Trazado_8495" class="st10" d="M79.7,42.24c0.05,0.83,0.77,1.46,1.6,1.41c0.83-0.05,1.46-0.77,1.41-1.6
				c-0.05-0.83-0.77-1.46-1.6-1.41C80.27,40.69,79.64,41.4,79.7,42.24C79.7,42.23,79.7,42.23,79.7,42.24z"/>
			<path id="Trazado_8496" class="st10" d="M83.77,55.94c-0.5,0.26-1.06,0.38-1.62,0.34c-1.41-6.33-4.37-10.81-2.79-14.22l3.34-0.02
				C83.06,45.36,83.54,50.91,83.77,55.94z"/>
		</g>
		<g id="Grupo_14548" transform="translate(5.091 63.681)">
			<path id="Trazado_8497" class="st15" d="M82.22,43.01h-3.31v-0.08c0.01-0.16,0.13-0.3,0.28-0.34c0.67-0.26,1.19-0.81,1.42-1.49
				c0.02-0.04,0.04-0.08,0.06-0.12c0.25-0.37,0.74-0.46,1.11-0.22c0.19,0.13,0.31,0.33,0.34,0.55c0,0.04,0.01,0.09,0.01,0.13
				C82.18,41.98,82.23,42.66,82.22,43.01z"/>
			<path id="Trazado_8498" class="st15" d="M82.14,41.43v0.01c0,0.44-0.36,0.8-0.81,0.79c-0.44,0-0.8-0.36-0.79-0.81l0,0
				c0-0.12,0.03-0.23,0.07-0.34c0.02-0.04,0.05-0.08,0.06-0.12c0.25-0.37,0.74-0.46,1.11-0.22c0.19,0.13,0.31,0.33,0.34,0.55
				C82.14,41.35,82.14,41.39,82.14,41.43z"/>
		</g>
		<g id="Grupo_14549" transform="translate(6.809 48.653)">
			<path id="Trazado_8499" class="st10" d="M82.51,42.18c-0.03,0.83-0.72,1.48-1.55,1.46c-0.83-0.03-1.48-0.72-1.46-1.55
				c0.03-0.83,0.72-1.48,1.55-1.46C81.88,40.66,82.53,41.35,82.51,42.18C82.51,42.18,82.51,42.18,82.51,42.18z"/>
			<path id="Trazado_8500" class="st10" d="M78.91,56.02c0.51,0.24,1.07,0.34,1.63,0.29c1.19-6.37,3.99-10.95,2.3-14.31l-3.34,0.1
				C79.25,45.43,78.97,50.99,78.91,56.02z"/>
		</g>
		<path id="Trazado_8501" class="st12" d="M93.07,51.7l0.19,0.9c-0.97,4.78-1.58,9.64-1.81,14.51l0.49,0.62l0.46-0.49
			c0,0,0.22-7.69,1.21-14.6l0.88-1.11l-0.75-0.63L93.07,51.7z"/>
		<path id="Trazado_8502" class="st4" d="M93.08,50.15c0,0,0.17,0.65,0.65,0.74c0.43-0.16,0.81-0.44,1.07-0.81l0.47,1.46l-0.47,0.73
			l-1.09-1.15l-0.97,1.12l-0.38-0.84L93.08,50.15z"/>
		<g id="Grupo_14550" transform="translate(13.554 10.419)">
			<path id="Trazado_8503" class="st3" d="M81.26,41.92c-0.02,0-0.04-0.01-0.05-0.02l-1.04-1.1l-0.92,1.07
				c-0.02,0.02-0.04,0.03-0.06,0.02c-0.02,0-0.04-0.02-0.05-0.04l-0.23-0.5c-0.02-0.03,0-0.07,0.03-0.09c0.03-0.02,0.07,0,0.09,0.03
				l0.18,0.41l0.9-1.04c0.01-0.01,0.03-0.02,0.05-0.02c0.02,0,0.04,0.01,0.05,0.02l1.03,1.09l0.28-0.44
				c0.02-0.03,0.06-0.04,0.09-0.02s0.04,0.06,0.02,0.09l0,0l-0.33,0.51C81.3,41.91,81.28,41.93,81.26,41.92L81.26,41.92z"/>
		</g>
		<g id="Grupo_14551" transform="translate(12.931 37.244)">
			<path id="Trazado_8504" class="st14" d="M79.67,44.27c-0.03,0-0.06-0.02-0.06-0.05C79.6,44.2,79,41.73,78.91,40.7
				c0-0.04,0.02-0.07,0.06-0.07c0,0,0,0,0,0c0.04,0,0.07,0.02,0.07,0.06c0.09,1.02,0.69,3.47,0.69,3.5
				c0.01,0.04-0.01,0.07-0.05,0.08c0,0,0,0,0,0L79.67,44.27z"/>
		</g>
		<g id="Grupo_14552" transform="translate(6.904 10.259)">
			<path id="Trazado_8505" class="st10" d="M88.24,40.78c0,0-0.74,16.69-0.12,25.66l4.33-0.46c0,0-0.23-13.85-0.54-18.81
				S89.91,41.35,88.24,40.78z"/>
			<path id="Trazado_8506" class="st10" d="M85.76,40.64c0,0-2.89,2.22-3.85,25.55l-2.99-0.41c0,0,0.75-14.18,1.91-18.8
				C82.03,42.16,84.09,41.2,85.76,40.64z"/>
		</g>
		<g id="Grupo_14555" transform="translate(7.688 33.178)">
			<g id="Grupo_14553" transform="translate(8.214 0.246)">
				<path id="Trazado_8507" class="st14" d="M79.05,43.36l-0.01-0.08c-0.05-0.77-0.1-1.64-0.14-2.57c0-0.04,0.03-0.08,0.07-0.08h0
					c0.04,0,0.08,0.03,0.08,0.07c0.04,0.9,0.08,1.74,0.13,2.48l3.31-0.35c0.04,0,0.08,0.03,0.08,0.07c0,0.04-0.03,0.08-0.07,0.08
					c0,0,0,0,0,0L79.05,43.36z"/>
			</g>
			<g id="Grupo_14554">
				<path id="Trazado_8508" class="st14" d="M81.19,43.35l-2.22-0.3c-0.04-0.01-0.07-0.04-0.07-0.09c0.01-0.04,0.04-0.07,0.09-0.07
					l0,0l2.05,0.28c0.03-0.81,0.07-1.62,0.11-2.47c0-0.04,0.04-0.08,0.08-0.07c0.04,0,0.08,0.04,0.07,0.08
					c-0.05,0.88-0.08,1.71-0.12,2.55L81.19,43.35z"/>
			</g>
		</g>
		<g id="Grupo_14558" transform="translate(16.655 12.067)">
			<g id="Grupo_14556" transform="translate(0 0)">
				<ellipse id="Elipse_244" class="st10" cx="80.73" cy="42.45" rx="1.73" ry="1.73"/>
				<ellipse id="Elipse_245" class="st10" cx="88.84" cy="49.91" rx="1.44" ry="1.44"/>
				<path id="Trazado_8509" class="st10" d="M81.72,41c-0.73-0.48-1.69-0.35-2.28,0.29c-0.68,0.71-0.65,1.84,0.05,2.53
					c3.87,4.55,5.65,4.14,8.1,6.95c0.67,0.66,1.75,0.65,2.42-0.01c0.47-0.47,0.52-1.21,0.12-1.74C85.89,43.15,82.53,41.4,81.72,41z"
					/>
			</g>
			<g id="Grupo_14557" transform="translate(1.234 3.939)">
				<path id="Trazado_8510" class="st8" d="M80.69,42.46c-0.02,0-0.04-0.01-0.05-0.02c-0.6-0.53-1.17-1.09-1.71-1.68
					c-0.03-0.03-0.04-0.08-0.01-0.11s0.08-0.04,0.11-0.01c0.01,0.01,0.01,0.01,0.02,0.02c0.54,0.59,1.1,1.15,1.7,1.67
					c0.03,0.03,0.04,0.08,0.01,0.11C80.74,42.46,80.72,42.47,80.69,42.46L80.69,42.46z"/>
			</g>
		</g>
		<g id="Grupo_14560" transform="translate(18.406 30.223)">
			<path id="Trazado_8511" class="st7" d="M80.85,41.51c-0.14-0.41-1.25-0.03-1.53,0.39s0.5,1.05,0.66,0.89
				c0.21-0.21-0.46-0.41-0.07-0.6C80.17,42.05,81.15,42.37,80.85,41.51z"/>
			<path id="Trazado_8512" class="st9" d="M80.45,44.06c0.31,0.11,0.64-0.05,0.75-0.36c0-0.01,0.01-0.03,0.01-0.04
				c0.25-0.61,0.04-0.53-0.14-0.38c0,0,0.12-0.38-0.09-0.32S80.45,44.06,80.45,44.06z"/>
			<path id="Trazado_8513" class="st9" d="M81.93,40.65c-0.32-0.19-2.23,1.1-2.67,1.51s-0.36,0.55-0.29,0.61s0.23,0.01,0.26,0.12
				s-0.21,0.38-0.07,0.5c0.2,0.16,0.29-0.09,0.46,0.02s-0.02,0.4,0.16,0.49s0.3-0.2,0.43-0.18s0.01,0.28,0.24,0.33
				s0.12-0.41,0.75-1.13C81.63,42.45,82.25,40.85,81.93,40.65z"/>
			<g id="Grupo_14559" transform="translate(1.799 2.674)">
				<path id="Trazado_8514" class="st7" d="M79,41.11c-0.03,0-0.06-0.02-0.08-0.04c-0.05-0.08,0.03-0.26,0.1-0.4
					c0.02-0.02,0.06-0.03,0.08-0.01c0.02,0.01,0.02,0.04,0.02,0.06c-0.05,0.09-0.08,0.18-0.1,0.27c0.05-0.03,0.08-0.06,0.11-0.11
					c0.02-0.02,0.06-0.03,0.08,0c0.02,0.01,0.02,0.04,0.02,0.06C79.23,40.94,79.14,41.11,79,41.11z M79.03,41.01L79.03,41.01z"/>
			</g>
		</g>
		<g id="Grupo_14561" transform="translate(20.652 19.787)">
			<path id="Trazado_8515" class="st10" d="M86.2,42.66c-0.26,0.75-1.08,1.16-1.83,0.9s-1.16-1.08-0.9-1.83
				c0.26-0.75,1.08-1.16,1.83-0.9C86.06,41.08,86.46,41.9,86.2,42.66C86.2,42.66,86.2,42.66,86.2,42.66z"/>
			<path id="Trazado_8516" class="st10" d="M79.97,51.59c2.36-2.74,4.47-5.69,6.3-8.82c0.32-0.68,0.03-1.5-0.66-1.82
				c-0.02-0.01-0.05-0.02-0.07-0.03c-0.7-0.38-1.45-0.51-1.96,0.39c-1.72,3.19-3.28,6.47-4.65,9.82L79.97,51.59z"/>
		</g>
		<g id="Grupo_14564" transform="translate(10.475 11.278)">
			<g id="Grupo_14562" transform="translate(5.818)">
				<path id="Trazado_8517" class="st14" d="M78.99,49.98h-0.01c-0.04-0.01-0.07-0.05-0.06-0.09c0,0,0,0,0,0l0.94-5.11l-0.55-0.63
					c-0.03-0.03-0.03-0.08,0.01-0.11c0,0,0.01-0.01,0.02-0.01l0.76-0.4l-0.93-2.9c-0.01-0.04,0.01-0.08,0.05-0.1
					c0.04-0.01,0.08,0.01,0.1,0.05l0,0l0.95,2.97c0.01,0.04,0,0.07-0.04,0.09l-0.73,0.38L80,44.71c0.02,0.02,0.02,0.04,0.02,0.07
					l-0.95,5.15C79.06,49.96,79.03,49.98,78.99,49.98z"/>
			</g>
			<g id="Grupo_14563" transform="translate(0 0.044)">
				<path id="Trazado_8518" class="st14" d="M78.98,49.79L78.98,49.79c-0.04,0-0.08-0.04-0.07-0.08l0.24-5.23
					c0-0.02,0.01-0.05,0.03-0.06l0.63-0.45l-0.62-0.54c-0.03-0.02-0.04-0.07-0.02-0.1l1.6-2.67c0.02-0.04,0.07-0.05,0.11-0.03
					c0,0,0,0,0,0c0.04,0.02,0.05,0.07,0.03,0.11l-1.57,2.62l0.65,0.56c0.02,0.02,0.03,0.04,0.03,0.06c0,0.02-0.01,0.05-0.03,0.06
					l-0.68,0.49l-0.24,5.19C79.06,49.76,79.02,49.79,78.98,49.79z"/>
			</g>
		</g>
	</g>
	<g id="Grupo_14577" transform="translate(69.017 5.052)">
		<path id="Trazado_8519" class="st11" d="M101.41,49.99c0,0-7.77,1.81-9.52,8.08s2.48,12.15-5.26,16.28s-8.87,14.96-6.81,19.4
			c0.83-2.73,3.46-4.5,6.29-4.23c5.16,0.21,5.53,6.3,13.81,2.27s11.27-0.21,11.27-0.21c0.71-5.15-1.09-10.33-4.85-13.93
			c-6.4-6.29,0.26-18.78-1.37-22.91S101.41,49.99,101.41,49.99z"/>
		<g id="Grupo_14566" transform="translate(26.513 46.52)">
			<ellipse id="Elipse_246" class="st7" cx="81.08" cy="42.16" rx="1.53" ry="1.53"/>
			<path id="Trazado_8520" class="st7" d="M79.72,42.05l2.89,0.21c-0.07,3.1-0.45,7.57-0.84,12.21l0,0c-0.01,0.82,0.3,1.6,0.87,2.19
				c0.22,0.2,0.46,0.37,0.71,0.51c-0.24,0.76-3.06-0.02-3.08-1.76c0.1-0.15,0.16-0.33,0.17-0.52
				C80.25,51.18,77.61,45.42,79.72,42.05z"/>
		</g>
		<g id="Grupo_14567" transform="translate(20.873 27.118)">
			<ellipse id="Elipse_247" class="st7" cx="84.53" cy="46.25" rx="4.05" ry="4.05"/>
			<path id="Trazado_8521" class="st7" d="M88.57,46.04c0.07,5.4-0.03,9.65-0.32,15.55l-3.14,0.81c-1.82-6.08-3.66-12.78-3.47-15.85
				L88.57,46.04z"/>
		</g>
		<path id="Trazado_8522" class="st9" d="M104.96,73.02c0.12-2.02-1.42-3.75-3.44-3.87c-1.85-0.11-3.49,1.19-3.82,3.01
			c-0.06,0.33-0.07,0.66-0.04,0.99H97.6c0.11,5.4,0.92,9.44,0.86,15.35l0,0c0,0.03,0,0.05,0,0.07l0,0c-0.11,3.1,0,7.58,0.12,12.23
			c0,0.84-0.28,1.65-0.81,2.3c-0.21,0.2-0.44,0.38-0.69,0.54c0.26,0.75,2.83-0.07,2.95-1.81c-0.1-0.16-0.14-0.34-0.14-0.53
			c0.32-2.91,2.23-7,2.1-10.31c-0.07-1.55,0.16-3.1,0.67-4.57c1.25-3.88,1.9-7.92,1.93-11.99C104.81,74,104.93,73.52,104.96,73.02z"
			/>
		<path id="Trazado_8523" class="st15" d="M99.98,104.34h-4.01v-0.08c-0.02-0.19,0.1-0.36,0.28-0.42c0.38-0.09,0.74-0.23,1.08-0.41
			c0.28,0.15,0.6,0.2,0.92,0.15c0.9-0.18,1.6-0.91,1.74-1.82C100.26,102.6,100.25,103.5,99.98,104.34z"/>
		<path id="Trazado_8524" class="st15" d="M106.84,104.34h4.01v-0.08c0.02-0.19-0.1-0.36-0.28-0.42c-0.38-0.09-0.74-0.23-1.08-0.41
			c-0.24,0.16-0.53,0.23-0.81,0.2c-1.01-0.04-1.82-0.85-1.85-1.86C106.56,102.61,106.57,103.51,106.84,104.34z"/>
		<path id="Trazado_8525" class="st8" d="M108.2,68.56c1.26,2.15,2.08,5.47,1.39,15.09c0,0-7.58,3.15-11.52-0.08
			c0,0-0.94-6.67-1.17-9.6c0.01-3.66,1.95-7.04,5.1-8.9C105.4,62.92,106.53,65.71,108.2,68.56z"/>
		<g id="Grupo_14568" transform="translate(23.088 11.092)">
			<path id="Trazado_8526" class="st9" d="M80.82,41.07c0.4,0.42,0.38,1.08-0.04,1.48c-0.42,0.4-1.08,0.38-1.48-0.04
				c-0.4-0.42-0.38-1.08,0.04-1.48S80.42,40.65,80.82,41.07L80.82,41.07z"/>
			<path id="Trazado_8527" class="st9" d="M88.37,49.03c0.33,0.35,0.32,0.91-0.03,1.24c-0.35,0.33-0.91,0.32-1.24-0.03
				c-0.33-0.35-0.32-0.91,0.03-1.24C87.47,48.66,88.03,48.67,88.37,49.03z"/>
			<path id="Trazado_8528" class="st9" d="M81.08,41.11c-0.71-0.5-1.37-0.67-1.84-0.22c-0.56,0.53-0.33,1.35,0.22,2.06
				c3.49,4.47,5.05,4.41,7.26,7.19c0.37,0.48,1.06,0.57,1.54,0.19c0.04-0.03,0.08-0.07,0.12-0.11c0.34-0.33,0.25-0.88-0.11-1.43
				C83.92,42.14,81.77,41.59,81.08,41.11z"/>
		</g>
		<g id="Grupo_14569" transform="translate(25.816 19.109)">
			<path id="Trazado_8529" class="st9" d="M85.73,42.15c-0.3,0.39-0.85,0.46-1.23,0.16c-0.39-0.3-0.46-0.85-0.16-1.23
				c0.3-0.39,0.85-0.46,1.23-0.16C85.96,41.21,86.03,41.77,85.73,42.15C85.73,42.15,85.73,42.15,85.73,42.15z"/>
			<path id="Trazado_8530" class="st9" d="M79.39,47.84c2.29-1.57,4.37-3.41,6.2-5.49c0.39-0.35,0.42-0.95,0.08-1.34
				c-0.02-0.02-0.04-0.04-0.06-0.07c-0.43-0.41-1.11-0.42-1.55-0.01c-2.41,2.14-2.61,3.35-5.14,6.36L79.39,47.84z"/>
		</g>
		<g id="Grupo_14571" transform="translate(20.056 8.857)">
			<g id="Grupo_14570">
				<path id="Trazado_8531" class="st10" d="M83.16,41.07c1.21,0.58,2.68,2.82,4.88,3.71c0,0,0.73,2.46-1.09,3.54
					c0,0-1.25,8.03,1.98,10.91c0,0-6.25,1.98-9.77-1.08c0,0,2.2-2.4,0.82-6.66c-0.76-2.33-2.22-7.64,0.57-10.37
					C81.3,40.5,82.38,40.49,83.16,41.07z"/>
			</g>
		</g>
		<g id="Grupo_14572" transform="translate(21.602 5.614)">
			<path id="Trazado_8532" class="st7" d="M78.91,44.46c0.22-0.89,0.26-1.82,0.13-2.73c-0.1-0.51,0.23-1,0.73-1.1l0,0
				c0.52,0.02,0.92,0.46,0.9,0.98c0.01,0.92,0.19,1.83,0.55,2.67C81.25,45.07,78.99,45.24,78.91,44.46z"/>
		</g>
		<path id="Trazado_8533" class="st9" d="M103.65,42.24c1.2,2.21,0.23,5.09,0.23,5.09c-1.18,3.52-3.7-0.39-3.93-0.77
			c-0.59-1.01-0.71-2.99,0.17-3.81C101.23,41.72,103.38,41.76,103.65,42.24z"/>
		<g id="Grupo_14573" transform="translate(12.803 11.092)">
			<path id="Trazado_8534" class="st9" d="M86.7,41.07c-0.4,0.42-0.38,1.08,0.04,1.48c0.42,0.4,1.08,0.38,1.48-0.04
				c0.4-0.42,0.38-1.08-0.04-1.48S87.1,40.65,86.7,41.07L86.7,41.07z"/>
			<path id="Trazado_8535" class="st9" d="M79.15,49.03c-0.33,0.35-0.32,0.91,0.03,1.24c0.35,0.33,0.91,0.32,1.24-0.03
				c0.33-0.35,0.32-0.91-0.03-1.24C80.04,48.66,79.49,48.67,79.15,49.03z"/>
			<path id="Trazado_8536" class="st9" d="M86.44,41.11c0.71-0.5,1.37-0.67,1.84-0.22c0.56,0.53,0.33,1.35-0.22,2.06
				c-3.49,4.47-5.05,4.41-7.26,7.19c-0.37,0.48-1.06,0.57-1.54,0.19c-0.04-0.03-0.08-0.07-0.12-0.11c-0.34-0.33-0.25-0.88,0.11-1.43
				C83.6,42.14,85.76,41.59,86.44,41.11z"/>
		</g>
		<g id="Grupo_14574" transform="translate(12.769 19.109)">
			<path id="Trazado_8537" class="st9" d="M79.09,42.15c0.3,0.39,0.85,0.46,1.23,0.16c0.39-0.3,0.46-0.85,0.16-1.23
				c-0.3-0.39-0.85-0.46-1.23-0.16C78.87,41.21,78.8,41.77,79.09,42.15C79.09,42.15,79.09,42.15,79.09,42.15z"/>
			<path id="Trazado_8538" class="st9" d="M86.4,48.49c-2.71-1.64-5.13-3.72-7.17-6.14c-0.39-0.38-0.4-1.01-0.02-1.4c0,0,0,0,0,0
				c0.43-0.41,1.11-0.42,1.55-0.01c2.4,2.14,3.58,4,6.11,7.02L86.4,48.49z"/>
		</g>
		<path id="Trazado_8539" class="st14" d="M104.24,44.73c-0.02-1.76-1.23-1.68-1.63-2.55c-0.03,1.22-0.89,1.33-1.74,1.81
			c-1.09,0.61,0.04,2.57-0.36,4.09c-0.28,0.67-0.62,1.31-1.03,1.91c-1.03,2.06,1.1,1.84,0.59,5.02c-0.4,2.47-1.83,3.94-3.38,4.31
			c-0.49,0.08-0.98-0.11-1.28-0.5c-0.3-0.45-0.36-1.02-0.18-1.53c0.15-0.51,0.42-0.98,0.58-1.49c0.31-0.98-0.15-1.45-0.56-2.27
			c-0.54-0.83-0.73-1.84-0.54-2.81c0.35-1.04,1.51-1.65,1.83-2.7c0.1-0.88,0.03-1.78-0.2-2.64c-0.08-1.71,0.81-3.31,2.31-4.13
			c1.16-0.61,2.51-0.79,3.79-0.5c0.48,0.04,0.94,0.2,1.35,0.45c0.39,0.44,0.63,1,0.68,1.58c0.05,0.34,0.04,0.68-0.02,1.02
			C104.41,44.12,104.34,44.43,104.24,44.73z"/>
		<g id="Grupo_14576" transform="translate(19.976 26.321)">
			<path id="Trazado_8540" class="st7" d="M80,41.1c0.01-0.36,0.98-0.33,1.3-0.07s-0.14,0.95-0.3,0.86
				c-0.22-0.12,0.26-0.44-0.09-0.49C80.66,41.36,79.97,41.84,80,41.1z"/>
			<path id="Trazado_8541" class="st9" d="M80.93,43c-0.21,0.16-0.52,0.12-0.68-0.1c-0.01-0.01-0.01-0.02-0.02-0.03
				c-0.35-0.42-0.16-0.41,0.02-0.33c0,0-0.18-0.27-0.01-0.27S80.93,43,80.93,43z"/>
			<path id="Trazado_8542" class="st9" d="M78.94,40.69c0.2-0.23,2.03,0.32,2.47,0.54s0.42,0.34,0.38,0.41s-0.18,0.06-0.18,0.16
				s0.26,0.25,0.18,0.37c-0.12,0.17-0.25,0-0.36,0.13s0.11,0.31,0,0.43s-0.29-0.08-0.39-0.04s0.06,0.22-0.11,0.32
				s-0.19-0.3-0.87-0.7C79.61,42.03,78.73,40.92,78.94,40.69z"/>
			<g id="Grupo_14575" transform="translate(1.439 1.883)">
				<path id="Trazado_8543" class="st7" d="M79.11,41c-0.07-0.01-0.13-0.04-0.18-0.09c-0.02-0.02-0.01-0.05,0.01-0.07
					c0.02-0.01,0.04-0.01,0.06,0c0.03,0.03,0.07,0.05,0.11,0.06c-0.04-0.07-0.09-0.13-0.15-0.19c-0.02-0.02-0.01-0.05,0.01-0.07
					c0.02-0.01,0.04-0.01,0.06,0c0.09,0.09,0.2,0.22,0.18,0.29c-0.01,0.02-0.03,0.04-0.05,0.05C79.14,40.99,79.12,41,79.11,41z
					 M79.11,40.92L79.11,40.92z"/>
			</g>
		</g>
	</g>
</g>
</svg>
