<?xml version="1.0" encoding="utf-8"?>
<!-- Generator: Adobe Illustrator 23.0.3, SVG Export Plug-In . SVG Version: 6.00 Build 0)  -->
<svg version="1.1" id="Capa_1" xmlns="http://www.w3.org/2000/svg" xmlns:xlink="http://www.w3.org/1999/xlink" x="0px" y="0px"
	 viewBox="0 0 360 173.97" style="enable-background:new 0 0 360 173.97;" xml:space="preserve">
<style type="text/css">
	.st0{fill:#E5E9FF;}
	.st1{fill:#A61F48;}
	.st2{fill:#F27F97;}
	.st3{fill:#FFF5EE;}
	.st4{opacity:0.5;fill:#D6ECE1;enable-background:new    ;}
	.st5{fill:#F58A28;}
	.st6{fill:#F7B119;}
	.st7{fill:#423A64;}
	.st8{fill:#423F63;}
	.st9{fill:#60BEC8;}
	.st10{fill:#EE3A4C;}
	.st11{fill:#FFFAF0;}
	.st12{fill:#EEA483;}
	.st13{fill:#E56E52;}
	.st14{fill:#53537D;}
	.st15{fill:#D1E7D9;}
	.st16{fill:#EEC9C3;}
	.st17{fill:#F05857;}
	.st18{fill:none;}
	.st19{opacity:0.2;fill:#A61F48;enable-background:new    ;}
	.st20{fill:#F0A685;}
	.st21{fill:#FFF7EF;}
	.st22{fill:#F1A786;}
	.st23{fill:#FFCC07;}
	.st24{fill:#FFF6EF;}
	.st25{fill:#DD5A26;}
	.st26{fill:#F05A29;}
	.st27{fill:#F58925;}
	.st28{fill:#FFCC05;}
</style>
<g>
	<path class="st0" d="M268.18,0c8.2,12.19,13.8,26.26,16,41.42h15.44c7.67,0,13.89,6.22,13.89,13.89c0,0,0,0,0,0
		c0,7.67-6.22,13.89-13.89,13.89c0,0,0,0,0,0h-4.14c-2.93,0.42-5.68,1.77-7.79,3.9c-2.61,2.45-4.08,5.87-4.08,9.44
		c0,7,5.3,12.75,12.11,13.47h13.24c3.92,0,7.25,2.51,8.48,6.01c28.06-2.4,42.55-9.99,42.55-9.99V0H268.18z"/>
	<path class="st0" d="M75.82,29.5c-8.14,0-14.74-6.61-14.74-14.75C61.08,6.6,67.68,0,75.83,0H0l0,64.19
		c40.85-35.82,86.21-32.61,86.21-32.61c0.05,0,0.1,0,0.15,0c0.17-0.7,0.36-1.39,0.55-2.09H75.82z"/>
	<path class="st0" d="M276.92,96.02h18.81c-6.81-0.72-12.11-6.47-12.11-13.47c0-3.58,1.47-6.99,4.08-9.44
		c2.11-2.13,4.86-3.48,7.79-3.9h-11.11C283.13,78.61,280.58,87.61,276.92,96.02z"/>
	<path class="st0" d="M202.61,72.24c-2.88-1.7-5.69-3.42-8.42-5.15c-28.93-18.3-71.44-35.46-107.83-35.51
		c-1.95,7.81-2.99,15.97-2.99,24.38c0,5.44,0.44,10.78,1.27,15.99h114.7C200.45,71.96,201.54,72.07,202.61,72.24z"/>
	<path class="st0" d="M215.47,79.37c3.22,3.73,5.17,8.58,5.17,13.89c0,0.93-0.08,1.85-0.2,2.75h27.4c1.5-0.16,2.93-0.57,4.25-1.2
		C239.21,90.72,226.91,85.34,215.47,79.37z"/>
	<path class="st0" d="M199.33,114.58h-50.47c3.03,1.05,5.21,3.92,5.21,7.3c0,0,0,0,0,0c0,4.27-3.46,7.73-7.73,7.73h-7.2
		c-1.39,0.34-2.67,1.06-3.69,2.11c-1.45,1.36-2.27,3.26-2.27,5.26c0,4.15,3.36,7.51,7.5,7.53h0.24c-0.06,0-0.13,0-0.19,0
		c-0.02,0-0.03,0-0.05,0h-4.31c0,0,0.01,0,0.01,0h29.67c2.77,0,5.01,2.24,5.01,5.01c0,0,0,0,0,0c0,2.77-2.24,5.01-5.01,5.01
		c0,0,0,0,0,0h-1.94c6.52,1.32,13.28,2.02,20.19,2.02c19.61,0,37.91-5.58,53.4-15.23h-13.35c-4.54,0-8.22-3.68-8.22-8.22
		c0-4.54,3.68-8.22,8.22-8.22c0,0,0,0,0,0h33.45c3.22-3.41,6.21-7.04,8.93-10.87h-62.62C202.58,114.37,200.98,114.58,199.33,114.58z
		"/>
	<path class="st0" d="M202.61,72.24c5.11,0.79,9.62,3.39,12.86,7.14c11.44,5.97,23.75,11.35,36.63,15.44
		c4.18-2.01,7.17-6.17,7.44-11.13c0.02-0.29,0.02-0.59,0.02-0.88c0.02-6.92-5.08-12.64-11.73-13.61h-22.61
		c-7.67,0-13.89-6.22-13.89-13.89c0,0,0,0,0,0c0-7.67,6.22-13.89,13.89-13.89h58.97c-2.2-15.17-7.8-29.24-16-41.42H163.02
		c8.14,0,14.75,6.6,14.75,14.75c0,8.15-6.6,14.75-14.75,14.75c0,0,0,0,0,0H86.9c-0.19,0.69-0.37,1.39-0.55,2.09
		c36.39,0.05,78.9,17.2,107.83,35.51C196.92,68.82,199.73,70.54,202.61,72.24z"/>
	<path class="st0" d="M252.09,94.81c-1.31,0.63-2.74,1.04-4.25,1.2h8.17C254.71,95.63,253.4,95.23,252.09,94.81z"/>
	<path class="st0" d="M276.92,96.02c3.66-8.4,6.21-17.4,7.45-26.82h-36.55c6.65,0.97,11.76,6.69,11.73,13.61
		c0,0.29,0,0.59-0.02,0.88c-0.28,4.96-3.26,9.12-7.44,11.13c1.3,0.41,2.61,0.82,3.93,1.2H276.92z"/>
	<path class="st0" d="M115.31,129.38c-4.81-4.49-9.19-9.45-13.04-14.8H91.45c-3.03,1.05-5.21,3.92-5.21,7.3
		c0,4.27,3.46,7.73,7.73,7.73h19.97c-0.61-0.15-1.24-0.24-1.88-0.23H115.31z"/>
	<path class="st0" d="M115.31,129.38h25.61c-0.61,0.01-1.2,0.09-1.78,0.23h7.2c4.27,0,7.73-3.46,7.73-7.73c0,0,0,0,0,0
		c0-3.39-2.18-6.26-5.21-7.3h-46.6C106.12,119.93,110.5,124.89,115.31,129.38z"/>
	<path class="st0" d="M104.67,144.52C104.67,144.52,104.67,144.52,104.67,144.52c-2.77,0-5.01,2.24-5.01,5.01c0,0,0,0,0,0
		c0,2.77,2.24,5.01,5.01,5.01h59.44c-9.84-1.99-19.15-5.41-27.73-10.02H104.67z"/>
	<path class="st0" d="M166.05,154.54c2.77,0,5.01-2.24,5.01-5.01c0,0,0,0,0,0c0-2.77-2.24-5.01-5.01-5.01h-29.67
		c8.57,4.62,17.89,8.03,27.73,10.02H166.05C166.05,154.54,166.05,154.54,166.05,154.54z"/>
	<path class="st0" d="M240.24,154.54h-13.09c-1.74,0-3.15,1.41-3.15,3.15v3.73c0,1.74,1.41,3.15,3.15,3.15h13.09
		c1.74,0,3.15-1.41,3.15-3.15v-3.73C243.39,155.95,241.98,154.54,240.24,154.54z"/>
	<path class="st0" d="M237.71,141.33h32.26c4.54,0,8.22-3.68,8.22-8.22c0,0,0,0,0,0c0-4.54-3.68-8.22-8.22-8.22h-12.16
		C251.87,131.19,245.11,136.73,237.71,141.33z"/>
	<path class="st0" d="M224.36,124.89c-4.54,0-8.22,3.68-8.22,8.22c0,4.54,3.68,8.22,8.22,8.22h13.35
		c7.4-4.61,14.16-10.14,20.11-16.44H224.36C224.36,124.89,224.36,124.89,224.36,124.89z"/>
	<path class="st0" d="M113.94,129.62c1.35,0.34,2.61,1.03,3.61,2.03c3,3.01,2.99,7.89-0.03,10.89c-1.29,1.19-2.95,1.89-4.69,1.98
		h23.55c-7.58-4.08-14.56-9.1-20.82-14.9H113.94z"/>
	<path class="st0" d="M112.83,144.51h-0.77C112.32,144.53,112.58,144.53,112.83,144.51z"/>
	<path class="st0" d="M133.19,136.98c0-1.99,0.82-3.89,2.27-5.26c1.01-1.04,2.3-1.76,3.69-2.11h-23.58
		c6.25,5.8,13.24,10.82,20.82,14.9h4.31C136.54,144.49,133.19,141.13,133.19,136.98z"/>
	<path class="st0" d="M140.92,144.51h-0.24c0.02,0,0.03,0,0.05,0C140.8,144.52,140.86,144.52,140.92,144.51z"/>
	<path class="st0" d="M115.31,129.38h-3.25c0.64,0,1.27,0.08,1.88,0.23h1.62C115.48,129.54,115.39,129.46,115.31,129.38z"/>
	<path class="st0" d="M115.31,129.38c0.08,0.08,0.17,0.16,0.25,0.23h23.58c0.58-0.14,1.17-0.23,1.78-0.23H115.31z"/>
	<path class="st0" d="M284.39,69.04h13.12c-0.68,0-1.36,0.06-2.03,0.16h4.14c0,0,0,0,0,0c7.67,0,13.89-6.22,13.89-13.89c0,0,0,0,0,0
		c0-7.67-6.22-13.89-13.89-13.89h-15.44c0.69,4.75,1.05,9.6,1.05,14.54C285.24,60.4,284.95,64.76,284.39,69.04z"/>
	<path class="st0" d="M284.39,69.04c-0.01,0.05-0.02,0.11-0.02,0.16h11.11c0.67-0.1,1.35-0.16,2.03-0.16H284.39z"/>
	<path class="st0" d="M211.33,55.31C211.33,55.31,211.33,55.32,211.33,55.31c0,7.67,6.22,13.89,13.89,13.89h22.61
		c-0.63-0.09-1.27-0.15-1.92-0.16h-0.23c0.07,0,0.14,0,0.22,0c0.01,0,0.01,0,0.02,0h38.49c0.56-4.28,0.85-8.64,0.85-13.08
		c0-4.94-0.36-9.79-1.05-14.54h-58.97C217.54,41.43,211.33,47.64,211.33,55.31z"/>
	<path class="st0" d="M284.39,69.04H245.9c0.65,0,1.29,0.07,1.92,0.16h36.55C284.38,69.15,284.39,69.1,284.39,69.04z"/>
	<path class="st0" d="M245.67,69.04h0.23c-0.01,0-0.01,0-0.02,0C245.82,69.04,245.74,69.04,245.67,69.04z"/>
	<path class="st0" d="M274.84,100.47c-2.35,4.74-5.06,9.27-8.1,13.55h42.23c4.97,0,9-4.03,9-9c0-1.05-0.19-2.05-0.52-2.99
		c-5.28,0.45-11.04,0.72-17.28,0.72C291.62,102.76,283.16,101.94,274.84,100.47z"/>
	<path class="st0" d="M308.97,96.02h-13.24c0.44,0.05,0.89,0.07,1.34,0.07h0.45c-0.12,0-0.24,0-0.36,0c-0.03,0-0.06,0-0.09,0h-20.19
		c-0.65,1.48-1.33,2.94-2.04,4.38c8.31,1.47,16.78,2.29,25.33,2.29c6.24,0,12-0.27,17.28-0.72
		C316.22,98.53,312.89,96.02,308.97,96.02z"/>
	<path class="st0" d="M297.52,96.09h-0.45c0.03,0,0.06,0,0.09,0C297.28,96.1,297.4,96.09,297.52,96.09z"/>
	<path class="st0" d="M276.88,96.09h20.19c-0.45,0-0.9-0.03-1.34-0.07h-18.81C276.91,96.04,276.89,96.07,276.88,96.09z"/>
	<path class="st0" d="M256.27,96.09h-9.18c-0.47,0.02-0.94,0.03-1.42,0h1.42c0.26-0.01,0.51-0.05,0.76-0.07h-27.4
		c-1.15,8.87-7.74,16.03-16.32,18h62.62c3.04-4.28,5.75-8.81,8.1-13.55C268.55,99.36,262.35,97.87,256.27,96.09z"/>
	<path class="st0" d="M274.84,100.47c0.71-1.44,1.39-2.9,2.04-4.38h-20.62C262.35,97.87,268.55,99.36,274.84,100.47z"/>
	<path class="st0" d="M247.09,96.09h-1.42C246.15,96.12,246.62,96.11,247.09,96.09z"/>
	<path class="st0" d="M247.85,96.02c-0.25,0.03-0.5,0.06-0.76,0.07h9.18c-0.08-0.02-0.16-0.05-0.24-0.07H247.85z"/>
	<path class="st0" d="M256.02,96.02c0.08,0.02,0.16,0.05,0.24,0.07h20.62c0.01-0.02,0.02-0.05,0.03-0.07H256.02z"/>
	<path class="st0" d="M75.83,0c-8.14,0-14.75,6.6-14.75,14.75c0,8.14,6.6,14.75,14.74,14.75H86.9c2.9-10.64,7.51-20.57,13.52-29.5
		H75.83z"/>
	<path class="st0" d="M86.9,29.5h76.12c0,0,0,0,0,0c8.15,0,14.75-6.6,14.75-14.75c0-8.14-6.6-14.75-14.75-14.75h-62.6
		C94.41,8.92,89.81,18.86,86.9,29.5z"/>
	<path class="st0" d="M93.97,114.15h7.98c-8.77-12.3-14.83-26.65-17.32-42.19h-11.3c-11.77,0-21.31,9.54-21.31,21.31
		s9.54,21.31,21.31,21.31h18.12C92.24,114.31,93.09,114.15,93.97,114.15C93.97,114.15,93.97,114.15,93.97,114.15z"/>
	<path class="st0" d="M146.35,114.15c0.88,0,1.73,0.16,2.52,0.43h50.47c1.65,0,3.25-0.21,4.79-0.56h-5.4c-4.97,0-9-4.03-9-9
		c0-4.97,4.03-9,9-9h21.73c0.12-0.9,0.2-1.82,0.2-2.75c0-5.31-1.96-10.16-5.17-13.89c-4.42-2.31-8.71-4.7-12.86-7.14
		c-1.07-0.17-2.16-0.28-3.28-0.28H84.64c2.49,15.54,8.55,29.89,17.32,42.19H146.35z"/>
	<path class="st0" d="M202.61,72.24c4.14,2.44,8.44,4.83,12.86,7.14C212.24,75.63,207.73,73.03,202.61,72.24z"/>
	<path class="st0" d="M101.95,114.15h-7.98c0,0,0,0,0,0c-0.88,0-1.73,0.16-2.52,0.43h10.82
		C102.16,114.43,102.06,114.29,101.95,114.15z"/>
	<path class="st0" d="M101.95,114.15c0.1,0.14,0.21,0.28,0.31,0.43h46.6c-0.79-0.27-1.64-0.43-2.52-0.43H101.95z"/>
	<path class="st0" d="M189.72,105.02c0,4.97,4.03,9,9,9h5.4c8.59-1.97,15.18-9.13,16.32-18h-21.73
		C193.75,96.02,189.72,100.05,189.72,105.02z"/>
</g>
<g id="Grupo_14775" transform="translate(-19.771 -35.398)">
	<path id="Trazado_7399" class="st1" d="M206.77,134.75c0,0-10.98-38.26-28.65-36.64c-28.62,2.61-7.54,23.57-28.07,20.38
		c-18.41-2.86-19.87,32.16-19.87,32.16S173.75,142.18,206.77,134.75z"/>
	<g id="Grupo_13951" transform="translate(166.559 122.55)">
		<path id="Trazado_7400" class="st2" d="M22.55-13.53c0,0,5.61-10.84,3.99-16.01c-2.57-8.26-10.03-6.74-7.57-13.62
			s-5.4-7.78-10.03-11.1s-12.38-4.59-13.36-1.01c-0.98,3.58,6.83,2.17,7.13,6.57s-3.76,9.43,1.06,11.19s9.16-1.29,5.88,4.95
			S5.47-12.89,22.55-13.53z"/>
		<path id="Trazado_7401" class="st3" d="M21.28-17.61c-0.08,0-0.14-0.06-0.15-0.13c-0.04-0.33-3.99-32.69-22.36-36.7
			c-0.08-0.02-0.13-0.1-0.11-0.18c0.02-0.08,0.1-0.13,0.18-0.11c5.36,1.17,12.9,5.6,18.35,20.04c2.02,5.47,3.44,11.14,4.24,16.92
			c0.01,0.08-0.05,0.15-0.13,0.16c0,0,0,0,0,0H21.28z"/>
		<path id="Trazado_7402" class="st3" d="M20.36-22.98c-0.06,0-0.11-0.04-0.14-0.09c-2.73-6.34-9.51-7.62-9.57-7.63
			c-0.08-0.02-0.13-0.1-0.11-0.18c0.02-0.07,0.09-0.12,0.16-0.11c0.07,0.01,6.7,1.25,9.6,7.38c0.32-1.56,1.45-6.76,2.86-9.58
			c0.04-0.07,0.13-0.09,0.2-0.05c0.06,0.04,0.09,0.12,0.06,0.18c-1.64,3.29-2.91,9.88-2.93,9.95c-0.01,0.06-0.06,0.11-0.13,0.12
			L20.36-22.98z"/>
		<path id="Trazado_7403" class="st3" d="M16.47-35.98c-0.06,0-0.12-0.04-0.14-0.1c-0.98-2.57-8.92-5.59-9.01-5.62
			c-0.08-0.02-0.13-0.1-0.11-0.18S7.32-42,7.4-41.99c0.01,0,0.02,0.01,0.03,0.01c0.3,0.11,6.84,2.6,8.76,5.08
			c-0.29-1.93-0.84-6.96,0.71-10.28c0.03-0.08,0.11-0.12,0.19-0.09c0.08,0.03,0.12,0.11,0.09,0.19c0,0.01-0.01,0.02-0.01,0.02
			c-1.9,4.07-0.56,10.82-0.55,10.89c0.02,0.08-0.03,0.16-0.11,0.17C16.49-35.98,16.48-35.98,16.47-35.98L16.47-35.98z"/>
		<path id="Trazado_7404" class="st3" d="M11.56-45.17c-0.05,0-0.1-0.02-0.12-0.07c-1.08-1.61-8.2-5.4-8.27-5.44
			c-0.07-0.04-0.09-0.13-0.05-0.2c0.04-0.07,0.12-0.09,0.19-0.06c2.6,1.36,5.09,2.91,7.47,4.63c-0.88-1.51-2.32-4.27-2.3-6.08
			c0-0.08,0.06-0.14,0.14-0.15c0,0,0.01,0,0.01,0c0.08,0,0.15,0.07,0.15,0.15v0c-0.03,2.46,2.88,6.94,2.91,6.99
			c0.04,0.07,0.02,0.16-0.04,0.2C11.62-45.18,11.6-45.18,11.56-45.17L11.56-45.17z"/>
	</g>
	<path id="Trazado_7405" class="st4" d="M117.31,91.27H98.49c0,0-0.53-0.6,1.44-1.01s2.77,1.2,4.59-2.73
		c0.83-1.64,2.67-2.5,4.46-2.08c1.76,0.36,2.55,3.56,3.76,3.1s0.54-2.91,3.28-3.11s2.33,2.87,3.25,3.75s1.25-1.21,2.24-0.77
		s0.73,1.71,1.68,1.71c1.21,0.02,2.4,0.29,3.49,0.81C127.33,91.4,117.31,91.27,117.31,91.27z"/>
	<path id="Trazado_7406" class="st4" d="M289.59,112h-18.81c0,0-0.53-0.6,1.44-1.01s2.77,1.2,4.59-2.73
		c0.83-1.64,2.67-2.5,4.46-2.08c1.76,0.36,2.55,3.56,3.76,3.1s0.54-2.91,3.28-3.11s2.33,2.87,3.25,3.75s1.25-1.21,2.24-0.77
		s0.73,1.71,1.68,1.71c1.21,0.02,2.4,0.29,3.49,0.81C299.62,112.12,289.59,112,289.59,112z"/>
	<path id="Trazado_7408" class="st5" d="M215.52,93.16c0,0,23.84-10.54,28.17,5.84s-4.22,18.07,11.89,29.63
		c14.44,10.37-8.89,31.79-8.89,31.79S207.26,126.95,215.52,93.16z"/>
	<g id="Grupo_13952" transform="translate(215.961 121.258)">
		<path id="Trazado_7409" class="st6" d="M1.57-10.92c0,0-6.93-10.04-5.98-15.38c1.51-8.52,9.1-7.95,5.79-14.47s4.38-8.4,8.55-12.28
			s11.7-6.11,13.13-2.69s-6.5,3.01-6.24,7.41s4.91,8.88,0.36,11.23s-9.25-0.12-5.2,5.65S18.6-12.44,1.57-10.92z"/>
		<path id="Trazado_7410" class="st3" d="M2.29-15.13c-0.08,0-0.15-0.07-0.15-0.15C2.21-21.11,2.9-26.92,4.22-32.6
			c1.98-8.29,6.3-18.86,15.68-22.19c0.08-0.03,0.16,0.01,0.19,0.09c0.03,0.08-0.01,0.16-0.09,0.19C2.27-48.21,2.44-15.61,2.44-15.28
			C2.44-15.2,2.38-15.13,2.29-15.13C2.3-15.13,2.3-15.13,2.29-15.13L2.29-15.13z"/>
		<path id="Trazado_7411" class="st3" d="M2.53-20.57c-0.06,0-0.12-0.04-0.14-0.1c-0.02-0.06-2.11-6.45-4.16-9.5
			c-0.05-0.06-0.04-0.16,0.03-0.21s0.16-0.04,0.21,0.03c0,0.01,0.01,0.01,0.01,0.02c1.75,2.62,3.53,7.63,4.05,9.14
			c2.1-6.45,8.53-8.51,8.6-8.53c0.08-0.03,0.16,0.01,0.19,0.08c0.03,0.08-0.01,0.16-0.08,0.19c-0.01,0-0.01,0.01-0.02,0.01
			c-0.07,0.02-6.63,2.14-8.54,8.77C2.66-20.61,2.6-20.57,2.53-20.57L2.53-20.57z"/>
		<path id="Trazado_7412" class="st3" d="M4.75-33.96H4.73c-0.08-0.01-0.13-0.08-0.12-0.16c0.01-0.07,0.48-6.94-1.92-10.74
			c-0.04-0.07-0.02-0.16,0.05-0.2c0.07-0.04,0.15-0.02,0.2,0.04c1.96,3.1,2.04,8.15,2,10.11c1.6-2.7,7.76-5.99,8.05-6.15
			c0.07-0.04,0.16-0.02,0.2,0.05s0.02,0.16-0.05,0.2c-0.01,0-0.01,0.01-0.02,0.01c-0.08,0.04-7.58,4.04-8.22,6.71
			C4.88-34.01,4.82-33.96,4.75-33.96z"/>
		<path id="Trazado_7413" class="st3" d="M8.46-43.7c-0.02,0-0.04-0.01-0.07-0.01c-0.07-0.04-0.1-0.12-0.07-0.2c0,0,0,0,0,0
			c0.02-0.05,2.35-4.86,2.01-7.3c-0.01-0.08,0.05-0.16,0.13-0.17c0.08-0.01,0.15,0.04,0.17,0.12c0,0,0,0,0,0.01
			c0.25,1.79-0.83,4.71-1.52,6.32c2.14-2.01,4.42-3.86,6.83-5.53c0.06-0.05,0.16-0.04,0.21,0.02s0.04,0.16-0.02,0.21
			c-0.01,0.01-0.01,0.01-0.02,0.01c-0.07,0.05-6.65,4.71-7.51,6.44C8.57-43.74,8.52-43.7,8.46-43.7z"/>
	</g>
	<g id="Grupo_13955" transform="translate(193.988 124.759)">
		<path id="Trazado_7414" class="st7" d="M11.86-46.2c0,0-1.94-1.76-1.61-3.9s1.44-1.37,1.96-1.89c1.22-1.23,3.02-2.16,5.18-0.82
			s0.22,2.88,1.32,2.96s1.96-0.33,1.86,1.32s-2.27,1.69-1.93,2.47c0.51,0.82,0.25,1.9-0.57,2.41c-0.17,0.1-0.35,0.18-0.54,0.22
			C15.68-42.66,12.08-42.63,11.86-46.2z"/>
		<g id="Grupo_13953" transform="translate(3.103)">
			<path id="Trazado_7415" class="st8" d="M-2.81-43.36c-0.33,0-0.59-0.27-0.59-0.59c0-0.05,0.01-0.1,0.02-0.15l1.55-5.6
				c0.1-0.31,0.43-0.49,0.74-0.39c0.3,0.09,0.47,0.4,0.4,0.71l-1.55,5.6C-2.31-43.54-2.54-43.36-2.81-43.36z"/>
			<circle id="Elipse_196" class="st9" cx="-0.26" cy="-53.21" r="3.8"/>
			<path id="Trazado_7416" class="st8" d="M-0.25-49.04c-2.31,0-4.19-1.87-4.19-4.19c0-2.31,1.87-4.19,4.19-4.19
				c2.31,0,4.19,1.87,4.19,4.19c0,0.38-0.05,0.75-0.15,1.11C3.28-50.31,1.63-49.05-0.25-49.04z M-0.25-56.64
				c-1.88,0-3.41,1.52-3.41,3.4c0,1.88,1.52,3.41,3.4,3.41c1.88,0,3.41-1.52,3.41-3.4c0-1.53-1.02-2.88-2.5-3.29
				C0.35-56.6,0.05-56.64-0.25-56.64L-0.25-56.64z"/>
			
				<rect id="Rectángulo_1592" x="-5.72" y="-45.77" transform="matrix(0.2648 -0.9643 0.9643 0.2648 41.146 -35.3644)" class="st10" width="6.2" height="2.19"/>
			<circle id="Elipse_197" class="st11" cx="1.19" cy="-54.18" r="0.96"/>
		</g>
		<path id="Trazado_7417" class="st12" d="M-4.06-29.14c0,0-1.79-7.79,1.86-14.66c1.86-3.5,4.44-1.83,4.04-1.29
			s-2.25,0.41-2.79,2.69c-0.46,1.93-1.94,9.86,0.58,10.03s4.33-6.21,10.49-7.34l1.94,6.1C12.05-33.6-1.13-22.24-4.06-29.14z"/>
		<path id="Trazado_7418" class="st7" d="M10.11-39.7c0,0,10.23-1.89,11.93,0s3.64,12.36,3.64,12.36H9.18
			C9.18-27.34,8.16-38.69,10.11-39.7z"/>
		<path id="Trazado_7419" class="st12" d="M16.35-39.87l-3.19,0.18c0.16-1.82,0.1-3.65-0.16-5.46c-0.31-1.31,3.43-3.4,3.43-3.4
			L16.35-39.87z"/>
		<path id="Trazado_7420" class="st12" d="M10.93-49.96c0,0-0.59,6.36,2.72,6.96c2.1,0.38,4.2-4.79,2.57-7.23
			C15.36-51.53,10.76-51.46,10.93-49.96z"/>
		<circle id="Elipse_198" class="st7" cx="14.07" cy="-46.9" r="0.24"/>
		<circle id="Elipse_199" class="st7" cx="11.76" cy="-46.79" r="0.24"/>
		<path id="Trazado_7421" class="st13" d="M13.26-43.11c0,0,1.68,0.66,2.95-2.22c0.2-0.44,0.03,1.66-0.94,2.67
			c-0.58,0.61-1.27,1.12-2.03,1.5C13.23-41.17,13.26-42.2,13.26-43.11z"/>
		<circle id="Elipse_200" class="st13" cx="14.95" cy="-46.19" r="0.45"/>
		<path id="Trazado_7422" class="st7" d="M13.71-47.83c0.02,0.22,0.24-0.02,0.53-0.04s0.55,0.19,0.53-0.04
			c-0.06-0.25-0.3-0.42-0.56-0.37C13.92-48.25,13.7-48.06,13.71-47.83z"/>
		<path id="Trazado_7423" class="st7" d="M11.29-47.51c0.02,0.22,0.24-0.02,0.53-0.04s0.55,0.19,0.53-0.04
			c-0.06-0.25-0.3-0.42-0.56-0.37C11.51-47.93,11.28-47.73,11.29-47.51z"/>
		<circle id="Elipse_201" class="st13" cx="11.76" cy="-45.77" r="0.45"/>
		<path id="Trazado_7424" class="st8" d="M12.78-45.61c-0.02,0-0.03-0.01-0.05-0.02c-0.04-0.4-0.03-0.8,0.04-1.2
			c0-0.03,0.02-0.04,0.05-0.04h0.01c0.03,0,0.05,0.03,0.04,0.05c-0.04,0.35-0.07,0.71-0.07,1.07c0.12-0.2,0.22-0.41,0.32-0.63
			c0.01-0.02,0.04-0.04,0.07-0.03c0.02,0.01,0.04,0.04,0.03,0.06c0,0,0,0,0,0C12.89-45.63,12.81-45.61,12.78-45.61z"/>
		<path id="Trazado_7425" class="st8" d="M13.13-44.56c-0.22,0-0.43-0.26-0.63-0.79c-0.01-0.03,0-0.05,0.03-0.06s0.05,0,0.06,0.03
			c0.22,0.6,0.41,0.72,0.54,0.72h0.01c0.28-0.01,0.51-0.65,0.58-0.9c0.01-0.03,0.03-0.04,0.06-0.04c0.03,0.01,0.04,0.03,0.04,0.06
			c-0.03,0.1-0.27,0.96-0.67,0.97H13.13z"/>
		<path id="Trazado_7426" class="st7" d="M10.9-48.84c0,0,0.03-2.04,1.18-1.15c1.11,0.87,1.64-0.32,2.77-0.57s1.73,3.06,1.72,3.16
			s1.08-2.13,0.62-3.3s-1.63-1.31-3.34-1.35S10.05-50.77,10.9-48.84z"/>
		<g id="Grupo_13954" transform="translate(21.032 8.777)">
			<path id="Trazado_7427" class="st12" d="M-4.4-56.42c0,0,0.61-1.5,1.1-0.83s-0.37,2.24-0.9,1.99S-4.4-56.42-4.4-56.42z"/>
			<path id="Trazado_7428" class="st8" d="M-4.11-55.63c-0.02,0-0.04-0.02-0.05-0.04c-0.14-0.33-0.11-0.71,0.07-1.02
				c0.11-0.13,0.27-0.2,0.44-0.2c0.03,0,0.05,0.02,0.05,0.05c0,0.03-0.02,0.05-0.05,0.05c-0.14,0-0.27,0.06-0.36,0.17
				c-0.16,0.29-0.17,0.63-0.05,0.93c0.01,0.03-0.01,0.05-0.03,0.06c0,0,0,0,0,0L-4.11-55.63z"/>
			<path id="Trazado_7429" class="st8" d="M-4-55.93L-4-55.93c-0.03,0-0.05-0.03-0.04-0.06c0,0,0,0,0,0
				c0.08-0.54-0.02-0.64-0.03-0.64c-0.02-0.01-0.03-0.04-0.01-0.07c0,0,0,0,0,0c0.02-0.02,0.05-0.03,0.07-0.01
				c0.03,0.02,0.15,0.13,0.07,0.74C-3.94-55.94-3.97-55.92-4-55.93C-4-55.92-4-55.92-4-55.93z"/>
		</g>
		<path id="Trazado_7430" class="st12" d="M27.05-26.87c0,0,1.08-3.18-1.83-10.05c-1.2-2.84-5.04-3.49-5.04-3.49l1.83,10.36
			C22.01-30.05,25.96-26.39,27.05-26.87z"/>
		<path id="Trazado_7431" class="st7" d="M21.15-31.82l5.58-0.54c-0.55-3.58-1.5-5.14-3.97-7.17c-1.8-1.48-5.45-0.89-5.45-0.89
			S19.78-32.42,21.15-31.82z"/>
		<path id="Trazado_7432" class="st7" d="M3.75-35.81c0,0,1.27,4.14,3.42,5.01c0,0,2.96-1.77,3.99-2.24s1.05-7,1.05-7
			S7.8-40.42,3.75-35.81z"/>
		<path id="Trazado_7433" class="st12" d="M11.52-40.09c2.1-0.5,4.27-0.65,6.42-0.44c0,0-1.52,3.35-3.44,3.23
			S11.52-40.09,11.52-40.09z"/>
		<path id="Trazado_7434" class="st14" d="M17.12-49.91c-0.6,0-1.07-0.53-1.5-1.01c-0.42-0.46-0.81-0.9-1.27-0.9h-0.03
			c-0.27,0-0.53,0.11-0.71,0.32c-0.25,0.37-0.37,0.81-0.33,1.26c0,0.03-0.02,0.05-0.05,0.05s-0.05-0.02-0.05-0.05
			c-0.05-0.47,0.08-0.94,0.35-1.33c0.2-0.22,0.48-0.35,0.78-0.35h0.03c0.51,0,0.92,0.46,1.35,0.94c0.63,0.71,1.23,1.37,2.15,0.7
			c0.02-0.02,0.05-0.01,0.07,0.01c0.02,0.02,0.01,0.05-0.01,0.07C17.68-50.02,17.4-49.92,17.12-49.91z"/>
		<path id="Trazado_7435" class="st14" d="M12.55-50.29c-0.02,0-0.04-0.01-0.05-0.03c-0.18-0.5-0.15-1.05,0.07-1.53
			c0.25-0.42,0.67-0.72,1.15-0.8c0.67-0.15,1.38,0.01,1.93,0.42c0.56,0.34,1,0.6,1.7-0.09c0.02-0.02,0.05-0.02,0.07,0
			c0.02,0.02,0.02,0.05,0,0.07c-0.76,0.74-1.25,0.45-1.82,0.1c-0.53-0.4-1.2-0.55-1.85-0.41c-0.46,0.08-0.85,0.35-1.09,0.75
			c-0.2,0.46-0.22,0.98-0.06,1.45c0.01,0.03,0,0.05-0.03,0.06C12.56-50.3,12.56-50.3,12.55-50.29L12.55-50.29z"/>
		<path id="Trazado_7436" class="st14" d="M12.05-50.29c-0.02,0-0.04-0.02-0.05-0.04c0-0.01-0.14-0.56-0.51-0.67
			c-0.22-0.07-0.47,0.04-0.76,0.3c-0.02,0.02-0.05,0.02-0.07,0c-0.02-0.02-0.02-0.05,0-0.07c0.21-0.25,0.53-0.38,0.86-0.32
			c0.42,0.13,0.57,0.72,0.58,0.74c0.01,0.03-0.01,0.05-0.04,0.06L12.05-50.29z"/>
		<path id="Trazado_7437" class="st14" d="M19.36-47.73c-0.32,0-0.58-0.39-0.85-0.77c-0.1-0.16-0.21-0.31-0.33-0.45
			c-0.35-0.33-0.86-0.45-1.32-0.31c-0.03,0.01-0.05-0.01-0.06-0.03c-0.01-0.03,0.01-0.05,0.03-0.06l0,0
			c0.5-0.16,1.05-0.03,1.42,0.33c0.12,0.15,0.23,0.3,0.34,0.46c0.25,0.37,0.51,0.74,0.77,0.73c0.16-0.01,0.33-0.16,0.51-0.47
			c0.01-0.02,0.04-0.03,0.07-0.02c0.02,0.01,0.03,0.04,0.02,0.07c-0.19,0.34-0.39,0.51-0.59,0.51L19.36-47.73z"/>
		<path id="Trazado_7438" class="st14" d="M18.18-44.8h-0.02c-0.63-0.03-1.36-1.31-1.4-1.36c-0.01-0.02,0-0.05,0.02-0.06
			c0.02-0.01,0.05,0,0.06,0.02c0.01,0.01,0.74,1.29,1.32,1.31c0.15,0,0.29-0.08,0.36-0.21c0.02-0.02,0.05-0.03,0.07-0.01
			c0.02,0.01,0.03,0.05,0.01,0.07c0,0,0,0,0,0C18.52-44.9,18.36-44.8,18.18-44.8z"/>
		<path id="Trazado_7439" class="st8" d="M-1.34-44.48c-0.03,0-0.05-0.02-0.05-0.05c0-0.01,0-0.02,0.01-0.03
			c0.22-0.28,0.47-0.53,0.76-0.75c0.55-0.45,1.26-0.64,1.95-0.54c0.03,0,0.04,0.03,0.04,0.06c0,0,0,0,0,0
			c-0.01,0.03-0.03,0.04-0.06,0.04C0.29-45.8-0.7-45.33-1.3-44.5C-1.31-44.49-1.33-44.48-1.34-44.48z"/>
		<path id="Trazado_7440" class="st8" d="M-0.98-44.25c-0.01,0-0.03-0.01-0.04-0.01c-0.02-0.02-0.02-0.05,0-0.07
			c0.78-0.71,1.79-1.1,2.83-1.1c0.03,0,0.05,0.02,0.05,0.05c0,0,0,0,0,0c0,0.03-0.03,0.05-0.05,0.05c-1.02,0-2.01,0.39-2.76,1.08
			C-0.95-44.26-0.96-44.25-0.98-44.25z"/>
		<path id="Trazado_7441" class="st8" d="M-0.72-44.08c-0.01,0-0.02,0-0.03-0.01c-0.28-0.21-0.59-0.39-0.91-0.53
			c-0.03-0.01-0.04-0.04-0.03-0.06c0,0,0,0,0,0c0.01-0.03,0.04-0.04,0.06-0.03c0.33,0.14,0.65,0.33,0.94,0.55
			c0.02,0.02,0.03,0.05,0.01,0.07C-0.69-44.09-0.71-44.08-0.72-44.08z"/>
	</g>
	<path id="Trazado_7442" class="st15" d="M86.6,180.21c0,0,16.32-56.07,51.85-31.59c20.77,14.31,27.53-40.54,45.45-47.54
		c56.14-21.92,53.04,55.87,68.49,58c15.39,2.12,38.46-15.24,52.38,21.13L86.6,180.21z"/>
	<g id="Grupo_13956" transform="translate(254.824 180.35)">
		<path id="Trazado_7443" class="st6" d="M0.71-12.09c0,0-6.31-10.45-5.04-15.71c2.02-8.41,9.56-7.38,6.65-14.09
			s4.88-8.11,9.28-11.74s12.05-5.39,13.27-1.89s-6.67,2.61-6.68,7.02s4.37,9.16-0.32,11.23s-9.22-0.68-5.54,5.33
			S17.8-12.59,0.71-12.09z"/>
		<path id="Trazado_7444" class="st3" d="M1.69-16.26L1.69-16.26c-0.09,0-0.15-0.07-0.15-0.15C1.96-22.23,3-27.98,4.66-33.57
			c2.48-8.15,7.43-18.44,16.99-21.2c0.08-0.02,0.16,0.03,0.18,0.11c0.02,0.07-0.02,0.15-0.1,0.17C3.67-49.27,1.86-16.72,1.84-16.39
			C1.84-16.32,1.77-16.26,1.69-16.26z"/>
		<path id="Trazado_7445" class="st3" d="M2.26-21.67L2.26-21.67c-0.07,0-0.13-0.05-0.14-0.11c-0.02-0.07-1.72-6.57-3.58-9.74
			c-0.04-0.07-0.01-0.16,0.07-0.2c0.07-0.03,0.15-0.01,0.19,0.05c1.59,2.72,3.06,7.83,3.49,9.37c2.49-6.31,9.03-7.98,9.1-8
			c0.08-0.02,0.16,0.04,0.17,0.12c0.01,0.07-0.03,0.15-0.1,0.17C11.39-30,4.7-28.28,2.4-21.77C2.38-21.71,2.33-21.67,2.26-21.67z"/>
		<path id="Trazado_7446" class="st3" d="M5.29-34.9c-0.01,0-0.02,0-0.03,0c-0.08-0.02-0.13-0.09-0.11-0.16
			c0.01-0.07,0.9-6.9-1.27-10.83c-0.03-0.07,0-0.16,0.07-0.2c0.07-0.03,0.14-0.01,0.18,0.05c1.76,3.21,1.55,8.26,1.38,10.21
			c1.76-2.6,8.11-5.51,8.41-5.65c0.07-0.04,0.16-0.01,0.2,0.06c0.04,0.07,0.01,0.16-0.06,0.2c-0.01,0-0.01,0.01-0.02,0.01
			c-0.08,0.04-7.81,3.58-8.61,6.2C5.41-34.94,5.35-34.9,5.29-34.9z"/>
		<path id="Trazado_7447" class="st3" d="M9.58-44.4c-0.08,0-0.15-0.07-0.15-0.15c0-0.03,0.01-0.05,0.02-0.07
			c0.03-0.05,2.64-4.71,2.45-7.16c0-0.08,0.06-0.15,0.14-0.16c0.08,0,0.15,0.05,0.15,0.13c0.14,1.8-1.12,4.65-1.9,6.21
			c2.26-1.87,4.64-3.58,7.15-5.11c0.07-0.04,0.16-0.02,0.2,0.05c0.04,0.07,0.02,0.16-0.05,0.2l0,0c-0.07,0.04-6.92,4.3-7.89,5.98
			C9.68-44.43,9.63-44.4,9.58-44.4z"/>
	</g>
	<g id="Grupo_13957" transform="translate(258.938 200.122)">
		<path id="Trazado_7448" class="st9" d="M-4.5-28.77c0,0,0.58-12.19,4.57-15.86c6.37-5.86,12.05-0.8,13.38-8s8.57-4.02,14.24-4.58
			s13.01,2.24,12.07,5.82s-6.99-1.55-9.46,2.11s-1.48,10.04-6.52,9.15s-7.28-5.71-7.57,1.34S9.96-19.65-4.5-28.77z"/>
		<path id="Trazado_7449" class="st3" d="M-1.28-31.65c-0.08,0-0.15-0.07-0.15-0.15c0-0.03,0.01-0.06,0.03-0.09
			c3.58-4.6,7.66-8.8,12.15-12.52c6.6-5.39,16.45-11.17,25.92-8.14c0.08,0.02,0.12,0.11,0.1,0.19c-0.02,0.08-0.11,0.12-0.19,0.1
			C18.66-57.99-0.97-31.97-1.16-31.71C-1.19-31.67-1.23-31.65-1.28-31.65z"/>
		<path id="Trazado_7450" class="st3" d="M2.21-35.83c-0.03,0-0.06-0.01-0.09-0.03c-0.05-0.04-0.07-0.11-0.05-0.17
			c0.02-0.06,2.23-6.41,2.46-10.08c0-0.08,0.06-0.14,0.13-0.14c0.01,0,0.01,0,0.02,0c0.08,0,0.14,0.07,0.14,0.16
			C4.63-42.94,3-37.87,2.5-36.36c5.58-3.85,11.94-1.6,12.01-1.57c0.08,0.03,0.11,0.12,0.08,0.19c-0.03,0.07-0.11,0.1-0.18,0.08
			c-0.07-0.02-6.57-2.32-12.11,1.8C2.27-35.84,2.24-35.83,2.21-35.83z"/>
		<path id="Trazado_7451" class="st3" d="M12.09-45.13c-0.08,0-0.15-0.07-0.15-0.15c0-0.04,0.01-0.07,0.04-0.1
			c0.05-0.05,4.59-5.23,4.98-9.7c0.01-0.08,0.08-0.14,0.16-0.13c0,0,0,0,0,0c0.08,0.01,0.14,0.08,0.13,0.16
			c-0.32,3.65-3.32,7.72-4.54,9.25c2.91-1.18,9.81-0.06,10.13-0.01c0.08,0.01,0.14,0.09,0.12,0.17c-0.01,0.08-0.09,0.14-0.17,0.12
			c-0.08-0.01-8.48-1.38-10.61,0.35C12.16-45.14,12.12-45.13,12.09-45.13z"/>
		<path id="Trazado_7452" class="st3" d="M20.95-50.63c-0.08,0-0.15-0.07-0.15-0.15c0-0.06,0.03-0.11,0.08-0.13
			c0.05-0.02,4.82-2.44,6.02-4.59c0.04-0.07,0.13-0.09,0.2-0.05c0.07,0.04,0.09,0.13,0.06,0.2c-0.89,1.58-3.52,3.24-5.04,4.1
			c2.92-0.3,5.85-0.39,8.78-0.26c0.08,0,0.15,0.07,0.14,0.15c0,0.08-0.07,0.14-0.15,0.14c-0.08,0-8.14-0.29-9.88,0.57
			C20.99-50.63,20.97-50.63,20.95-50.63z"/>
	</g>
	<path id="Trazado_7453" class="st2" d="M189.37,124.33c0,0,13.86-6.11,29.23,5.89c13.79,10.77,5.4,29.1,20.7,20.83
		c12.68-6.86,29.43-1.15,29.35,12.87s16.12,2.07,23.01,16.3H189.37V124.33z"/>
	<g id="Grupo_13958" transform="translate(102.508 205.254)">
		<path id="Trazado_7454" class="st1" d="M44.05-34.8c0,0-3.36-11.73-8.09-14.38c-7.54-4.24-11.91,1.99-14.85-4.71
			s-9.26-1.95-14.92-1.19s-12.15,5.16-10.41,8.44s6.45-3.11,9.69-0.12s3.74,9.43,8.45,7.41s5.77-7.22,7.67-0.43
			S32.07-22.61,44.05-34.8z"/>
		<path id="Trazado_7455" class="st3" d="M40.23-36.86c-0.03,0-0.07-0.01-0.1-0.04c-0.25-0.21-25.34-21.03-41.45-11.34
			c-0.07,0.05-0.16,0.03-0.21-0.04c-0.05-0.07-0.03-0.16,0.04-0.21c0.01,0,0.01-0.01,0.02-0.01c4.71-2.83,13.23-4.79,27.1,1.97
			c5.22,2.59,10.15,5.74,14.69,9.39c0.06,0.05,0.07,0.15,0.02,0.21C40.31-36.88,40.27-36.86,40.23-36.86L40.23-36.86z"/>
		<path id="Trazado_7456" class="st3" d="M23.53-39.09c-0.08,0-0.15-0.07-0.15-0.15c0-0.05,0.03-0.09,0.07-0.12
			c0.06-0.04,5.73-3.69,12.05-1.23c-0.84-1.35-3.58-5.91-4.49-8.93c-0.03-0.08,0.01-0.16,0.09-0.19c0.08-0.03,0.16,0.01,0.19,0.09
			c0,0,0,0.01,0,0.01c1.06,3.52,4.67,9.19,4.7,9.24c0.04,0.07,0.02,0.16-0.05,0.2c-0.04,0.03-0.09,0.03-0.14,0.01
			c-6.34-2.74-12.14,0.99-12.2,1.03C23.59-39.1,23.56-39.09,23.53-39.09z"/>
		<path id="Trazado_7457" class="st3" d="M13.59-44.83c-0.08,0-0.15-0.07-0.15-0.15c0-0.06,0.04-0.11,0.09-0.13
			c0.3-0.13,6.76-2.8,9.86-2.32c-1.54-1.2-5.39-4.48-6.54-7.96c-0.02-0.08,0.03-0.16,0.11-0.18c0.07-0.02,0.14,0.02,0.17,0.09
			c1.41,4.27,7.02,8.26,7.08,8.3c0.07,0.05,0.08,0.14,0.03,0.21c-0.04,0.06-0.12,0.08-0.18,0.05c-2.48-1.2-10.33,2.06-10.41,2.09
			C13.63-44.83,13.61-44.83,13.59-44.83z"/>
		<path id="Trazado_7458" class="st3" d="M4.42-48.51c-0.08,0-0.15-0.07-0.15-0.15c0-0.06,0.04-0.12,0.11-0.14
			c2.82-0.79,5.7-1.38,8.61-1.76c-1.68-0.49-4.62-1.51-5.85-2.84c-0.05-0.06-0.04-0.16,0.02-0.21c0.06-0.05,0.14-0.04,0.19,0.01
			c1.66,1.81,6.86,3.07,6.91,3.08c0.08,0.02,0.13,0.1,0.11,0.18c-0.02,0.08-0.1,0.13-0.17,0.11c0,0,0,0,0,0
			c-1.89-0.43-9.67,1.7-9.75,1.72C4.44-48.52,4.43-48.51,4.42-48.51z"/>
	</g>
	<g id="Grupo_13959" transform="translate(117.079 180.767)">
		<path id="Trazado_7459" class="st7" d="M22.55-13.52c0,0,5.61-10.84,3.99-16.01c-2.57-8.26-10.03-6.73-7.57-13.62
			s-5.4-7.78-10.03-11.11s-12.38-4.59-13.36-1.01s6.83,2.17,7.13,6.57s-3.75,9.43,1.06,11.19s9.16-1.29,5.88,4.95
			S5.47-12.89,22.55-13.52z"/>
		<path id="Trazado_7460" class="st3" d="M21.29-17.61c-0.08,0-0.14-0.06-0.15-0.13c-0.04-0.33-3.99-32.69-22.36-36.7
			c-0.08-0.02-0.13-0.1-0.11-0.18c0.02-0.08,0.1-0.13,0.18-0.11c5.36,1.17,12.9,5.6,18.35,20.04c2.02,5.47,3.44,11.14,4.24,16.92
			c0.01,0.08-0.05,0.15-0.13,0.16c0,0,0,0,0,0L21.29-17.61z"/>
		<path id="Trazado_7461" class="st3" d="M20.36-22.98c-0.06,0-0.11-0.04-0.13-0.09c-2.73-6.35-9.51-7.61-9.57-7.63
			c-0.08-0.02-0.13-0.1-0.11-0.18c0.02-0.07,0.09-0.12,0.16-0.11c0.07,0.01,6.7,1.25,9.6,7.38c0.32-1.56,1.45-6.76,2.86-9.58
			c0.04-0.07,0.13-0.09,0.2-0.05c0.06,0.04,0.09,0.12,0.06,0.18c-1.65,3.29-2.91,9.89-2.93,9.95c-0.01,0.06-0.06,0.11-0.13,0.12
			L20.36-22.98z"/>
		<path id="Trazado_7462" class="st3" d="M16.47-35.98c-0.06,0-0.12-0.04-0.14-0.1c-0.98-2.57-8.93-5.59-9.01-5.62
			c-0.08-0.02-0.13-0.1-0.11-0.18c0.02-0.08,0.1-0.13,0.18-0.11c0.01,0,0.02,0.01,0.04,0.01c0.3,0.11,6.84,2.6,8.76,5.08
			c-0.29-1.93-0.84-6.96,0.71-10.28c0.04-0.07,0.13-0.1,0.2-0.06c0.07,0.04,0.1,0.12,0.07,0.19c-1.9,4.07-0.56,10.83-0.55,10.89
			c0.02,0.08-0.04,0.16-0.12,0.17C16.49-35.98,16.48-35.98,16.47-35.98L16.47-35.98z"/>
		<path id="Trazado_7463" class="st3" d="M11.56-45.18c-0.05,0-0.1-0.02-0.12-0.07c-1.08-1.61-8.2-5.4-8.27-5.44
			c-0.07-0.04-0.09-0.13-0.05-0.2c0.04-0.07,0.12-0.09,0.19-0.06c2.6,1.36,5.09,2.91,7.47,4.63c-0.88-1.51-2.32-4.27-2.3-6.08
			c0-0.08,0.07-0.15,0.15-0.15l0,0c0.08,0,0.15,0.07,0.15,0.15c0,0,0,0,0,0c-0.03,2.46,2.88,6.94,2.91,6.99
			c0.04,0.07,0.03,0.16-0.04,0.2C11.62-45.18,11.59-45.18,11.56-45.18L11.56-45.18z"/>
	</g>
	<path id="Trazado_7464" class="st16" d="M213.9,180.21c0,0-7.69-83.81-45.12-51.56c-10.04,8.65-14.33,19.42-20.64,17.39
		c-10.4-3.34-22.45,3.7-22.1,20.85c0.22,10.62-15.27,2.54-20.49,13.32H213.9z"/>
	<path id="Trazado_7465" class="st9" d="M235.32,180.21h-87.19c0,0,8.67-12.54,23.4-10.29s18.31-16.78,39.59-17.69
		C231.06,151.38,235.32,180.21,235.32,180.21z"/>
	<g id="Grupo_13962" transform="translate(157.711 135.336)">
		<path id="Trazado_7466" class="st8" d="M23.19,46.37c-0.87,0-1.58-0.71-1.57-1.58c0-0.2,0.04-0.41,0.12-0.59L41.38-3.7
			c0.33-0.8,1.25-1.19,2.06-0.86c0.8,0.33,1.19,1.25,0.86,2.06l0,0L24.65,45.39C24.41,45.98,23.83,46.37,23.19,46.37z"/>
		<path id="Trazado_7467" class="st8" d="M62.6,46.37c-0.64,0-1.22-0.39-1.46-0.98L41.49-2.5c-0.33-0.81,0.05-1.73,0.86-2.06
			c0.81-0.33,1.73,0.05,2.06,0.86l19.65,47.89c0.33,0.81-0.06,1.73-0.86,2.06C63,46.32,62.8,46.36,62.6,46.37L62.6,46.37z"/>
		<g id="Grupo_13960" transform="translate(0 15.661)">
			<circle id="Elipse_202" class="st10" cx="43.44" cy="-18.77" r="38.66"/>
			<circle id="Elipse_203" class="st11" cx="43.44" cy="-18.77" r="32.32"/>
			<circle id="Elipse_204" class="st10" cx="43.44" cy="-18.77" r="26.37"/>
			<circle id="Elipse_205" class="st11" cx="43.44" cy="-18.77" r="18.06"/>
			<circle id="Elipse_206" class="st10" cx="43.44" cy="-18.77" r="11.83"/>
			<circle id="Elipse_207" class="st11" cx="43.44" cy="-18.77" r="5.73"/>
			<circle id="Elipse_208" class="st17" cx="43.44" cy="-18.77" r="3.13"/>
			<line id="Línea_258" class="st18" x1="74.86" y1="15.87" x2="-4.5" y2="-30.97"/>
			<path id="Trazado_7468" class="st19" d="M4.92-18.77c0,21.35,17.31,38.66,38.66,38.66c8.73,0,17.2-2.95,24.03-8.38L5.45-25.18
				C5.1-23.06,4.92-20.92,4.92-18.77z"/>
		</g>
		<path id="Trazado_7469" class="st19" d="M80.86-1.53H43.08c-0.87,0.02-1.59-0.67-1.62-1.54S42.13-4.66,43-4.68
			c0.03,0,0.05,0,0.08,0h37.78c0.87-0.02,1.59,0.67,1.62,1.54s-0.67,1.59-1.54,1.62C80.91-1.53,80.89-1.53,80.86-1.53z"/>
		<g id="Grupo_13961" transform="translate(46.368 0)">
			<path id="Trazado_7470" class="st9" d="M40.78-46.91L18.5-24.63l10.7-0.07l22.1-22.1L40.78-46.91z"/>
			<path id="Trazado_7471" class="st9" d="M40.78-46.91L18.5-24.62l0.07-10.7l22.1-22.1L40.78-46.91z"/>
			<path id="Trazado_7472" class="st8" d="M-2.93-1.63C-3.8-1.63-4.5-2.33-4.5-3.2c0-0.42,0.17-0.82,0.46-1.11l43.3-43.3
				c0.63-0.61,1.62-0.59,2.23,0.04c0.59,0.61,0.59,1.58,0,2.19l-43.3,43.3C-2.11-1.79-2.51-1.62-2.93-1.63z"/>
		</g>
	</g>
	<g id="Grupo_13966" transform="translate(239.858 170.409)">
		<path id="Trazado_7473" class="st7" d="M20.04-50.78c0,0,1.21-1.37,2-0.55c0.98,1.04,0.92,1.91-0.63,2.22S19.68-49.95,20.04-50.78
			z"/>
		<g id="Grupo_13963" transform="translate(3.333 36.217)">
			<path id="Trazado_7474" class="st20" d="M0.03-57.38c0,0-4.22,13.84-2.8,20.85c0.86,4.24,6.9,14.5,6.9,14.5l-3.26,0.99
				c0.73,0.34,5.54,0.17,5.54,0.17s-3.64-10.1-3.89-16.14C2.39-40.29,5.4-50.23,5.4-50.23s0.36,6.82,1.05,11.18
				c1.11,7.08,4.99,13.13,5.93,15.56c0.45,0.69,0.99,1.31,1.62,1.85c1.07-0.23,0.86-1.35,0.63-2.1c-1.26-4.54-2.2-9.17-2.79-13.84
				c-0.3-3.29,1.42-17.11,1.42-17.11S2.57-57.86,0.03-57.38z"/>
			<path id="Trazado_7475" class="st7" d="M-2.16-52.61c0,0-1.94,6.62-2.34,9.38c0,0,7.17,1.05,8.11,1.05l1.75-6.34
				c0,0,0.2,5.95,0.22,6.87c0,0,5.91-0.39,7.29-0.52c0,0,0.66-9.72,0.43-10.7S0.19-53.84-2.16-52.61z"/>
			<path id="Trazado_7476" class="st7" d="M3.28-23.5c0.74-0.17,1.49-0.25,2.24-0.25c0.22,1,1.13,2.64,0.89,2.88
				c-1.95,0.24-3.91,0.25-5.86,0.02c-1.06-0.23,3.35-0.81,3.15-1.63C3.59-22.83,3.45-23.17,3.28-23.5z"/>
			<path id="Trazado_7477" class="st7" d="M12.38-23.5c0.74-0.17,1.49-0.25,2.24-0.25c0.22,1,1.13,2.64,0.89,2.88
				c-1.95,0.24-3.91,0.25-5.86,0.02c-1.06-0.23,3.35-0.81,3.15-1.63C12.69-22.83,12.55-23.17,12.38-23.5z"/>
			<path id="Trazado_7478" class="st21" d="M7.13-48.67H3.6c-0.03,0-0.05-0.02-0.05-0.05c0-0.03,0.02-0.05,0.05-0.05h3.53
				c0.03,0,0.05,0.02,0.05,0.05C7.18-48.69,7.16-48.67,7.13-48.67z"/>
			<path id="Trazado_7479" class="st21" d="M13.21-47.57c-0.01,0-0.02,0-0.02-0.01c-0.04-0.02-3.8-2.07-3.13-5.04
				c0.01-0.03,0.03-0.04,0.06-0.04c0.03,0.01,0.04,0.03,0.04,0.06c0,0,0,0,0,0c-0.66,2.91,3.04,4.91,3.08,4.93
				c0.02,0.01,0.03,0.04,0.02,0.07C13.24-47.58,13.22-47.57,13.21-47.57L13.21-47.57z"/>
			<path id="Trazado_7480" class="st21" d="M-3.16-48.67c-0.02,0-0.04-0.02-0.05-0.04c-0.01-0.03,0.01-0.05,0.04-0.06c0,0,0,0,0,0
				c0.04-0.01,3.61-0.95,3.96-3.94c0-0.03,0.02-0.05,0.05-0.04c0,0,0,0,0,0c0.03,0,0.05,0.03,0.04,0.05c-0.36,3.06-4,4.01-4.04,4.02
				L-3.16-48.67z"/>
			<path id="Trazado_7481" class="st21" d="M5.37-48.67L5.37-48.67c-0.03,0-0.05-0.03-0.05-0.05l0.47-3.89
				c0-0.03,0.03-0.05,0.05-0.04c0,0,0,0,0,0c0.03,0,0.05,0.03,0.04,0.05l-0.47,3.89C5.41-48.69,5.39-48.67,5.37-48.67z"/>
			<path id="Trazado_7482" class="st21" d="M5.49-49.54c-0.01,0-0.02,0-0.03-0.01c-1.2-0.88-1.09-3.05-1.08-3.14
				c0-0.03,0.02-0.05,0.05-0.05l0,0c0.03,0,0.05,0.03,0.05,0.05c0,0.02-0.12,2.21,1.04,3.06c0.02,0.02,0.03,0.05,0.01,0.07
				C5.52-49.55,5.5-49.54,5.49-49.54L5.49-49.54z"/>
		</g>
		<path id="Trazado_7483" class="st20" d="M20.94-37.53c0,0,8.13,6.58,6.68,12.42c-1.15,4.61-8,7.86-8.13,9.49
			c-0.18,2.24,1.91,2.31,1.26,2.53s-2.78,0.9-2.48-2.36c0.3-3.21,6.23-7.76,6.23-10.29s-5.34-7.64-5.34-7.64L20.94-37.53z"/>
		<g id="Grupo_13964">
			<path id="Trazado_7484" class="st22" d="M10.48-37.53c0,0-0.67-4.81-9.31,3.76c-3.95,3.92,3.45-8.31,3.03-10.94
				c-0.16-0.99-0.92-1.21-1.85-0.7s1.23,0.67,0.54,1.9C1.72-41.45-7.93-32.65-3.2-28.72c3.75,3.11,9.72-2.81,10.71-3.09l2.96-3.16
				C10.47-34.97,12.63-37.34,10.48-37.53z"/>
			<path id="Trazado_7485" class="st7" d="M1.91-57.43l-3.49,3.82l5.53,5.05l1.39-1.52L1.91-57.43z"/>
			<path id="Trazado_7486" class="st7" d="M-4.5-50.4l3.49-3.82l5.53,5.05l-1.39,1.52L-4.5-50.4z"/>
			<path id="Trazado_7487" class="st7" d="M4.18-46.64l-3.4,2.31l1.56,1.42l2.69-2.95L4.18-46.64z"/>
			<path id="Trazado_7488" class="st23" d="M4.76-51.32l-2.92,3.2l2.9,2.65c0.7,0.64,1.79,0.59,2.43-0.11c0,0,0,0,0,0l0.61-0.67
				c0.64-0.7,0.59-1.79-0.11-2.43L4.76-51.32z"/>
			<path id="Trazado_7489" class="st22" d="M4.22-44.43c0,0,0.15-1.22-0.27-0.99c-0.35,0.19,0.15,0.29-0.7,2.34
				C2.89-42.25,4.22-43.8,4.22-44.43z"/>
			<path id="Trazado_7490" class="st22" d="M3.29-46.02c0.15,0.44,0.19,0.91,0.11,1.36c-0.17,0.5-0.44,0.73-0.81,0.19
				S2.17-46.25,3.29-46.02z"/>
			<path id="Trazado_7491" class="st8" d="M3.15-44.43c-0.02,0-0.04-0.01-0.05-0.03c-0.17-0.52-0.2-1.07-0.07-1.6
				c0-0.03,0.03-0.05,0.06-0.04c0.03,0,0.05,0.03,0.04,0.06C3.01-45.54,3.03-45,3.19-44.51c0.01,0.02,0,0.05-0.02,0.06c0,0,0,0,0,0
				C3.16-44.44,3.15-44.43,3.15-44.43z"/>
			<path id="Trazado_7492" class="st8" d="M2.87-44.44c-0.02,0-0.04-0.01-0.04-0.03c-0.02-0.04-0.53-1.01-0.16-1.6
				c0.01-0.02,0.04-0.03,0.07-0.02c0.02,0.01,0.03,0.04,0.02,0.07c-0.34,0.54,0.16,1.49,0.16,1.5c0.01,0.02,0,0.05-0.02,0.07
				c0,0,0,0,0,0C2.89-44.44,2.88-44.44,2.87-44.44z"/>
		</g>
		<path id="Trazado_7493" class="st1" d="M0.77-16.33c0,0,4.33,1.52,17.32,2.32c0,0,2.87-21.88,1.88-24.09
			c-0.97-2.17-9.57-3.65-10.76-1.93C6.45-36.04,0.77-16.33,0.77-16.33z"/>
		<path id="Trazado_7494" class="st7" d="M19.88-50.5c0,0,1.42,1.97,0.97,3.64s-3.02,2.31-3.6,1.85S18.77-50.49,19.88-50.5z"/>
		<path id="Trazado_7495" class="st12" d="M16.36-39.49l-3.34,0.16c0.54-1.94,0.87-3.94,0.98-5.96c-0.08-1.34,3.97-2.74,3.97-2.74
			L16.36-39.49z"/>
		<path id="Trazado_7496" class="st12" d="M14.83-51.37c0,0-3.82,5.12-1.3,7.36c1.6,1.42,6.08-1.9,5.96-4.84
			C19.42-50.4,15.45-52.73,14.83-51.37z"/>
		<circle id="Elipse_210" class="st7" cx="16.08" cy="-47.54" r="0.24"/>
		<circle id="Elipse_211" class="st7" cx="13.92" cy="-48.43" r="0.24"/>
		<path id="Trazado_7497" class="st13" d="M13.91-43.77c1.21,0.22,2.45-0.2,3.27-1.12c0.33-0.36-0.27,1.64-1.4,2.46
			c-0.71,0.51-1.49,0.92-2.31,1.21C13.66-42.07,13.81-42.92,13.91-43.77z"/>
		<circle id="Elipse_212" class="st13" cx="16.04" cy="-46.2" r="0.45"/>
		<path id="Trazado_7498" class="st7" d="M16.13-48.3c-0.1,0.2,0.21,0.11,0.47,0.25s0.37,0.45,0.47,0.25
			c0.07-0.3-0.12-0.59-0.42-0.66C16.46-48.51,16.26-48.45,16.13-48.3z"/>
		<path id="Trazado_7499" class="st7" d="M13.9-49.29c-0.1,0.2,0.21,0.11,0.47,0.25s0.37,0.45,0.47,0.25
			c0.07-0.3-0.12-0.59-0.42-0.66C14.23-49.49,14.03-49.43,13.9-49.29L13.9-49.29z"/>
		<circle id="Elipse_213" class="st13" cx="13.35" cy="-47.36" r="0.45"/>
		<path id="Trazado_7500" class="st8" d="M14.22-47.17c-0.01,0-0.02,0-0.03-0.01c-0.01-0.01-0.02-0.02-0.03-0.04
			c0.17-0.36,0.39-0.7,0.66-1c0.02-0.02,0.05-0.03,0.07-0.01c0.02,0.02,0.03,0.05,0.01,0.07c-0.22,0.28-0.43,0.57-0.62,0.88
			c0.21-0.11,0.41-0.24,0.6-0.37c0.02-0.02,0.05-0.01,0.07,0.01c0,0,0,0,0,0c0.02,0.02,0.01,0.05-0.01,0.07
			C14.44-47.23,14.28-47.17,14.22-47.17z"/>
		<g id="Grupo_13965" transform="translate(22.479 10.532)">
			<path id="Trazado_7501" class="st12" d="M-4-56.95c0,0,1.3-0.96,1.38-0.14s-1.49,1.72-1.8,1.23S-4-56.95-4-56.95z"/>
			<path id="Trazado_7502" class="st8" d="M-4.13-56.11h-0.01c-0.03-0.01-0.04-0.03-0.03-0.06c0.14-0.46,0.34-0.75,0.59-0.84
				c0.16-0.05,0.34-0.03,0.49,0.06c0.02,0.02,0.03,0.05,0.01,0.07c-0.01,0.02-0.05,0.03-0.07,0.01c0,0,0,0,0,0
				c-0.12-0.07-0.27-0.09-0.4-0.05c-0.22,0.08-0.4,0.35-0.53,0.77C-4.09-56.13-4.11-56.11-4.13-56.11z"/>
			<path id="Trazado_7503" class="st8" d="M-3.88-56.31c-0.01,0-0.02,0-0.03-0.01c-0.02-0.02-0.02-0.05-0.01-0.07c0,0,0,0,0,0
				c0.35-0.42,0.31-0.56,0.31-0.56c-0.01-0.02,0-0.05,0.02-0.06c0,0,0,0,0,0c0.03-0.01,0.05,0,0.07,0.03
				c0.01,0.03,0.06,0.19-0.33,0.66C-3.85-56.32-3.86-56.31-3.88-56.31z"/>
		</g>
		<path id="Trazado_7504" class="st7" d="M13.23-43.68c0,0-1.24-0.54-0.6-3.13c0.22-0.87,0.2,0.5,0.52,0.37s0.97-0.91,1.71-0.3
			s-0.22,2.03,1.22,1.58c0.95-0.23,1.73-0.89,2.13-1.79c0.13-0.39,0.3,0.53,0.24,0.75S16.18-42.04,13.23-43.68z"/>
		<path id="Trazado_7505" class="st24" d="M14.03-45.44c-0.05,0-0.11-0.01-0.16-0.04c-0.2-0.11-0.24-0.44-0.14-1.01
			c0-0.03,0.03-0.05,0.06-0.04c0.03,0,0.05,0.03,0.04,0.06l0,0c-0.12,0.64-0.02,0.84,0.09,0.9c0.24,0.13,0.78-0.3,0.96-0.47
			c0.02-0.02,0.05-0.02,0.07,0c0.02,0.02,0.02,0.05,0,0.07C14.88-45.9,14.39-45.44,14.03-45.44z"/>
		<path id="Trazado_7506" class="st7" d="M16.07-52.47c0,0-1.65-0.08-1.24,1.11s3.38,1.32,3.7,2.64s-1.16,2.61-0.67,2.85
			s3.03-2.86,2.54-4.69S16.07-52.47,16.07-52.47z"/>
		<path id="Trazado_7507" class="st14" d="M18.92-48.14c-0.02,0-0.04-0.02-0.05-0.04c-0.01-0.03,0.01-0.05,0.04-0.06c0,0,0,0,0,0
			c0.01,0,1.39-0.3,1.43-1.24c0-0.03,0.03-0.05,0.05-0.05c0.03,0,0.05,0.02,0.05,0.05c-0.04,1.01-1.45,1.32-1.51,1.33L18.92-48.14z"
			/>
		<path id="Trazado_7508" class="st14" d="M19.41-47.27c-0.11,0-0.22-0.01-0.33-0.03c-0.03-0.01-0.04-0.03-0.04-0.06
			c0.01-0.03,0.03-0.04,0.06-0.04c0.33,0.08,0.68,0.02,0.96-0.16c0.29-0.24,0.48-0.57,0.54-0.93c0-0.03,0.03-0.05,0.05-0.04
			c0,0,0,0,0,0c0.03,0,0.05,0.03,0.04,0.06c-0.06,0.39-0.27,0.75-0.58,1C19.91-47.34,19.66-47.27,19.41-47.27z"/>
		<path id="Trazado_7509" class="st14" d="M20.1-50.53c-0.01,0-0.03-0.01-0.04-0.02c-1.9-2.16-4.74-0.57-4.77-0.55
			c-0.02,0.01-0.05,0.01-0.07-0.02c-0.01-0.02-0.01-0.05,0.02-0.07l0,0c0.03-0.02,2.94-1.65,4.89,0.58c0.02,0.02,0.02,0.05,0,0.07
			C20.13-50.53,20.12-50.53,20.1-50.53z"/>
		<path id="Trazado_7510" class="st14" d="M20.03-50.12c-0.01,0-0.02,0-0.03-0.01c-0.72-0.77-1.76-1.16-2.81-1.07
			c-0.43,0.05-0.84,0.19-1.2,0.42c-0.02,0.01-0.05,0-0.07-0.02c-0.01-0.02-0.01-0.04,0.01-0.06c0.37-0.24,0.8-0.39,1.24-0.44
			c1.08-0.09,2.15,0.31,2.9,1.1c0.02,0.02,0.02,0.05,0,0.07c0,0,0,0,0,0C20.06-50.12,20.04-50.12,20.03-50.12z"/>
		<path id="Trazado_7511" class="st14" d="M19.63-49.67c-0.99-0.01-1.97-0.23-2.87-0.66c-0.02-0.01-0.03-0.04-0.02-0.07
			c0.01-0.02,0.04-0.03,0.07-0.02c0.83,0.52,3.14,0.82,3.44,0.54c0.02-0.02,0.05-0.02,0.07,0c0.02,0.02,0.02,0.05,0,0.07l0,0
			C20.11-49.69,19.87-49.64,19.63-49.67z"/>
		<path id="Trazado_7512" class="st14" d="M15.03-51.14h-0.01c-0.03-0.01-0.04-0.03-0.04-0.06c0,0,0,0,0,0
			c0.07-0.65,0.47-1.23,1.07-1.51c1.25-0.48,2.99,0.76,3.07,0.82c0.02,0.02,0.03,0.05,0.01,0.07c-0.02,0.02-0.05,0.03-0.07,0.01
			c-0.02-0.01-1.78-1.27-2.97-0.8c-0.56,0.27-0.95,0.81-1.01,1.44C15.07-51.15,15.05-51.14,15.03-51.14z"/>
		<path id="Trazado_7513" class="st1" d="M21.42-29.06c0,0,3.95-4.2,3.81-4.33s-4.29-5.63-7.96-6.48c0.54,1.33,0.75,2.77,0.59,4.2
			C17.48-33.87,20.23-29.66,21.42-29.06z"/>
		<path id="Trazado_7514" class="st1" d="M3.2-36c0.72,1.46,1.57,2.86,2.52,4.19l6.44-8.85C12.15-40.66,8.33-41.63,3.2-36z"/>
		<path id="Trazado_7515" class="st22" d="M12.45-40.77c1.65,0.02,3.28,0.32,4.82,0.91c0,0-1.91,2.39-3.8,1.73
			C12.39-38.52,12.45-40.77,12.45-40.77z"/>
		<path id="Trazado_7516" class="st14" d="M20.56-50c-0.03,0-0.05-0.02-0.05-0.05c0-0.03,0.02-0.05,0.04-0.05c0,0,0,0,0,0
			c0.33-0.03,1.22-0.18,1.31-0.45c0.03-0.08-0.02-0.17-0.14-0.27c-0.14-0.13-0.33-0.19-0.51-0.16c-0.42,0.09-0.72,0.68-0.72,0.69
			c-0.01,0.02-0.04,0.04-0.06,0.02c0,0,0,0,0,0c-0.02-0.01-0.03-0.04-0.02-0.07c0,0,0,0,0,0c0.01-0.03,0.32-0.64,0.79-0.74
			c0.22-0.04,0.44,0.03,0.6,0.18c0.15,0.13,0.21,0.26,0.17,0.38C21.83-50.13,20.69-50.01,20.56-50L20.56-50z"/>
		<path id="Trazado_7517" class="st14" d="M21.45-49.46c-0.29-0.02-0.57-0.09-0.83-0.22c-0.02-0.01-0.03-0.04-0.02-0.07
			c0.01-0.02,0.04-0.03,0.07-0.02c0,0,0,0,0,0c0.01,0,0.74,0.37,1.15,0.12c0.21-0.16,0.31-0.42,0.28-0.68
			c0-0.03,0.02-0.05,0.05-0.05s0.05,0.02,0.05,0.05l0,0c0.04,0.29-0.09,0.58-0.33,0.76C21.74-49.49,21.6-49.45,21.45-49.46z"/>
		<path id="Trazado_7518" class="st8" d="M20.72-13.04c-0.46,0.02-0.91-0.14-1.25-0.46c-0.35-0.38-0.54-0.88-0.55-1.4
			c0-0.03,0.02-0.05,0.05-0.05l0,0c0.03,0,0.05,0.02,0.05,0.05c0,0,0,0,0,0c0.01,0.49,0.2,0.96,0.53,1.33
			c0.32,0.3,0.75,0.45,1.18,0.43c0.01,0,0.02,0,0.04,0c0.03,0,0.05,0.02,0.05,0.05c0,0.03-0.02,0.05-0.05,0.05L20.72-13.04z"/>
		<path id="Trazado_7519" class="st8" d="M20.05-12.95c-0.38,0.01-0.74-0.12-1.02-0.38c-0.36-0.41-0.56-0.93-0.57-1.48
			c0-0.03,0.02-0.05,0.05-0.05s0.05,0.02,0.05,0.05c0.01,0.52,0.2,1.02,0.54,1.41c0.28,0.26,0.66,0.38,1.04,0.35
			c0.03,0,0.05,0.02,0.05,0.05c0,0.03-0.02,0.05-0.05,0.05L20.05-12.95z"/>
		<path id="Trazado_7520" class="st8" d="M18.48-14.8c-0.11,0-0.18-0.01-0.19-0.01c-0.03,0-0.05-0.03-0.04-0.05c0,0,0,0,0,0
			c0-0.03,0.02-0.05,0.05-0.04c0,0,0,0,0.01,0c0.3,0.03,0.6-0.02,0.87-0.14c0.02-0.02,0.05-0.01,0.07,0.01
			c0.02,0.02,0.01,0.05-0.01,0.07l0,0C18.99-14.85,18.74-14.79,18.48-14.8z"/>
	</g>
	<g id="Grupo_13968" transform="translate(131.406 140.91)">
		<path id="Trazado_7521" class="st20" d="M17.69-7.88c0.65,0.92,4.11,3.29,8.66,2.49c6.35-1.12,10.8-7.9,11.37-10.6
			s1.59-1.23,0.94,1.83c-0.76,3.6-3.88,11.65-10.3,12.9c-5.55,1.08-12.85-1.46-12.85-1.46C15.24-4.72,16.08-6.7,17.69-7.88z"/>
		<path id="Trazado_7522" class="st13" d="M29.46-6.21c0,0-2.34,4.98-4.9,5.35l-1-3.84C23.56-4.71,28.58-5.51,29.46-6.21z"/>
		<path id="Trazado_7523" class="st20" d="M18.67,13.19c0,0,2.36,10.11,1.55,13.54C18.55,33.83,8.4,43.01,9.17,43.52
			s3.74,0.78,2.38,0.98s-4.7,0.62-4.38-0.4c0.55-1.77,7.46-14.85,7.07-17.78s-4.49-13.4-4.49-13.4S16.26,10.97,18.67,13.19z"/>
		<path id="Trazado_7524" class="st20" d="M19.09,12.58c0,0,14.17,5.46,13.54,11.25c-0.45,4.06-7.25,12.88-6.6,13.66
			s2.3,2.06,2.56,2.56s-4.63-2.35-4.63-2.35l4.32-12.74L10.3,14.81C13.11,13.66,16.07,12.91,19.09,12.58z"/>
		<path id="Trazado_7525" class="st7" d="M23.96,37.7l3.61,1.62l0.11-0.35c0,0,1.41,1.04,1.47,1.4s-5.43-1.9-5.43-1.9L23.96,37.7z"
			/>
		<path id="Trazado_7526" class="st7" d="M7.04,44.1l3.95,0.28l-0.02-0.37c0,0,1.68,0.49,1.86,0.81s-6.04,0.16-6.04,0.16L7.04,44.1z
			"/>
		<path id="Trazado_7527" class="st5" d="M11.66-18.18c0,0,3.03-4.51,6.59-2.19s2.09,8.64-1.76,8.97S9.6-15.27,11.66-18.18z"/>
		<path id="Trazado_7528" class="st20" d="M16.26-6.21l3.55-0.9c-0.4-1.98-0.59-3.99-0.55-6.01c0.17-1.33-3.77-3.02-3.77-3.02
			L16.26-6.21z"/>
		<path id="Trazado_7529" class="st20" d="M18.86-19.25c0,0,3.44,5.38,0.77,7.43c-1.69,1.3-5.62-3.69-5.6-5.25
			S18.34-20.65,18.86-19.25z"/>
		<path id="Trazado_7530" class="st20" d="M15.5-14.75c0,0-1.23-1.05-1.36-0.23s1.36,1.82,1.71,1.36
			C16.2-14.1,15.5-14.75,15.5-14.75z"/>
		<path id="Trazado_7531" class="st5" d="M18.8-19.71c0,0-2.18-0.36-2.49,2.52c0.03,1.24-0.95,2.27-2.19,2.31
			c-0.31,0.01-0.62-0.05-0.91-0.17C13.21-15.05,11.44-20.37,18.8-19.71z"/>
		<circle id="Elipse_214" class="st7" cx="17.01" cy="-15.07" r="0.24"/>
		<path id="Trazado_7532" class="st13" d="M19.25-11.61c-1.22,0.14-2.43-0.38-3.19-1.35c-0.3-0.38,0.15,1.66,1.22,2.55
			c0.67,0.56,1.43,1.02,2.25,1.34C19.37-9.91,19.27-10.76,19.25-11.61z"/>
		<path id="Trazado_7533" class="st8" d="M15.58-13.9c-0.02,0-0.04-0.02-0.05-0.04c-0.1-0.43-0.26-0.71-0.47-0.81
			c-0.13-0.05-0.28-0.05-0.4,0.02c-0.02,0.01-0.05,0-0.07-0.02c-0.01-0.02-0.01-0.05,0.02-0.07c0.15-0.08,0.33-0.09,0.49-0.02
			c0.3,0.19,0.5,0.52,0.53,0.88c0.01,0.03-0.01,0.05-0.04,0.06L15.58-13.9z"/>
		<circle id="Elipse_215" class="st13" cx="17.37" cy="-14.02" r="0.45"/>
		<path id="Trazado_7534" class="st8" d="M15.34-14.12c-0.02,0-0.03-0.01-0.04-0.02c-0.35-0.5-0.29-0.66-0.28-0.68
			c0.01-0.02,0.04-0.03,0.07-0.02c0.02,0.01,0.03,0.04,0.02,0.06c0,0.01-0.04,0.15,0.27,0.58c0.02,0.02,0.01,0.05-0.01,0.07
			c0,0,0,0,0,0C15.36-14.12,15.35-14.12,15.34-14.12z"/>
		<path id="Trazado_7535" class="st5" d="M17.1-15.96c0.09,0.21-0.22,0.1-0.49,0.21s-0.4,0.42-0.49,0.21
			c-0.04-0.3,0.17-0.58,0.47-0.62C16.79-16.19,16.98-16.12,17.1-15.96L17.1-15.96z"/>
		<path id="Trazado_7536" class="st5" d="M19.41-16.97c0.09,0.21-0.22,0.1-0.49,0.21s-0.4,0.42-0.49,0.21
			c-0.04-0.3,0.17-0.58,0.47-0.62C19.1-17.2,19.29-17.12,19.41-16.97L19.41-16.97z"/>
		<circle id="Elipse_216" class="st13" cx="20.03" cy="-14.94" r="0.45"/>
		<path id="Trazado_7537" class="st8" d="M19.32-14.59c-0.05,0-0.2-0.06-0.69-0.46c-0.02-0.02-0.02-0.05-0.01-0.07c0,0,0,0,0,0
			c0.02-0.02,0.05-0.02,0.07-0.01c0,0,0,0,0,0c0.18,0.15,0.37,0.29,0.57,0.41c-0.17-0.32-0.35-0.62-0.55-0.92
			c-0.01-0.02-0.01-0.05,0.01-0.07c0,0,0,0,0,0c0.02-0.02,0.05-0.01,0.07,0.01c0.24,0.32,0.44,0.67,0.59,1.05
			c0,0.02-0.02,0.03-0.03,0.04C19.34-14.59,19.33-14.59,19.32-14.59z"/>
		<path id="Trazado_7538" class="st8" d="M19.19-13.47c-0.28,0-0.58-0.51-0.61-0.57c-0.01-0.02,0-0.05,0.02-0.07c0,0,0,0,0,0
			c0.02-0.01,0.05-0.01,0.07,0.02c0,0,0,0,0,0c0.13,0.22,0.39,0.56,0.55,0.52c0.07-0.02,0.2-0.13,0.24-0.71
			c0-0.03,0.03-0.05,0.05-0.05c0.03,0,0.05,0.03,0.05,0.05c0,0,0,0,0,0c-0.04,0.5-0.14,0.76-0.32,0.8
			C19.22-13.48,19.2-13.47,19.19-13.47z"/>
		<circle id="Elipse_217" class="st7" cx="19.28" cy="-15.95" r="0.24"/>
		<path id="Trazado_7539" class="st25" d="M14.34-14.93c-0.07,0-0.13,0-0.2,0c-0.03,0-0.05-0.02-0.05-0.05
			c0-0.03,0.02-0.05,0.05-0.05l0,0l0,0c0.07,0,0.13,0,0.2,0c1.77,0,2.07-1.07,2.39-2.21c0.09-0.36,0.21-0.72,0.36-1.06
			c0.65-1.42,1.52-1.47,1.56-1.47l0,0c0.03,0,0.05,0.02,0.05,0.05c0,0.03-0.02,0.05-0.05,0.05c-0.01,0-0.85,0.06-1.47,1.41
			c-0.14,0.34-0.26,0.69-0.35,1.05C16.51-16.09,16.18-14.93,14.34-14.93z"/>
		<path id="Trazado_7540" class="st25" d="M13.78-15.47c-0.03,0-0.05-0.02-0.05-0.05s0.02-0.05,0.05-0.05
			c1.28-0.36,2.18-1.49,2.25-2.82c0.02-0.66,0.36-1.26,0.9-1.63c0.49-0.22,1.06-0.23,1.55-0.01c0.02,0.01,0.03,0.04,0.02,0.07
			c-0.01,0.02-0.04,0.03-0.07,0.02c-0.47-0.2-1-0.2-1.47,0c-0.52,0.35-0.83,0.93-0.85,1.56C16.04-17.01,15.1-15.84,13.78-15.47
			L13.78-15.47z"/>
		<path id="Trazado_7541" class="st5" d="M11.62-15.14c-0.26-0.38-0.61-0.69-1.01-0.9c-2.47-0.84-3.2,3.74-6.37,0.61
			c-1.7-1.67-2.34-1.13-5.91,1.99c-1.57,1.38-1.93-1.44-2.49-0.9C-5.4-13.16-3.13-7.89,1-11.13c1.84-1.44,1.26,1.09,4.71,1.79
			C10.27-8.41,12.83-12.64,11.62-15.14z"/>
		<path id="Trazado_7542" class="st25" d="M7.1-11.95c-1.06,0-2.14-0.89-3.05-1.64c-0.32-0.27-0.65-0.53-1-0.76
			c-0.91-0.56-1.57,0.12-2.34,0.91c-0.23,0.24-0.47,0.48-0.72,0.69c-0.53,0.53-1.26,0.81-2.01,0.76c-0.55-0.1-1.04-0.41-1.37-0.87
			c-0.01-0.02-0.01-0.05,0.01-0.07s0.05-0.01,0.07,0.01c0.31,0.43,0.78,0.73,1.3,0.82c0.72,0.05,1.43-0.22,1.94-0.74
			c0.25-0.21,0.48-0.45,0.71-0.69c0.76-0.78,1.48-1.52,2.46-0.92c0.35,0.24,0.69,0.49,1.01,0.77c1.19,0.98,2.67,2.2,3.98,1.3
			c0.64-0.49,1.15-1.12,1.49-1.85c0.3-0.54,0.54-0.97,0.92-1.07c0.25-0.05,0.52,0,0.73,0.14c0.02,0.01,0.03,0.04,0.02,0.07
			c-0.01,0.02-0.04,0.03-0.07,0.02c-0.19-0.13-0.43-0.18-0.65-0.14c-0.34,0.1-0.57,0.51-0.86,1.03c-0.35,0.74-0.87,1.38-1.52,1.88
			C7.84-12.06,7.47-11.95,7.1-11.95z"/>
		<path id="Trazado_7543" class="st25" d="M7.81-10.36c-1.64-0.16-3.2-0.77-4.51-1.75c-0.36-0.28-0.81-0.41-1.26-0.35
			c-0.25,0.05-0.47,0.2-0.62,0.4c-0.01,0.02-0.04,0.03-0.07,0.02c0,0,0,0,0,0c-0.02-0.01-0.03-0.04-0.02-0.07c0,0,0,0,0,0
			c0.16-0.23,0.4-0.39,0.68-0.45c0.48-0.07,0.96,0.06,1.34,0.36c0.86,0.57,3.46,2.3,5.59,1.55c1.23-0.54,2.13-1.63,2.41-2.95
			c0.01-0.03,0.04-0.04,0.06-0.03c0.03,0.01,0.04,0.04,0.03,0.06c-0.29,1.34-1.21,2.46-2.47,3.01C8.6-10.43,8.2-10.36,7.81-10.36z"
			/>
		<path id="Trazado_7544" class="st25" d="M6.5-14.7c-0.13,0-0.25-0.01-0.38-0.04c-0.49-0.13-0.96-0.34-1.38-0.62
			c-1.08-0.62-2.2-1.26-3.77-0.08c-0.02,0.02-0.05,0.01-0.07-0.01c0,0,0,0,0,0c-0.02-0.02-0.01-0.05,0.01-0.07c0,0,0,0,0,0
			c1.62-1.22,2.82-0.54,3.88,0.07c0.42,0.27,0.87,0.48,1.35,0.61c0.66,0.12,1.33-0.16,1.71-0.72c0.36-0.42,0.82-0.74,1.34-0.92
			c1.43-0.41,2.23,1.31,2.24,1.33c0.01,0.02,0,0.05-0.02,0.07c-0.02,0.01-0.05,0-0.07-0.02c-0.01-0.02-0.77-1.67-2.12-1.28
			c-0.51,0.17-0.96,0.48-1.3,0.89C7.59-15.02,7.07-14.74,6.5-14.7z"/>
		<path id="Trazado_7545" class="st25" d="M6.89-8.87C5.53-9,4.25-9.58,3.25-10.51c-0.1-0.08-0.18-0.14-0.26-0.2
			c-0.7-0.53-0.95-0.36-1.39-0.05c-0.35,0.26-0.74,0.46-1.16,0.58c-0.94,0.2-1.93-0.1-2.59-0.8c-0.02-0.02-0.02-0.05,0-0.07
			s0.05-0.02,0.07,0c0,0,0,0,0.01,0.01c0.64,0.67,1.58,0.96,2.49,0.77c0.41-0.12,0.79-0.31,1.13-0.57c0.45-0.32,0.75-0.52,1.51,0.05
			c0.08,0.06,0.16,0.13,0.26,0.2c0.82,0.65,2.36,1.87,4.13,1.58c1.5-0.39,2.76-1.4,3.48-2.78c0.01-0.02,0.04-0.03,0.07-0.02
			c0.02,0.01,0.03,0.04,0.02,0.07c0,0,0,0,0,0c-0.73,1.4-2.02,2.43-3.55,2.83C7.27-8.89,7.08-8.87,6.89-8.87z"/>
		<path id="Trazado_7546" class="st25" d="M11.98-16.19L11.98-16.19c-0.04-0.01-0.05-0.03-0.05-0.06c0,0,0,0,0,0
			c0.76-3.74,4.8-4.09,4.84-4.09c0.03,0,0.05,0.02,0.05,0.04c0,0,0,0,0,0c0,0.03-0.02,0.05-0.04,0.05c0,0,0,0,0,0
			c-0.04,0-4.01,0.35-4.75,4.01C12.03-16.2,12.01-16.19,11.98-16.19z"/>
		<path id="Trazado_7547" class="st25" d="M11.97-15.43c-0.03,0-0.05-0.01-0.06-0.04c0-0.03,0.01-0.05,0.04-0.06
			c1.4-0.64,2.45-1.87,2.86-3.36c0.01-0.03,0.04-0.04,0.06-0.03c0.03,0.01,0.04,0.04,0.03,0.06l0,0c-0.42,1.51-1.49,2.77-2.92,3.42
			L11.97-15.43z"/>
		<path id="Trazado_7548" class="st25" d="M14.53-13.11c-0.23,0-0.46-0.04-0.68-0.11c-0.78-0.28-1.44-0.83-1.86-1.54
			c-0.01-0.02-0.01-0.05,0.01-0.07s0.05-0.01,0.07,0.01c1.22,1.86,2.66,1.6,2.68,1.59c0.03-0.01,0.05,0.01,0.06,0.03c0,0,0,0,0,0
			c0.01,0.03-0.01,0.05-0.04,0.06c0,0,0,0,0,0C14.69-13.12,14.61-13.11,14.53-13.11z"/>
		<path id="Trazado_7549" class="st25" d="M14.94-11.3c-1.13,0.01-2.15-0.65-2.62-1.67c-0.01-0.02,0-0.05,0.02-0.07
			s0.05,0,0.07,0.02c0.55,1.19,1.86,1.84,3.14,1.55c0.03-0.01,0.05,0.01,0.06,0.03c0.01,0.03-0.01,0.05-0.03,0.06c0,0,0,0,0,0
			C15.36-11.32,15.15-11.3,14.94-11.3z"/>
		<path id="Trazado_7550" class="st26" d="M10.59,41.62L7.19,40c0,0,7.01-12.43,6.79-13.27s-2.71-9.79-2.71-9.79l8.92,0.89
			c0,0,1.32,6,0,10.35C19.17,31.53,10.59,41.62,10.59,41.62z"/>
		<path id="Trazado_7551" class="st27" d="M18.67,19.53c0,0-10.04-0.54-8.92-6.62c0.78-4.26,6.66-3.52,7.7-2.92
			S19.78,19.01,18.67,19.53z"/>
		<path id="Trazado_7552" class="st27" d="M24.08,35.07l3.26,1.39c0,0,5.92-9.06,5.92-12.62c0-6.78-14.73-12.62-14.73-12.62
			l-5.47,5.95c0,0,14.09,6.3,14.24,7.56C27.44,25.95,24.08,35.07,24.08,35.07z"/>
		<path id="Trazado_7553" class="st20" d="M16.16-7.39c0,0,7.38,2.3,7,4.62C22,4.36,20.28,11.98,20.28,11.98s-10.02,0.13-9.8-0.76
			C11.15,8.63,14.7-7.39,16.16-7.39z"/>
		<path id="Trazado_7554" class="st7" d="M17.62-7.39c0,0,2.45,1.6,3.51,1.52s0.91-2.43,0.91-2.43c0.99,0.47,1.57,1.53,1.43,2.62
			c-0.25,1.28,0.98,1.73,1.09,4.83c0.04,1.01-1.38,2.86-1.6,3.94c-0.37,1.51-0.63,3.05-0.79,4.6c0,0-9.15-1.05-11.34-3.21
			c0,0,1.53-9.37,4.32-11.86C15.91-8.07,17.62-7.39,17.62-7.39z"/>
		<g id="Grupo_13967" transform="translate(17.637 0)">
			<path id="Trazado_7555" class="st5" d="M25.56-47.47c-3.09-8.01-12.09-12.01-20.1-8.92C-2.55-53.3-6.54-44.3-3.46-36.29
				c1.28,3.33,3.67,6.11,6.76,7.89l0,0c0,0,7.67,4.46,9.71,9.75l2.72,7.06l6.09-2.35l6.09-2.35l-2.72-7.06
				c-2.04-5.28,0.65-13.74,0.65-13.74l0,0C26.95-40.48,26.85-44.15,25.56-47.47z"/>
			<path id="Trazado_7556" class="st28" d="M19.72-37.52c2.76-1.06,5.13-2.92,6.82-5.34c-0.54-8.57-7.93-15.08-16.5-14.54
				c-3.99,0.25-7.74,2.04-10.45,4.98c-0.58,8.17,5.57,15.27,13.75,15.85C15.51-36.41,17.69-36.73,19.72-37.52L19.72-37.52z"/>
			
				<rect id="Rectángulo_1593" x="14.52" y="-20.52" transform="matrix(0.9331 -0.3597 0.3597 0.9331 7.1457 6.5056)" class="st7" width="13.07" height="9.15"/>
			
				<rect id="Rectángulo_1594" x="19.65" y="-15.53" transform="matrix(0.9331 -0.3597 0.3597 0.9331 5.8781 7.2813)" class="st7" width="5.71" height="6.76"/>
			<path id="Trazado_7557" class="st14" d="M15.69-18.59c-0.08,0-0.15-0.05-0.18-0.13L7.79-38.75c-0.02-0.11,0.04-0.21,0.15-0.24
				c0.08-0.02,0.17,0.02,0.21,0.09c0.3,0.66,1.26,2.42,2.19,2.61c0.27,0.05,0.56-0.04,0.75-0.24c0.07-0.06,0.12-0.13,0.17-0.2
				c-1.17-0.92-1.84-2.33-1.82-3.81c0.07-0.35,0.28-0.42,0.39-0.43c0.5-0.06,1.22,0.86,1.63,1.76c0.38,0.71,0.49,1.54,0.31,2.33
				c0.4,0.2,0.88,0.14,1.22-0.15c0.25-0.19,0.45-0.44,0.59-0.72c-0.74-0.74-1.18-1.72-1.25-2.76c-0.02-0.59,0.2-0.83,0.39-0.92
				c0.35-0.18,0.74,0,1.04,0.48c0.52,0.94,0.63,2.05,0.29,3.07c0.03,0.02,0.06,0.03,0.08,0.04c0.24,0.11,0.52,0.06,0.7-0.12
				c1.33-1.15,0.28-3.92,0.27-3.94c-0.02-0.11,0.05-0.21,0.16-0.24c0.08-0.02,0.17,0.02,0.21,0.09l7.84,20.34
				c0.06,0.09,0.03,0.22-0.07,0.28c-0.09,0.06-0.22,0.03-0.27-0.07c-0.01-0.02-0.02-0.04-0.03-0.07L15.9-39.85
				c0.07,0.81-0.23,1.6-0.81,2.17c-0.3,0.29-0.75,0.36-1.12,0.18c-0.03-0.01-0.05-0.02-0.08-0.04c-0.16,0.32-0.39,0.59-0.67,0.81
				c-0.46,0.38-1.1,0.46-1.63,0.19c-0.07,0.11-0.15,0.21-0.25,0.29c-0.28,0.29-0.7,0.41-1.09,0.33c-0.53-0.17-1-0.51-1.32-0.97
				l6.94,18.01c0.04,0.1-0.01,0.21-0.11,0.26C15.74-18.59,15.72-18.59,15.69-18.59z M9.89-40.59c0,0-0.01,0-0.02,0
				c-0.01,0-0.03,0.03-0.05,0.12c0.02,1.3,0.6,2.53,1.6,3.37c0.11-0.9-0.12-1.82-0.64-2.56C10.35-40.34,9.99-40.58,9.89-40.59
				L9.89-40.59z M12.99-41.11c-0.03,0-0.07,0.01-0.1,0.02c-0.12,0.06-0.18,0.26-0.18,0.56c0.07,0.88,0.43,1.72,1.01,2.38
				c0.24-0.87,0.13-1.81-0.31-2.6C13.35-40.87,13.17-41.11,12.99-41.11L12.99-41.11z"/>
			<path id="Trazado_7558" class="st14" d="M14.11-15.6c-0.11-0.01-0.19-0.1-0.19-0.21c0-0.07,0.05-0.14,0.12-0.17l12.2-4.7
				c0.11-0.02,0.21,0.05,0.23,0.16c0.02,0.08-0.02,0.17-0.09,0.21l-12.2,4.7C14.16-15.61,14.13-15.6,14.11-15.6z"/>
			<path id="Trazado_7559" class="st14" d="M14.96-13.4c-0.11-0.01-0.19-0.1-0.19-0.21c0-0.07,0.05-0.14,0.12-0.17l12.2-4.7
				c0.11-0.02,0.21,0.05,0.23,0.16c0.02,0.08-0.02,0.17-0.09,0.21l-12.2,4.7C15-13.41,14.98-13.4,14.96-13.4z"/>
			<path id="Trazado_7560" class="st14" d="M15.67-11.54c-0.11-0.01-0.19-0.1-0.19-0.21c0-0.07,0.05-0.14,0.12-0.17l12.2-4.7
				c0.11-0.02,0.21,0.05,0.23,0.16c0.02,0.08-0.02,0.16-0.09,0.21l-12.2,4.7C15.72-11.54,15.7-11.54,15.67-11.54z"/>
		</g>
		<path id="Trazado_7561" class="st20" d="M15.88-7.87c1.03,0.52,5.24,0.82,8.75-2.6c4.9-4.78,5.26-13.97,4.36-16.92
			s1.79-1.99,2.05,2.7c0.2,3.54,0.92,13.9-3.28,18.24S16.65-1.58,16.65-1.58C15.37-3.42,15.08-5.78,15.88-7.87z"/>
		<path id="Trazado_7562" class="st7" d="M15.64-7.86c0,0,4.2-0.28,4.84-0.44c0,0,1.52,5.46,1.52,5.78s-5.17,2.11-6.54,1.12
			S13.64-7.11,15.64-7.86z"/>
		<path id="Trazado_7563" class="st13" d="M21.08,8.28c0,0-5.82,0.32-9.64-1.05l0.53-2c0,0,7.02,2.33,9.26,2.31L21.08,8.28z"/>
		<path id="Trazado_7564" class="st8" d="M29.31-25.34c-0.03,0-0.05-0.02-0.06-0.04c0-0.03,0.02-0.05,0.05-0.06l0,0
			c0.45-0.09,0.91-0.16,1.37-0.2c0.03,0,0.05,0.02,0.05,0.05c0,0,0,0,0,0c0,0.03-0.03,0.05-0.05,0.05h-0.04
			C30.19-25.49,29.75-25.43,29.31-25.34L29.31-25.34z"/>
		<path id="Trazado_7565" class="st8" d="M29.69-25.53c-0.02,0-0.04-0.02-0.05-0.04c-0.24-1.21-0.85-3.1-0.86-3.12
			c-0.01-0.03,0.01-0.05,0.03-0.06c0.03-0.01,0.05,0.01,0.06,0.03c0.01,0.02,0.61,1.91,0.86,3.13
			C29.74-25.57,29.72-25.54,29.69-25.53L29.69-25.53z"/>
		<path id="Trazado_7566" class="st8" d="M30.26-25.5c-0.03,0-0.05-0.02-0.05-0.05c-0.2-1.2-0.51-2.38-0.94-3.51
			c-0.01-0.03,0-0.05,0.03-0.06c0.03-0.01,0.05,0,0.06,0.03c0.43,1.15,0.75,2.33,0.95,3.54C30.31-25.52,30.29-25.5,30.26-25.5
			C30.26-25.5,30.26-25.5,30.26-25.5L30.26-25.5z"/>
		<circle id="Elipse_218" class="st11" cx="32.53" cy="-52.84" r="2.74"/>
	</g>
	<g id="Grupo_13971" transform="translate(255.847 147.028)">
		<g id="Grupo_13970" transform="translate(0 0)">
			<g id="Grupo_13969">
				<path id="Trazado_7567" class="st2" d="M-4.23-44.74c-1.29-5.57,2.17-11.13,7.74-12.42c5.57-1.29,11.13,2.17,12.42,7.74
					c1.29,5.57-2.17,11.13-7.74,12.42c-1.4,0.32-2.85,0.36-4.26,0.09c-1.07,1.09-3.37,3.4-3.44,3.2c0.29-1.33,0.65-2.65,1.09-3.95
					C-1.35-38.98-3.5-41.6-4.23-44.74z"/>
			</g>
		</g>
		<path id="Rectángulo_1595" class="st7" d="M1.11-51.74h9.47c0.6,0,1.09,0.49,1.09,1.09l0,0c0,0.6-0.49,1.09-1.09,1.09H1.11
			c-0.6,0-1.09-0.49-1.09-1.09l0,0C0.02-51.25,0.51-51.74,1.11-51.74z"/>
		<path id="Rectángulo_1596" class="st7" d="M1.11-47.76h9.47c0.6,0,1.09,0.49,1.09,1.09l0,0c0,0.6-0.49,1.09-1.09,1.09H1.11
			c-0.6,0-1.09-0.49-1.09-1.09l0,0C0.02-47.27,0.51-47.76,1.11-47.76z"/>
		<path id="Rectángulo_1597" class="st7" d="M1.11-43.89h5.78c0.6,0,1.09,0.49,1.09,1.09l0,0c0,0.6-0.49,1.09-1.09,1.09H1.11
			c-0.6,0-1.09-0.49-1.09-1.09l0,0C0.02-43.4,0.51-43.89,1.11-43.89z"/>
	</g>
	<g id="Grupo_13974" transform="translate(126.501 157.335)">
		<g id="Grupo_13973" transform="translate(0 0)">
			<g id="Grupo_13972">
				<path id="Trazado_7568" class="st9" d="M16.19-47.43c-0.19-5.71-4.98-10.18-10.69-9.99c-5.71,0.19-10.18,4.98-9.99,10.69
					c0.19,5.71,4.98,10.18,10.69,9.99c1.44-0.05,2.84-0.4,4.14-1.02c1.31,0.77,4.14,2.41,4.15,2.2c-0.62-1.21-1.32-2.39-2.07-3.53
					C14.9-41.13,16.3-44.21,16.19-47.43z"/>
			</g>
		</g>
		<circle id="Elipse_219" class="st7" cx="0.64" cy="-47.32" r="1.68"/>
		<circle id="Elipse_220" class="st7" cx="5.78" cy="-47.32" r="1.68"/>
		<circle id="Elipse_221" class="st7" cx="11.12" cy="-47.32" r="1.68"/>
	</g>
	<g id="Grupo_13975" transform="translate(202.461 150.018)">
		<path id="Trazado_7569" class="st12" d="M18.69-55.32c0,0-13.18-2.94-19.07-1.88c-4.85,0.87-4.71,5.18-3.07,3.97
			c1.04-0.76,0.57-3.04,5.1-2.09S20.48-45.21,18.69-55.32z"/>
		<path id="Trazado_7570" class="st8" d="M-4.45-53.44h-0.01c-0.03-0.01-0.04-0.03-0.04-0.06c0,0,0,0,0,0
			c0.02-0.1,0.62-2.44,2.21-2.74c0.03,0,0.05,0.01,0.06,0.04c0,0.03-0.01,0.05-0.04,0.06l0,0c-1.53,0.29-2.13,2.64-2.13,2.67
			C-4.41-53.46-4.43-53.44-4.45-53.44z"/>
		<path id="Trazado_7571" class="st8" d="M-4.02-52.97L-4.02-52.97c-0.03,0-0.05-0.03-0.05-0.05c0.22-1.21,0.91-2.28,1.91-2.98
			c0.02-0.02,0.05-0.01,0.07,0.01c0.02,0.02,0.01,0.05-0.01,0.07c-0.98,0.69-1.65,1.73-1.87,2.91C-3.97-52.99-3.99-52.97-4.02-52.97
			z"/>
		<path id="Trazado_7572" class="st8" d="M-1.85-55.68c-0.01,0-0.01,0-0.02,0c-0.36-0.13-0.59-0.77-0.6-0.8
			c-0.01-0.03,0-0.05,0.03-0.06c0.03-0.01,0.05,0,0.06,0.03c0,0.01,0.22,0.63,0.54,0.74c0.03,0,0.05,0.03,0.04,0.06
			S-1.82-55.67-1.85-55.68L-1.85-55.68L-1.85-55.68z"/>
	</g>
</g>
</svg>
