<?xml version="1.0" encoding="utf-8"?>
<!-- Generator: Adobe Illustrator 23.0.3, SVG Export Plug-In . SVG Version: 6.00 Build 0)  -->
<svg version="1.1" id="Capa_1" xmlns="http://www.w3.org/2000/svg" xmlns:xlink="http://www.w3.org/1999/xlink" x="0px" y="0px"
	 viewBox="0 0 227.77 100.4" style="enable-background:new 0 0 227.77 100.4;" xml:space="preserve">
<style type="text/css">
	.st0{fill:#14509B;}
	.st1{fill:#44BCDD;}
</style>
<g>
	<path class="st0" d="M17.71,91.53c6.47,3.38,13.83,5.29,21.63,5.29c6.46,0,12.62-1.31,18.22-3.68c8.4-3.55,15.54-9.49,20.59-16.95
		c5.05-7.47,8-16.48,7.99-26.17c0-6.46-1.31-12.62-3.68-18.22c-3.55-8.4-9.49-15.54-16.95-20.59c-7.47-5.05-16.48-8-26.17-7.99
		c-7.48,0-14.57,1.76-20.85,4.89c-6.28,3.13-11.75,7.63-16.03,13.1c-0.74,0.95-0.57,2.32,0.37,3.06c0.95,0.74,2.32,0.57,3.06-0.37
		c3.88-4.97,8.85-9.05,14.54-11.88c5.69-2.84,12.1-4.43,18.9-4.43c5.87,0,11.44,1.19,16.52,3.33c7.61,3.22,14.1,8.6,18.67,15.38
		c4.58,6.78,7.25,14.93,7.25,23.72c0,5.87-1.19,11.44-3.33,16.52c-3.22,7.61-8.6,14.1-15.38,18.67c-6.78,4.58-14.93,7.25-23.72,7.25
		c-7.08,0-13.74-1.73-19.61-4.79c-1.07-0.56-2.39-0.14-2.94,0.92C16.22,89.66,16.64,90.98,17.71,91.53L17.71,91.53z"/>
	<path class="st1" d="M69.64,50.02c0,4.19-0.85,8.17-2.38,11.8c-2.3,5.44-6.15,10.07-10.98,13.34c-4.84,3.27-10.66,5.17-16.95,5.18
		c-4.19,0-8.17-0.85-11.8-2.38c-5.44-2.3-10.07-6.15-13.34-10.98c-3.27-4.84-5.17-10.66-5.18-16.94c0-4.19,0.85-8.17,2.38-11.8
		c2.3-5.44,6.15-10.07,10.98-13.34c4.84-3.27,10.66-5.17,16.94-5.18c1.21,0,2.18-0.98,2.18-2.18c0-1.21-0.98-2.18-2.18-2.18
		c-4.78,0-9.35,0.97-13.5,2.73c-6.23,2.63-11.52,7.03-15.25,12.56c-3.74,5.53-5.92,12.21-5.92,19.39c0,4.78,0.97,9.35,2.73,13.5
		c2.63,6.23,7.03,11.52,12.56,15.25c5.53,3.74,12.21,5.92,19.39,5.92c4.78,0,9.35-0.97,13.5-2.73c6.23-2.63,11.52-7.03,15.25-12.56
		c3.74-5.53,5.92-12.21,5.92-19.39c0-1.21-0.98-2.18-2.18-2.18C70.62,47.84,69.64,48.82,69.64,50.02L69.64,50.02z"/>
	<circle class="st0" cx="14.59" cy="88.46" r="5.48"/>
	<path class="st1" d="M76.87,49.37c0,2.79-2.26,5.05-5.05,5.05c-2.79,0-5.05-2.26-5.05-5.05c0-2.79,2.26-5.05,5.05-5.05
		C74.61,44.33,76.87,46.59,76.87,49.37z"/>
	<circle class="st0" cx="25.89" cy="35.99" r="4.64"/>
	<path class="st0" d="M19.88,62.06c1.8,2.98,4.29,5.51,7.26,7.35c2.98,1.84,6.45,2.99,10.18,3.2c3,0.18,5.91-0.27,8.59-1.22
		c4.01-1.43,7.5-4,10.05-7.34c2.55-3.34,4.17-7.46,4.43-11.97c0.18-3-0.27-5.91-1.22-8.59c-1.43-4.01-4-7.5-7.34-10.05
		c-3.34-2.55-7.46-4.17-11.97-4.43c-2.99-0.17-5.89,0.26-8.55,1.21c-2.66,0.94-5.1,2.39-7.18,4.23c-0.83,0.73-0.91,2-0.17,2.83
		c0.73,0.83,2,0.91,2.83,0.17c1.7-1.51,3.69-2.69,5.86-3.46c2.17-0.77,4.53-1.13,6.98-0.98c2.46,0.14,4.77,0.78,6.84,1.8
		c3.11,1.53,5.7,3.95,7.45,6.9c1.75,2.95,2.67,6.43,2.46,10.12c-0.14,2.46-0.78,4.77-1.8,6.84c-1.53,3.11-3.95,5.7-6.9,7.45
		c-2.95,1.75-6.43,2.67-10.12,2.46c-3.06-0.18-5.88-1.11-8.31-2.61c-2.43-1.5-4.47-3.57-5.93-6.01c-0.57-0.95-1.8-1.26-2.75-0.68
		C19.61,59.88,19.31,61.11,19.88,62.06L19.88,62.06z"/>
	<g>
		<path class="st0" d="M101.68,36.62c0-2.14,0.34-4.03,1.01-5.68c0.67-1.65,1.59-3.03,2.76-4.14c1.17-1.11,2.54-1.96,4.12-2.53
			c1.58-0.58,3.29-0.86,5.13-0.86c1.84,0,3.55,0.29,5.13,0.86c1.58,0.58,2.96,1.42,4.14,2.53c1.18,1.11,2.11,2.49,2.78,4.14
			c0.67,1.65,1.01,3.54,1.01,5.68c0,2.69-0.49,4.97-1.48,6.85c-0.99,1.88-2.33,3.36-4.03,4.43c0.41,0.19,0.9,0.4,1.46,0.62
			c0.56,0.22,1.15,0.44,1.77,0.66c0.62,0.22,1.26,0.43,1.91,0.64c0.66,0.21,1.28,0.39,1.85,0.56c0.03,0.17,0.04,0.31,0.04,0.43
			c0,0.12,0,0.24,0,0.35c0,1.56-0.41,2.7-1.21,3.42c-0.81,0.71-1.87,1.07-3.19,1.07c-1.26,0-2.57-0.35-3.91-1.05
			c-1.34-0.7-2.72-1.71-4.12-3.03l-1.81-1.69h-0.33c-1.87,0-3.6-0.29-5.19-0.89c-1.59-0.59-2.96-1.45-4.12-2.57
			s-2.06-2.51-2.72-4.16C102.01,40.61,101.68,38.73,101.68,36.62z M109.09,36.62c0,2.5,0.51,4.36,1.52,5.6
			c1.02,1.24,2.37,1.85,4.08,1.85c1.73,0,3.1-0.62,4.12-1.85c1.02-1.23,1.52-3.1,1.52-5.6c0-2.47-0.5-4.32-1.5-5.56
			c-1-1.23-2.37-1.85-4.1-1.85c-1.7,0-3.07,0.61-4.1,1.83C109.6,32.26,109.09,34.12,109.09,36.62z"/>
		<path class="st0" d="M131.4,29.41c0.27-0.08,0.71-0.17,1.3-0.25c0.59-0.08,1.2-0.12,1.83-0.12c0.6,0,1.15,0.04,1.63,0.12
			c0.48,0.08,0.89,0.25,1.21,0.49c0.33,0.25,0.58,0.58,0.76,1.01c0.18,0.43,0.27,0.98,0.27,1.67v8.85c0,1.13,0.27,1.93,0.82,2.41
			c0.55,0.48,1.34,0.72,2.39,0.72c0.63,0,1.15-0.06,1.54-0.17c0.4-0.11,0.71-0.22,0.93-0.33V29.41c0.27-0.08,0.71-0.17,1.3-0.25
			c0.59-0.08,1.2-0.12,1.83-0.12c0.6,0,1.15,0.04,1.63,0.12c0.48,0.08,0.89,0.25,1.21,0.49c0.33,0.25,0.58,0.58,0.76,1.01
			c0.18,0.43,0.27,0.98,0.27,1.67v12.52c0,1.37-0.58,2.4-1.73,3.09c-0.96,0.6-2.11,1.06-3.44,1.38s-2.78,0.47-4.34,0.47
			c-1.48,0-2.85-0.16-4.1-0.49c-1.25-0.33-2.33-0.84-3.23-1.52c-0.91-0.69-1.61-1.57-2.1-2.66c-0.49-1.08-0.74-2.39-0.74-3.93V29.41
			z"/>
		<path class="st0" d="M155.2,23.57c0-1.04,0.35-1.92,1.05-2.63c0.7-0.71,1.63-1.07,2.78-1.07c1.15,0,2.08,0.36,2.78,1.07
			s1.05,1.59,1.05,2.63c0,1.04-0.35,1.92-1.05,2.63c-0.7,0.71-1.63,1.07-2.78,1.07c-1.15,0-2.08-0.36-2.78-1.07
			C155.55,25.49,155.2,24.61,155.2,23.57z M162.53,49.09c-0.3,0.06-0.75,0.13-1.34,0.23c-0.59,0.1-1.19,0.14-1.79,0.14
			c-0.6,0-1.15-0.04-1.63-0.12c-0.48-0.08-0.89-0.25-1.21-0.49c-0.33-0.25-0.58-0.58-0.76-1.01c-0.18-0.43-0.27-0.98-0.27-1.67
			V29.41c0.3-0.06,0.75-0.13,1.34-0.23c0.59-0.1,1.19-0.14,1.79-0.14c0.6,0,1.15,0.04,1.63,0.12c0.48,0.08,0.89,0.25,1.21,0.49
			c0.33,0.25,0.58,0.58,0.76,1.01c0.18,0.43,0.27,0.98,0.27,1.67V49.09z"/>
		<path class="st0" d="M177.55,49.79c-1.62,0-3.12-0.23-4.51-0.68c-1.39-0.45-2.59-1.13-3.62-2.04c-1.03-0.91-1.84-2.04-2.43-3.42
			c-0.59-1.37-0.89-2.98-0.89-4.82c0-1.81,0.29-3.37,0.89-4.67c0.59-1.3,1.36-2.37,2.33-3.21c0.96-0.84,2.06-1.45,3.29-1.85
			c1.24-0.4,2.5-0.6,3.79-0.6c1.45,0,2.78,0.22,3.97,0.66c1.19,0.44,2.22,1.04,3.09,1.81c0.87,0.77,1.54,1.69,2.02,2.76
			c0.48,1.07,0.72,2.24,0.72,3.5c0,0.93-0.26,1.65-0.78,2.14s-1.25,0.81-2.18,0.95l-10.17,1.52c0.3,0.91,0.92,1.59,1.85,2.04
			c0.93,0.45,2,0.68,3.21,0.68c1.13,0,2.19-0.14,3.19-0.43c1-0.29,1.82-0.62,2.45-1.01c0.44,0.27,0.81,0.66,1.11,1.15
			c0.3,0.49,0.45,1.02,0.45,1.56c0,1.24-0.58,2.15-1.73,2.76c-0.88,0.47-1.87,0.78-2.96,0.95
			C179.54,49.71,178.51,49.79,177.55,49.79z M176.4,33.61c-0.66,0-1.23,0.11-1.71,0.33c-0.48,0.22-0.87,0.5-1.17,0.84
			c-0.3,0.34-0.53,0.73-0.68,1.15c-0.15,0.43-0.24,0.86-0.27,1.3l7.04-1.15c-0.08-0.55-0.38-1.1-0.91-1.65
			C178.18,33.89,177.42,33.61,176.4,33.61z"/>
		<path class="st0" d="M196.57,49.09c-0.27,0.08-0.71,0.17-1.3,0.25c-0.59,0.08-1.2,0.12-1.83,0.12c-0.6,0-1.15-0.04-1.63-0.12
			c-0.48-0.08-0.89-0.25-1.21-0.49c-0.33-0.25-0.58-0.58-0.76-1.01c-0.18-0.43-0.27-0.98-0.27-1.67V33.82
			c0-0.63,0.12-1.17,0.35-1.63c0.23-0.45,0.57-0.86,1.01-1.21c0.44-0.36,0.98-0.68,1.63-0.97s1.34-0.54,2.08-0.76
			c0.74-0.22,1.51-0.39,2.31-0.51c0.8-0.12,1.59-0.19,2.39-0.19c1.32,0,2.36,0.25,3.13,0.76c0.77,0.51,1.15,1.34,1.15,2.49
			c0,0.38-0.06,0.76-0.16,1.13c-0.11,0.37-0.25,0.71-0.41,1.01c-0.58,0-1.17,0.03-1.77,0.08c-0.6,0.06-1.19,0.14-1.77,0.25
			s-1.12,0.23-1.63,0.35c-0.51,0.12-0.94,0.27-1.3,0.43V49.09z"/>
		<path class="st0" d="M226.42,39.13c0,1.7-0.26,3.22-0.78,4.55c-0.52,1.33-1.26,2.45-2.2,3.36c-0.95,0.91-2.08,1.59-3.4,2.06
			c-1.32,0.47-2.79,0.7-4.4,0.7c-1.62,0-3.09-0.25-4.41-0.74c-1.32-0.49-2.45-1.2-3.4-2.12c-0.95-0.92-1.68-2.04-2.2-3.36
			c-0.52-1.32-0.78-2.8-0.78-4.45c0-1.62,0.26-3.09,0.78-4.4c0.52-1.32,1.26-2.44,2.2-3.36c0.95-0.92,2.08-1.63,3.4-2.12
			c1.32-0.49,2.79-0.74,4.41-0.74c1.62,0,3.09,0.25,4.4,0.76c1.32,0.51,2.45,1.22,3.4,2.14c0.95,0.92,1.68,2.04,2.2,3.36
			C226.16,36.08,226.42,37.54,226.42,39.13z M212.01,39.13c0,1.67,0.32,2.96,0.97,3.85c0.64,0.89,1.54,1.34,2.7,1.34
			c1.15,0,2.04-0.45,2.66-1.36c0.62-0.91,0.93-2.18,0.93-3.83c0-1.65-0.32-2.92-0.95-3.81c-0.63-0.89-1.52-1.34-2.68-1.34
			c-1.15,0-2.04,0.45-2.68,1.34C212.33,36.21,212.01,37.48,212.01,39.13z"/>
	</g>
	<g>
		<path class="st1" d="M107.22,79.67c-0.47,0-1-0.01-1.61-0.04c-0.6-0.03-1.23-0.08-1.87-0.17c-0.64-0.08-1.29-0.19-1.93-0.31
			c-0.65-0.12-1.24-0.3-1.79-0.51c-1.51-0.58-2.26-1.58-2.26-3.01V56.41c0-0.58,0.16-1.02,0.47-1.34c0.32-0.32,0.75-0.57,1.3-0.76
			c1.18-0.38,2.43-0.64,3.75-0.76c1.32-0.12,2.5-0.19,3.54-0.19c2.14,0,4.08,0.26,5.83,0.78c1.74,0.52,3.24,1.32,4.49,2.41
			c1.25,1.08,2.22,2.45,2.9,4.1c0.69,1.65,1.03,3.6,1.03,5.85c0,2.2-0.33,4.11-0.99,5.74c-0.66,1.63-1.6,3.01-2.82,4.12
			c-1.22,1.11-2.68,1.94-4.38,2.49C111.15,79.4,109.28,79.67,107.22,79.67z M104.91,73.66c0.3,0.06,0.67,0.1,1.11,0.14
			c0.44,0.04,0.85,0.06,1.24,0.06c0.93,0,1.79-0.14,2.57-0.41c0.78-0.27,1.45-0.7,2.02-1.28c0.56-0.58,1-1.32,1.32-2.24
			c0.32-0.92,0.47-2.02,0.47-3.31c0-2.47-0.58-4.33-1.73-5.58c-1.15-1.25-2.69-1.87-4.61-1.87c-0.38,0-0.78,0.01-1.17,0.04
			c-0.4,0.03-0.8,0.07-1.21,0.12V73.66z"/>
		<path class="st1" d="M145.34,69.01c0,1.7-0.26,3.22-0.78,4.55c-0.52,1.33-1.26,2.45-2.2,3.36c-0.95,0.91-2.08,1.59-3.4,2.06
			c-1.32,0.47-2.79,0.7-4.4,0.7c-1.62,0-3.09-0.25-4.41-0.74c-1.32-0.49-2.45-1.2-3.4-2.12c-0.95-0.92-1.68-2.04-2.2-3.36
			c-0.52-1.32-0.78-2.8-0.78-4.45c0-1.62,0.26-3.09,0.78-4.4c0.52-1.32,1.26-2.44,2.2-3.36c0.95-0.92,2.08-1.63,3.4-2.12
			c1.32-0.49,2.79-0.74,4.41-0.74c1.62,0,3.09,0.25,4.4,0.76c1.32,0.51,2.45,1.22,3.4,2.14c0.95,0.92,1.68,2.04,2.2,3.36
			C145.08,65.96,145.34,67.42,145.34,69.01z M130.93,69.01c0,1.67,0.32,2.96,0.97,3.85c0.64,0.89,1.54,1.34,2.7,1.34
			c1.15,0,2.04-0.45,2.66-1.36c0.62-0.91,0.93-2.18,0.93-3.83c0-1.65-0.32-2.92-0.95-3.81c-0.63-0.89-1.52-1.34-2.68-1.34
			c-1.15,0-2.04,0.45-2.68,1.34C131.24,66.09,130.93,67.36,130.93,69.01z"/>
		<path class="st1" d="M161.44,66.33c0-0.85-0.24-1.47-0.72-1.87c-0.48-0.4-1.13-0.6-1.96-0.6c-0.55,0-1.09,0.07-1.63,0.21
			c-0.53,0.14-0.99,0.34-1.38,0.62v14.29c-0.27,0.08-0.71,0.17-1.3,0.25c-0.59,0.08-1.2,0.12-1.83,0.12c-0.6,0-1.15-0.04-1.63-0.12
			c-0.48-0.08-0.89-0.25-1.21-0.49c-0.33-0.25-0.58-0.58-0.76-1.01c-0.18-0.43-0.27-0.98-0.27-1.67V63.7c0-0.74,0.16-1.34,0.47-1.81
			c0.31-0.47,0.75-0.89,1.3-1.28c0.93-0.66,2.11-1.19,3.52-1.61c1.41-0.41,2.98-0.62,4.71-0.62c3.1,0,5.49,0.68,7.16,2.04
			c1.67,1.36,2.51,3.25,2.51,5.66v12.89c-0.27,0.08-0.71,0.17-1.3,0.25c-0.59,0.08-1.2,0.12-1.83,0.12c-0.6,0-1.15-0.04-1.63-0.12
			c-0.48-0.08-0.89-0.25-1.21-0.49c-0.33-0.25-0.58-0.58-0.76-1.01c-0.18-0.43-0.27-0.98-0.27-1.67V66.33z"/>
		<path class="st1" d="M180.99,58.39c1.48,0,2.83,0.15,4.06,0.45c1.22,0.3,2.26,0.76,3.13,1.38c0.86,0.62,1.53,1.4,2,2.35
			c0.47,0.95,0.7,2.07,0.7,3.36v9.22c0,0.71-0.2,1.3-0.6,1.75c-0.4,0.45-0.87,0.84-1.42,1.17c-1.78,1.07-4.3,1.61-7.53,1.61
			c-1.46,0-2.77-0.14-3.93-0.41c-1.17-0.27-2.17-0.69-3.01-1.23c-0.84-0.55-1.48-1.25-1.94-2.1c-0.45-0.85-0.68-1.84-0.68-2.96
			c0-1.89,0.56-3.35,1.69-4.36c1.13-1.02,2.87-1.65,5.23-1.89l5.39-0.58v-0.29c0-0.8-0.35-1.36-1.05-1.71
			c-0.7-0.34-1.71-0.51-3.03-0.51c-1.04,0-2.06,0.11-3.05,0.33c-0.99,0.22-1.88,0.49-2.68,0.82c-0.36-0.25-0.66-0.62-0.91-1.13
			c-0.25-0.51-0.37-1.04-0.37-1.59c0-0.71,0.17-1.28,0.51-1.71c0.34-0.43,0.87-0.79,1.59-1.09c0.8-0.3,1.74-0.52,2.82-0.66
			C179.01,58.46,180.03,58.39,180.99,58.39z M181.32,74.57c0.47,0,0.98-0.05,1.54-0.14c0.56-0.1,0.98-0.23,1.26-0.39v-3.29
			l-2.96,0.25c-0.77,0.06-1.4,0.22-1.89,0.49c-0.49,0.28-0.74,0.69-0.74,1.24s0.21,1,0.64,1.34
			C179.58,74.4,180.31,74.57,181.32,74.57z"/>
		<path class="st1" d="M202.15,78.97c-0.27,0.08-0.71,0.17-1.3,0.25c-0.59,0.08-1.2,0.12-1.83,0.12c-0.6,0-1.15-0.04-1.63-0.12
			c-0.48-0.08-0.89-0.25-1.21-0.49c-0.33-0.25-0.58-0.58-0.76-1.01c-0.18-0.43-0.27-0.98-0.27-1.67V63.7c0-0.63,0.12-1.17,0.35-1.63
			c0.23-0.45,0.57-0.86,1.01-1.21c0.44-0.36,0.98-0.68,1.63-0.97s1.34-0.54,2.08-0.76c0.74-0.22,1.51-0.39,2.31-0.51
			c0.8-0.12,1.59-0.19,2.39-0.19c1.32,0,2.36,0.25,3.13,0.76c0.77,0.51,1.15,1.34,1.15,2.49c0,0.38-0.06,0.76-0.16,1.13
			c-0.11,0.37-0.25,0.71-0.41,1.01c-0.58,0-1.17,0.03-1.77,0.08c-0.6,0.06-1.19,0.14-1.77,0.25s-1.12,0.23-1.63,0.35
			c-0.51,0.12-0.94,0.27-1.3,0.43V78.97z"/>
	</g>
</g>
</svg>
