<?xml version="1.0" encoding="utf-8"?>
<!-- Generator: Adobe Illustrator 23.0.3, SVG Export Plug-In . SVG Version: 6.00 Build 0)  -->
<svg version="1.1" id="Capa_1" xmlns="http://www.w3.org/2000/svg" xmlns:xlink="http://www.w3.org/1999/xlink" x="0px" y="0px"
	 viewBox="0 0 360 193.84" style="enable-background:new 0 0 360 193.84;" xml:space="preserve">
<style type="text/css">
	.st0{fill:#B9E3EF;}
	.st1{fill:#C8DBFB;}
	.st2{fill:none;stroke:#C8DBFB;stroke-linecap:round;stroke-linejoin:round;stroke-dasharray:4;}
	.st3{fill:#5193F4;}
	.st4{fill:none;stroke:#0B43A4;stroke-linecap:round;stroke-linejoin:round;}
	.st5{fill:#00AD9F;}
	.st6{fill:none;stroke:#00AD9F;stroke-linecap:round;stroke-linejoin:round;}
	.st7{fill:#0056EC;}
	.st8{fill:#52D2BC;}
	.st9{opacity:0.2;fill:#5275A0;enable-background:new    ;}
	.st10{fill:#7EE8D4;}
	.st11{fill:#4A49CA;}
	.st12{fill:none;stroke:#0B43A4;stroke-linecap:round;stroke-linejoin:round;stroke-dasharray:4;}
	.st13{fill:#0B43A4;}
	.st14{fill:#FFFFFF;}
	.st15{fill:none;}
	.st16{fill:none;stroke:#C8DBFB;stroke-linecap:round;stroke-linejoin:round;}
	.st17{fill:#0C2340;}
	.st18{fill:#EF832B;}
	.st19{fill:#FFB9A3;}
	.st20{fill:#047F76;}
	.st21{fill:#009790;}
	.st22{fill:none;stroke:#EF832B;stroke-miterlimit:10;}
	.st23{fill:#D8742A;}
	.st24{fill:none;stroke:#4A49CA;stroke-miterlimit:10;}
</style>
<g>
	<path class="st0" d="M285.24,81.1C285.24,81.1,285.24,81.11,285.24,81.1c0,16.11-3.78,31.33-10.49,44.84
		c8.34,1.48,16.84,2.3,25.42,2.3c39.37,0,59.83-10.71,59.83-10.71V0H244.39C269.18,18.39,285.24,47.87,285.24,81.1z"/>
	<path class="st0" d="M124.22,0H0l0,89.69c40.85-35.82,86.21-32.61,86.21-32.61c0.01,0,0.03,0,0.04,0
		C91.92,33.87,105.61,13.81,124.22,0z"/>
	<path class="st0" d="M86.25,57.08c-1.88,7.7-2.89,15.75-2.89,24.03c0,55.75,45.19,100.94,100.93,100.94
		c39.64,0,73.94-22.85,90.45-56.1c-29.94-5.3-57.9-19.03-80.56-33.36C165.23,74.26,122.67,57.09,86.25,57.08z"/>
	<path class="st0" d="M285.24,81.1c0-33.23-16.07-62.71-40.85-81.1H124.22c-18.61,13.81-32.3,33.87-37.96,57.08
		c36.41,0.01,78.98,17.19,107.94,35.51c22.66,14.33,50.62,28.06,80.56,33.36C281.46,112.44,285.24,97.22,285.24,81.1
		C285.24,81.11,285.24,81.1,285.24,81.1z"/>
</g>
<g id="Grupo_10476" transform="translate(193.648 126.926)">
	<path id="Trazado_5960" class="st0" d="M52.02-32.63h51.85c-3.69-0.02-7.22,1.45-9.82,4.06c-2.61,2.45-4.08,5.87-4.08,9.44
		c0,7.48,6.06,13.55,13.54,13.55c0.12,0,0.24,0,0.36,0H52.02c7.25,0.4,13.46-5.15,13.87-12.4c0.02-0.29,0.02-0.59,0.02-0.88
		c0.03-7.58-6.09-13.74-13.67-13.76C52.17-32.64,52.1-32.63,52.02-32.63z"/>
</g>
<g id="Grupo_10478" transform="translate(34.214 172.158)">
	<path id="Trazado_5962" class="st0" d="M59.76-32.63h52.38c4.27,0,7.73,3.46,7.73,7.73c0,0,0,0,0,0l0,0c0,4.27-3.46,7.73-7.73,7.73
		H59.76c-4.27,0-7.73-3.46-7.73-7.73l0,0C52.02-29.17,55.48-32.63,59.76-32.63C59.76-32.63,59.76-32.63,59.76-32.63z"/>
</g>
<g id="Grupo_10479" transform="translate(47.639 202.646)">
	<path id="Trazado_5963" class="st0" d="M57.03-32.63h61.38c2.77,0,5.01,2.24,5.01,5.01c0,0,0,0,0,0l0,0c0,2.77-2.24,5.01-5.01,5.01
		c0,0,0,0,0,0H57.03c-2.77,0-5.01-2.24-5.01-5.01c0,0,0,0,0,0l0,0C52.02-30.39,54.27-32.63,57.03-32.63
		C57.03-32.63,57.03-32.63,57.03-32.63z"/>
</g>
<g id="Grupo_10480" transform="translate(171.979 212.67)">
	<path id="Rectángulo_578" class="st0" d="M68.26-22.61H55.17c-1.74,0-3.15-1.41-3.15-3.15v-3.73c0-1.74,1.41-3.15,3.15-3.15h13.09
		c1.74,0,3.15,1.41,3.15,3.15v3.73C71.41-24.02,70-22.61,68.26-22.61z"/>
</g>
<g id="Grupo_10481" transform="translate(164.117 183.023)">
	<path id="Trazado_5964" class="st0" d="M60.25-32.64h45.61c4.54,0,8.22,3.68,8.22,8.22c0,0,0,0,0,0l0,0c0,4.54-3.68,8.22-8.22,8.22
		H60.25c-4.54,0-8.22-3.68-8.22-8.22l0,0C52.02-28.96,55.7-32.64,60.25-32.64C60.24-32.64,60.25-32.64,60.25-32.64z"/>
</g>
<g id="Grupo_10482" transform="translate(60.037 187.511)">
	<path id="Trazado_5965" class="st0" d="M52.02-32.64h28.86c-2.06,0.02-4.03,0.86-5.47,2.34c-1.45,1.36-2.27,3.26-2.27,5.26
		c0,4.17,3.38,7.54,7.55,7.54c0.06,0,0.13,0,0.19,0H52.02c2.01,0.11,3.99-0.61,5.47-1.98c3.01-3,3.03-7.88,0.03-10.89
		C56.06-31.83,54.08-32.65,52.02-32.64z"/>
</g>
<g id="Grupo_10483" transform="translate(159.302 99.208)">
	<path id="Trazado_5966" class="st0" d="M65.91-32.63h74.41c7.67,0,13.89,6.22,13.89,13.89c0,0,0,0,0,0l0,0
		c0,7.67-6.22,13.89-13.89,13.89c0,0,0,0,0,0H65.91c-7.67,0-13.89-6.22-13.89-13.89c0,0,0,0,0,0l0,0
		C52.02-26.42,58.24-32.63,65.91-32.63z"/>
</g>
<g id="Grupo_10484" transform="translate(137.691 153.972)">
	<path id="Trazado_5967" class="st0" d="M61.03-32.63h110.25c4.97,0,9,4.03,9,9l0,0c0,4.97-4.03,9-9,9H61.03c-4.97,0-9-4.03-9-9l0,0
		l0,0C52.03-28.61,56.06-32.63,61.03-32.63z"/>
</g>
<g id="Grupo_10485" transform="translate(9.055 57.639)">
	<path id="Trazado_5968" class="st0" d="M153.97-3.14h-87.2c-8.14,0-14.74-6.61-14.74-14.75l0,0c0-8.14,6.6-14.75,14.75-14.75l0,0
		h87.19c8.14,0,14.75,6.6,14.75,14.75l0,0C168.71-9.74,162.11-3.14,153.97-3.14C153.97-3.14,153.97-3.14,153.97-3.14z"/>
</g>
<g id="Grupo_10486" transform="translate(0 129.889)">
	<path id="Trazado_5969" class="st0" d="M199.33,9.99h-126c-11.77,0-21.31-9.54-21.31-21.31l0,0c0-11.77,9.54-21.31,21.31-21.31h126
		c11.77,0,21.31,9.54,21.31,21.31l0,0C220.64,0.45,211.1,9.99,199.33,9.99z"/>
</g>
<ellipse id="Elipse_191" class="st1" cx="151.67" cy="184" rx="19.18" ry="1.79"/>
<ellipse id="Elipse_192" class="st1" cx="250.2" cy="184" rx="19.18" ry="1.79"/>
<g id="Grupo_13887" transform="translate(31.233 106.74)">
	<path id="Trazado_7149" class="st2" d="M259.48-48.89c-2.4-14.73-14.23-13.43-24.84-13.41L59.72-61.94
		c-16.51,0.03-14.91,23.87-1.99,23.85c7.43-0.01,10.26,13.94-2.59,13.97c-8.57,0.02-7.92,12.1-0.83,12.09"/>
	<path id="Trazado_7150" class="st3" d="M56.34-12.49c0.22,1.29-0.65,2.52-1.94,2.74c-1.29,0.22-2.52-0.65-2.74-1.94
		c-0.22-1.29,0.65-2.52,1.94-2.74C54.89-14.65,56.12-13.78,56.34-12.49z"/>
	<path id="Trazado_7151" class="st3" d="M261.82-47.82c-0.24,1.29-1.48,2.14-2.77,1.91c-1.29-0.24-2.14-1.48-1.91-2.77
		c0.24-1.29,1.47-2.14,2.76-1.91C261.2-50.36,262.06-49.12,261.82-47.82C261.82-47.83,261.82-47.83,261.82-47.82z"/>
</g>
<g id="Grupo_13905" transform="translate(28.315 89.117)">
	<g id="Grupo_13888" transform="translate(18.222 27.185)">
		<path id="Trazado_7152" class="st3" d="M65.26-39.41c-0.35,1.92-0.84,3.82-1.45,5.68c-1.4,4-3.06,7.91-4.97,11.7
			c-0.96,1.99-4.84,6.61-6.93,7.49c0.31-5.51,0.2-11.04-0.34-16.54c-0.58-5.06,1.24-8.9-0.74-13.59c-0.25-0.6-0.52-1.2-0.78-1.8
			c-1.09-2.17-1.85-4.49-2.27-6.88c-0.4-3.05,0.55-6.53,3.19-8.12c1.98-1.08,4.36-1.15,6.41-0.18c2.01,0.97,3.71,2.49,4.89,4.38
			C65.72-52.14,66.35-45.5,65.26-39.41z"/>
		<path id="Trazado_7153" class="st4" d="M56.03-56.27c3.89,5.49,4.22,11.88,4.56,18.6c0.33,6.76-1.27,13.47-4.6,19.36"/>
	</g>
	<g id="Grupo_13889" transform="translate(11.451 105.471)">
		<path id="Trazado_7154" class="st5" d="M62.64-33.33c-2.83-2.29-5.35-4.94-7.49-7.88c-1.75-2.64-2.88-5.63-4.41-8.4
			c-1.11-1.72-2.02-3.56-2.73-5.49c-0.7-1.97-0.33-4.16,0.96-5.79c1.6-1.5,3.94-1.89,5.94-1c1.95,0.91,3.57,2.4,4.65,4.27
			c1.54,2.4,2.56,5.09,2.99,7.9c0.39,2.54,0.29,5.14,0.68,7.68c0.4,2.36,1.13,4.65,2.17,6.81c0.91,1.97,3.21,5.47,3.8,7.49
			C67.56-26.92,63.79-32.31,62.64-33.33z"/>
		<path id="Trazado_7155" class="st6" d="M53.11-58.29c2.59,1.13,3.62,4.22,4.16,7c0.61,3.16,0.48,6.58,1.93,9.45
			c2.73,5.41,6.28,11.57,8.92,13.41"/>
	</g>
	<g id="Grupo_13890" transform="translate(5.597 126.348)">
		<path id="Trazado_7156" class="st7" d="M55.09-61.61c-2.26-0.89-5.28-1.26-6.73,0.69c-1.21,1.63-0.58,3.95,0.25,5.8
			c0.59,1.63,1.67,3.03,3.1,4.01c1.06,0.52,2.2,0.82,3.38,0.89c3.25,0.39,6.52,0.58,9.79,0.57c4.15,0.1,8.17,1.46,11.53,3.9
			C72.38-53.24,62.69-58.61,55.09-61.61z"/>
		<path id="Trazado_7157" class="st4" d="M51.12-56.75c2.88,0.03,5.75,0.41,8.54,1.14c2.82,0.83,13.69,5.82,15.38,7.94"/>
	</g>
	<g id="Grupo_13891" transform="translate(0 75.7)">
		<path id="Trazado_7158" class="st8" d="M85.34-26.33c-3.01-4.65-7.9-7.77-13.39-8.55c-4-0.54-8.12,0.21-12.06-0.62
			C51.57-37.24,46.25-45.39,48-53.7c0.09-0.42,0.19-0.84,0.32-1.25c0.93-3.09,3.05-6.01,6.11-7c1.7-0.49,3.5-0.51,5.21-0.05
			c1.56,0.39,3.04,1.03,4.39,1.9c3.09,2.1,5.64,4.89,7.46,8.16c1.7,2.9,5.9,7.42,8.76,10.37c1.68,1.72,2.89,2.89,2.89,2.89
			C85.09-36.26,84.18-29.23,85.34-26.33z"/>
		<path id="Trazado_7159" class="st6" d="M53.54-53.03C63.15-48.69,73.63-43,80.45-34.96"/>
	</g>
	<g id="Grupo_13892" transform="translate(12.706 43.044)">
		<path id="Trazado_7160" class="st9" d="M68.66-3.38c0,0-14.32-11.61-17.34-24.07c3.09,2.1,5.64,4.89,7.46,8.16
			c1.7,2.9,5.9,7.42,8.76,10.37C67.88-7.37,68.25-5.54,68.66-3.38z"/>
		<path id="Trazado_7161" class="st9" d="M69.32-49.59c-1.4,4-3.06,7.91-4.97,11.7c-0.96,1.99-4.84,6.61-6.93,7.49
			c0.31-5.51,0.2-11.04-0.34-16.54c-0.58-5.06,1.24-8.9-0.74-13.59c-0.25-0.6-0.52-1.2-0.78-1.8c0.18,0.06,0.36,0.12,0.54,0.2
			c3.26,1.4,4.77,4.85,5.05,8.21c0.09,2.78-0.13,5.56-0.64,8.3c-0.24,1.26-0.25,2.55-0.04,3.82c0.01,0.01,0.01,0.03,0.01,0.04
			c0.2,0.76,0.98,1.22,1.74,1.03c0.54-0.14,0.95-0.58,1.05-1.13l0.87-4.61c0.1-1.42,0.69-2.76,1.67-3.79
			c0.44-0.39,1.02-0.61,1.61-0.6C68.24-50.83,68.97-50.34,69.32-49.59z"/>
		<path id="Trazado_7162" class="st10" d="M68.67-6.29c-2.26-11.81-3.45-13.63-2.46-16.6c1.27-3.77,0.56-7.57,1.75-11.37
			s2.01-7.88,1.04-11.74c-0.31-1.22-0.92-2.55-2.39-2.6c-0.59-0.01-1.17,0.21-1.61,0.6c-0.98,1.03-1.58,2.37-1.68,3.79l-0.86,4.61
			c-0.14,0.78-0.89,1.29-1.67,1.15c-0.55-0.1-0.98-0.51-1.12-1.05l-0.01-0.04c-0.21-1.26-0.2-2.55,0.04-3.81
			c0.51-2.74,0.73-5.52,0.64-8.3c-0.28-3.35-1.79-6.81-5.06-8.2c-1.16-0.5-2.46-0.6-3.69-0.29c-3.41,0.88-4.29,4.21-3.79,7.05
			c0.47,1.98,1.19,3.89,2.14,5.69c2.08,4.51,0.55,8.65,0.84,13.61C51.59-20.13,68.67-6.29,68.67-6.29z"/>
		<path id="Trazado_7163" class="st6" d="M53.45-56.58c1.68,8.41,3.38,16.87,6.65,24.8c0.96,2.32,1.43,5.38,6.97,11.71"/>
	</g>
	<g id="Grupo_13893" transform="translate(48.936 14.314)">
		<path id="Trazado_7164" class="st3" d="M82.84-25.7c-1.74-1.99-3.35-4.01-5.04-5.96c-1.1-1.26-2.23-2.5-3.46-3.67
			c-0.61-0.59-1.24-1.15-1.9-1.7c-3.93-3.26-8.31-5.93-13.01-7.95c-2.83-1.21-5.82-2.21-8.22-4.14s-4.13-5.09-3.33-8.06
			c0.68-2.15,2.35-3.85,4.49-4.57c2.12-0.69,4.4-0.77,6.57-0.23c6.05,1.31,11.11,5.66,14.55,10.8c0.06,0.09,0.12,0.18,0.18,0.28
			c2.44,3.91,4.39,8.1,5.82,12.48c0.49,1.4,0.96,2.81,1.42,4.21C81.6-32.12,83.73-27.78,82.84-25.7z"/>
		<path id="Trazado_7165" class="st4" d="M55.15-56.94c6.6,1.26,11.28,5.63,16.18,10.24c4.92,4.64,8.43,10.59,10.12,17.14"/>
	</g>
	<g id="Grupo_13894" transform="translate(74.28 13.772)">
		<path id="Trazado_7166" class="st9" d="M52.46-31.12c-0.06,0.69-0.03,1.38,0.09,2.06C50.9-29.43,49.75-32,49-34.79
			c-0.6-2.3-1.01-4.64-1.22-7.01c-0.22-2.87-0.04-5.75,0.55-8.57c2.44,3.91,4.39,8.1,5.82,12.48c-0.53,1.56-0.98,3.14-1.35,4.74
			C52.63-32.48,52.52-31.8,52.46-31.12z"/>
		<path id="Trazado_7167" class="st8" d="M63.92-54.97c-0.56,2.48-2.05,4.62-3.37,6.79c-0.7,1.14-1.34,2.32-1.95,3.51
			c-1.94,3.82-3.42,7.85-4.4,12.02c-0.37,1.33-0.45,2.72-0.24,4.09c-3.26-0.74-4.55-10-4.77-12.75c-0.4-4.99,0.46-9.99,2.49-14.57
			c0.79-2.04,2.1-3.85,3.81-5.22c1.76-1.37,4.15-1.61,6.14-0.61c1.1,0.69,1.89,1.78,2.2,3.05C64.16-57.46,64.19-56.19,63.92-54.97z"
			/>
		<path id="Trazado_7168" class="st6" d="M52.71-31.29c-2.02-5.09-0.79-15.85,2.45-22.61c0.9-2.09,2.41-3.86,4.32-5.09"/>
	</g>
	<g id="Grupo_13895" transform="translate(83.484 17.303)">
		<path id="Trazado_7169" class="st9" d="M54.71-58.5c-0.56,2.48-2.05,4.62-3.37,6.79c-0.7,1.14-1.34,2.32-1.95,3.51
			c-0.91-1.48-1.48-3.15-1.66-4.88c-0.7-4.31,2.23-8.36,6.54-9.06c0.12-0.02,0.24-0.04,0.36-0.05
			C54.96-60.99,54.99-59.72,54.71-58.5z"/>
		<path id="Trazado_7170" class="st5" d="M73.49-36.96c-0.15,0.95-0.44,1.87-0.84,2.74c-1.44,3.13-4.47,5.81-9.02,7.99
			c0,0-0.25-4.94-0.31-6.27c-0.22-5.66-6.37-8.8-10.26-12.93c-2.06-2.07-3.38-4.76-3.76-7.65c-0.34-2.93,0.86-5.83,3.17-7.67
			c2.07-1.31,4.53-1.86,6.96-1.54c3.96,0.2,7.66,2,10.26,4.99c0.1,0.11,0.2,0.23,0.28,0.36c1.4,2.11,2.36,4.47,2.81,6.96
			C73.86-45.72,74.1-41.3,73.49-36.96z"/>
		<path id="Trazado_7171" class="st6" d="M54.15-57.71c4.26,2.2,8.52,4.86,11,8.96c3.46,5.72,2.7,13.16,0.04,19.29"/>
	</g>
	<g id="Grupo_13896" transform="translate(179.053 37.425)">
		<path id="Trazado_7172" class="st8" d="M49.13-20.53c2.71-4.47,1.33-10.21,2.27-15.35c0.75-3.99,2.9-7.58,6.07-10.11
			c1.97-1.57,4.75-2.69,6.98-1.51c0.48,0.26,1.06,0.61,1.52,0.33c0.26-0.21,0.42-0.51,0.45-0.84c0.57-2.78-0.77-5.81,0.32-8.42
			c0.67-1.38,1.75-2.52,3.09-3.28c2.5-1.59,5.37-2.49,8.32-2.61c0.78-0.08,1.57,0.04,2.29,0.35c1.24,0.75,1.9,2.17,1.67,3.6
			c-0.25,1.4-0.88,2.7-1.8,3.77c-2.85,3.73-7.02,6.94-7.57,11.6c-0.11,0.59-0.04,1.19,0.2,1.74c0.26,0.51,0.75,0.87,1.02,1.38
			c0.88,1.61-0.82,3.44-2.47,4.23c-1.52,0.73-3.15,1.18-4.82,1.33c-1.15,0.11-2.45,0.13-3.23,0.98c-1.44,1.57,0.21,4.07-0.09,6.18
			c-0.32,1.3-1.06,2.46-2.1,3.3c-1.78,1.71-3.72,3.25-5.8,4.58c-1.74,0.99-3.4,2.11-4.96,3.37c-1.57,1.27-2.58,3.12-2.8,5.13"/>
		<path id="Trazado_7173" class="st6" d="M52.71-24.88c0.54-2.15,1.36-4.21,2.45-6.14c1.41-3.16,3.27-6.1,5.5-8.74
			c1.79-1.92,3.96-3.44,5.78-5.33c1.3-1.35,2.4-2.88,3.27-4.54c0.42-0.92,0.92-1.8,1.51-2.63c0.83-0.87,1.72-1.68,2.68-2.41
			c1.21-1.09,2.18-2.42,2.84-3.92"/>
	</g>
	<g id="Grupo_13897" transform="translate(177.319 68.577)">
		<path id="Trazado_7174" class="st3" d="M89.82-48.58c-0.53,2.38-1.58,4.62-3.08,6.54c-1.1,1.27-2.41,2.33-3.88,3.13
			c-0.76,0.43-1.54,0.81-2.35,1.15c-3.11,1.31-6.44,2.04-9.81,2.17c-4.9,0.18-9.94-0.9-14.65,0.5c-2.16,0.65-4.14,1.8-5.78,3.35
			c-1.03,0.96-1.9,2.06-2.6,3.28l0.64-4.07c1.19-4.38,2.4-8.83,4.82-12.67c1.62-2.46,3.55-4.69,5.75-6.64
			c3.42-3.23,7.29-5.94,11.5-8.04c3.41-1.66,7.2-2.82,10.98-2.36s7.47,2.84,8.64,6.45C90.63-53.42,90.57-50.92,89.82-48.58z"/>
		<path id="Trazado_7175" class="st4" d="M51.53-35.63c3.65-5.37,8.95-9.39,15.1-11.46c3.8-1.27,7.82-1.75,11.68-2.86
			s7.69-3,9.95-6.31"/>
	</g>
	<g id="Grupo_13898" transform="translate(182.282 110.509)">
		<path id="Trazado_7176" class="st8" d="M48.94-38.47c0.21-5.47,3.04-10.52,6.48-14.79c2.87-3.56,6.32-6.81,10.59-8.43
			c1.32-0.59,2.78-0.76,4.2-0.51c1.44,0.3,2.53,1.5,2.67,2.96c-0.11,1.22-0.7,2.34-1.64,3.12c-2.81,2.81-6.44,4.62-9.84,6.67
			c-5.85,3.53-11.4,8.25-13.72,14.67"/>
		<path id="Trazado_7177" class="st6" d="M51.1-43.26c3.57-7.97,12.82-15.09,18.92-15.98"/>
	</g>
	<g id="Grupo_13899" transform="translate(181.304 126.691)">
		<path id="Trazado_7178" class="st5" d="M47.68-50.3c-0.05-0.92,2.94-3.32,3.62-3.93c3.71-3.35,8.09-5.86,12.86-7.35
			c1.85-0.71,3.86-0.91,5.81-0.57c2,0.42,3.53,2.04,3.83,4.06c0.05,2.04-1.05,3.93-2.85,4.89c-1.73,0.86-3.67,1.21-5.58,1
			c-2.93-0.17-5.8-0.9-8.75-0.88S49.55-52.76,47.68-50.3z"/>
		<path id="Trazado_7179" class="st6" d="M50.73-53.08c6.01-3.26,15.1-5.38,21.7-4.58"/>
	</g>
	<g id="Grupo_13901" transform="translate(104.023 4.581)">
		<path id="Trazado_7180" class="st9" d="M52.95-24.24c-0.15,0.95-0.44,1.87-0.84,2.74c-2.57-5.49-4.06-11.42-4.41-17.48
			c-0.1-1.97,0.41-3.93,1.45-5.61c0.1,0.11,0.2,0.23,0.28,0.36c1.4,2.11,2.36,4.47,2.81,6.96C53.32-33,53.56-28.58,52.95-24.24z"/>
		<path id="Trazado_7181" class="st10" d="M73.74-24.49c4.49-1.59,9.15-2.87,13.23-5.32c1.26-0.7,2.38-1.64,3.3-2.75
			c0.92-1.13,1.36-2.58,1.22-4.03c-0.2-1.45-1.13-2.84-0.81-4.27c0.32-0.91,0.82-1.75,1.45-2.48c1.29-1.94,1.66-4.35,1.02-6.59
			c-0.7-2.36-2.48-4.26-3.48-6.51c-0.83-1.85-1.12-3.9-0.84-5.91c-3.77,0.05-7.2,2.11-10.9,2.79c-2.83,0.53-5.78,0.24-8.58,0.89
			c-5.23,1.29-9.19,5.56-10.1,10.87c-2.42-0.39-4.88,0.43-6.58,2.2c-1.78,1.91-2.71,4.47-2.58,7.08
			c1.16,18.57,11.79,28.26,11.79,28.26S72.03-23.88,73.74-24.49z"/>
		<g id="Grupo_13900" transform="translate(10.294 4.442)">
			<path id="Trazado_7182" class="st6" d="M53.41-29.06c-0.47-4.58,1.13-9.11,2.97-13.33c1.7-4.16,3.93-8.08,6.62-11.68
				c2.71-3.61,6.31-6.46,10.44-8.26"/>
			<path id="Trazado_7183" class="st6" d="M57.4-59.53c-0.46,4.35-0.15,8.74,0.92,12.98"/>
			<path id="Trazado_7184" class="st6" d="M59.09-48.02c5.24-3.12,11.27-4.68,17.37-4.49"/>
			<path id="Trazado_7185" class="st6" d="M47.68-47.25c5.62,2.37,5.85,10.63,6,12.97"/>
			<path id="Trazado_7186" class="st6" d="M55.21-39.53c4.42-2.98,9.87-4.01,15.08-2.86"/>
			<path id="Trazado_7187" class="st6" d="M66.94-61.65c-1.09,1.35-1.62,3.07-1.48,4.8"/>
			<path id="Trazado_7188" class="st6" d="M66.68-58.01c2.34-1.07,4.99-1.26,7.46-0.54"/>
		</g>
	</g>
	<g id="Grupo_13902" transform="translate(15.023)">
		<path id="Trazado_7189" class="st11" d="M55.48-40.01c0.53-0.03,4.13-2.7,5.51-3.59c0.4-0.23,0.76-0.53,1.06-0.9
			c0.3-0.37,0.37-0.87,0.2-1.31c-0.27-0.68-0.96-1.1-1.68-1.04c-1.28-0.08-2.51,0.48-3.29,1.49C54.4-42.37,55.48-40.01,55.48-40.01z
			"/>
		<path id="Trazado_7190" class="st11" d="M71.62-29.25c1.51,0.84,3.22,1.25,4.95,1.19c0.68-0.02,1.29-0.41,1.6-1.01
			c0.15-0.56-0.05-1.16-0.5-1.53c-0.45-0.35-0.98-0.59-1.54-0.7c-2.36-0.43-4.78-0.31-7.08,0.36
			C69.85-30.31,70.71-29.74,71.62-29.25z"/>
		<path id="Trazado_7191" class="st11" d="M81.94-52.4c-0.7-0.44-1.47-1.03-1.47-1.86c0.1-0.86,0.83-1.49,1.69-1.46
			c0.84,0.05,1.63,0.41,2.22,1c1.51,1.19,2.37,3.03,2.31,4.96C86.7-49.77,82.72-51.91,81.94-52.4z"/>
		<path id="Trazado_7192" class="st11" d="M84.02-59.47c-0.64-0.21-1.2-0.61-1.61-1.14c-0.19-0.27-0.25-0.61-0.17-0.93
			c0.18-0.51,0.5-0.97,1.8-0.74c4.09,0.74,4.99,3.55,4.99,3.55C87.34-58.82,85.67-59.07,84.02-59.47z"/>
		<path id="Trazado_7193" class="st11" d="M96.02-53.26c1.7-0.14,3.27-0.95,4.37-2.24c0.42-0.47,0.72-1.02,0.88-1.63
			c0.16-0.62-0.03-1.27-0.48-1.71c-0.63-0.46-1.49-0.46-2.12,0c-0.61,0.46-1.08,1.08-1.37,1.78C96.86-56.15,96.02-53.26,96.02-53.26
			z"/>
		<path id="Trazado_7194" class="st4" d="M66.7,6.61L54.77-3.9c-2.23-1.75-4.13-3.87-5.63-6.28c-2.88-5.34-1.22-12.29,2.67-16.94
			s9.6-7.41,15.34-9.41s11.7-3.41,17.17-6.05c3.43-1.66,6.87-4.13,7.81-7.82c1.06-4.18-1.46-8.43-5.64-9.49
			c-0.48-0.12-0.97-0.2-1.46-0.23"/>
		<path id="Trazado_7195" class="st4" d="M98.79-57.08c-1.09,3.34-5.32,5.37-7.25,8.26"/>
		<path id="Trazado_7196" class="st4" d="M83.6-53.24c0.9,0.81,1.76,1.67,2.56,2.58c1.72,2.27,1.46,5.48-0.61,7.44"/>
		<path id="Trazado_7197" class="st4" d="M62.19-34.56c3.62,2.78,7.99,4.41,12.54,4.68"/>
		<path id="Trazado_7198" class="st4" d="M54.16-29.64c-1.57-4.93,0.09-10.31,4.16-13.49"/>
	</g>
	<g id="Grupo_13903" transform="translate(149.247 9.716)">
		<path id="Trazado_7199" class="st11" d="M48.16-59.48c-0.24-0.59-0.14-1.26,0.26-1.75c0.36-0.37,0.9-0.49,1.38-0.31
			c3.49,1.53,3.11,6.97,3.11,6.97S49.6-55.04,48.16-59.48z"/>
		<path id="Trazado_7200" class="st11" d="M48.08-49.28c-2.26,4.08,5.76,3.77,8.66,1.37C56.74-47.92,50.02-52.79,48.08-49.28z"/>
		<path id="Trazado_7201" class="st11" d="M58.22-59.17c-0.61-0.73-0.67-1.77-0.14-2.57c0.49-0.51,1.2-0.72,1.89-0.56
			c0.82,0.22,1.55,0.67,2.12,1.29c1.55,1.78,2.08,4.24,1.4,6.5C61.62-55.93,59.86-57.49,58.22-59.17z"/>
		<path id="Trazado_7202" class="st11" d="M90.07-49.07c-0.24-0.63-0.11-1.35,0.35-1.85c0.33-0.27,0.75-0.4,1.17-0.35
			c0.42,0.05,0.82,0.17,1.2,0.36c0.81,0.38,1.46,1.03,1.85,1.84c0.58,1.45,0.69,3.05,0.32,4.57C94.95-44.51,90.56-47.49,90.07-49.07
			z"/>
		<path id="Trazado_7203" class="st11" d="M80.05-41.59c-1.47-1.26-3.53-1.59-5.32-0.86c-0.45,0.18-0.84,0.47-1.14,0.85
			c-0.57,0.96-0.47,2.17,0.25,3.02c0.72,0.82,1.62,1.44,2.64,1.83c1.79,0.81,4.55,0.97,6.45,1.46
			C82.83-37.69,81.8-39.95,80.05-41.59z"/>
		<path id="Trazado_7204" class="st4" d="M50.66-58.6c1.18,3.86,4.52,6.78,8.24,8.35s7.81,1.99,11.84,2.25s8.11,0.39,12,1.45
			c3.8,1.03,7.58,3.18,9.21,6.76c1.98,4.36,0.23,9.57-2.56,13.47s-6.54,7.04-9.23,11c-1.24,1.82-2.27,3.95-2.02,6.13
			c0.33,2.91,2.79,5.06,5.07,6.9"/>
		<path id="Trazado_7205" class="st4" d="M59.95-60.02c2.82,3.27,4.66,7.26,5.33,11.52"/>
		<path id="Trazado_7206" class="st4" d="M50.97-48.61c1.51,0.47,3.07,0.74,4.65,0.82c1.7-0.09,3.32-0.79,4.55-1.97"/>
		<path id="Trazado_7207" class="st4" d="M92.68-48.83c1.44,1.4,2.29,3.31,2.37,5.32c-0.07,2.18-0.9,4.26-2.35,5.88"/>
		<path id="Trazado_7208" class="st4" d="M77.72-39.81c2.68,2.52,5.52,4.86,8.52,6.99c1.45,1.02,4.33,2.33,5.61,1.99"/>
	</g>
	<g id="Grupo_13904" transform="translate(179.407 88.034)">
		<path id="Trazado_7209" class="st9" d="M80.78-58.37c-0.76,0.43-1.54,0.81-2.35,1.15c-3.11,1.31-6.44,2.04-9.81,2.17
			c-4.9,0.18-9.94-0.9-14.65,0.5c-2.16,0.65-4.14,1.8-5.78,3.35c-0.16,0.08-0.33,0.17-0.49,0.26c-0.39-3.32,7.89-7.65,10.4-8.77
			c4.57-2.05,9.57-2.92,14.56-2.54c2.19,0.06,4.32,0.69,6.19,1.84C79.64-59.88,80.29-59.18,80.78-58.37z"/>
		<path id="Trazado_7210" class="st8" d="M72.66-60.26c2.19,0.06,4.32,0.69,6.19,1.84c1.88,1.19,2.91,3.37,2.64,5.58
			c-0.49,2.49-3.06,4.11-5.58,4.42s-5.04-0.39-7.52-0.9c-5.51-1.13-11.17-1.39-16.76-0.77c-1.38,0.1-2.72,0.49-3.93,1.14
			c-0.39-3.32,7.89-7.65,10.4-8.77C62.67-59.77,67.67-60.65,72.66-60.26z"/>
		<path id="Trazado_7211" class="st6" d="M49.85-51.04c4.11-3.61,14.66-6.07,22.12-5.27c2.27,0.15,4.44,0.98,6.24,2.37"/>
	</g>
</g>
<path id="Trazado_7212" class="st12" d="M249.9,85.52l40.14-0.08c4.71-0.01,8.54,3.8,8.55,8.51c0,0,0,0,0,0l0,0
	c0.01,4.71-3.8,8.54-8.51,8.55c0,0,0,0,0,0l-27.45,0.06"/>
<path id="Trazado_7213" class="st12" d="M128.45,114.99l-28.07,0.06c-2.66,0.01-4.81,2.17-4.8,4.82l0,0
	c0.01,2.66,2.17,4.81,4.82,4.8l8.18-0.02"/>
<g id="Grupo_13906" transform="translate(28.955 190.45)">
	<path id="Trazado_7214" class="st2" d="M54.69-53.72c-9.62,0.02-9.82,14.36,2.42,14.34l180.32-0.37c7.57-0.02,8.37-11.83-0.99-11.8
		c-18.62,0.04-19.24-8.84-8.9-8.86"/>
	<path id="Trazado_7215" class="st3" d="M56.94-54.12c0.22,1.29-0.65,2.52-1.94,2.74c-1.29,0.22-2.52-0.65-2.74-1.94
		c-0.22-1.29,0.65-2.52,1.94-2.74C55.49-56.29,56.72-55.42,56.94-54.12z"/>
	<path id="Trazado_7216" class="st13" d="M232.15-60.36c0.22,1.29-0.65,2.52-1.94,2.74c-1.29,0.22-2.52-0.65-2.74-1.94
		c-0.22-1.29,0.65-2.52,1.94-2.74C230.7-62.53,231.93-61.66,232.15-60.36C232.15-60.36,232.15-60.36,232.15-60.36z"/>
</g>
<g id="Grupo_13916" transform="translate(59.957 107.619)">
	<path id="Trazado_7217" class="st9" d="M203.74,63.94L54.43,64.25c-1.99,0-3.61-1.61-3.61-3.6c0,0,0,0,0,0l-0.2-98.91
		c0-1.99,1.61-3.61,3.6-3.62c0,0,0,0,0,0l149.31-0.31c1.99,0,3.61,1.61,3.61,3.6v0l0.2,98.91
		C207.34,62.32,205.73,63.94,203.74,63.94C203.74,63.94,203.74,63.94,203.74,63.94z"/>
	<g id="Grupo_13907" transform="translate(0 18.26)">
		<path id="Trazado_7218" class="st14" d="M200.81,43.79L51.5,44.1c-1.99,0-3.61-1.61-3.61-3.6c0,0,0,0,0,0l-0.2-98.91
			c0-1.99,1.61-3.61,3.6-3.62c0,0,0,0,0,0l149.31-0.31c1.99,0,3.61,1.61,3.61,3.6v0l0.2,98.91
			C204.42,42.17,202.81,43.78,200.81,43.79C200.81,43.79,200.81,43.79,200.81,43.79z"/>
		<path id="Trazado_7219" class="st7" d="M200.35-62.34L51.68-62.03c-2.17,0-3.92,1.77-3.92,3.93c0,0,0,0,0,0l0.01,3.41L204.29-55
			l-0.01-3.41C204.28-60.59,202.52-62.34,200.35-62.34C200.35-62.34,200.35-62.34,200.35-62.34z"/>
		<path id="Trazado_7220" class="st1" d="M51.86,44.1l22.46-0.05l-0.2-98.79l-26.39,0.05l0.2,94.87
			C47.94,42.35,49.69,44.1,51.86,44.1z"/>
		<g id="Trazado_7221" transform="translate(-92.118 -170.934)">
			<path class="st15" d="M292.97,214.72l-149.31,0.31c-1.99,0-3.61-1.61-3.61-3.6c0,0,0,0,0,0l-0.2-98.91c0-1.99,1.61-3.61,3.6-3.61
				c0,0,0,0,0,0l149.31-0.31c1.99,0,3.61,1.61,3.62,3.6c0,0,0,0,0,0l0.2,98.91C296.57,213.1,294.96,214.72,292.97,214.72
				C292.97,214.72,292.97,214.72,292.97,214.72z"/>
			<path class="st7" d="M143.65,213.03l149.31-0.31c0.43,0,0.83-0.17,1.14-0.47c0.3-0.3,0.47-0.71,0.47-1.14l-0.2-98.91
				c0-0.88-0.72-1.6-1.61-1.6h0l-149.31,0.31c-0.43,0-0.83,0.17-1.14,0.47c-0.3,0.3-0.47,0.71-0.47,1.14l0.2,98.91
				C142.05,212.31,142.77,213.03,143.65,213.03L143.65,213.03 M143.65,215.03c-1.99,0-3.6-1.61-3.61-3.6l-0.2-98.91
				c0-1.99,1.61-3.61,3.6-3.61l149.31-0.31c0,0,0.01,0,0.01,0c1.99,0,3.6,1.61,3.61,3.6l0.2,98.91c0,1.99-1.61,3.61-3.6,3.61
				L143.65,215.03C143.66,215.03,143.65,215.03,143.65,215.03z"/>
		</g>
		<path id="Rectángulo_1570" class="st14" d="M53.3,33.65l17.14-0.04c0.81,0,1.47,0.65,1.47,1.47l0,0c0,0.81-0.65,1.47-1.47,1.47
			l-17.14,0.04c-0.81,0-1.47-0.65-1.47-1.47c0,0,0,0,0,0l0,0C51.83,34.31,52.49,33.65,53.3,33.65C53.3,33.65,53.3,33.65,53.3,33.65z
			"/>
		<path id="Rectángulo_1571" class="st14" d="M56.24-50.25l9.59-0.02c2.82-0.01,5.11,2.28,5.12,5.1l0.02,9.59
			c0.01,2.82-2.28,5.11-5.1,5.12l-9.59,0.02c-2.82,0.01-5.11-2.28-5.12-5.1l-0.02-9.59C51.14-47.96,53.42-50.25,56.24-50.25z"/>
		<path id="Rectángulo_1572" class="st1" d="M80.3,9.95l51.12-0.1c1.06,0,1.92,0.85,1.92,1.91l0,0c0,1.06-0.85,1.92-1.91,1.92
			l-51.13,0.1c-1.06,0-1.92-0.85-1.92-1.91l0,0C78.39,10.81,79.24,9.95,80.3,9.95z"/>
		<path id="Rectángulo_1573" class="st1" d="M88.1-48.58l40.36-0.08c1.06,0,1.92,0.85,1.92,1.91l0,0c0,1.06-0.85,1.92-1.91,1.92
			l-40.35,0.08c-1.06,0-1.92-0.85-1.92-1.91l0,0C86.19-47.72,87.05-48.58,88.1-48.58z"/>
		<path id="Rectángulo_1574" class="st1" d="M138.73-7.51l53.88-0.11c1.06,0,1.92,0.85,1.92,1.91l0,0c0,1.06-0.85,1.92-1.91,1.92
			l-53.88,0.11c-1.06,0-1.92-0.85-1.92-1.91l0,0C136.81-6.65,137.67-7.51,138.73-7.51z"/>
		<path id="Rectángulo_1575" class="st1" d="M80.32,17.88l51.13-0.11c1.06,0,1.92,0.85,1.92,1.91l0,0c0,1.06-0.85,1.92-1.91,1.92
			l-51.13,0.11c-1.06,0-1.92-0.85-1.92-1.91l0,0C78.4,18.74,79.26,17.88,80.32,17.88z"/>
		<path id="Rectángulo_1576" class="st1" d="M80.33,25.81l51.12-0.11c1.06,0,1.92,0.85,1.92,1.91l0,0c0,1.06-0.85,1.92-1.91,1.92
			l-51.13,0.11c-1.06,0-1.92-0.85-1.92-1.91l0,0C78.42,26.67,79.28,25.81,80.33,25.81z"/>
		<path id="Rectángulo_1577" class="st1" d="M142.85,6.62l45.69-0.09c3.32-0.01,6.02,2.68,6.02,6l0.03,16.17
			c0.01,3.32-2.68,6.02-6,6.02l-45.69,0.09c-3.32,0.01-6.02-2.68-6.02-6l-0.03-16.17C136.84,9.32,139.53,6.63,142.85,6.62z"/>
		<path id="Trazado_7222" class="st1" d="M56.35-58.43c0,0.7-0.56,1.27-1.26,1.27s-1.27-0.56-1.27-1.26c0-0.7,0.56-1.27,1.26-1.27
			c0,0,0,0,0,0C55.78-59.7,56.35-59.13,56.35-58.43z"/>
		<circle id="Elipse_193" class="st1" cx="60.44" cy="-58.44" r="1.26"/>
		<path id="Trazado_7223" class="st1" d="M67.06-58.46c0,0.7-0.56,1.27-1.26,1.27s-1.27-0.56-1.27-1.26c0-0.7,0.56-1.27,1.26-1.27
			c0,0,0,0,0,0C66.49-59.72,67.05-59.16,67.06-58.46z"/>
		<circle id="Elipse_194" class="st1" cx="80.57" cy="-46.65" r="3.66"/>
		<path id="Rectángulo_1578" class="st14" d="M53.32-28.8l16.12-0.03c0.4,0,0.72,0.32,0.73,0.72l0,0c0,0.4-0.32,0.72-0.72,0.73
			l-16.12,0.03c-0.4,0-0.72-0.32-0.73-0.72c0,0,0,0,0,0l0,0C52.6-28.47,52.92-28.8,53.32-28.8C53.32-28.8,53.32-28.8,53.32-28.8z"/>
		<path id="Rectángulo_1579" class="st14" d="M53.32-25.7l16.12-0.03c0.4,0,0.72,0.32,0.73,0.72l0,0c0,0.4-0.32,0.72-0.72,0.73
			l-16.12,0.03c-0.4,0-0.72-0.32-0.73-0.72c0,0,0,0,0,0l0,0C52.6-25.38,52.92-25.7,53.32-25.7C53.32-25.7,53.32-25.7,53.32-25.7z"/>
		<path id="Trazado_7224" class="st1" d="M88.04-17.75l-4.58,0.05l0.03,19.19L79.54,1.5c-1.39,0-2.53-1.13-2.53-2.52l-0.07-35.49
			c0-1.41,1.14-2.56,2.55-2.56h0l8.51-0.02L88.04-17.75z"/>
		<g id="Rectángulo_1580" transform="translate(29.241 23.272) rotate(-0.118)">
			<path class="st15" d="M53.83-62.24l31.78,0c3.32,0,6.01,2.69,6.01,6.01l0,28.55c0,3.32-2.69,6.01-6.01,6.01l-31.78,0
				c-3.32,0-6.01-2.69-6.01-6.01l0-28.55C47.81-59.55,50.5-62.24,53.83-62.24z"/>
			<path class="st16" d="M53.83-61.74l31.78,0c3.04,0,5.51,2.47,5.51,5.51l0,28.55c0,3.04-2.47,5.51-5.51,5.51l-31.78,0
				c-3.04,0-5.51-2.47-5.51-5.51l0-28.55C48.31-59.27,50.78-61.74,53.83-61.74z"/>
		</g>
	</g>
	<path id="Rectángulo_1581" class="st1" d="M140.42-34.09l44.57,10.07c3.24,0.73,5.27,3.95,4.54,7.19l-4.34,19.21
		c-0.73,3.24-3.95,5.27-7.19,4.54L133.42-3.15c-3.24-0.73-5.27-3.95-4.54-7.19l4.34-19.21C133.96-32.79,137.18-34.82,140.42-34.09z"
		/>
	<g id="Grupo_13909" transform="translate(25.378 129.256)">
		<path id="Trazado_7225" class="st7" d="M57.88-53.33l-7.06,0.02l-1.73-9l10.48-0.02L57.88-53.33z"/>
		<path id="Trazado_7226" class="st1" d="M51.04-62.32c0,0.73-0.14,1.97,0.35,1.98s0.29-1.17,0.84-1.14c0.36,0.02-0.17,3.91,1.18,4
			c0.92,0.06,0.76-1.91,0.85-3.14c0-0.32,0.26-0.58,0.58-0.58c0.27,0,0.51,0.19,0.57,0.46c0.01,0.62-0.03,1.03,0,1.73
			c0.05,1.17,1.85,0.86,1.79-0.71s0-2.63,0-2.63L51.04-62.32z"/>
		<g id="Grupo_13908" transform="translate(0 0.082)">
			<path id="Trazado_7227" class="st17" d="M49.35-56.97c-0.14,0-0.28-0.01-0.42-0.04c-0.47-0.08-0.88-0.38-1.09-0.81
				c-0.72-1.53,1.18-4.39,1.25-4.51l0.1,0.52c-0.02,0.03-1.66,2.49-1.02,3.86c0.16,0.33,0.47,0.56,0.84,0.62
				c0.12,0.03,0.24,0.04,0.35,0.04c2.54,0,6.89-4.75,6.94-4.8c0.18-0.21,0.51-0.01,0.39,0.17C56.5-61.72,52.08-56.97,49.35-56.97z"
				/>
		</g>
	</g>
	<g id="Grupo_13910" transform="translate(81.287 0.307)">
		<path id="Trazado_7228" class="st9" d="M67.66-50.99C57.62-51.37,43.8-43.95,48.7-25.8c-0.11,1.54,0.81,2.63,1.79,2.33
			s0.12-3.21,0.12-3.21c1.67-13.5,4.8-15.83,10.1-15.78l12.45-0.03c3.08,0.45,8.67,2.61,9.51,13.41l3.1,0.57
			C86.02-36.31,84.13-50.36,67.66-50.99z"/>
		<path id="Trazado_7229" class="st18" d="M67.66-52.57C57.62-52.95,43.8-45.53,48.7-27.38l1.91-0.88
			c1.67-13.5,4.8-15.83,10.1-15.78l12.45-0.03c3.08,0.45,8.82,3.18,9.66,13.99l2.95-0.01C86.02-37.89,84.13-51.94,67.66-52.57z"/>
		<path id="Trazado_7230" class="st19" d="M65.61-52.27L64.12-49c0.08,1.03,0.95,1.82,1.99,1.81c1.81-0.04,2.05-0.88,2.05-0.88
			l0.24-3.76L65.61-52.27z"/>
		<path id="Trazado_7231" class="st19" d="M73.27-55.01c-1.7,3-2.45,3.94-4.67,4.39c-2.88,0.59-6.11-1.36-4.6-6.14
			c1.22-3.9,3.08-3.3,4.89-3.15S75.11-58.25,73.27-55.01z"/>
		<path id="Trazado_7232" class="st17" d="M66.51-57.38c-0.48-0.2-1.04-0.06-1.38,0.33c-0.37,0.38-0.52,0.93-0.38,1.45
			c-0.72,0.04-1.28,0.66-1.24,1.38c-0.48-1.11-0.22-2.26-0.31-3.4c-0.18-1.14,0.1-2.3,0.77-3.24c0.31-0.35,0.68-0.64,1.1-0.85
			c1.6-0.83,3.5-0.86,5.12-0.07c0.69,0.43,1.51,0.57,2.3,0.4c2.19-0.53,3.48,0.95,2.16,2.34c0.44,0.1,0.83,0.37,1.08,0.75
			c0.06,0.1,0.06,0.23,0.01,0.33c-0.05,0.06-0.12,0.11-0.2,0.13c-0.37,0.12-0.77,0.16-1.15,0.09c0.15,0.13,0.96,0.18,1.21,0.65
			c0.65,1.26-1.94,0.62-2.33,0.5c0.45,0.08,1.63,1.03,1.26,1.68c-0.08,0.13-1.67,1.06-3.35-0.89c-0.37-0.48-0.88-0.84-1.46-1.03
			c-0.47-0.07-0.94,0-1.37,0.21c-0.32,0.12-1.14,0.62-1.37,0.32C66.71-56.62,67.04-57.12,66.51-57.38z"/>
		<path id="Trazado_7233" class="st19" d="M83.14-30.07c-0.45,1.53-0.89,1.68-0.36,1.93s0.98-0.61,0.98-0.61l2.49,0.5
			c0,0-0.56-1.62-0.95-1.81C84.58-30.18,83.86-30.18,83.14-30.07z"/>
		<path id="Trazado_7234" class="st19" d="M50.61-28.26c0.33,0.81,0.42,0.81,0.87,1.78c0.87,1.86-1.16,4.79-2.42,1.59
			c-0.23-0.81-0.35-1.65-0.35-2.49L50.61-28.26z"/>
	</g>
	<g id="Grupo_13912" transform="translate(96.307)">
		<g id="Grupo_13911">
			<path id="Trazado_7235" class="st17" d="M55.04-61.2c1.7,0.09,3.8-1.11,5.13,0.43c0.12,0.14,0.37-0.05,0.26-0.2
				c-1.27-1.83-3.64-0.47-5.39-0.51C54.86-61.48,54.86-61.21,55.04-61.2L55.04-61.2z"/>
			<path id="Trazado_7236" class="st17" d="M55.72-62.14c-1.16,0.2-2.29-0.35-3.45-0.16c-0.94,0.17-1.81,0.61-2.51,1.26
				c-0.18,0.16,0.06,0.47,0.26,0.34c0.91-0.74,2.04-1.14,3.22-1.14c0.85,0.19,1.72,0.21,2.58,0.07c0.1-0.03,0.16-0.13,0.13-0.23
				C55.93-62.11,55.82-62.17,55.72-62.14L55.72-62.14L55.72-62.14z"/>
			<path id="Trazado_7237" class="st17" d="M49.1-60.55c-0.8,0.45-1.32,1.26-1.39,2.17c-0.07,0.7-0.09,2.32,0.62,2.72
				c0.08,0.05,0.19,0.02,0.24-0.07c0.04-0.07,0.03-0.15-0.03-0.2c-0.4-0.7-0.56-1.5-0.46-2.29c0.03-0.85,0.45-1.63,1.14-2.12
				C49.34-60.44,49.24-60.63,49.1-60.55L49.1-60.55z"/>
			<path id="Trazado_7238" class="st17" d="M61.69-57.76c-0.43-0.85-1.43-1.24-2.33-0.91c-0.07,0.04-0.09,0.13-0.05,0.2
				c0.03,0.04,0.07,0.07,0.12,0.07c0.35-0.03,0.7-0.01,1.05,0.07c0.4,0.12,0.74,0.36,0.98,0.7C61.57-57.49,61.78-57.61,61.69-57.76
				L61.69-57.76z"/>
		</g>
	</g>
	<g id="Grupo_13914" transform="translate(30.718 61.8)">
		<path id="Trazado_7239" class="st13" d="M72.06-43.86c5.26,1.93,9.83,7.97,8.79,12.36c-0.61,2.85-2.25,5.38-4.6,7.1l-1.08-1.99
			c0,0,2.73-4.27,2.5-6.29c-0.38-3.23-4.46-5.39-4.46-5.39L72.06-43.86z"/>
		<path id="Trazado_7240" class="st17" d="M59.1,12.08c-1.41,0.54-2.76,1.23-4.04,2.04l6.4-0.01v-2.04L59.1,12.08z"/>
		<path id="Trazado_7241" class="st17" d="M73.25,11.95c0.52,0.62,0.89,1.34,1.09,2.13l-4.37,0.01c0.11-0.76,0.39-1.49,0.82-2.13
			L73.25,11.95z"/>
		<path id="Trazado_7242" class="st20" d="M73.52,12.05h-2.98c0.06-3.51-0.66-15.49-1.37-24.44c-0.41-5.25-0.82-9.47-1.06-10.32
			l1.6-0.35l6.03-1.34C76.78-19.69,74.39,1.96,73.52,12.05z"/>
		<path id="Trazado_7243" class="st21" d="M62.56-22.9c-2.33,3.67-2.93,30.14-3.9,35.05l2.83,0.16c2.53-12.05,5.93-23.9,10.17-35.46
			L62.56-22.9z"/>
		<path id="Trazado_7244" class="st9" d="M72.85-23.15c-1.37,3.71-2.59,7.33-3.67,10.76c-0.41-5.25-0.82-9.47-1.06-10.32l1.6-0.35
			L72.85-23.15z"/>
		<path id="Trazado_7245" class="st21" d="M62.56-22.9c-2.33,3.67-2.93,30.14-3.9,35.05l2.83,0.16c2.53-12.05,5.93-23.9,10.17-35.46
			L62.56-22.9z"/>
		<path id="Trazado_7246" class="st19" d="M64.34-52.46c0,0-1.81,6.9,2.71,6.89l-0.27,1.76l3.43,0.38l-0.74-2.46
			c0,0,0.68-4.34,0.72-5.12C70.28-52.47,66.18-55.04,64.34-52.46z"/>
		<g id="Grupo_13913" transform="translate(0 0)">
			
				<rect id="Rectángulo_1582" x="51.82" y="-60.19" transform="matrix(1 -1.972217e-03 1.972217e-03 1 0.1133 0.1034)" class="st17" width="1.33" height="5.63"/>
			<path id="Rectángulo_1583" class="st7" d="M48.75-62.32l7.45-0.01c0.59,0,1.07,0.48,1.07,1.07l0,0c0,0.59-0.48,1.07-1.07,1.07
				l-7.45,0.01c-0.59,0-1.07-0.48-1.07-1.07l0,0C47.69-61.84,48.16-62.32,48.75-62.32z"/>
		</g>
		<path id="Trazado_7247" class="st19" d="M51.46-53.09c-0.04-1.28-1.09-0.94-0.51-3.03c0.36-1.29,3.02,0.21,2.69,1.1
			s-0.71,2.31-0.71,2.31L51.46-53.09z"/>
		<path id="Trazado_7248" class="st7" d="M67.08-44.21c-6.76,0.45-7.21,2.73-10.24,2.37c-4.48-0.53-3.7-8.85-3.14-11.83l-2.68,0.01
			c0,0-4.82,18.95,10.41,15.45c-0.59,3.32,3.2,8.74-0.47,15.32c5.78,1.57,11.18,1.96,15.8-0.03c-0.81-1.09,1.66-12.1-3.17-20.03
			C72.65-44.5,67.58-44.24,67.08-44.21z"/>
		<path id="Trazado_7249" class="st7" d="M67.08-44.21c-6.76,0.45-7.21,2.73-10.24,2.37c-4.48-0.53-3.7-8.85-3.14-11.83l-2.68,0.01
			c0,0-4.82,18.95,10.41,15.45c-0.59,3.32,3.2,8.74-0.47,15.32c5.78,1.57,11.18,1.96,15.8-0.03c-0.81-1.09,1.66-12.1-3.17-20.03
			C72.65-44.5,67.58-44.24,67.08-44.21z"/>
		<path id="Trazado_7250" class="st18" d="M66.15-51.13c0.44,0.11,0.95,0.2,1.19,0.57c0.13,0.26,0.17,0.55,0.13,0.83
			c0.1-0.31,0.4-0.51,0.73-0.47c0.32,0.04,0.57,0.3,0.59,0.63c-0.01,0.14-0.04,0.29-0.1,0.42c-0.13,0.34-0.3,0.66-0.5,0.96
			c0.55,0.2,1.02,1.82,1.29,2.32c0.93-0.23,3-1.03,3.18-4.32c0.19-1.73-0.6-3.42-2.05-4.39c-1.39-0.66-2.98-0.8-4.47-0.39
			c-1.09,0.28-2.83,1.37-2.02,2.64C64.63-51.71,65.35-51.28,66.15-51.13z"/>
		<path id="Trazado_7251" class="st18" d="M71.94-53.23c0.63-0.25,1.35-0.08,1.81,0.43c0.22,0.45,0.35,0.94,0.36,1.44
			c0.03,0.24,0.14,0.47,0.31,0.64c0.24,0.18,0.54,0.27,0.84,0.26c0.73-0.02,1.46,0,2.18,0.07c0.73,0.07,1.37,0.53,1.66,1.2
			c0.11,0.37,0.05,0.78,0.19,1.14c0.2,0.55,0.79,0.86,1.29,1.17c1.07,0.67,1.98,1.57,2.66,2.64c0.44,0.65,0.71,1.41,0.79,2.19
			c0.05,0.78,0.61,1.81,0.46,2.58c-0.37,1.22-1.35,2.16-2.59,2.47c-2.78,0.89-3.66,1.28-6.32-0.3c-0.32-0.19-0.95-0.84-1.24-1.07
			c-0.22-0.19-0.38-0.44-0.45-0.72c-0.17-0.79-0.01-1.61,0.43-2.28c0.4-0.7,0.94-1.31,1.34-2c0.27-0.4,0.41-0.87,0.42-1.35
			c0-0.18-0.06-0.36-0.18-0.49c-0.12-0.11-0.27-0.17-0.43-0.2c-0.59-0.01-1.19-0.09-1.76-0.26c-0.52-0.26-0.79-0.85-0.64-1.41
			c0.1-0.36,0.38-0.66,0.45-1.02c0.07-0.55-0.2-1.09-0.67-1.37c-0.48-0.28-1.01-0.46-1.57-0.52c-0.27-0.02-0.54-0.11-0.77-0.25
			c-0.26-0.21-0.41-0.53-0.39-0.86C70.21-52.13,70.94-52.98,71.94-53.23z"/>
	</g>
	<path id="Trazado_7252" class="st22" d="M102.19,11.26c0.84,0.09,1.48,0.79,1.49,1.64c-0.09,0.62-0.31,1.21-0.65,1.73
		c-0.34,0.54-0.36,1.21-0.07,1.78c0.37,0.41,0.91,0.62,1.46,0.56c0.63-0.01,1.37-0.11,1.77,0.37c0.28,0.43,0.31,0.98,0.07,1.44
		c-0.23,0.45-0.4,0.93-0.49,1.42"/>
	<path id="Trazado_7253" class="st22" d="M95.23,7.19c2.36-1.6,5.52-1.25,7.47,0.83"/>
	<g id="Grupo_13915" transform="translate(111.944 64.301)">
		<path id="Trazado_7254" class="st19" d="M70-48.96l-1.12,2.25l2.73,1.12l0.29-2.59L70-48.96z"/>
		<path id="Trazado_7255" class="st19" d="M71.65-56.28c-6.2,2.7-3.66,9.24,0.11,8.47c1.84-0.37,2.77-6.29,2.77-6.29L71.65-56.28z"
			/>
		<path id="Trazado_7256" class="st11" d="M73.71-57.21c-0.17-0.4-0.42-0.75-0.73-1.05c-0.33-0.3-0.82-0.33-1.18-0.06
			c-0.42,0.39-0.17,1.11,0.25,1.5c-0.36,0.04-0.8-0.21-1.06,0.04c-0.2,0.19-0.13,0.52-0.02,0.78c0.28,0.6,0.72,1.1,1.27,1.46
			c-0.32,0.18-0.68,0.52-0.49,0.83c0.05,0.08,0.14,0.14,0.19,0.23c0.12,0.2,0,0.45-0.12,0.65c-0.2,0.32-0.41,0.64-0.63,0.94
			c0.22-0.21,0.57-0.21,0.78,0c0.04,0.04,0.08,0.09,0.11,0.15c0.13,0.35,0.04,0.74-0.22,1c-0.13,0.15-0.3,0.27-0.5,0.32
			c-0.17,0.04-0.92,2.36-0.33,2.82c0.72,0.56,3.19,0.07,3.54-0.56c0.34,0.42,0.86,0.63,1.39,0.58c0.47-0.09,0.77-0.53,0.69-1
			c-0.01-0.06-0.03-0.13-0.06-0.19c0.75,0.28,1.59-0.11,1.86-0.86c0.15-0.41,0.11-0.87-0.11-1.24c0.3-0.09,0.36-0.5,0.29-0.81
			c-0.17-0.63-0.65-1.13-1.28-1.32c0.32-0.03,0.57-0.3,0.58-0.62c-0.01-0.32-0.13-0.62-0.35-0.85c-0.53-0.63-1.31-1-2.13-1.02
			C74.57-55.61,74.09-56.49,73.71-57.21z"/>
		<path id="Trazado_7257" class="st17" d="M67.9,9.15c-1.43,0.65-2.8,1.42-4.11,2.28c0,0,7.14,0.32,7.69-0.02s-1.14-2.27-1.14-2.27
			L67.9,9.15z"/>
		<path id="Trazado_7258" class="st17" d="M81.39,7.18c-1.26,0.94-2.45,1.97-3.55,3.09c0,0,7.52-1.12,7.52-1.61
			s-1.59-1.99-1.59-1.99L81.39,7.18z"/>
		<path id="Trazado_7259" class="st23" d="M71.4-24.48c-0.13,0.74-5.1,20.34,9.11,32.09l4.12-0.94c-3.36-3.54-5.79-7.86-7.05-12.58
			c-2.14-7.64-0.44-8.39,0.84-12.61c0.86-2.6,0.99-5.38,0.36-8.04L71.4-24.48z"/>
		<path id="Trazado_7260" class="st18" d="M64.61-24.54c-2.25,5.38-6.12,23.73,2.31,34.06l4.21-0.01c0,0-3.32-3.63-3.69-12.06
			s1.77-12.13,3.28-14.91c1.17-2.42,2.15-4.93,2.91-7.51L64.61-24.54z"/>
		<path id="Trazado_7261" class="st13" d="M61.64-57.91c-1.12,3.94-1.49,11.23,4.11,14.16l3.75-0.91c0,0-6.76-3.54-5.31-12.5
			L61.64-57.91z"/>
		<path id="Trazado_7262" class="st7" d="M51.32-59.93l2.91-0.36c0,0-0.35,12.22,13.76,13.25c10.77,0.79,11.62,21,11.62,21
			c-3.47,2.34-9.3,3.05-16.77,2.51c0,0,0.48-14.42-0.71-18.37C62.13-41.9,50.4-45.59,51.32-59.93z"/>
		<path id="Trazado_7263" class="st19" d="M47.76-62.14c-0.49,0.57,1.56,1.3,3.56,2.22l2.55-0.32c0.02-0.35,0.02-0.69,0-1.04
			c-0.03-0.53-0.3-0.83-0.6-0.38c-0.63,0.51-1.5,0.58-2.2,0.2C50.46-61.88,48.25-62.71,47.76-62.14z"/>
		<path id="Trazado_7264" class="st19" d="M61.64-57.91c-0.93-0.92-0.69-0.86-0.69-0.86l2.85,0.64c0,0,0.63-1.39,1.16-1.43
			s-0.4,0.96-0.19,1.33s-0.58,1.07-0.58,1.07L61.64-57.91z"/>
	</g>
	<path id="Trazado_7265" class="st24" d="M187.29,8.31c0.69-0.01,1.36,0.22,1.9,0.65c0.54,0.45,0.66,1.24,0.28,1.84"/>
	<path id="Trazado_7266" class="st24" d="M189.91,13.6c0.35,0.16,0.61,0.47,0.69,0.85c0.02,0.33-0.09,0.65-0.32,0.88
		c-0.23,0.23-0.49,0.42-0.77,0.58"/>
	<path id="Trazado_7267" class="st24" d="M183.37,16.6c1.33,0.72,2.97,0.52,4.08-0.5"/>
	<path id="Trazado_7268" class="st24" d="M190.04,9.26c0.39,0.3,0.54,0.82,0.37,1.28c-0.18,0.45-0.45,0.85-0.8,1.18"/>
</g>
<g id="Grupo_13917" transform="translate(114.602 81.502)">
	<path id="Trazado_7269" class="st13" d="M51.42-55.23l-1.16-2.84l11.23-4.26L51.42-55.23z"/>
	<path id="Trazado_7270" class="st3" d="M51.98-56.98l9.5-5.35l-6.61,6.72L51.98-56.98z"/>
	<path id="Trazado_7271" class="st3" d="M47.68-59.23l13.8-3.11l-11.23,4.26L47.68-59.23z"/>
	<path id="Trazado_7272" class="st7" d="M51.98-56.98l-0.57,1.75l1.71-1.21L51.98-56.98z"/>
</g>
<path id="Trazado_7273" class="st2" d="M164.7,25.89c-2.93-0.5-6.91,2.47-5.2,5.56c0.58,1.05,3.59,0.6,3.37-0.57
	c-0.11-0.56-0.79-0.79-1.35-0.73c-1.85,0.03-3.32,1.54-3.3,3.39c0,0.15,0.01,0.29,0.03,0.43c0.75,3.61,6.29,2.39,8.15,1.88"/>
</svg>
