<?xml version="1.0" encoding="utf-8"?>
<!-- Generator: Adobe Illustrator 23.0.3, SVG Export Plug-In . SVG Version: 6.00 Build 0)  -->
<svg version="1.1" id="Capa_1" xmlns="http://www.w3.org/2000/svg" xmlns:xlink="http://www.w3.org/1999/xlink" x="0px" y="0px"
	 viewBox="0 0 29.76 31.4" style="enable-background:new 0 0 29.76 31.4;" xml:space="preserve">
<style type="text/css">
	.st0{fill:#2986FF;}
</style>
<g id="Grupo_14801" transform="translate(-1785.784 -1025.832)">
	<g id="Grupo_14797" transform="translate(0 0)">
		<path id="Trazado_8563" class="st0" d="M1800.55,1056.02c-8.16,0-14.77-6.61-14.77-14.77c0-8.16,6.61-14.77,14.77-14.77
			c8.16,0,14.77,6.61,14.77,14.77C1815.31,1049.4,1808.7,1056.01,1800.55,1056.02z M1800.55,1029.16c-6.67,0-12.08,5.41-12.08,12.08
			s5.41,12.08,12.08,12.08s12.08-5.41,12.08-12.08C1812.63,1034.58,1807.22,1029.17,1800.55,1029.16L1800.55,1029.16z"/>
	</g>
	<g id="Grupo_14798" transform="translate(9.129 9.431)">
		<path id="Trazado_8564" class="st0" d="M1787.4,1026.48c-0.89,0-1.61,0.72-1.61,1.61c0,0.89,0.72,1.61,1.61,1.61
			c0.89,0,1.61-0.72,1.61-1.61S1788.29,1026.48,1787.4,1026.48C1787.4,1026.48,1787.4,1026.48,1787.4,1026.48z"/>
	</g>
	<g id="Grupo_14799" transform="translate(17.184 9.431)">
		<path id="Trazado_8565" class="st0" d="M1787.39,1026.48c-0.89,0-1.61,0.72-1.61,1.61c0,0.89,0.72,1.61,1.61,1.61
			c0.89,0,1.61-0.72,1.61-1.61S1788.28,1026.48,1787.39,1026.48C1787.39,1026.48,1787.39,1026.48,1787.39,1026.48z"/>
	</g>
	<g id="Grupo_14800" transform="translate(8.489 15.573)">
		<path id="Trazado_8566" class="st0" d="M1792.06,1032.92c-2.9-0.01-5.45-1.94-6.23-4.74c-0.2-0.71,0.22-1.45,0.94-1.65
			c0.71-0.2,1.45,0.22,1.65,0.94c0.55,2.01,2.63,3.19,4.65,2.64c1.28-0.35,2.29-1.36,2.64-2.64c0.19-0.72,0.93-1.14,1.64-0.95
			c0.72,0.19,1.14,0.93,0.95,1.64c0,0.01,0,0.01-0.01,0.02C1797.51,1030.98,1794.97,1032.92,1792.06,1032.92z"/>
	</g>
</g>
</svg>
