<?xml version="1.0" encoding="utf-8"?>
<!-- Generator: Adobe Illustrator 23.0.3, SVG Export Plug-In . SVG Version: 6.00 Build 0)  -->
<svg version="1.1" id="Capa_1" xmlns="http://www.w3.org/2000/svg" xmlns:xlink="http://www.w3.org/1999/xlink" x="0px" y="0px"
	 viewBox="0 0 29.76 31.4" style="enable-background:new 0 0 29.76 31.4;" xml:space="preserve">
<style type="text/css">
	.st0{fill:#918D8D;}
</style>
<g id="Grupo_14810" transform="translate(-2000.54 -1027.323)">
	<path id="Trazado_8573" class="st0" d="M2007.45,1056.47c7.44,3.88,16.62,0.99,20.51-6.45c3.88-7.44,0.99-16.62-6.45-20.51
		c-6.5-3.39-14.5-1.66-19.01,4.12c-0.25,0.3-0.21,0.75,0.09,1c0.3,0.25,0.75,0.21,1-0.09c0.01-0.01,0.02-0.02,0.02-0.03
		c4.68-6,13.34-7.06,19.34-2.37s7.06,13.34,2.37,19.34c-4.09,5.23-11.33,6.8-17.22,3.74c-0.35-0.17-0.78-0.02-0.95,0.33
		C2007,1055.88,2007.13,1056.29,2007.45,1056.47L2007.45,1056.47z"/>
	<path id="Trazado_8574" class="st0" d="M2007.45,1056.47l-0.15,0.28c7.6,3.96,16.97,1.02,20.94-6.58
		c3.96-7.6,1.02-16.97-6.58-20.94c-6.64-3.46-14.8-1.69-19.41,4.21c-0.35,0.45-0.27,1.09,0.18,1.44s1.09,0.27,1.44-0.18
		c4.58-5.86,13.03-6.89,18.89-2.32s6.89,13.03,2.32,18.89c-3.99,5.11-11.06,6.65-16.82,3.65c-0.5-0.26-1.12-0.07-1.39,0.44
		s-0.07,1.12,0.44,1.39L2007.45,1056.47l0.15-0.28c-0.13-0.07-0.21-0.2-0.21-0.35c0-0.06,0.02-0.12,0.04-0.18
		c0.07-0.13,0.2-0.21,0.35-0.21c0.06,0,0.12,0.02,0.18,0.04c6.91,3.6,15.42,0.92,19.02-5.99c3.6-6.91,0.92-15.42-5.99-19.02
		c-6.03-3.14-13.45-1.53-17.63,3.83c-0.13,0.17-0.38,0.2-0.55,0.07c-0.17-0.13-0.2-0.38-0.07-0.55l0,0
		c5.06-6.47,14.41-7.62,20.88-2.56c6.47,5.06,7.62,14.41,2.56,20.88c-4.42,5.65-12.23,7.35-18.59,4.03L2007.45,1056.47z"/>
	<path id="Trazado_8575" class="st0" d="M2024.31,1042.99c0,5.44-4.41,9.84-9.84,9.84c-5.44,0-9.84-4.41-9.84-9.84
		c0-5.44,4.41-9.84,9.84-9.84c0,0,0,0,0,0c0.39,0.01,0.72-0.29,0.74-0.68c0.01-0.39-0.29-0.72-0.68-0.74c-0.02,0-0.04,0-0.05,0
		c-6.22,0-11.26,5.04-11.26,11.26s5.04,11.26,11.26,11.26s11.26-5.04,11.26-11.26c0,0,0,0,0,0c-0.01-0.39-0.34-0.7-0.74-0.68
		C2024.63,1042.33,2024.33,1042.62,2024.31,1042.99z"/>
	<path id="Trazado_8576" class="st0" d="M2024.31,1042.99H2024c0,5.26-4.26,9.53-9.52,9.53c-5.26,0-9.53-4.26-9.53-9.52
		c0-5.26,4.26-9.53,9.52-9.53c0,0,0,0,0,0c0.57,0,1.03-0.46,1.03-1.03c0-0.57-0.46-1.03-1.03-1.03c-6.39,0-11.58,5.18-11.58,11.58
		c0,6.39,5.18,11.58,11.58,11.58c6.39,0,11.58-5.18,11.58-11.58c0,0,0,0,0,0c0-0.57-0.46-1.03-1.03-1.03
		c-0.57,0-1.03,0.46-1.03,1.03h0.64c0-0.22,0.18-0.39,0.39-0.39c0.21,0,0.39,0.17,0.39,0.39c0,6.05-4.9,10.95-10.94,10.95
		c-6.05,0-10.95-4.9-10.95-10.94c0-6.05,4.9-10.95,10.94-10.95c0,0,0.01,0,0.01,0c0.22,0,0.39,0.17,0.39,0.39
		c0,0.22-0.17,0.39-0.39,0.39c0,0,0,0-0.01,0c-5.61,0-10.17,4.55-10.17,10.16c0,5.61,4.55,10.17,10.16,10.17
		c5.61,0,10.17-4.55,10.17-10.16c0,0,0-0.01,0-0.01H2024.31z"/>
	<path id="Trazado_8577" class="st0" d="M2008.22,1055.47c0,0.98-0.8,1.78-1.78,1.78s-1.78-0.8-1.78-1.78s0.8-1.78,1.78-1.78
		S2008.22,1054.49,2008.22,1055.47L2008.22,1055.47z"/>
	<path id="Trazado_8578" class="st0" d="M2008.22,1055.47h-0.32c0,0.81-0.65,1.46-1.46,1.46c-0.81,0-1.46-0.65-1.46-1.46
		c0-0.81,0.65-1.46,1.46-1.46c0.39,0,0.76,0.15,1.04,0.43c0.27,0.27,0.43,0.65,0.43,1.03h0.64c0-1.16-0.94-2.1-2.1-2.1
		s-2.1,0.94-2.1,2.1c0,1.16,0.94,2.1,2.1,2.1c1.16,0,2.1-0.94,2.1-2.1v0H2008.22z"/>
	<path id="Trazado_8579" class="st0" d="M2026.66,1042.78c0,0.91-0.73,1.64-1.64,1.64c-0.91,0-1.64-0.73-1.64-1.64
		c0-0.91,0.73-1.64,1.64-1.64c0,0,0,0,0,0C2025.93,1041.14,2026.66,1041.88,2026.66,1042.78z"/>
	<path id="Trazado_8580" class="st0" d="M2026.66,1042.78h-0.32c0,0.73-0.59,1.32-1.32,1.32c-0.73,0-1.32-0.59-1.32-1.32
		c0-0.73,0.59-1.32,1.32-1.32c0.35,0,0.69,0.14,0.93,0.39c0.25,0.25,0.39,0.58,0.39,0.93h0.64c0-1.08-0.88-1.96-1.96-1.96
		c-1.08,0-1.96,0.88-1.96,1.96c0,1.08,0.88,1.96,1.96,1.96c1.08,0,1.96-0.88,1.96-1.96H2026.66z"/>
	<path id="Trazado_8581" class="st0" d="M2010.2,1036.93c0.83,0.05,1.46,0.76,1.42,1.59s-0.76,1.46-1.59,1.42
		c-0.83-0.05-1.46-0.76-1.42-1.59S2009.36,1036.88,2010.2,1036.93C2010.2,1036.93,2010.2,1036.93,2010.2,1036.93z"/>
	<path id="Trazado_8582" class="st0" d="M2010.2,1036.93l-0.02,0.32c0.63,0.04,1.12,0.56,1.12,1.19c0,0.02,0,0.05,0,0.07l0,0
		c-0.04,0.63-0.56,1.12-1.19,1.12h-0.07l0,0c-0.63-0.04-1.12-0.56-1.12-1.19c0-0.02,0-0.05,0-0.07l0,0
		c0.04-0.63,0.56-1.12,1.19-1.12h0.07l0,0L2010.2,1036.93l0.02-0.32c-0.04,0-0.07,0-0.11,0c-0.97,0-1.76,0.75-1.82,1.72l0,0
		c0,0.04,0,0.07,0,0.11c0,0.97,0.75,1.76,1.72,1.82l0,0h0.11c0.97,0,1.76-0.75,1.82-1.72l0,0c0-0.03,0-0.07,0-0.11
		c0-0.97-0.75-1.76-1.72-1.82l0,0L2010.2,1036.93z"/>
	<path id="Trazado_8583" class="st0" d="M2008.15,1046.9c2.02,3.36,6.37,4.45,9.73,2.44s4.45-6.37,2.44-9.73
		c-2.02-3.36-6.37-4.45-9.73-2.44c-0.37,0.22-0.73,0.48-1.05,0.77c-0.27,0.24-0.29,0.65-0.06,0.92c0.24,0.27,0.65,0.29,0.92,0.06
		c2.39-2.12,6.05-1.9,8.17,0.5c2.12,2.39,1.9,6.05-0.5,8.17c-2.39,2.12-6.05,1.9-8.17-0.5c-0.24-0.27-0.45-0.55-0.63-0.86
		c-0.19-0.31-0.59-0.41-0.89-0.22C2008.07,1046.19,2007.97,1046.59,2008.15,1046.9L2008.15,1046.9z"/>
	<path id="Trazado_8584" class="st0" d="M2008.16,1046.9l-0.27,0.16c1.26,2.1,3.48,3.44,5.92,3.58c0.15,0.01,0.29,0.01,0.44,0.01
		c3.92,0,7.16-3.06,7.39-6.98c0.01-0.15,0.01-0.29,0.01-0.44c0-3.92-3.06-7.16-6.98-7.39c-0.15-0.01-0.29-0.01-0.44-0.01
		c-1.81,0-3.55,0.66-4.9,1.86c-0.4,0.35-0.44,0.97-0.08,1.37s0.97,0.44,1.37,0.08c1-0.89,2.28-1.37,3.62-1.37
		c0.11,0,0.22,0,0.32,0.01c2.89,0.17,5.15,2.56,5.15,5.46c0,0.11,0,0.21-0.01,0.32c-0.17,2.89-2.56,5.15-5.46,5.15
		c-0.11,0-0.21,0-0.32-0.01c-0.9-0.05-1.78-0.33-2.55-0.8c-0.75-0.46-1.37-1.09-1.82-1.84c-0.28-0.46-0.87-0.61-1.33-0.33
		c0,0,0,0,0,0l0,0c-0.46,0.27-0.61,0.87-0.33,1.33c0,0,0,0,0,0L2008.16,1046.9l0.27-0.16c-0.03-0.05-0.05-0.11-0.05-0.17
		c0-0.12,0.06-0.23,0.16-0.29l0,0c0.05-0.03,0.11-0.05,0.17-0.05c0.12,0,0.23,0.06,0.29,0.16c1.04,1.73,2.86,2.84,4.88,2.95
		c0.12,0.01,0.24,0.01,0.36,0.01c1.09,0,2.17-0.29,3.11-0.85c1.75-1.03,2.87-2.87,2.98-4.9c0.01-0.12,0.01-0.24,0.01-0.36
		c0-3.23-2.52-5.9-5.75-6.09c-0.12-0.01-0.24-0.01-0.36-0.01c-1.49,0-2.92,0.54-4.04,1.53c-0.13,0.13-0.34,0.13-0.47-0.01
		c-0.13-0.13-0.13-0.34,0.01-0.47c0.01-0.01,0.02-0.01,0.02-0.02c1.24-1.09,2.83-1.7,4.48-1.7c0.13,0,0.27,0,0.4,0.01
		c3.58,0.21,6.38,3.17,6.38,6.75c0,0.13,0,0.26-0.01,0.4c-0.21,3.58-3.17,6.38-6.75,6.38c-0.13,0-0.26,0-0.4-0.01
		c-2.23-0.13-4.26-1.35-5.41-3.27L2008.16,1046.9z"/>
</g>
</svg>
