<?xml version="1.0" encoding="utf-8"?>
<!-- Generator: Adobe Illustrator 23.0.3, SVG Export Plug-In . SVG Version: 6.00 Build 0)  -->
<svg version="1.1" id="Capa_1" xmlns="http://www.w3.org/2000/svg" xmlns:xlink="http://www.w3.org/1999/xlink" x="0px" y="0px"
	 viewBox="0 0 35.66 31.4" style="enable-background:new 0 0 35.66 31.4;" xml:space="preserve">
<style type="text/css">
	.st0{fill:#918D8D;}
</style>
<g id="Grupo_14805" transform="translate(-1933.08 -1027.941)">
	<g id="Grupo_14802" transform="translate(4.789 9.098)">
		<path id="Trazado_8567" class="st0" d="M1957.28,1050.19h-22.35c-0.88,0-1.6-0.72-1.6-1.6v0v-18.52c-0.06-0.88,0.61-1.64,1.49-1.7
			c0.88-0.06,1.64,0.61,1.7,1.49c0,0.07,0,0.14,0,0.21v16.92h19.15v-16.92c-0.06-0.88,0.61-1.64,1.49-1.7
			c0.88-0.06,1.64,0.61,1.7,1.49c0,0.07,0,0.14,0,0.21v18.52C1958.88,1049.47,1958.16,1050.18,1957.28,1050.19z"/>
	</g>
	<g id="Grupo_14803">
		<path id="Trazado_8568" class="st0" d="M1966.86,1044.44c-0.36,0-0.72-0.12-1-0.35l-14.97-11.97l-14.97,11.97
			c-0.73,0.5-1.72,0.32-2.23-0.41c-0.45-0.66-0.35-1.55,0.23-2.09l15.96-12.77c0.58-0.46,1.41-0.46,1.99,0l15.96,12.77
			c0.69,0.56,0.79,1.56,0.24,2.25C1967.79,1044.22,1967.33,1044.44,1966.86,1044.44L1966.86,1044.44z"/>
	</g>
	<g id="Grupo_14804" transform="translate(12.131 14.844)">
		<path id="Trazado_8569" class="st0" d="M1942.6,1044.44c-0.88,0-1.6-0.72-1.6-1.6v0v-11.17h-4.47v11.17
			c-0.06,0.88-0.82,1.55-1.7,1.49c-0.8-0.05-1.44-0.69-1.49-1.49v-12.77c0-0.88,0.72-1.6,1.6-1.6h0h7.66c0.88,0,1.6,0.72,1.6,1.6v0
			v12.77C1944.2,1043.73,1943.48,1044.44,1942.6,1044.44L1942.6,1044.44z"/>
	</g>
</g>
</svg>
